<svg width="203" height="171" viewBox="0 0 203 171" fill="none" xmlns="http://www.w3.org/2000/svg">
<path opacity="0.2" d="M36.7048 168.953L2.00914 149.598C-0.958844 147.928 -0.60269 145.019 2.84017 143.089L153.495 58.2667C156.938 56.337 162.132 56.1354 165.129 57.8059L199.825 77.1609C202.793 78.8315 202.437 81.7404 198.994 83.6702L48.3393 168.492C44.8964 170.422 39.7025 170.624 36.7048 168.953Z" fill="#92B4D1"/>
<path d="M8.74638 116.476C8.65734 116.476 8.56829 116.447 8.50893 116.36L6.69846 113.97C6.16423 113.25 5.86743 112.415 5.86743 111.522V106.597C5.86743 104.696 7.20301 103.054 9.10252 102.564L11.8331 101.902C12.0111 101.873 12.1596 101.959 12.1892 102.103C12.2189 102.247 12.1299 102.42 11.9815 102.449L9.25093 103.111C7.61854 103.515 6.49068 104.926 6.49068 106.568V111.493C6.49068 112.242 6.72814 112.991 7.20301 113.595L9.01348 115.986C9.10252 116.13 9.07283 116.303 8.95411 116.389C8.86507 116.476 8.80573 116.476 8.74638 116.476Z" fill="#A8CFF0"/>
<path d="M7.26227 112.875L5.77828 112.04C5.12533 111.666 4.59106 110.686 4.59106 109.851V105.531C4.59106 104.696 5.12533 104.292 5.77828 104.667L7.26227 105.502C7.91523 105.877 8.44945 106.856 8.44945 107.691V112.011C8.44945 112.847 7.91523 113.25 7.26227 112.875Z" fill="#A8CFF0"/>
<path d="M7.26197 105.531L5.77798 104.696C5.39214 104.494 5.06567 104.523 4.85791 104.753C5.00631 104.753 5.18438 104.782 5.36246 104.868L6.84645 105.704C7.49941 106.078 8.03362 107.057 8.03362 107.893V112.213C8.03362 112.559 7.9446 112.847 7.76652 113.019C8.15235 112.991 8.41948 112.616 8.41948 112.04V107.72C8.44916 106.885 7.91492 105.905 7.26197 105.531Z" fill="#72B5E8"/>
<path d="M121.292 106.597V114.546L148.894 99.0217V91.1011L121.292 106.597Z" fill="#03336E"/>
<path d="M121.292 106.596V114.546L113.546 110.254V102.305L121.292 106.596Z" fill="#084C94"/>
<path d="M113.545 102.305L121.292 106.596L148.894 91.1009L141.118 86.8093L113.545 102.305Z" fill="#2672AB"/>
<path d="M199.914 61.723V71.8325L200.923 71.0549V60.9741L199.914 61.723Z" fill="#03336E"/>
<path d="M199.914 61.7228V71.8323L175.102 58.2954V48.1858L199.914 61.7228Z" fill="#084C94"/>
<path d="M175.102 48.1859L199.914 61.7229L200.923 60.974L176.111 47.437L175.102 48.1859Z" fill="#2672AB"/>
<path d="M194.454 64.3151V79.3785L191.783 77.9097V62.7598L194.454 64.3151Z" fill="#A8CFF0"/>
<path d="M172.163 83.7564C172.163 86.3197 173.083 88.1631 174.567 89.0272C174.627 89.056 179.257 91.6769 179.316 91.7057C180.859 92.541 179.88 90.6401 182.225 89.3152C186.944 86.6654 190.802 80.2425 190.802 74.9717C190.802 72.3795 193.295 72.3507 191.752 71.4867C191.722 71.4579 186.766 68.8081 186.706 68.7793C185.163 67.9728 183.056 68.1168 180.741 69.4129C175.992 72.0627 172.163 78.4856 172.163 83.7564Z" fill="#084C94"/>
<path d="M177.119 86.4928C177.119 91.7636 180.948 93.895 185.697 91.2452C190.416 88.5954 194.274 82.1725 194.274 76.9017C194.274 71.6309 190.446 69.4996 185.697 72.1494C180.978 74.7992 177.119 81.222 177.119 86.4928Z" fill="#03336E"/>
<path d="M185.281 71.9476C187.537 70.6803 189.615 70.5076 191.128 71.2564C189.704 70.882 187.923 71.17 185.994 72.2357C181.275 74.8855 177.416 81.3083 177.416 86.5791C177.416 89.3153 178.455 91.2162 180.117 92.0227C178.04 91.4467 176.674 89.4305 176.674 86.2911C176.734 81.0203 180.562 74.5974 185.281 71.9476Z" fill="#2672AB"/>
<path d="M185.756 75.9224C182.699 77.6217 180.206 81.798 180.206 85.1967C180.206 88.5953 182.699 89.9778 185.756 88.2497C188.813 86.5504 191.306 82.3741 191.306 78.9754C191.306 75.6056 188.813 74.2231 185.756 75.9224Z" fill="#A8CFF0"/>
<path d="M189.348 75.4038C190.179 76.0087 190.713 77.1319 190.713 78.6584C190.713 82.0571 188.22 86.2046 185.163 87.9327C183.798 88.6816 182.551 88.8256 181.602 88.4512C182.611 89.2 184.124 89.2 185.786 88.2495C188.843 86.5502 191.337 82.3739 191.337 78.9752C191.307 77.1031 190.535 75.8646 189.348 75.4038Z" fill="#72B5E8"/>
<path d="M182.195 83.5261C182.195 85.3119 183.5 86.0319 185.074 85.1391C186.676 84.2462 187.952 82.086 187.952 80.3003C187.952 78.5146 186.647 77.7945 185.074 78.6874C183.5 79.5803 182.195 81.7404 182.195 83.5261Z" fill="#3F92D1"/>
<path d="M182.699 83.7852C182.699 85.5709 184.005 86.291 185.578 85.3981C187.181 84.5053 188.457 82.3451 188.457 80.5594C188.457 78.7736 187.151 78.0536 185.578 78.9464C183.975 79.8393 182.699 82.0282 182.699 83.7852Z" fill="#2672AB"/>
<path d="M153.613 94.3267C153.613 96.8901 154.533 98.7334 156.017 99.5975C156.076 99.6263 160.707 102.247 160.766 102.276C162.309 103.111 161.33 101.21 163.674 99.8855C168.394 97.2357 172.252 90.8128 172.252 85.542C172.252 82.9498 174.745 82.9211 173.202 82.057C173.172 82.0282 168.215 79.3784 168.156 79.3496C166.613 78.5431 164.506 78.6871 162.19 79.9832C157.442 82.633 153.613 89.0559 153.613 94.3267Z" fill="#084C94"/>
<path d="M158.569 97.0631C158.569 102.334 162.398 104.465 167.147 101.815C171.866 99.1657 175.724 92.7428 175.724 87.472C175.724 82.2013 171.895 80.0699 167.147 82.7197C162.398 85.3695 158.569 91.7923 158.569 97.0631Z" fill="#03336E"/>
<path d="M166.731 82.518C168.987 81.2507 171.065 81.0778 172.578 81.8267C171.154 81.4523 169.373 81.7403 167.444 82.806C162.725 85.4558 158.866 91.8786 158.866 97.1494C158.866 99.8856 159.905 101.787 161.567 102.593C159.49 102.017 158.124 100.001 158.124 96.8614C158.154 91.5906 162.012 85.1678 166.731 82.518Z" fill="#2672AB"/>
<path d="M167.206 86.5215C164.149 88.2209 161.656 92.3972 161.656 95.7958C161.656 99.1945 164.149 100.577 167.206 98.8488C170.263 97.1495 172.756 92.9732 172.756 89.5746C172.756 86.1759 170.263 84.7934 167.206 86.5215Z" fill="#A8CFF0"/>
<path d="M170.798 85.9744C171.629 86.5792 172.163 87.7025 172.163 89.229C172.163 92.6276 169.67 96.7751 166.613 98.5033C165.248 99.2809 164.001 99.3961 163.052 99.0217C164.061 99.7706 165.574 99.7705 167.236 98.8201C170.293 97.1208 172.786 92.9444 172.786 89.5458C172.757 87.7025 171.985 86.4352 170.798 85.9744Z" fill="#72B5E8"/>
<path d="M163.644 94.0962C163.644 95.8819 164.95 96.602 166.523 95.7091C168.126 94.8163 169.402 92.6561 169.402 90.8704C169.402 89.0847 168.096 88.3646 166.523 89.2575C164.95 90.1503 163.644 92.3105 163.644 94.0962Z" fill="#3F92D1"/>
<path d="M164.12 94.3846C164.12 96.1703 165.426 96.8903 166.999 95.9975C168.601 95.1046 169.878 92.9445 169.878 91.1588C169.878 89.373 168.572 88.6529 166.999 89.5458C165.426 90.4387 164.12 92.5988 164.12 94.3846Z" fill="#2672AB"/>
<path d="M154.058 86.9247V101.988L156.818 100.433V88.4512L194.423 67.3969V79.3785L197.213 77.8233V62.7598L154.058 86.9247Z" fill="#72B5E8"/>
<path d="M154.029 86.9535V102.017L151.358 100.548V85.3982L154.029 86.9535Z" fill="#A8CFF0"/>
<path d="M125.834 113.221L127.258 114.027L150.141 101.239L148.717 100.462L125.834 113.221Z" fill="#D1EBFF"/>
<path d="M150.171 93.0882V101.239L148.717 100.462V92.2529L150.171 93.0882Z" fill="#A8CFF0"/>
<path d="M125.182 105.992V117.57L152.279 102.334V90.8418L125.182 105.992ZM150.142 101.153L127.289 114.027V107.173L150.142 94.3844V101.153Z" fill="#72B5E8"/>
<path d="M125.181 105.991V117.57L123.4 116.706V105.041L125.181 105.991Z" fill="#A8CFF0"/>
<path d="M123.4 105.041L125.181 105.992L152.249 90.8419L150.468 89.9202L123.4 105.041Z" fill="#D1EBFF"/>
<path d="M99.3286 124.943C99.3286 127.507 100.249 129.35 101.733 130.214C101.762 130.243 106.422 132.864 106.481 132.893C108.025 133.728 107.045 131.827 109.39 130.502C114.109 127.852 117.968 121.43 117.968 116.159C117.968 113.567 120.461 113.538 118.917 112.674C118.888 112.645 113.931 109.995 113.872 109.966C112.328 109.16 110.221 109.304 107.906 110.6C103.157 113.25 99.3286 119.673 99.3286 124.943Z" fill="#084C94"/>
<path d="M104.285 127.68C104.285 132.951 108.114 135.082 112.862 132.432C117.581 129.782 121.44 123.359 121.44 118.089C121.44 112.818 117.611 110.687 112.862 113.336C108.143 115.986 104.285 122.409 104.285 127.68Z" fill="#03336E"/>
<path d="M112.447 113.135C114.703 111.867 116.78 111.695 118.294 112.443C116.869 112.069 115.088 112.357 113.159 113.423C108.44 116.072 104.582 122.495 104.582 127.766C104.582 130.502 105.621 132.403 107.283 133.21C105.205 132.634 103.84 130.618 103.84 127.478C103.899 122.207 107.728 115.784 112.447 113.135Z" fill="#2672AB"/>
<path d="M112.922 117.109C109.865 118.808 107.372 122.985 107.372 126.383C107.372 129.782 109.865 131.165 112.922 129.436C115.979 127.737 118.472 123.561 118.472 120.162C118.472 116.792 115.979 115.41 112.922 117.109Z" fill="#A8CFF0"/>
<path d="M116.514 116.591C117.345 117.196 117.879 118.319 117.879 119.845C117.879 123.244 115.386 127.392 112.329 129.12C110.963 129.869 109.717 130.013 108.767 129.638C109.776 130.387 111.29 130.387 112.952 129.437C116.009 127.737 118.502 123.561 118.502 120.162C118.472 118.319 117.701 117.052 116.514 116.591Z" fill="#72B5E8"/>
<path d="M109.36 124.713C109.36 126.499 110.666 127.219 112.239 126.326C113.842 125.433 115.118 123.273 115.118 121.487C115.118 119.701 113.812 118.981 112.239 119.874C110.666 120.767 109.36 122.927 109.36 124.713Z" fill="#3F92D1"/>
<path d="M109.864 124.972C109.864 126.758 111.17 127.478 112.743 126.585C114.346 125.692 115.622 123.532 115.622 121.747C115.622 119.961 114.316 119.241 112.743 120.134C111.14 121.027 109.864 123.216 109.864 124.972Z" fill="#2672AB"/>
<path d="M68.1943 138.135V149.742L103.929 129.696V118.233L68.1943 138.135Z" fill="#72B5E8"/>
<path d="M93.7493 123.964V135.139L94.3132 134.851V123.647L93.7493 123.964Z" fill="#A8CFF0"/>
<path d="M94.3132 123.676V134.851L94.6694 134.679V123.475L94.3132 123.676Z" fill="#A8CFF0"/>
<path d="M68.1943 141.13V148.849L92.0272 135.485C92.0272 132.086 88.2282 129.955 85.1712 131.654L68.1943 141.13Z" fill="#A8CFF0"/>
<path d="M85.1712 131.654L68.1943 141.13V142.167L85.1712 132.691C87.9017 131.165 91.2555 132.749 91.9085 135.572L92.0272 135.514C92.0272 132.087 88.2282 129.955 85.1712 131.654Z" fill="#A8CFF0"/>
<path d="M68.1947 138.135V149.742L39.9692 134.16V122.495L68.1947 138.135Z" fill="#A8CFF0"/>
<path d="M39.9692 122.495L68.1948 138.135L103.929 118.233L75.6741 102.593L39.9692 122.495Z" fill="#D1EBFF"/>
<path d="M201.754 19.5564V61.4922L73.092 134.074V92.0225L201.754 19.5564Z" fill="#084C94"/>
<path opacity="0.3" d="M199.705 22.9841L75.1094 93.1749V130.646L199.705 60.3405V22.9841Z" fill="#2672AB"/>
<path d="M198.429 59.8508V23.7042L199.705 22.9841V60.3405L75.1094 130.646V129.437L198.429 59.8508Z" fill="#03336E"/>
<path d="M73.0915 92.0227V134.074L37.8022 114.604V72.4661L73.0915 92.0227Z" fill="#2672AB"/>
<path d="M37.8025 72.4661L73.0918 92.0227L201.754 19.5567L166.435 0L37.8025 72.4661Z" fill="#3F92D1"/>
<g opacity="0.3">
<path d="M78.5233 92.1665L77.9297 92.4833V127.795L78.5233 127.478V92.1665Z" fill="#03336E"/>
<path d="M83.5398 89.3152L82.9758 89.6608V124.972L83.5398 124.627V89.3152Z" fill="#03336E"/>
<path d="M88.5844 86.4927L88.0205 86.8383V122.15L88.5844 121.804V86.4927Z" fill="#03336E"/>
<path d="M93.6003 83.6699L93.0364 83.9867V119.298L93.6003 118.981V83.6699Z" fill="#03336E"/>
<path d="M98.646 80.8186L98.082 81.1643V116.476L98.646 116.13V80.8186Z" fill="#03336E"/>
<path d="M103.691 77.9958L103.098 78.3415V113.653L103.691 113.307V77.9958Z" fill="#03336E"/>
<path d="M108.708 75.1733L108.144 75.4902V110.802L108.708 110.485V75.1733Z" fill="#03336E"/>
<path d="M113.753 72.322L113.189 72.6676V107.979L113.753 107.633V72.322Z" fill="#03336E"/>
<path d="M118.769 69.4993L118.205 69.8449V105.156L118.769 104.811V69.4993Z" fill="#03336E"/>
<path d="M123.814 66.6768L123.25 66.9936V102.305L123.814 101.988V66.6768Z" fill="#03336E"/>
<path d="M128.861 63.8254L128.297 64.1711V99.4825L128.861 99.1368V63.8254Z" fill="#03336E"/>
<path d="M133.876 61.0027L133.312 61.3483V96.6597L133.876 96.314V61.0027Z" fill="#03336E"/>
<path d="M138.921 58.1802L138.357 58.5258V93.8084L138.921 93.4916V58.1802Z" fill="#03336E"/>
<path d="M143.967 55.3289L143.373 55.6745V90.9858L143.967 90.6402V55.3289Z" fill="#03336E"/>
<path d="M148.983 52.5061L148.419 52.8518V88.1631L148.983 87.8175V52.5061Z" fill="#03336E"/>
<path d="M154.029 49.6833L153.465 50.029V85.3404L154.029 84.9948V49.6833Z" fill="#03336E"/>
<path d="M159.045 46.832L158.481 47.1776V82.489L159.045 82.1434V46.832Z" fill="#03336E"/>
<path d="M164.089 44.0095L163.525 44.3552V79.6665L164.089 79.3209V44.0095Z" fill="#03336E"/>
<path d="M169.135 41.1868L168.542 41.5324V76.8438L169.135 76.4981V41.1868Z" fill="#03336E"/>
<path d="M174.152 38.3643L173.588 38.6811V73.9924L174.152 73.6468V38.3643Z" fill="#03336E"/>
<path d="M179.198 35.5129L178.634 35.8586V71.17L179.198 70.8243V35.5129Z" fill="#03336E"/>
<path d="M184.213 32.6902L183.649 33.0358V68.3472L184.213 68.0015V32.6902Z" fill="#03336E"/>
<path d="M189.258 29.8677L188.694 30.1845V65.4959L189.258 65.179V29.8677Z" fill="#03336E"/>
<path d="M194.304 27.0164L193.74 27.362V62.6734L194.304 62.3277V27.0164Z" fill="#03336E"/>
</g>
<g opacity="0.3">
<path d="M79.0876 91.4177L78.5237 91.7633V127.075L79.0876 126.729V91.4177Z" fill="#3F92D1"/>
<path d="M84.1337 88.5664L83.5698 88.9121V124.223L84.1337 123.878V88.5664Z" fill="#3F92D1"/>
<path d="M89.1793 85.7437L88.5857 86.0893V121.401L89.1793 121.055V85.7437Z" fill="#3F92D1"/>
<path d="M94.1945 82.9211L93.6306 83.2668V118.578L94.1945 118.233V82.9211Z" fill="#3F92D1"/>
<path d="M99.2404 80.0698L98.6765 80.4154V115.727L99.2404 115.381V80.0698Z" fill="#3F92D1"/>
<path d="M104.256 77.2471L103.692 77.5927V112.904L104.256 112.558V77.2471Z" fill="#3F92D1"/>
<path d="M109.302 74.4243L108.739 74.77V110.081L109.302 109.736V74.4243Z" fill="#3F92D1"/>
<path d="M114.348 71.6018L113.754 71.9186V107.23L114.348 106.884V71.6018Z" fill="#3F92D1"/>
<path d="M119.363 68.7505L118.799 69.0961V104.407L119.363 104.062V68.7505Z" fill="#3F92D1"/>
<path d="M124.409 65.9277L123.845 66.2734V101.585L124.409 101.239V65.9277Z" fill="#3F92D1"/>
<path d="M129.424 63.1052L128.86 63.422V98.7334L129.424 98.4166V63.1052Z" fill="#3F92D1"/>
<path d="M134.471 60.2539L133.907 60.5996V95.9109L134.471 95.5653V60.2539Z" fill="#3F92D1"/>
<path d="M139.516 57.4312L138.952 57.7768V93.0882L139.516 92.7425V57.4312Z" fill="#3F92D1"/>
<path d="M144.531 54.6086L143.967 54.9255V90.2368L144.531 89.92V54.6086Z" fill="#3F92D1"/>
<path d="M149.577 51.7573L149.013 52.1029V87.4143L149.577 87.0687V51.7573Z" fill="#3F92D1"/>
<path d="M154.622 48.9346L154.029 49.2802V84.5916L154.622 84.2459V48.9346Z" fill="#3F92D1"/>
<path d="M159.639 46.1121L159.075 46.4289V81.7402L159.639 81.4234V46.1121Z" fill="#3F92D1"/>
<path d="M164.684 43.2605L164.12 43.6061V78.9175L164.684 78.5719V43.2605Z" fill="#3F92D1"/>
<path d="M169.699 40.438L169.135 40.7836V76.095L169.699 75.7493V40.438Z" fill="#3F92D1"/>
<path d="M174.746 37.6152L174.182 37.9321V73.2435L174.746 72.9266V37.6152Z" fill="#3F92D1"/>
<path d="M179.791 34.7639L179.198 35.1095V70.4209L179.791 70.0753V34.7639Z" fill="#3F92D1"/>
<path d="M184.807 31.9414L184.243 32.2871V67.5984L184.807 67.2528V31.9414Z" fill="#3F92D1"/>
<path d="M189.852 29.1187L189.288 29.4643V64.7468L189.852 64.4301V29.1187Z" fill="#3F92D1"/>
<path d="M194.898 26.2673L194.304 26.6129V61.9243L194.898 61.5787V26.2673Z" fill="#3F92D1"/>
</g>
<path d="M37.8618 85.2542L14.6522 98.3591C11.8029 99.9144 9.75505 102.564 8.9537 105.617L5.68895 118.089C4.70951 121.833 4.23462 125.663 4.23462 129.494V144.154L37.3276 162.329V149.339C37.3276 144.586 38.0696 139.863 39.5536 135.341L43.7681 122.38C44.6882 119.586 46.6471 117.196 49.2886 115.756L70.9845 103.486L37.8618 85.2542Z" fill="#A8CFF0"/>
<path d="M37.2983 149.281V162.357L55.0172 152.478L56.3825 144.903L70.9849 136.464V103.486L49.1999 115.813C46.5584 117.282 44.5699 119.644 43.6795 122.466L39.4947 135.399C38.0404 139.892 37.2983 144.558 37.2983 149.281Z" fill="#72B5E8"/>
<path d="M37.7432 149.195C37.7432 144.5 38.4852 139.805 39.9395 135.312L44.1244 122.38C45.0444 119.557 47.0033 117.196 49.6448 115.727L70.7471 103.803V103.255L48.9622 115.583C46.3207 117.052 44.3321 119.413 43.4417 122.236L39.2569 135.168C37.8026 139.661 37.0605 144.327 37.0605 149.051V162.127L37.7432 161.752V149.195Z" fill="#D1EBFF"/>
<path d="M45.6676 123.071L41.4827 136.032C41.1859 136.925 42.195 137.703 43.0261 137.213L56.1445 129.782C57.0052 129.293 57.5395 128.4 57.5395 127.421V116.793C57.5395 115.986 56.6491 115.496 55.9367 115.9L47.8045 120.508C46.8251 121.084 46.0237 121.977 45.6676 123.071Z" fill="#03336E"/>
<path d="M56.471 115.756C56.7678 115.928 56.9458 116.245 56.9458 116.62V127.248C56.9458 128.227 56.4116 129.12 55.5509 129.609L42.4324 137.04C42.2543 137.127 42.0763 137.184 41.8982 137.184C42.195 137.386 42.6105 137.444 42.9963 137.213L56.1148 129.782C56.9755 129.293 57.5097 128.4 57.5097 127.42V116.792C57.5394 116.188 57.0349 115.756 56.471 115.756Z" fill="#001A46"/>
<path d="M31.6587 139.114V143.924C31.6587 149.022 25.9898 152.219 21.4191 149.684L16.6704 147.063C11.4764 144.183 8.271 138.826 8.271 133.008V126.095L31.6587 139.114Z" fill="#3F92D1"/>
<path d="M24.8026 148.791C23.9419 148.791 23.1109 148.561 22.3392 148.129L17.5904 145.508C12.9604 142.945 10.1111 138.163 10.1111 132.979V127.564L29.8482 138.567V143.895C29.8482 146.919 27.2364 148.791 24.8026 148.791Z" fill="#03336E"/>
<path d="M25.2775 148.676C24.4167 148.676 23.5857 148.446 22.814 148.014L18.0653 145.393C13.4352 142.829 10.586 138.048 10.586 132.864V127.823L10.1111 127.564V132.979C10.1111 138.135 12.99 142.945 17.5904 145.508L22.3392 148.129C23.1109 148.561 23.9419 148.791 24.8026 148.791C25.2775 148.791 25.7523 148.734 26.1975 148.59C25.9007 148.647 25.6039 148.676 25.2775 148.676Z" fill="#001A46"/>
<path d="M12.5745 140.9L26.2866 148.561C26.6131 148.475 26.9395 148.331 27.2363 148.158L11.7138 139.517C11.9809 139.978 12.248 140.468 12.5745 140.9ZM10.675 136.896L28.7203 146.977C28.8984 146.775 29.0468 146.545 29.1952 146.315L10.4079 135.831C10.4673 136.176 10.586 136.522 10.675 136.896ZM10.1111 132.979C10.1111 133.21 10.1111 133.411 10.1408 133.613L29.7888 144.586C29.8185 144.356 29.8482 144.126 29.8482 143.895V143.665L10.1111 132.662V132.979ZM10.1111 129.725V130.675L29.8482 141.677V140.727L10.1111 129.725Z" fill="#3F92D1"/>
<path d="M11.9818 139.921L26.9701 148.273C27.0592 148.216 27.1779 148.187 27.2669 148.129L11.7444 139.489C11.8037 139.633 11.8928 139.777 11.9818 139.921Z" fill="#72B5E8"/>
<path d="M10.4968 136.147L29.0466 146.516C29.106 146.43 29.1653 146.372 29.195 146.315L10.4077 135.831C10.4374 135.917 10.4671 136.032 10.4968 136.147Z" fill="#72B5E8"/>
<path d="M10.1117 132.979L29.8191 143.982C29.8191 143.953 29.8191 143.924 29.8191 143.895V143.665L10.082 132.662V132.979H10.1117Z" fill="#72B5E8"/>
<path d="M10.1111 129.725V130.013L29.8482 141.015V140.727L10.1111 129.725Z" fill="#72B5E8"/>
<path d="M36.1399 137.357C35.8134 137.357 35.487 137.271 35.1902 137.098L8.32994 122.322C7.05371 121.602 6.40076 120.162 6.75691 118.78L10.1107 105.934C10.2888 105.272 10.5262 104.638 10.823 104.004C11.0308 103.601 11.4463 103.342 11.8915 103.342C12.0993 103.342 12.2773 103.399 12.4554 103.486L41.69 119.788C42.4617 120.22 42.8179 121.113 42.5507 121.977L37.98 136.032C37.7723 136.839 37.0006 137.357 36.1399 137.357Z" fill="#084C94"/>
<path opacity="0.5" d="M6.78676 118.78L10.1406 105.934C10.3187 105.272 10.5561 104.638 10.8529 104.004C11.0606 103.601 11.4762 103.342 11.9214 103.342C12.1291 103.342 12.3072 103.399 12.4853 103.486L41.7199 119.788C42.5212 120.22 6.40092 120.162 6.78676 118.78Z" fill="#2672AB"/>
<path d="M36.7627 135.888C36.4066 135.888 36.0801 135.802 35.7833 135.629L8.53723 120.623C7.61715 120.105 7.02355 119.212 6.90483 118.232L6.75647 118.751C6.40031 120.133 7.02358 121.602 8.32949 122.294L35.1897 137.069C35.4865 137.242 35.813 137.328 36.1394 137.328C37.0002 137.328 37.7422 136.781 38.0093 136.003L38.2764 135.168C37.9202 135.629 37.386 135.888 36.7627 135.888Z" fill="#001A46"/>
<path d="M23.0217 121.977L15.4237 120.364C15.3347 120.306 15.2456 120.277 15.1269 120.306L10.6453 119.356C10.4672 119.327 10.3188 119.413 10.2891 119.586C10.2594 119.759 10.3484 119.903 10.5265 119.932L14.9785 120.882L16.4328 125.75C16.4625 125.865 16.5812 125.951 16.7296 125.951C16.7593 125.951 16.789 125.951 16.8187 125.951C16.9671 125.894 17.0858 125.75 17.0264 125.577L15.6612 121.026L22.8733 122.553C22.903 122.553 22.903 122.553 22.903 122.553C23.0514 122.553 23.1998 122.466 23.2295 122.322C23.2888 122.15 23.1998 122.006 23.0217 121.977Z" fill="#001A46"/>
<path d="M35.0124 128.486L27.4144 126.873C27.3253 126.816 27.2363 126.787 27.1176 126.816L22.6359 125.865C22.4579 125.836 22.3095 125.923 22.2798 126.095C22.2501 126.268 22.3392 126.412 22.5172 126.441L26.9692 127.392L28.4235 132.259C28.4532 132.374 28.5719 132.461 28.7203 132.461C28.75 132.461 28.7797 132.461 28.8093 132.461C28.9577 132.403 29.0765 132.259 29.0171 132.086L27.6518 127.536L34.864 129.062C34.8937 129.062 34.8937 129.062 34.9234 129.062C35.0718 129.062 35.1905 128.976 35.2202 128.832C35.2795 128.659 35.1905 128.515 35.0124 128.486Z" fill="#001A46"/>
<path d="M60.0625 129.091L58.1333 130.185C57.7178 130.416 57.4507 130.877 57.4507 131.366V131.453C57.4507 131.942 57.9849 132.23 58.4301 132L60.1515 131.021C60.567 130.79 60.8045 130.358 60.8045 129.897V129.552C60.8341 129.12 60.389 128.889 60.0625 129.091Z" fill="#A8CFF0"/>
<path d="M60.1509 130.992L58.4295 131.971C58.0139 132.202 57.5094 131.942 57.4797 131.482V131.539V131.856C57.4797 132.346 58.014 132.634 58.4592 132.403L60.1806 131.424C60.5961 131.194 60.8336 130.762 60.8336 130.301V129.869C60.8336 130.329 60.5664 130.762 60.1509 130.992Z" fill="#A8CFF0"/>
<path d="M56.5899 135.542L70.9549 136.464L56.4119 144.788L56.5899 135.542Z" fill="#A8CFF0"/>
<path d="M66.5919 142.657V149.022L61.6057 146.286L61.9322 139.949L66.5919 142.657Z" fill="#3F92D1"/>
<path d="M44.3616 155.848C44.3616 158.44 45.2816 160.284 46.7656 161.148C46.825 161.177 51.2769 163.682 51.3363 163.711C52.8796 164.546 51.9002 162.645 54.2746 161.321C59.0234 158.642 62.8817 152.19 62.8817 146.891C62.8817 144.27 65.3748 144.241 63.8612 143.377C63.8315 143.348 59.053 140.785 58.9937 140.756C57.4503 139.949 55.3134 140.093 52.9687 141.389C48.2199 144.068 44.3616 150.549 44.3616 155.848Z" fill="#084C94"/>
<path d="M49.1399 158.469C49.1399 163.768 52.9982 165.9 57.747 163.25C62.4958 160.571 66.3542 154.12 66.3542 148.82C66.3542 143.521 62.4958 141.389 57.747 144.039C52.9982 146.718 49.1399 153.169 49.1399 158.469Z" fill="#03336E"/>
<path d="M51.6033 157.087C51.6033 160.86 54.3635 162.386 57.747 160.485C61.1305 158.584 63.8907 153.976 63.8907 150.203C63.8907 146.43 61.1305 144.903 57.747 146.804C54.3635 148.705 51.6033 153.314 51.6033 157.087Z" fill="#A8CFF0"/>
<path d="M61.2497 146.055C62.3478 146.689 63.0305 147.985 63.0305 149.857C63.0305 153.63 60.2703 158.239 56.8868 160.14C55.5808 160.86 54.364 161.09 53.3845 160.888C54.5124 161.522 56.0557 161.436 57.7475 160.485C61.131 158.584 63.8912 153.976 63.8912 150.203C63.8912 147.87 62.8524 146.401 61.2497 146.055Z" fill="#72B5E8"/>
<path d="M57.3325 143.838C59.6178 142.57 61.6954 142.397 63.2388 143.146C61.8141 142.743 60.0333 143.06 58.0745 144.126C53.3257 146.804 49.4673 153.256 49.4673 158.555C49.4673 161.32 50.5061 163.221 52.1979 164.028C50.0906 163.452 48.7253 161.436 48.7253 158.267C48.7253 152.968 52.5837 146.516 57.3325 143.838Z" fill="#2672AB"/>
<path d="M56.8865 148.072C56.4413 148.331 56.0851 148.907 56.0851 149.425C56.0851 149.915 56.4413 150.117 56.8865 149.857C57.3316 149.598 57.6878 149.022 57.6878 148.504C57.6878 148.043 57.3316 147.841 56.8865 148.072ZM56.8865 157.202C56.4413 157.461 56.0851 158.037 56.0851 158.556C56.0851 159.045 56.4413 159.247 56.8865 158.988C57.3316 158.728 57.6878 158.152 57.6878 157.634C57.6878 157.144 57.3316 156.943 56.8865 157.202ZM59.2015 149.627C59.5279 149.8 60.0325 149.512 60.3293 148.993C60.6558 148.475 60.6558 147.899 60.3293 147.726C60.0028 147.553 59.4983 147.841 59.2015 148.36C58.9047 148.907 58.9047 149.454 59.2015 149.627ZM54.5417 157.432C54.2152 157.26 53.7107 157.548 53.4139 158.066C53.0874 158.584 53.0874 159.16 53.4139 159.333C53.7404 159.506 54.2449 159.218 54.5417 158.7C54.8682 158.181 54.8682 157.605 54.5417 157.432ZM60.9822 150.347C60.537 150.606 60.1809 151.182 60.1809 151.701C60.1809 152.19 60.537 152.392 60.9822 152.133C61.4274 151.874 61.7836 151.297 61.7836 150.779C61.7836 150.289 61.4274 150.088 60.9822 150.347ZM52.7906 154.927C52.3454 155.186 51.9893 155.762 51.9893 156.28C51.9893 156.799 52.3454 156.971 52.7906 156.712C53.2358 156.453 53.592 155.877 53.592 155.359C53.592 154.898 53.2358 154.696 52.7906 154.927ZM60.3293 154.178C60.0028 154.005 59.4983 154.293 59.2015 154.811C58.875 155.33 58.875 155.906 59.2015 156.079C59.5279 156.251 60.0325 155.963 60.3293 155.445C60.6558 154.927 60.6558 154.35 60.3293 154.178ZM54.5417 150.981C54.2152 150.808 53.7107 151.096 53.4139 151.614C53.0874 152.133 53.0874 152.709 53.4139 152.882C53.7404 153.054 54.2449 152.766 54.5417 152.248C54.8682 151.729 54.8682 151.153 54.5417 150.981Z" fill="#03336E"/>
<path d="M54.3933 154.581C54.3933 155.301 54.6604 155.791 55.0463 156.05C55.0463 156.05 56.0257 156.626 56.0554 156.626C56.4709 156.856 56.2038 156.338 56.8567 155.963C58.1626 155.215 59.2311 153.458 59.2311 151.989C59.2311 151.269 59.9138 151.269 59.4982 151.009C59.4982 151.009 58.4298 150.433 58.4298 150.405C58.0142 150.174 57.4207 150.232 56.7677 150.577C55.4618 151.326 54.3933 153.112 54.3933 154.581Z" fill="#3F92D1"/>
<path d="M55.4612 155.186C55.4612 156.654 56.5297 157.231 57.8356 156.51C59.1415 155.762 60.21 154.005 60.21 152.536C60.21 151.067 59.1415 150.491 57.8356 151.211C56.5297 151.931 55.4612 153.717 55.4612 155.186Z" fill="#2672AB"/>
<path d="M46.9449 162.847V153.659L53.1479 143.319L61.8441 138.452L56.5908 135.543L47.8649 140.439L41.6619 150.75V159.967L46.9449 162.847Z" fill="#D1EBFF"/>
<path d="M46.9449 162.847V153.659L53.1479 143.319L61.8441 138.452L56.5908 135.543L47.8649 140.439L41.6619 150.75V159.967L46.9449 162.847Z" fill="#D1EBFF"/>
<path opacity="0.7" d="M46.9449 162.847V153.659L41.6619 150.75V159.967L46.9449 162.847Z" fill="#72B5E8"/>
<path d="M46.9449 153.659L53.1479 143.319L47.8649 140.439L41.6619 150.75L46.9449 153.659Z" fill="#A8CFF0"/>
<path d="M48.4283 162.098V154.034L54.1862 144.356L61.8733 140.065L66.5923 142.657V149.022L68.0467 148.216V141.85L61.8733 138.423L53.1474 143.319L46.9443 153.659V162.905L48.4283 162.098Z" fill="#72B5E8"/>
<path d="M1.74194 141.073L34.8349 160.14C36.4376 161.032 38.4262 161.032 40.0586 160.14L46.2616 156.77V162.242L40.0289 165.641C38.3965 166.534 36.4079 166.534 34.8052 165.641L2.92912 147.87C2.2168 147.467 1.77161 146.718 1.77161 145.94V141.073H1.74194Z" fill="#2672AB"/>
<path d="M39.9982 154.35C39.9982 154.754 39.7608 155.099 39.3749 155.243C37.8909 155.819 36.1992 155.733 34.7746 154.955L30.0555 152.334H30.0258C29.0167 151.758 29.1354 150.318 30.2039 149.886L32.4892 148.763C32.8454 148.619 33.2609 148.648 33.617 148.792C34.9823 149.397 37.0599 150.75 38.9594 150.145C39.5233 149.973 40.0279 150.549 40.0279 151.125L39.9982 154.35Z" fill="#2672AB"/>
<path d="M2.30525 142.109L34.8343 160.14C36.437 161.032 38.4256 161.032 40.0579 160.14L46.261 156.77L44.5692 155.819L40.0876 158.267C38.4552 159.189 36.4667 159.16 34.8343 158.267L4.26408 141.159V138.97L2.27554 140.151C1.50387 140.612 1.53358 141.677 2.30525 142.109Z" fill="#3F92D1"/>
<path d="M4.20581 140.813H4.23547L4.26514 138.999H4.20581V140.813Z" fill="#72B5E8"/>
<path d="M45.8756 156.568L39.9991 159.765C38.3964 160.658 36.4078 160.658 34.8051 159.765L2.27603 141.735C2.00891 141.591 1.83085 141.332 1.74181 141.073C1.71213 141.476 1.9199 141.879 2.30573 142.11L34.8348 160.14C36.4375 161.033 38.426 161.033 40.0584 160.14L46.2615 156.77L45.8756 156.568Z" fill="#72B5E8"/>
<path d="M46.4701 137.213C46.3811 137.213 46.2624 137.156 46.203 137.069C46.114 136.925 46.1733 136.752 46.2921 136.666L48.3696 135.456C49.4678 134.823 50.1504 133.642 50.1504 132.403V124.569C50.1504 123.388 49.5272 122.265 48.518 121.602L46.4998 120.278C46.3514 120.191 46.3218 119.99 46.4108 119.874C46.4998 119.73 46.7076 119.701 46.8263 119.788L48.8445 121.113C50.0317 121.89 50.744 123.187 50.744 124.569V132.403C50.744 133.843 49.9427 135.197 48.6665 135.946L46.5889 137.156C46.5592 137.213 46.5295 137.213 46.4701 137.213Z" fill="#A8CFF0"/>
<path d="M51.7527 132.864L50.2687 132.029C49.6158 131.654 49.0815 130.675 49.0815 129.84V125.519C49.0815 124.684 49.6158 124.281 50.2687 124.655L51.7527 125.491C52.4057 125.865 52.9399 126.844 52.9399 127.68V132C52.9102 132.835 52.4057 133.238 51.7527 132.864Z" fill="#A8CFF0"/>
<path d="M51.7527 125.52L50.2687 124.684C49.8829 124.483 49.5564 124.512 49.3486 124.742C49.497 124.742 49.6751 124.771 49.8532 124.857L51.3372 125.692C51.9901 126.067 52.5244 127.046 52.5244 127.881V132.202C52.5244 132.547 52.4354 132.835 52.2573 133.008C52.6431 132.979 52.9102 132.605 52.9102 132.029V127.709C52.9102 126.845 52.4056 125.865 51.7527 125.52Z" fill="#72B5E8"/>
<path d="M71.0144 93.7508L38.4557 75.6343L26.1683 82.7772C20.8556 85.7726 17.5908 91.3026 17.5908 97.2646L17.6502 97.2359L50.1199 115.18L71.0144 93.7508Z" fill="#D1EBFF"/>
<path opacity="0.5" d="M57.7175 107.403L63.1489 101.844L27.5628 81.9707L26.2272 82.7483C24.2683 83.8716 22.5766 85.3117 21.241 87.0111L57.7175 107.403Z" fill="white"/>
<path d="M49.8818 115.064L70.8061 103.14V93.6069L58.4593 100.606C53.1466 103.572 49.8818 109.102 49.8818 115.064Z" fill="white"/>
<path d="M50.1194 115.151L71.0436 103.227V93.6931L58.6968 100.692C53.3842 103.659 50.1194 109.189 50.1194 115.151Z" fill="#72B5E8"/>
<path d="M4.20581 134.592V138.365C4.20581 138.653 4.38387 138.941 4.65099 139.085L7.32215 140.41C7.82671 140.669 8.39063 140.18 8.21255 139.661L7.14408 136.493C6.99568 136.09 6.66924 135.744 6.25372 135.543L4.20581 134.592Z" fill="#2672AB"/>
<path d="M30.1153 151.73L35.9622 154.927C36.4965 155.215 37.1791 154.84 37.1791 154.235V151.758C37.1791 150.952 36.7339 150.232 35.9919 149.857L34.1518 148.907C33.4098 148.533 32.5194 148.59 31.8368 149.08L30.0263 150.376C29.5514 150.75 29.6108 151.442 30.1153 151.73Z" fill="white"/>
<path d="M4.20581 135.86V138.02C4.20581 138.308 4.38387 138.596 4.65099 138.74L7.32215 140.065C7.82671 140.324 8.39063 139.834 8.21255 139.316L7.14408 136.493C6.99568 136.09 6.66924 135.744 6.25372 135.543L5.36332 135.14C4.82908 134.88 4.20581 135.255 4.20581 135.86Z" fill="#D1EBFF"/>
<path d="M4.20581 135.86C4.20581 135.86 7.82674 140.151 8.00482 140.036C8.21258 139.892 8.3313 139.604 8.24226 139.316L7.17379 136.493C7.02539 136.09 6.6989 135.744 6.28339 135.543L5.39298 135.14C4.82907 134.88 4.20581 135.255 4.20581 135.86Z" fill="white"/>
<path d="M11.0612 152.363L11.0315 151.355C11.0315 150.26 12.2484 149.598 13.1982 150.145L22.6957 155.445C24.1797 156.28 25.0701 157.807 25.0701 159.448V160.255L11.0612 152.363Z" fill="#3F92D1"/>
<path d="M37.1196 151.24C36.9712 150.664 36.5854 150.145 36.0215 149.886L34.1813 148.936C33.4393 148.561 32.5489 148.619 31.8663 149.108L30.0558 150.404C29.759 150.606 29.67 150.952 29.759 151.24H37.1196Z" fill="#D1EBFF"/>
<path d="M31.5405 149.569L32.5496 151.614C32.5496 151.614 34.182 150.232 33.8555 149.598C33.5587 148.993 31.5405 149.569 31.5405 149.569Z" fill="#FFCC00"/>
<path d="M32.8767 151.009C32.8767 151.528 32.4908 151.729 32.0456 151.47C31.5708 151.211 31.2146 150.577 31.2146 150.059C31.2146 149.541 31.6004 149.339 32.0456 149.598C32.4908 149.857 32.8767 150.491 32.8767 151.009Z" fill="#FFDE17"/>
<path d="M4.73901 136.666L5.80749 138.826C5.80749 138.826 7.52892 137.386 7.20244 136.723C6.87596 136.061 4.73901 136.666 4.73901 136.666Z" fill="#FFCC00"/>
<path d="M6.13432 138.221C6.13432 138.768 5.74847 138.999 5.24392 138.711C4.73936 138.423 4.35352 137.76 4.35352 137.213C4.35352 136.666 4.73936 136.435 5.24392 136.723C5.74847 137.011 6.13432 137.674 6.13432 138.221Z" fill="#FFDE17"/>
<path d="M33.0537 151.384L34.0628 153.458C34.0628 153.458 37.1495 151.614 36.823 150.981C36.5262 150.318 33.0537 151.384 33.0537 151.384Z" fill="#FFCC00"/>
<path d="M34.3892 152.853C34.3892 153.371 34.0033 153.573 33.5284 153.314C33.0535 153.054 32.6677 152.421 32.6677 151.902C32.6677 151.384 33.0535 151.182 33.5284 151.441C34.0033 151.701 34.3892 152.334 34.3892 152.853Z" fill="#FFDE17"/>
<path d="M37.2091 154.235V151.758C37.2091 150.952 36.7639 150.232 36.0219 149.857L34.1817 148.907C33.4397 148.533 32.5493 148.59 31.8667 149.08L37.2091 154.235Z" fill="url(#paint0_radial_439_4762)"/>
<path d="M22.4284 156.367V158.844L13.2573 153.803V151.269L22.4284 156.367Z" fill="#D1EBFF"/>
<path d="M13.2573 151.269V151.643L22.1316 156.568V158.671L22.4284 158.844V156.367L13.2573 151.269Z" fill="white"/>
<path d="M31.6293 137.098V139.575L8.30103 126.758V124.223L31.6293 137.098Z" fill="#3F92D1"/>
<path d="M31.6293 137.098V137.616L8.30103 124.799V124.223L31.6293 137.098Z" fill="#72B5E8"/>
<path d="M4.20581 135.86V138.02C4.20581 138.308 7.14408 136.464 7.14408 136.464C6.99568 136.061 6.66924 135.716 6.25372 135.514L5.36332 135.111C4.82908 134.88 4.20581 135.255 4.20581 135.86Z" fill="url(#paint1_radial_439_4762)"/>
<path d="M34.1527 162.617C34.1527 163.337 33.6184 163.625 32.9952 163.25C32.3422 162.905 31.8376 162.012 31.8376 161.32C31.8376 160.6 32.3422 160.312 32.9952 160.687C33.6481 161.032 34.1527 161.925 34.1527 162.617Z" fill="#A8CFF0"/>
<path d="M33.5884 162.934C32.9355 162.588 32.4309 161.695 32.4309 161.004C32.4309 160.831 32.4606 160.658 32.5199 160.543C32.1044 160.514 31.8076 160.802 31.8076 161.349C31.8076 162.069 32.3122 162.934 32.9652 163.279C33.44 163.538 33.8555 163.452 34.0336 163.106C33.9149 163.078 33.7665 163.02 33.5884 162.934Z" fill="#03336E"/>
<path d="M31.0357 160.859C31.0357 161.58 30.5312 161.868 29.8782 161.493C29.2253 161.147 28.7207 160.255 28.7207 159.563C28.7207 158.843 29.2253 158.555 29.8782 158.93C30.5015 159.275 31.0357 160.139 31.0357 160.859Z" fill="#A8CFF0"/>
<path d="M30.4722 161.177C29.8192 160.831 29.3147 159.938 29.3147 159.247C29.3147 159.074 29.3443 158.901 29.4037 158.786C28.9882 158.757 28.6914 159.045 28.6914 159.593C28.6914 160.313 29.196 161.177 29.8489 161.522C30.3238 161.782 30.7393 161.695 30.9174 161.35C30.7987 161.321 30.6206 161.263 30.4722 161.177Z" fill="#03336E"/>
<path d="M8.59871 148.417C8.59871 149.137 8.09416 149.425 7.4412 149.051C6.78825 148.705 6.28369 147.812 6.28369 147.121C6.28369 146.401 6.78825 146.113 7.4412 146.487C8.09416 146.833 8.59871 147.697 8.59871 148.417Z" fill="#A8CFF0"/>
<path d="M8.06445 148.734C7.4115 148.388 6.90694 147.496 6.90694 146.804C6.90694 146.632 6.93666 146.459 6.99602 146.344C6.58051 146.315 6.28369 146.603 6.28369 147.15C6.28369 147.87 6.81793 148.734 7.4412 149.08C7.91608 149.339 8.3316 149.253 8.50968 148.907C8.36128 148.878 8.21285 148.821 8.06445 148.734Z" fill="#03336E"/>
<path d="M5.48152 146.631C5.48152 147.351 4.94729 147.64 4.32401 147.265C3.67106 146.919 3.1665 146.027 3.1665 145.335C3.1665 144.615 3.67106 144.327 4.32401 144.702C4.94729 145.047 5.48152 145.94 5.48152 146.631Z" fill="#A8CFF0"/>
<path d="M4.91846 146.948C4.2655 146.603 3.76095 145.71 3.76095 145.018C3.76095 144.846 3.79062 144.673 3.84998 144.558C3.43446 144.529 3.1377 144.817 3.1377 145.364C3.1377 146.084 3.64225 146.948 4.29521 147.294C4.77008 147.553 5.1856 147.467 5.36368 147.121C5.24496 147.092 5.06685 147.035 4.91846 146.948Z" fill="#03336E"/>
<path d="M37.0608 151.182V154.84C37.7434 154.869 38.3964 154.754 39.0197 154.408L39.0493 150.75C38.4261 151.096 37.7434 151.24 37.0608 151.182Z" fill="#EB4680"/>
<path d="M60.9528 127.132C60.3592 127.132 59.8843 126.671 59.8843 126.095V115.208C59.8843 114.258 60.4185 113.394 61.2496 112.904L66.77 109.793C66.9184 109.707 67.1261 109.649 67.3042 109.649C67.8978 109.649 68.3727 110.11 68.3727 110.686V121.573C68.3727 122.524 67.8384 123.388 67.0074 123.878L61.487 126.988C61.3089 127.075 61.1308 127.132 60.9528 127.132ZM67.3042 110.254C67.2152 110.254 67.1558 110.283 67.0668 110.312L61.5463 113.422C60.8934 113.797 60.4779 114.488 60.4779 115.237V126.124C60.4779 126.499 60.8934 126.671 61.1902 126.527L66.7106 123.417C67.3636 123.042 67.7791 122.351 67.7791 121.602V110.715C67.7791 110.427 67.5417 110.254 67.3042 110.254Z" fill="#A8CFF0"/>
<path d="M60.9532 127.132C60.7751 127.132 60.597 127.075 60.4189 126.988L60.7157 126.499C60.8641 126.585 61.0422 126.585 61.1906 126.499L66.711 123.388C67.364 123.014 67.7795 122.322 67.7795 121.574V110.686C67.7795 110.456 67.6311 110.312 67.4827 110.254L67.6905 109.736C68.106 109.88 68.3434 110.254 68.3434 110.686V121.574C68.3434 122.524 67.8092 123.388 66.9782 123.878L61.4577 126.988C61.3093 127.075 61.1312 127.132 60.9532 127.132Z" fill="#A8CFF0"/>
<path d="M47.8643 140.439L53.1473 143.319L61.8731 138.423L53.1473 143.002L47.8643 140.439Z" fill="white"/>
<g opacity="0.3">
<path d="M198.103 19.5278L198.548 19.8159L73.1808 89.9202L72.7356 89.6322L198.103 19.5278Z" fill="#72B5E8"/>
<path d="M194.6 17.5693L195.075 17.8573L69.7076 87.9617L69.2327 87.6736L194.6 17.5693Z" fill="#72B5E8"/>
<path d="M191.128 15.6108L191.574 15.8701L66.2061 86.0032L65.7312 85.7152L191.128 15.6108Z" fill="#72B5E8"/>
<path d="M187.625 13.6233L188.07 13.9113L62.7027 84.0156L62.2576 83.7564L187.625 13.6233Z" fill="#72B5E8"/>
<path d="M184.124 11.6648L184.569 11.9528L59.2016 82.0571L58.7563 81.7691L184.124 11.6648Z" fill="#72B5E8"/>
<path d="M180.621 9.7063L181.096 9.99429L55.6991 80.0986L55.2539 79.8106L180.621 9.7063Z" fill="#72B5E8"/>
<path d="M177.118 7.7478L177.593 8.00701L52.2259 78.1401L51.751 77.8521L177.118 7.7478Z" fill="#72B5E8"/>
<path d="M173.646 5.76025L174.091 6.04829L48.724 76.1526L48.2788 75.8934L173.646 5.76025Z" fill="#72B5E8"/>
<path d="M170.145 3.80176L170.59 4.08975L45.2225 74.1941L44.7773 73.9061L170.145 3.80176Z" fill="#72B5E8"/>
<path d="M166.642 1.84326L167.088 2.1313L41.7201 72.2356L41.2749 71.9476L166.642 1.84326Z" fill="#72B5E8"/>
</g>
<g opacity="0.3">
<path d="M197.718 19.2397L198.163 19.5277L72.7956 89.6609L72.3503 89.3728L197.718 19.2397Z" fill="#2672AB"/>
<path d="M194.215 17.2812L194.66 17.5693L69.2928 87.6736L68.8477 87.3856L194.215 17.2812Z" fill="#2672AB"/>
<path d="M190.712 15.3228L191.187 15.6107L65.79 85.7151L65.3447 85.4271L190.712 15.3228Z" fill="#2672AB"/>
<path d="M187.211 13.364L187.686 13.6232L62.3186 83.7564L61.8438 83.4683L187.211 13.364Z" fill="#2672AB"/>
<path d="M183.739 11.3767L184.184 11.6647L58.8168 81.7691L58.3716 81.5098L183.739 11.3767Z" fill="#2672AB"/>
<path d="M180.236 9.41821L180.681 9.70625L55.3139 79.8106L54.8687 79.5225L180.236 9.41821Z" fill="#2672AB"/>
<path d="M176.733 7.45972L177.179 7.74776L51.8111 77.8521L51.366 77.5641L176.733 7.45972Z" fill="#2672AB"/>
<path d="M173.232 5.50122L173.707 5.76043L48.3396 75.8936L47.8647 75.6055L173.232 5.50122Z" fill="#2672AB"/>
<path d="M169.759 3.51367L170.204 3.80171L44.8367 73.906L44.3618 73.6468L169.759 3.51367Z" fill="#2672AB"/>
<path d="M166.257 1.55518L166.702 1.84317L41.3346 71.9475L40.8894 71.6595L166.257 1.55518Z" fill="#2672AB"/>
</g>
<path d="M203 63.2782L74.4272 135.139V131.194L203 59.3611V63.2782Z" fill="#72B5E8"/>
<path d="M201.694 58.6987L73.1213 130.56L74.4272 131.194L203 59.3612L201.694 58.6987Z" fill="#D1EBFF"/>
<path d="M73.1501 134.448L74.4264 135.139V131.193L73.1501 130.502V134.448Z" fill="#A8CFF0"/>
<path d="M202.88 63.3645L199.349 65.3518L194.362 64.1998L197.894 62.2124L202.88 63.3645Z" fill="#D62D69"/>
<path d="M193.739 68.4914L190.178 70.45L185.192 69.2979L188.753 67.3105L193.739 68.4914Z" fill="#D62D69"/>
<path d="M184.568 73.5893L181.036 75.5767L176.05 74.4246L179.582 72.4373L184.568 73.5893Z" fill="#D62D69"/>
<path d="M175.426 78.7161L171.865 80.6746L166.908 79.5225L170.44 77.5352L175.426 78.7161Z" fill="#D62D69"/>
<path d="M166.256 83.814L162.724 85.8013L157.738 84.6492L161.299 82.6619L166.256 83.814Z" fill="#D62D69"/>
<path d="M157.114 88.9407L153.582 90.8992L148.596 89.7471L152.128 87.7886L157.114 88.9407Z" fill="#D62D69"/>
<path d="M147.973 94.0388L144.411 96.0261L139.455 94.8741L142.986 92.8867L147.973 94.0388Z" fill="#D62D69"/>
<path d="M138.802 99.1655L135.27 101.124L130.284 99.972L133.846 98.0134L138.802 99.1655Z" fill="#D62D69"/>
<path d="M129.66 104.263L126.128 106.251L121.142 105.099L124.674 103.111L129.66 104.263Z" fill="#D62D69"/>
<path d="M120.519 109.39L116.958 111.378L111.971 110.197L115.533 108.238L120.519 109.39Z" fill="#D62D69"/>
<path d="M111.348 114.488L107.816 116.476L102.83 115.324L106.362 113.336L111.348 114.488Z" fill="#D62D69"/>
<path d="M102.207 119.615L98.6749 121.603L93.6887 120.45L97.2206 118.463L102.207 119.615Z" fill="#D62D69"/>
<path d="M93.0359 124.713L89.504 126.7L84.5178 125.548L88.0794 123.561L93.0359 124.713Z" fill="#D62D69"/>
<path d="M83.8946 129.84L80.3626 131.827L75.3765 130.675L78.9084 128.688L83.8946 129.84Z" fill="#D62D69"/>
<path d="M178.382 54.7756C181.864 48.9988 181.899 42.7349 178.46 40.7848C175.021 38.8347 169.411 41.9369 165.929 47.7137C162.448 53.4905 162.413 59.7544 165.852 61.7045C169.291 63.6546 174.901 60.5524 178.382 54.7756Z" fill="#084C94"/>
<path d="M177.516 40.4055C178.972 41.3467 179.871 43.1851 179.871 45.764C179.871 51.2103 175.906 57.8425 171.016 60.5844C168.997 61.7138 167.147 61.9962 165.66 61.5633C167.277 62.6048 169.586 62.5421 172.16 61.0989C177.051 58.357 181.016 51.7248 181.016 46.2785C181.009 43.0847 179.638 41.0204 177.516 40.4055Z" fill="#03336E"/>
<path d="M193.351 52.4086C193.17 52.4086 193.028 52.2643 193.028 52.0949C193.028 51.8878 193.021 51.6808 193.015 51.48C193.008 51.3043 193.144 51.16 193.319 51.1474C193.5 51.1349 193.649 51.2729 193.662 51.4423C193.675 51.6557 193.681 51.8753 193.681 52.0949C193.675 52.2706 193.532 52.4086 193.351 52.4086ZM193.073 49.9114C192.924 49.9114 192.795 49.811 192.756 49.6667C192.659 49.2651 192.536 48.8761 192.387 48.5121C192.323 48.349 192.407 48.167 192.575 48.1043C192.737 48.0415 192.931 48.1231 192.995 48.28C193.151 48.669 193.287 49.0894 193.39 49.5223C193.429 49.6918 193.325 49.8612 193.151 49.8988C193.118 49.9114 193.092 49.9114 193.073 49.9114ZM191.773 47.0627C191.676 47.0627 191.572 47.0188 191.508 46.931C191.262 46.6047 190.99 46.3035 190.699 46.04C190.57 45.9208 190.557 45.7262 190.68 45.5945C190.803 45.469 191.003 45.4564 191.139 45.5757C191.462 45.8706 191.766 46.1968 192.038 46.5608C192.142 46.6988 192.109 46.8996 191.967 47C191.902 47.0439 191.838 47.0627 191.773 47.0627Z" fill="#A8CFF0"/>
<path d="M172.574 61.3685C172.574 55.9222 176.54 49.29 181.43 46.5481C183.791 45.2241 185.932 45.0547 187.517 45.839L187.523 45.8328L188.894 46.5732L188.254 47.6336C188.551 48.4555 188.713 49.4155 188.713 50.5136C188.713 55.9599 184.748 62.5921 179.858 65.334C178.855 65.8987 177.885 66.2501 176.986 66.4132L176.333 67.4987L175.414 67.0219C173.668 66.1936 172.574 64.2297 172.574 61.3685Z" fill="#F76195"/>
<path d="M188.7 60.4831C192.181 54.7063 192.216 48.4424 188.777 46.4923C185.339 44.5422 179.729 47.6444 176.247 53.4212C172.765 59.1981 172.731 65.462 176.169 67.412C179.608 69.3621 185.218 66.2599 188.7 60.4831Z" fill="white"/>
<path d="M188.898 60.591C192.38 54.8142 192.414 48.5503 188.976 46.6002C185.537 44.6501 179.927 47.7523 176.445 53.5292C172.964 59.306 172.929 65.5699 176.368 67.5199C179.806 69.47 185.416 66.3678 188.898 60.591Z" fill="#D62D69"/>
<path d="M187.562 57.221L186.294 57.1143L187.607 55.9849C187.795 55.8217 187.905 55.5457 187.859 55.3637C187.808 55.1817 187.614 55.1692 187.426 55.3261L185.434 57.039L183.694 56.8947L185.434 54.799L187.426 54.2782C187.458 54.2719 187.484 54.2594 187.517 54.2406C187.672 54.1527 187.814 53.9582 187.859 53.7574C187.911 53.519 187.801 53.3684 187.607 53.4186L186.294 53.7637L187.562 52.2327C187.73 52.0319 187.788 51.7558 187.691 51.6241C187.594 51.4923 187.374 51.5488 187.206 51.7496L185.938 53.2805L186.288 51.6241C186.339 51.3856 186.229 51.2351 186.035 51.2853C185.848 51.3354 185.654 51.5676 185.602 51.806L185.065 54.3284L183.299 56.4555V54.2217L184.761 51.7747C184.897 51.5425 184.897 51.2978 184.761 51.2162C184.625 51.1409 184.399 51.2664 184.263 51.4986L183.299 53.1049V51.4045C183.299 51.1849 183.144 51.097 182.943 51.2099C182.749 51.3166 182.588 51.5801 182.588 51.7998V53.5002L181.624 52.9668C181.488 52.8915 181.262 53.017 181.126 53.2492C180.99 53.4813 180.99 53.726 181.126 53.8076L182.588 54.617V56.8194L180.874 56.6751L180.337 54.7551C180.285 54.5731 180.091 54.5606 179.903 54.7174C179.716 54.8806 179.606 55.1566 179.651 55.3386L180 56.6061L178.674 56.4994C178.506 56.4868 178.293 56.6688 178.189 56.9135C178.092 57.1582 178.15 57.3653 178.318 57.3778L179.645 57.4845L178.331 58.6139C178.144 58.777 178.034 59.0531 178.079 59.2351C178.124 59.3857 178.267 59.4233 178.422 59.3355C178.454 59.3167 178.48 59.2978 178.513 59.2727L180.505 57.5598L182.245 57.7041L180.505 59.7935L178.513 60.3143C178.325 60.3645 178.131 60.5967 178.079 60.8351C178.027 61.0735 178.137 61.2241 178.331 61.1739L179.645 60.8288L178.318 62.4226C178.15 62.6233 178.092 62.8994 178.189 63.0312C178.254 63.119 178.37 63.1253 178.493 63.0563C178.551 63.0249 178.616 62.9747 178.668 62.9057L179.994 61.312L179.645 62.9684C179.593 63.2069 179.703 63.3575 179.897 63.3073C179.929 63.301 179.955 63.2884 179.987 63.2696C180.143 63.1818 180.285 62.9873 180.33 62.7865L180.867 60.2641L182.581 58.2061V60.4398L181.119 62.8806C180.983 63.1128 180.983 63.3575 181.119 63.439C181.255 63.5143 181.482 63.3888 181.617 63.1567L182.581 61.5504V63.1818C182.581 63.4014 182.736 63.4892 182.937 63.3763C183.131 63.2696 183.293 63.0061 183.293 62.7865V61.1551L184.257 61.6884C184.328 61.7261 184.418 61.7135 184.509 61.6633C184.599 61.6131 184.69 61.5253 184.761 61.4061C184.897 61.1739 184.897 60.9292 184.761 60.8476L183.299 60.0382V57.7669L185.065 57.9112L185.602 59.8312C185.647 59.9818 185.79 60.0194 185.945 59.9316C185.977 59.9127 186.003 59.8939 186.035 59.8688C186.223 59.7057 186.333 59.4296 186.288 59.2476L185.938 57.9802L187.206 58.0868C187.264 58.0931 187.323 58.0743 187.381 58.0429C187.504 57.9739 187.62 57.8359 187.685 57.6727C187.788 57.4406 187.73 57.2335 187.562 57.221Z" fill="white"/>
<path d="M142.794 170.244C142.522 170.244 142.29 170.037 142.277 169.768C142.264 169.491 142.484 169.253 142.768 169.24C143.163 169.222 143.557 169.159 143.933 169.059C144.211 168.989 144.495 169.146 144.567 169.41C144.644 169.68 144.482 169.956 144.204 170.025C143.752 170.144 143.286 170.213 142.82 170.238C142.814 170.244 142.801 170.244 142.794 170.244ZM140.873 170.037C140.828 170.037 140.782 170.031 140.731 170.019C140.278 169.893 139.845 169.724 139.431 169.51C139.178 169.379 139.081 169.077 139.217 168.833C139.353 168.588 139.663 168.494 139.916 168.626C140.265 168.808 140.634 168.952 141.009 169.052C141.281 169.128 141.442 169.404 141.365 169.673C141.306 169.893 141.099 170.037 140.873 170.037ZM145.834 169.284C145.653 169.284 145.485 169.197 145.388 169.033C145.246 168.795 145.33 168.488 145.576 168.349L146.695 167.716C146.94 167.578 147.257 167.659 147.4 167.898C147.542 168.136 147.458 168.444 147.212 168.582L146.093 169.215C146.015 169.259 145.925 169.284 145.834 169.284ZM137.988 168.638C137.904 168.638 137.813 168.619 137.736 168.575L136.61 167.954C136.365 167.816 136.274 167.509 136.416 167.27C136.559 167.032 136.876 166.944 137.121 167.082L138.247 167.703C138.493 167.841 138.583 168.149 138.441 168.387C138.344 168.544 138.169 168.638 137.988 168.638ZM148.622 167.697C148.441 167.697 148.273 167.609 148.176 167.446C148.034 167.208 148.118 166.9 148.363 166.762L149.483 166.128C149.728 165.99 150.045 166.072 150.188 166.31C150.33 166.549 150.246 166.856 150 166.994L148.881 167.628C148.803 167.678 148.713 167.697 148.622 167.697ZM135.174 167.088C135.09 167.088 135 167.069 134.922 167.026L133.797 166.404C133.551 166.266 133.46 165.959 133.603 165.72C133.745 165.482 134.062 165.394 134.308 165.532L135.433 166.153C135.679 166.291 135.769 166.599 135.627 166.837C135.53 166.994 135.355 167.088 135.174 167.088ZM132.367 165.532C132.283 165.532 132.192 165.513 132.115 165.469L130.989 164.848C130.743 164.71 130.653 164.403 130.795 164.164C130.938 163.926 131.254 163.838 131.5 163.976L132.626 164.597C132.872 164.735 132.962 165.043 132.82 165.281C132.723 165.444 132.548 165.532 132.367 165.532ZM129.553 163.982C129.469 163.982 129.379 163.964 129.301 163.92L128.176 163.298C127.93 163.16 127.839 162.853 127.981 162.615C128.124 162.376 128.441 162.288 128.687 162.426L129.812 163.048C130.058 163.186 130.148 163.493 130.006 163.731C129.909 163.895 129.734 163.982 129.553 163.982ZM126.74 162.433C126.655 162.433 126.565 162.414 126.487 162.37L125.362 161.749C125.116 161.611 125.025 161.303 125.168 161.065C125.31 160.826 125.627 160.738 125.873 160.877L126.998 161.498C127.244 161.636 127.335 161.943 127.192 162.182C127.095 162.345 126.921 162.433 126.74 162.433ZM123.932 160.883C123.848 160.883 123.758 160.864 123.68 160.82L122.554 160.199C122.309 160.061 122.218 159.753 122.36 159.515C122.503 159.277 122.82 159.189 123.065 159.327L124.191 159.948C124.437 160.086 124.527 160.393 124.385 160.632C124.288 160.795 124.113 160.883 123.932 160.883ZM121.118 159.333C121.034 159.333 120.944 159.314 120.866 159.27L119.741 158.649C119.495 158.511 119.404 158.204 119.547 157.965C119.689 157.727 120.006 157.639 120.252 157.777L121.377 158.398C121.623 158.536 121.714 158.844 121.571 159.082C121.474 159.239 121.3 159.333 121.118 159.333ZM118.311 157.783C118.227 157.783 118.137 157.764 118.059 157.72L116.933 157.099C116.688 156.961 116.597 156.654 116.739 156.415C116.882 156.177 117.199 156.089 117.444 156.227L118.57 156.848C118.816 156.986 118.906 157.294 118.764 157.532C118.66 157.689 118.486 157.783 118.311 157.783ZM115.497 156.233C115.413 156.233 115.323 156.215 115.245 156.171L114.12 155.549C113.874 155.411 113.783 155.104 113.926 154.866C114.068 154.627 114.385 154.539 114.631 154.677L115.756 155.298C116.002 155.436 116.092 155.744 115.95 155.982C115.853 156.139 115.679 156.233 115.497 156.233ZM112.684 154.677C112.6 154.677 112.509 154.658 112.431 154.615L111.306 153.993C111.06 153.855 110.97 153.548 111.112 153.309C111.254 153.071 111.571 152.983 111.817 153.121L112.942 153.742C113.188 153.88 113.279 154.188 113.136 154.426C113.039 154.589 112.865 154.677 112.684 154.677ZM109.876 153.127C109.792 153.127 109.702 153.109 109.624 153.065L108.499 152.444C108.253 152.305 108.162 151.998 108.305 151.76C108.447 151.521 108.764 151.433 109.01 151.571L110.135 152.193C110.381 152.331 110.471 152.638 110.329 152.876C110.232 153.04 110.051 153.127 109.876 153.127ZM107.063 151.578C106.978 151.578 106.888 151.559 106.81 151.515L105.685 150.894C105.439 150.756 105.348 150.448 105.491 150.21C105.633 149.971 105.95 149.884 106.196 150.022L107.321 150.643C107.567 150.781 107.658 151.088 107.515 151.327C107.418 151.49 107.244 151.578 107.063 151.578ZM104.475 149.764C104.301 149.764 104.132 149.683 104.035 149.532C103.764 149.112 103.589 148.654 103.524 148.158C103.486 147.882 103.686 147.631 103.971 147.593C104.262 147.556 104.514 147.75 104.553 148.026C104.598 148.378 104.721 148.704 104.915 148.993C105.07 149.225 104.993 149.538 104.753 149.683C104.663 149.739 104.566 149.764 104.475 149.764ZM104.398 146.778C104.313 146.778 104.223 146.759 104.145 146.715C103.9 146.577 103.809 146.269 103.951 146.031C104.204 145.604 104.54 145.234 104.96 144.945C105.193 144.782 105.517 144.839 105.685 145.058C105.853 145.284 105.795 145.598 105.568 145.761C105.271 145.968 105.031 146.225 104.857 146.527C104.753 146.684 104.579 146.778 104.398 146.778ZM106.907 144.864C106.733 144.864 106.565 144.776 106.467 144.625C106.319 144.387 106.396 144.08 106.642 143.935L107.748 143.283C107.994 143.138 108.311 143.214 108.46 143.452C108.609 143.691 108.531 143.998 108.285 144.142L107.179 144.795C107.088 144.839 106.998 144.864 106.907 144.864ZM109.669 143.226C109.495 143.226 109.327 143.138 109.229 142.988C109.081 142.749 109.158 142.442 109.404 142.298L110.51 141.645C110.756 141.501 111.073 141.576 111.222 141.814C111.371 142.053 111.293 142.36 111.047 142.505L109.941 143.157C109.85 143.201 109.76 143.226 109.669 143.226ZM112.425 141.595C112.25 141.595 112.082 141.507 111.985 141.356C111.836 141.118 111.914 140.811 112.16 140.666L113.266 140.014C113.512 139.869 113.829 139.945 113.977 140.183C114.126 140.422 114.048 140.729 113.803 140.873L112.697 141.526C112.612 141.57 112.522 141.595 112.425 141.595ZM115.187 139.957C115.012 139.957 114.844 139.869 114.747 139.719C114.598 139.48 114.676 139.173 114.922 139.029L116.028 138.376C116.274 138.232 116.591 138.307 116.739 138.545C116.888 138.784 116.81 139.091 116.565 139.236L115.459 139.888C115.375 139.932 115.277 139.957 115.187 139.957ZM117.949 138.32C117.774 138.32 117.606 138.232 117.509 138.081C117.36 137.843 117.438 137.535 117.684 137.391L118.79 136.738C119.036 136.594 119.353 136.669 119.501 136.908C119.65 137.146 119.573 137.454 119.327 137.598L118.221 138.251C118.13 138.301 118.04 138.32 117.949 138.32ZM120.711 136.688C120.536 136.688 120.368 136.6 120.271 136.45C120.122 136.211 120.2 135.904 120.446 135.76L121.552 135.107C121.798 134.963 122.115 135.038 122.263 135.276C122.412 135.515 122.335 135.822 122.089 135.967L120.983 136.619C120.892 136.663 120.802 136.688 120.711 136.688ZM123.467 135.051C123.292 135.051 123.124 134.963 123.027 134.812C122.878 134.574 122.956 134.266 123.201 134.122L124.307 133.469C124.553 133.325 124.87 133.4 125.019 133.639C125.168 133.877 125.09 134.185 124.844 134.329L123.738 134.981C123.654 135.032 123.557 135.051 123.467 135.051ZM126.229 133.419C126.054 133.419 125.886 133.331 125.789 133.181C125.64 132.942 125.718 132.635 125.963 132.491L127.069 131.838C127.315 131.694 127.632 131.769 127.781 132.007C127.93 132.246 127.852 132.553 127.606 132.698L126.5 133.35C126.416 133.394 126.319 133.419 126.229 133.419ZM128.991 131.781C128.816 131.781 128.648 131.694 128.551 131.543C128.402 131.305 128.48 130.997 128.725 130.853L129.831 130.2C130.077 130.056 130.394 130.131 130.543 130.37C130.692 130.608 130.614 130.916 130.368 131.06L129.262 131.712C129.172 131.756 129.081 131.781 128.991 131.781ZM131.746 130.15C131.571 130.15 131.403 130.062 131.306 129.912C131.157 129.673 131.235 129.366 131.481 129.221L132.587 128.569C132.833 128.425 133.15 128.5 133.299 128.738C133.447 128.977 133.37 129.284 133.124 129.429L132.018 130.081C131.934 130.125 131.843 130.15 131.746 130.15ZM134.508 128.512C134.333 128.512 134.165 128.425 134.068 128.274C133.919 128.036 133.997 127.728 134.243 127.584L135.349 126.931C135.595 126.787 135.912 126.862 136.061 127.101C136.209 127.339 136.132 127.647 135.886 127.791L134.78 128.443C134.696 128.487 134.599 128.512 134.508 128.512ZM137.27 126.875C137.095 126.875 136.927 126.787 136.83 126.636C136.681 126.398 136.759 126.09 137.005 125.946L138.111 125.294C138.357 125.149 138.674 125.225 138.823 125.463C138.971 125.701 138.894 126.009 138.648 126.153L137.542 126.806C137.458 126.856 137.361 126.875 137.27 126.875ZM140.032 125.243C139.858 125.243 139.689 125.156 139.592 125.005C139.444 124.767 139.521 124.459 139.767 124.315L140.873 123.662C141.119 123.518 141.436 123.593 141.585 123.832C141.733 124.07 141.656 124.378 141.41 124.522L140.304 125.174C140.213 125.218 140.123 125.243 140.032 125.243ZM142.788 123.606C142.613 123.606 142.445 123.518 142.348 123.367C142.199 123.129 142.277 122.821 142.522 122.677L143.629 122.025C143.874 121.88 144.191 121.956 144.34 122.194C144.489 122.432 144.411 122.74 144.165 122.884L143.059 123.537C142.975 123.587 142.885 123.606 142.788 123.606ZM145.55 121.974C145.375 121.974 145.207 121.887 145.11 121.736C144.961 121.497 145.039 121.19 145.285 121.046L146.391 120.393C146.636 120.249 146.953 120.324 147.102 120.563C147.251 120.801 147.173 121.108 146.927 121.253L145.821 121.905C145.737 121.949 145.64 121.974 145.55 121.974ZM148.312 120.337C148.137 120.337 147.969 120.249 147.872 120.098C147.723 119.86 147.801 119.552 148.047 119.408L149.153 118.756C149.398 118.611 149.715 118.687 149.864 118.925C150.013 119.163 149.935 119.471 149.69 119.615L148.583 120.268C148.493 120.312 148.402 120.337 148.312 120.337ZM151.074 118.705C150.899 118.705 150.731 118.617 150.634 118.467C150.485 118.228 150.563 117.921 150.809 117.777L151.915 117.124C152.16 116.98 152.477 117.055 152.626 117.294C152.775 117.532 152.697 117.839 152.452 117.984L151.345 118.636C151.255 118.68 151.164 118.705 151.074 118.705ZM153.829 117.068C153.655 117.068 153.486 116.98 153.389 116.829C153.241 116.591 153.318 116.283 153.564 116.139L154.67 115.486C154.916 115.342 155.233 115.417 155.382 115.656C155.53 115.894 155.453 116.202 155.207 116.346L154.101 116.999C154.017 117.043 153.926 117.068 153.829 117.068ZM156.591 115.43C156.417 115.43 156.248 115.342 156.151 115.192C156.003 114.953 156.08 114.646 156.326 114.501L157.432 113.849C157.678 113.705 157.995 113.78 158.144 114.018C158.293 114.257 158.215 114.564 157.969 114.708L156.863 115.361C156.779 115.411 156.682 115.43 156.591 115.43ZM159.353 113.799C159.179 113.799 159.011 113.711 158.913 113.56C158.765 113.322 158.842 113.014 159.088 112.87L160.194 112.217C160.44 112.073 160.757 112.148 160.906 112.387C161.055 112.625 160.977 112.933 160.731 113.077L159.625 113.73C159.534 113.774 159.444 113.799 159.353 113.799ZM162.115 112.161C161.941 112.161 161.773 112.073 161.676 111.923C161.527 111.684 161.604 111.377 161.85 111.232L162.956 110.58C163.202 110.435 163.519 110.511 163.668 110.749C163.817 110.988 163.739 111.295 163.493 111.439L162.387 112.092C162.296 112.142 162.206 112.161 162.115 112.161ZM164.871 110.53C164.696 110.53 164.528 110.442 164.431 110.291C164.282 110.053 164.36 109.745 164.606 109.601L165.712 108.948C165.958 108.804 166.275 108.879 166.423 109.118C166.572 109.356 166.495 109.664 166.249 109.808L165.143 110.461C165.059 110.505 164.961 110.53 164.871 110.53ZM167.633 108.892C167.458 108.892 167.29 108.804 167.193 108.654C167.044 108.415 167.122 108.108 167.368 107.963L168.474 107.311C168.72 107.166 169.037 107.242 169.185 107.48C169.334 107.719 169.257 108.026 169.011 108.17L167.905 108.823C167.821 108.867 167.723 108.892 167.633 108.892ZM170.395 107.261C170.22 107.261 170.052 107.173 169.955 107.022C169.806 106.784 169.884 106.476 170.13 106.332L171.236 105.679C171.482 105.535 171.799 105.61 171.947 105.849C172.096 106.087 172.019 106.395 171.773 106.539L170.667 107.192C170.576 107.235 170.486 107.261 170.395 107.261ZM173.151 105.623C172.976 105.623 172.808 105.535 172.711 105.384C172.562 105.146 172.639 104.839 172.885 104.694L173.991 104.042C174.237 103.897 174.554 103.973 174.703 104.211C174.852 104.45 174.774 104.757 174.528 104.901L173.422 105.554C173.338 105.598 173.248 105.623 173.151 105.623ZM175.913 103.985C175.738 103.985 175.57 103.897 175.473 103.747C175.324 103.508 175.402 103.201 175.647 103.057L176.753 102.404C176.999 102.26 177.316 102.335 177.465 102.573C177.614 102.812 177.536 103.119 177.29 103.264L176.184 103.916C176.1 103.966 176.003 103.985 175.913 103.985ZM178.603 102.253C178.468 102.253 178.332 102.203 178.228 102.097C178.034 101.896 178.041 101.576 178.248 101.388C178.526 101.13 178.778 100.835 178.991 100.515C179.147 100.283 179.464 100.214 179.71 100.365C179.949 100.515 180.02 100.823 179.865 101.061C179.606 101.45 179.308 101.802 178.966 102.122C178.856 102.21 178.726 102.253 178.603 102.253ZM180.156 99.5554C180.117 99.5554 180.085 99.5492 180.046 99.5429C179.768 99.4864 179.587 99.2166 179.651 98.9468C179.722 98.6205 179.761 98.288 179.761 97.9492V97.8048C179.761 97.5288 179.994 97.3029 180.279 97.3029C180.563 97.3029 180.796 97.5288 180.796 97.8048V97.9492C180.796 98.357 180.751 98.7649 180.667 99.1602C180.609 99.3986 180.395 99.5554 180.156 99.5554ZM180.279 96.4307C179.994 96.4307 179.761 96.2048 179.761 95.9288V94.6738C179.761 94.3978 179.994 94.1719 180.279 94.1719C180.563 94.1719 180.796 94.3978 180.796 94.6738V95.9288C180.796 96.2048 180.563 96.4307 180.279 96.4307ZM180.279 93.2935C179.994 93.2935 179.761 93.0676 179.761 92.7915V91.5366C179.761 91.2605 179.994 91.0346 180.279 91.0346C180.563 91.0346 180.796 91.2605 180.796 91.5366V92.7915C180.796 93.0676 180.563 93.2935 180.279 93.2935ZM180.279 90.1562C179.994 90.1562 179.761 89.9303 179.761 89.6542V88.3993C179.761 88.1232 179.994 87.8973 180.279 87.8973C180.563 87.8973 180.796 88.1232 180.796 88.3993V89.6542C180.796 89.9303 180.563 90.1562 180.279 90.1562ZM180.279 87.0189C179.994 87.0189 179.761 86.793 179.761 86.5169V85.262C179.761 84.986 179.994 84.7601 180.279 84.7601C180.563 84.7601 180.796 84.986 180.796 85.262V86.5169C180.796 86.793 180.563 87.0189 180.279 87.0189ZM180.279 83.8816C179.994 83.8816 179.761 83.6558 179.761 83.3797V82.1248C179.761 81.8487 179.994 81.6228 180.279 81.6228C180.563 81.6228 180.796 81.8487 180.796 82.1248V83.3797C180.796 83.6558 180.563 83.8816 180.279 83.8816ZM180.279 80.7444C179.994 80.7444 179.761 80.5185 179.761 80.2424V78.9875C179.761 78.7114 179.994 78.4855 180.279 78.4855C180.563 78.4855 180.796 78.7114 180.796 78.9875V80.2424C180.796 80.5185 180.563 80.7444 180.279 80.7444ZM180.279 77.6071C179.994 77.6071 179.761 77.3812 179.761 77.1051V75.8502C179.761 75.5742 179.994 75.3483 180.279 75.3483C180.563 75.3483 180.796 75.5742 180.796 75.8502V77.1051C180.796 77.3812 180.563 77.6071 180.279 77.6071ZM180.279 74.4698C179.994 74.4698 179.761 74.244 179.761 73.9679V72.713C179.761 72.4369 179.994 72.211 180.279 72.211C180.563 72.211 180.796 72.4369 180.796 72.713V73.9679C180.796 74.244 180.563 74.4698 180.279 74.4698ZM180.279 71.3326C179.994 71.3326 179.761 71.1067 179.761 70.8306V69.5757C179.761 69.2996 179.994 69.0737 180.279 69.0737C180.563 69.0737 180.796 69.2996 180.796 69.5757V70.8306C180.796 71.1067 180.563 71.3326 180.279 71.3326Z" fill="#FEE500"/>
<path opacity="0.2" d="M172.497 162.163C166.067 165.764 152.406 164.798 152.406 164.798C152.406 164.798 150.686 157.143 157.109 153.548C161.333 151.182 168.202 151.195 172.445 153.573C176.695 155.951 176.715 159.797 172.497 162.163Z" fill="#92B4D1"/>
<path d="M178.209 127.929C178.067 127.929 177.937 127.841 177.898 127.703L177.866 127.583C177.814 127.414 177.918 127.245 178.086 127.194C178.261 127.144 178.435 127.245 178.487 127.408L178.526 127.533C178.578 127.703 178.474 127.872 178.306 127.922C178.267 127.922 178.241 127.929 178.209 127.929ZM177.601 126.009C177.465 126.009 177.342 125.927 177.297 125.795C177.161 125.406 177.019 125.011 176.864 124.622C176.799 124.459 176.883 124.277 177.051 124.22C177.219 124.158 177.407 124.239 177.465 124.402C177.62 124.798 177.763 125.193 177.905 125.594C177.963 125.758 177.873 125.94 177.704 125.99C177.666 126.002 177.633 126.009 177.601 126.009ZM176.437 123.078C176.314 123.078 176.191 123.009 176.139 122.89C175.971 122.507 175.79 122.131 175.609 121.754C175.531 121.598 175.602 121.409 175.764 121.334C175.926 121.259 176.12 121.328 176.191 121.485C176.378 121.867 176.553 122.25 176.728 122.639C176.799 122.796 176.721 122.984 176.56 123.053C176.521 123.072 176.475 123.078 176.437 123.078ZM175.039 120.249C174.923 120.249 174.813 120.186 174.755 120.079C174.554 119.709 174.347 119.345 174.14 118.987C174.05 118.837 174.108 118.642 174.263 118.561C174.418 118.473 174.613 118.529 174.703 118.68C174.917 119.05 175.13 119.414 175.331 119.791C175.415 119.947 175.356 120.136 175.195 120.217C175.136 120.242 175.085 120.249 175.039 120.249Z" fill="#A8CFF0"/>
<path d="M176.146 136.01C175.971 136.01 175.822 135.872 175.822 135.703C175.816 135.295 175.796 134.881 175.764 134.467C175.751 134.291 175.887 134.147 176.061 134.134C176.23 134.121 176.391 134.253 176.404 134.423C176.437 134.849 176.456 135.27 176.462 135.69C176.469 135.86 176.333 136.004 176.146 136.01ZM175.88 132.879C175.725 132.879 175.583 132.766 175.563 132.609C175.505 132.201 175.434 131.794 175.356 131.386C175.324 131.216 175.44 131.053 175.615 131.022C175.79 130.991 175.958 131.103 175.99 131.273C176.068 131.693 176.139 132.107 176.204 132.521C176.23 132.691 176.107 132.854 175.932 132.879C175.913 132.879 175.9 132.879 175.88 132.879ZM175.259 129.805C175.117 129.805 174.981 129.71 174.942 129.566C174.839 129.165 174.729 128.763 174.606 128.368C174.554 128.198 174.658 128.029 174.826 127.979C175.001 127.929 175.175 128.029 175.227 128.192C175.35 128.6 175.46 129.008 175.57 129.416C175.615 129.585 175.505 129.754 175.337 129.798C175.311 129.798 175.285 129.805 175.259 129.805ZM174.334 126.799C174.199 126.799 174.076 126.718 174.03 126.592C173.888 126.203 173.739 125.814 173.584 125.425C173.519 125.262 173.603 125.08 173.772 125.017C173.933 124.954 174.127 125.036 174.192 125.193C174.347 125.588 174.503 125.983 174.645 126.379C174.703 126.542 174.612 126.724 174.444 126.78C174.405 126.793 174.367 126.799 174.334 126.799ZM173.131 123.881C173.008 123.881 172.892 123.812 172.834 123.699C172.659 123.323 172.478 122.947 172.29 122.57C172.213 122.413 172.277 122.225 172.439 122.15C172.601 122.074 172.795 122.137 172.872 122.294C173.067 122.67 173.248 123.053 173.422 123.442C173.493 123.599 173.422 123.787 173.261 123.856C173.222 123.875 173.176 123.881 173.131 123.881ZM171.695 121.077C171.579 121.077 171.469 121.02 171.411 120.914C171.204 120.55 170.99 120.192 170.777 119.834C170.686 119.684 170.738 119.496 170.893 119.408C171.042 119.32 171.242 119.37 171.333 119.521C171.553 119.885 171.766 120.248 171.98 120.619C172.064 120.769 172.006 120.964 171.85 121.045C171.799 121.064 171.747 121.077 171.695 121.077ZM170.026 118.385C169.923 118.385 169.819 118.335 169.755 118.247C169.522 117.902 169.276 117.557 169.03 117.218C168.927 117.074 168.959 116.879 169.108 116.779C169.257 116.678 169.457 116.71 169.561 116.854C169.813 117.199 170.059 117.544 170.298 117.902C170.395 118.046 170.356 118.241 170.207 118.335C170.149 118.372 170.091 118.385 170.026 118.385Z" fill="#A8CFF0"/>
<path d="M157.018 110.856C152.452 108.296 148.357 108.22 145.524 110.14L142.245 111.627L142.646 113.673C141.941 115.248 141.54 117.168 141.54 119.42C141.54 125.94 145.13 136.217 148.855 145.127L152.736 164.785L157.018 162.709C157.018 162.709 172.497 150.285 172.497 136.751C172.497 127.239 165.563 115.643 157.018 110.856Z" fill="#CAB710"/>
<path d="M168.215 138.828C168.215 152.355 152.736 164.785 152.736 164.785C152.736 164.785 137.257 135.025 137.257 121.497C137.257 111.985 144.185 108.151 152.736 112.939C161.287 117.72 168.215 129.315 168.215 138.828Z" fill="#FEE500"/>
<path opacity="0.7" d="M153.719 112.418C149.256 109.915 145.246 109.789 142.419 111.571C145.162 110.373 148.771 110.711 152.736 112.939C161.281 117.726 168.215 129.322 168.215 138.834C168.215 150.429 156.856 161.203 153.603 164.051C153.668 164.183 153.066 164.522 153.066 164.522C153.066 164.522 169.192 151.847 169.192 138.313C169.198 128.795 162.264 117.206 153.719 112.418Z" fill="white"/>
<path d="M156.747 136.81C158.934 135.57 158.911 131.587 156.697 127.913C154.483 124.24 150.916 122.267 148.729 123.507C146.543 124.747 146.565 128.73 148.779 132.404C150.993 136.078 154.561 138.05 156.747 136.81Z" fill="white"/>
<path d="M154.476 135.659C151.365 133.915 148.842 129.692 148.842 126.228C148.842 124.854 149.243 123.819 149.916 123.16C148.234 123.304 147.109 124.691 147.109 127.006C147.109 130.47 149.632 134.693 152.743 136.437C154.625 137.491 156.281 137.391 157.31 136.387C156.469 136.462 155.505 136.236 154.476 135.659Z" fill="#CAB710"/>
<path d="M147.496 165.89L150.42 167.891L152.535 164.942L147.496 165.89Z" fill="#FEE500"/>
<defs>
<radialGradient id="paint0_radial_439_4762" cx="0" cy="0" r="1" gradientUnits="userSpaceOnUse" gradientTransform="translate(34.9555 153.583) scale(5.00758 4.85949)">
<stop stop-color="white"/>
<stop offset="1"/>
</radialGradient>
<radialGradient id="paint1_radial_439_4762" cx="0" cy="0" r="1" gradientUnits="userSpaceOnUse" gradientTransform="translate(6.62113 138.543) scale(3.90374 3.78832)">
<stop stop-color="white"/>
<stop offset="1"/>
</radialGradient>
</defs>
</svg>
