<svg width="496" height="416" viewBox="0 0 496 416" fill="none" xmlns="http://www.w3.org/2000/svg">
<path opacity="0.2" d="M89.6826 412.812L4.90902 365.521C-2.34279 361.439 -1.47258 354.331 6.93951 349.616L375.041 142.366C383.453 137.651 396.144 137.158 403.468 141.24L488.242 188.531C495.494 192.613 494.623 199.72 486.211 204.435L118.11 411.686C109.698 416.401 97.007 416.893 89.6826 412.812Z" fill="#92B4D1"/>
<path d="M21.37 284.591C21.1524 284.591 20.9348 284.52 20.7898 284.309L16.3662 278.468C15.0609 276.709 14.3357 274.668 14.3357 272.486V260.453C14.3357 255.808 17.599 251.797 22.2401 250.6L28.9118 248.982C29.3469 248.911 29.7096 249.122 29.7821 249.474C29.8546 249.826 29.637 250.248 29.2744 250.319L22.6027 251.937C18.6143 252.923 15.8585 256.371 15.8585 260.382V272.416C15.8585 274.246 16.4387 276.076 17.599 277.553L22.0226 283.394C22.2401 283.746 22.1676 284.169 21.8775 284.38C21.66 284.591 21.515 284.591 21.37 284.591Z" fill="#A8CFF0"/>
<path d="M17.7442 275.794L14.1183 273.753C12.5229 272.839 11.2175 270.446 11.2175 268.405V257.849C11.2175 255.808 12.5229 254.823 14.1183 255.738L17.7442 257.779C19.3396 258.693 20.6449 261.086 20.6449 263.127V273.683C20.6449 275.724 19.3396 276.709 17.7442 275.794Z" fill="#A8CFF0"/>
<path d="M17.7431 257.849L14.1172 255.808C13.1744 255.315 12.3768 255.386 11.8691 255.949C12.2317 255.949 12.6668 256.019 13.1019 256.23L16.7278 258.271C18.3232 259.186 19.6285 261.579 19.6285 263.619V274.175C19.6285 275.02 19.411 275.724 18.9759 276.146C19.9186 276.076 20.5713 275.161 20.5713 273.753V263.197C20.6438 261.156 19.3385 258.764 17.7431 257.849Z" fill="#72B5E8"/>
<path d="M296.357 260.453V279.876L363.799 241.945V222.592L296.357 260.453Z" fill="#03336E"/>
<path d="M296.358 260.453V279.876L277.43 269.39V249.967L296.358 260.453Z" fill="#084C94"/>
<path d="M277.431 249.967L296.358 260.453L363.8 222.592L344.8 212.106L277.431 249.967Z" fill="#2672AB"/>
<path d="M488.459 150.81V175.512L490.925 173.611V148.981L488.459 150.81Z" fill="#03336E"/>
<path d="M488.46 150.811V175.512L427.835 142.436V117.735L488.46 150.811Z" fill="#084C94"/>
<path d="M427.835 117.735L488.46 150.811L490.926 148.981L430.301 115.905L427.835 117.735Z" fill="#2672AB"/>
<path d="M475.118 157.144V193.95L468.592 190.361V153.344L475.118 157.144Z" fill="#A8CFF0"/>
<path d="M420.655 204.646C420.655 210.909 422.903 215.413 426.528 217.524C426.674 217.595 437.986 223.999 438.131 224.069C441.902 226.11 439.509 221.465 445.238 218.228C456.769 211.754 466.196 196.061 466.196 183.182C466.196 176.849 472.287 176.778 468.517 174.667C468.444 174.597 456.333 168.122 456.188 168.052C452.417 166.081 447.269 166.433 441.612 169.6C430.009 176.074 420.655 191.768 420.655 204.646Z" fill="#084C94"/>
<path d="M432.764 211.332C432.764 224.211 442.119 229.418 453.722 222.944C465.252 216.47 474.68 200.776 474.68 187.898C474.68 175.019 465.325 169.812 453.722 176.286C442.192 182.761 432.764 198.454 432.764 211.332Z" fill="#03336E"/>
<path d="M452.707 175.793C458.218 172.697 463.294 172.275 466.993 174.105C463.512 173.19 459.161 173.893 454.447 176.497C442.917 182.972 433.489 198.665 433.489 211.543C433.489 218.229 436.028 222.873 440.089 224.844C435.012 223.436 431.677 218.51 431.677 210.84C431.822 197.961 441.176 182.268 452.707 175.793Z" fill="#2672AB"/>
<path d="M453.867 185.505C446.398 189.657 440.306 199.861 440.306 208.165C440.306 216.469 446.398 219.847 453.867 215.625C461.337 211.473 467.428 201.269 467.428 192.965C467.428 184.731 461.337 181.353 453.867 185.505Z" fill="#A8CFF0"/>
<path d="M462.643 184.238C464.674 185.716 465.979 188.46 465.979 192.19C465.979 200.494 459.887 210.628 452.418 214.85C449.082 216.68 446.036 217.032 443.716 216.117C446.181 217.947 449.88 217.947 453.941 215.625C461.41 211.473 467.502 201.268 467.502 192.964C467.429 188.39 465.544 185.364 462.643 184.238Z" fill="#72B5E8"/>
<path d="M445.165 204.083C445.165 208.447 448.355 210.206 452.199 208.024C456.115 205.843 459.233 200.565 459.233 196.202C459.233 191.839 456.042 190.079 452.199 192.261C448.355 194.442 445.165 199.72 445.165 204.083Z" fill="#3F92D1"/>
<path d="M446.397 204.717C446.397 209.08 449.588 210.839 453.431 208.658C457.347 206.476 460.465 201.198 460.465 196.835C460.465 192.472 457.275 190.712 453.431 192.894C449.515 195.076 446.397 200.424 446.397 204.717Z" fill="#2672AB"/>
<path d="M375.331 230.473C375.331 236.737 377.579 241.24 381.205 243.352C381.35 243.422 392.662 249.826 392.807 249.896C396.578 251.937 394.185 247.293 399.914 244.055C411.445 237.581 420.872 221.888 420.872 209.009C420.872 202.676 426.963 202.605 423.193 200.494C423.12 200.424 411.009 193.949 410.864 193.879C407.093 191.909 401.945 192.26 396.288 195.427C384.685 201.902 375.331 217.595 375.331 230.473Z" fill="#084C94"/>
<path d="M387.44 237.159C387.44 250.037 396.795 255.245 408.398 248.771C419.929 242.296 429.356 226.603 429.356 213.725C429.356 200.846 420.001 195.638 408.398 202.113C396.795 208.587 387.44 224.28 387.44 237.159Z" fill="#03336E"/>
<path d="M407.383 201.62C412.895 198.524 417.971 198.101 421.67 199.931C418.189 199.016 413.838 199.72 409.124 202.324C397.594 208.798 388.166 224.491 388.166 237.37C388.166 244.055 390.704 248.7 394.765 250.671C389.689 249.263 386.353 244.337 386.353 236.666C386.426 223.788 395.853 208.095 407.383 201.62Z" fill="#2672AB"/>
<path d="M408.543 211.402C401.073 215.554 394.982 225.758 394.982 234.062C394.982 242.367 401.073 245.744 408.543 241.522C416.012 237.37 422.103 227.166 422.103 218.862C422.103 210.558 416.012 207.18 408.543 211.402Z" fill="#A8CFF0"/>
<path d="M417.319 210.065C419.35 211.543 420.655 214.287 420.655 218.017C420.655 226.321 414.564 236.455 407.094 240.677C403.759 242.577 400.713 242.859 398.392 241.944C400.858 243.774 404.556 243.774 408.617 241.451C416.087 237.299 422.178 227.095 422.178 218.791C422.105 214.287 420.22 211.191 417.319 210.065Z" fill="#72B5E8"/>
<path d="M399.84 229.91C399.84 234.274 403.031 236.033 406.874 233.851C410.79 231.67 413.908 226.392 413.908 222.029C413.908 217.665 410.718 215.906 406.874 218.088C403.031 220.269 399.84 225.547 399.84 229.91Z" fill="#3F92D1"/>
<path d="M401.002 230.614C401.002 234.977 404.193 236.737 408.037 234.555C411.953 232.374 415.071 227.096 415.071 222.733C415.071 218.369 411.88 216.61 408.037 218.792C404.193 220.973 401.002 226.251 401.002 230.614Z" fill="#2672AB"/>
<path d="M376.417 212.388V249.193L383.161 245.393V216.117L475.042 164.674V193.95L481.859 190.15V153.344L376.417 212.388Z" fill="#72B5E8"/>
<path d="M376.347 212.458V249.263L369.821 245.674V208.657L376.347 212.458Z" fill="#A8CFF0"/>
<path d="M307.455 276.638L310.936 278.609L366.847 247.363L363.366 245.463L307.455 276.638Z" fill="#D1EBFF"/>
<path d="M366.92 227.447V247.363L363.366 245.463V225.406L366.92 227.447Z" fill="#A8CFF0"/>
<path d="M305.862 258.974V287.264L372.071 250.037V221.958L305.862 258.974ZM366.849 247.152L311.01 278.608V261.86L366.849 230.614V247.152Z" fill="#72B5E8"/>
<path d="M305.86 258.974V287.265L301.509 285.153V256.652L305.86 258.974Z" fill="#A8CFF0"/>
<path d="M301.509 256.652L305.86 258.975L371.997 221.958L367.646 219.706L301.509 256.652Z" fill="#D1EBFF"/>
<path d="M242.694 305.281C242.694 311.544 244.942 316.048 248.568 318.159C248.641 318.229 260.026 324.633 260.171 324.704C263.942 326.745 261.549 322.1 267.278 318.863C278.808 312.388 288.236 296.695 288.236 283.817C288.236 277.483 294.327 277.413 290.556 275.302C290.484 275.231 278.373 268.757 278.228 268.686C274.457 266.716 269.309 267.068 263.652 270.235C252.049 276.709 242.694 292.402 242.694 305.281Z" fill="#084C94"/>
<path d="M254.805 311.966C254.805 324.845 264.16 330.052 275.763 323.578C287.293 317.104 296.72 301.41 296.72 288.532C296.72 275.654 287.366 270.446 275.763 276.92C264.232 283.395 254.805 299.088 254.805 311.966Z" fill="#03336E"/>
<path d="M274.747 276.428C280.259 273.331 285.335 272.909 289.033 274.739C285.553 273.824 281.201 274.528 276.488 277.132C264.957 283.606 255.53 299.299 255.53 312.178C255.53 318.863 258.068 323.508 262.129 325.478C257.053 324.071 253.717 319.145 253.717 311.474C253.862 298.595 263.217 282.902 274.747 276.428Z" fill="#2672AB"/>
<path d="M275.908 286.139C268.439 290.291 262.347 300.495 262.347 308.8C262.347 317.104 268.439 320.482 275.908 316.259C283.378 312.107 289.469 301.903 289.469 293.599C289.469 285.365 283.378 281.987 275.908 286.139Z" fill="#A8CFF0"/>
<path d="M284.684 284.873C286.714 286.35 288.019 289.095 288.019 292.825C288.019 301.129 281.928 311.263 274.458 315.485C271.123 317.315 268.077 317.667 265.756 316.752C268.222 318.582 271.92 318.582 275.981 316.259C283.451 312.107 289.542 301.903 289.542 293.599C289.47 289.095 287.584 285.999 284.684 284.873Z" fill="#72B5E8"/>
<path d="M267.205 304.718C267.205 309.081 270.396 310.84 274.24 308.659C278.156 306.477 281.274 301.199 281.274 296.836C281.274 292.473 278.083 290.714 274.24 292.895C270.396 295.077 267.205 300.355 267.205 304.718Z" fill="#3F92D1"/>
<path d="M268.436 305.351C268.436 309.714 271.627 311.474 275.47 309.292C279.386 307.111 282.505 301.833 282.505 297.469C282.505 293.106 279.314 291.347 275.47 293.529C271.554 295.71 268.436 301.059 268.436 305.351Z" fill="#2672AB"/>
<path d="M166.621 337.511V365.872L253.933 316.892V288.883L166.621 337.511Z" fill="#72B5E8"/>
<path d="M229.062 302.888V330.193L230.44 329.489V302.114L229.062 302.888Z" fill="#A8CFF0"/>
<path d="M230.439 302.184V329.489L231.309 329.066V301.691L230.439 302.184Z" fill="#A8CFF0"/>
<path d="M166.621 344.83V363.69L224.853 331.037C224.853 322.733 215.571 317.525 208.102 321.677L166.621 344.83Z" fill="#A8CFF0"/>
<path d="M208.102 321.677L166.621 344.83V347.364L208.102 324.211C214.773 320.481 222.968 324.352 224.563 331.248L224.853 331.108C224.853 322.733 215.571 317.525 208.102 321.677Z" fill="#A8CFF0"/>
<path d="M166.623 337.511V365.872L97.658 327.8V299.298L166.623 337.511Z" fill="#A8CFF0"/>
<path d="M97.658 299.299L166.623 337.512L253.934 288.883L184.897 250.671L97.658 299.299Z" fill="#D1EBFF"/>
<path d="M492.955 47.7837V150.248L178.589 327.589V224.843L492.955 47.7837Z" fill="#084C94"/>
<path opacity="0.3" d="M487.949 56.1577L183.518 227.658V319.214L487.949 147.432V56.1577Z" fill="#2672AB"/>
<path d="M484.831 146.236V57.9171L487.949 56.1577V147.432L183.518 319.214V316.258L484.831 146.236Z" fill="#03336E"/>
<path d="M178.588 224.844V327.589L92.3645 280.017V177.06L178.588 224.844Z" fill="#2672AB"/>
<path d="M92.3645 177.06L178.588 224.844L492.954 47.7837L406.658 0L92.3645 177.06Z" fill="#3F92D1"/>
<g opacity="0.3">
<path d="M191.86 225.196L190.41 225.97V312.248L191.86 311.474V225.196Z" fill="#03336E"/>
<path d="M204.117 218.229L202.739 219.073V305.351L204.117 304.507V218.229Z" fill="#03336E"/>
<path d="M216.444 211.332L215.066 212.177V298.455L216.444 297.61V211.332Z" fill="#03336E"/>
<path d="M228.699 204.435L227.321 205.209V291.487L228.699 290.713V204.435Z" fill="#03336E"/>
<path d="M241.027 197.469L239.649 198.313V284.591L241.027 283.747V197.469Z" fill="#03336E"/>
<path d="M253.356 190.572L251.905 191.416V277.694L253.356 276.85V190.572Z" fill="#03336E"/>
<path d="M265.612 183.675L264.234 184.449V270.727L265.612 269.953V183.675Z" fill="#03336E"/>
<path d="M277.938 176.708L276.56 177.552V263.831L277.938 262.986V176.708Z" fill="#03336E"/>
<path d="M290.194 169.812L288.816 170.656V256.934L290.194 256.089V169.812Z" fill="#03336E"/>
<path d="M302.522 162.915L301.144 163.689V249.967L302.522 249.193V162.915Z" fill="#03336E"/>
<path d="M314.853 155.948L313.475 156.793V243.071L314.853 242.226V155.948Z" fill="#03336E"/>
<path d="M327.106 149.051L325.729 149.896V236.174L327.106 235.329V149.051Z" fill="#03336E"/>
<path d="M339.433 142.155L338.055 142.999V229.207L339.433 228.433V142.155Z" fill="#03336E"/>
<path d="M351.76 135.188L350.31 136.032V222.31L351.76 221.466V135.188Z" fill="#03336E"/>
<path d="M364.017 128.291L362.639 129.135V215.413L364.017 214.569V128.291Z" fill="#03336E"/>
<path d="M376.347 121.394L374.969 122.239V208.517L376.347 207.672V121.394Z" fill="#03336E"/>
<path d="M388.602 114.428L387.225 115.272V201.55L388.602 200.706V114.428Z" fill="#03336E"/>
<path d="M400.928 107.531L399.55 108.376V194.654L400.928 193.809V107.531Z" fill="#03336E"/>
<path d="M413.256 100.634L411.806 101.479V187.757L413.256 186.912V100.634Z" fill="#03336E"/>
<path d="M425.513 93.7378L424.135 94.5119V180.79L425.513 179.945V93.7378Z" fill="#03336E"/>
<path d="M437.842 86.771L436.464 87.6154V173.893L437.842 173.049V86.771Z" fill="#03336E"/>
<path d="M450.097 79.8743L448.719 80.7187V166.997L450.097 166.152V79.8743Z" fill="#03336E"/>
<path d="M462.423 72.9775L461.045 73.7515V160.03L462.423 159.255V72.9775Z" fill="#03336E"/>
<path d="M474.753 66.0105L473.375 66.8549V153.133L474.753 152.288V66.0105Z" fill="#03336E"/>
</g>
<g opacity="0.3">
<path d="M193.239 223.365L191.861 224.21V310.488L193.239 309.643V223.365Z" fill="#3F92D1"/>
<path d="M205.568 216.398L204.19 217.243V303.521L205.568 302.676V216.398Z" fill="#3F92D1"/>
<path d="M217.897 209.502L216.447 210.346V296.624L217.897 295.78V209.502Z" fill="#3F92D1"/>
<path d="M230.15 202.605L228.772 203.449V289.727L230.15 288.883V202.605Z" fill="#3F92D1"/>
<path d="M242.479 195.638L241.101 196.483V282.761L242.479 281.916V195.638Z" fill="#3F92D1"/>
<path d="M254.734 188.742L253.356 189.586V275.864L254.734 275.02V188.742Z" fill="#3F92D1"/>
<path d="M267.064 181.845L265.686 182.69V268.967L267.064 268.123V181.845Z" fill="#3F92D1"/>
<path d="M279.391 174.948L277.941 175.723V262.001L279.391 261.156V174.948Z" fill="#3F92D1"/>
<path d="M291.645 167.981L290.268 168.826V255.104L291.645 254.259V167.981Z" fill="#3F92D1"/>
<path d="M303.975 161.085L302.597 161.93V248.207L303.975 247.363V161.085Z" fill="#3F92D1"/>
<path d="M316.229 154.188L314.852 154.962V241.24L316.229 240.466V154.188Z" fill="#3F92D1"/>
<path d="M328.559 147.221L327.181 148.066V234.344L328.559 233.499V147.221Z" fill="#3F92D1"/>
<path d="M340.885 140.325L339.508 141.169V227.447L340.885 226.603V140.325Z" fill="#3F92D1"/>
<path d="M353.14 133.428L351.762 134.202V220.48L353.14 219.706V133.428Z" fill="#3F92D1"/>
<path d="M365.47 126.461L364.093 127.305V213.583L365.47 212.739V126.461Z" fill="#3F92D1"/>
<path d="M377.797 119.564L376.347 120.409V206.687L377.797 205.842V119.564Z" fill="#3F92D1"/>
<path d="M390.054 112.668L388.677 113.442V199.72L390.054 198.946V112.668Z" fill="#3F92D1"/>
<path d="M402.382 105.701L401.004 106.545V192.823L402.382 191.979V105.701Z" fill="#3F92D1"/>
<path d="M414.634 98.804L413.257 99.6484V185.926L414.634 185.082V98.804Z" fill="#3F92D1"/>
<path d="M426.965 91.9077L425.587 92.6818V178.96L426.965 178.186V91.9077Z" fill="#3F92D1"/>
<path d="M439.293 84.9407L437.843 85.7851V172.063L439.293 171.219V84.9407Z" fill="#3F92D1"/>
<path d="M451.55 78.0435L450.172 78.888V165.166L451.55 164.322V78.0435Z" fill="#3F92D1"/>
<path d="M463.875 71.1472L462.498 71.9917V158.199L463.875 157.425V71.1472Z" fill="#3F92D1"/>
<path d="M476.202 64.1804L474.752 65.0249V151.303L476.202 150.458V64.1804Z" fill="#3F92D1"/>
</g>
<path d="M92.5099 208.306L35.8007 240.326C28.839 244.126 23.8353 250.6 21.8773 258.06L13.9003 288.531C11.5073 297.68 10.3469 307.04 10.3469 316.399V352.22L91.2045 396.625V364.887C91.2045 353.275 93.0175 341.734 96.6434 330.685L106.941 299.017C109.189 292.191 113.975 286.35 120.429 282.831L173.44 252.852L92.5099 208.306Z" fill="#A8CFF0"/>
<path d="M91.1326 364.746V396.696L134.426 372.557L137.762 354.049L173.441 333.43V252.852L120.212 282.972C113.758 286.561 108.899 292.332 106.724 299.228L96.4989 330.826C92.9456 341.804 91.1326 353.205 91.1326 364.746Z" fill="#72B5E8"/>
<path d="M92.2199 364.535C92.2199 353.064 94.0329 341.593 97.5863 330.615L107.811 299.017C110.059 292.121 114.846 286.35 121.3 282.761L172.86 253.626V252.289L119.632 282.409C113.178 285.998 108.319 291.769 106.143 298.665L95.9184 330.263C92.365 341.241 90.552 352.642 90.552 364.183V396.133L92.2199 395.218V364.535Z" fill="#D1EBFF"/>
<path d="M111.582 300.706L101.357 332.374C100.632 334.556 103.098 336.456 105.128 335.26L137.181 317.103C139.284 315.907 140.59 313.725 140.59 311.333V285.365C140.59 283.394 138.414 282.198 136.674 283.183L116.804 294.443C114.411 295.85 112.453 298.032 111.582 300.706Z" fill="#03336E"/>
<path d="M137.978 282.831C138.704 283.254 139.139 284.028 139.139 284.943V310.91C139.139 313.303 137.833 315.485 135.73 316.681L103.677 334.837C103.242 335.048 102.807 335.189 102.372 335.189C103.097 335.682 104.112 335.823 105.055 335.26L137.108 317.103C139.211 315.907 140.517 313.725 140.517 311.333V285.365C140.589 283.887 139.356 282.831 137.978 282.831Z" fill="#001A46"/>
<path d="M77.3533 339.904V351.657C77.3533 364.113 63.5022 371.924 52.3344 365.731L40.7316 359.327C28.0409 352.29 20.209 339.201 20.209 324.985V308.095L77.3533 339.904Z" fill="#3F92D1"/>
<path d="M60.6018 363.55C58.4988 363.55 56.4683 362.987 54.5828 361.931L42.9799 355.527C31.6671 349.264 24.7053 337.582 24.7053 324.915V311.685L72.9299 338.567V351.586C72.9299 358.976 66.5483 363.55 60.6018 363.55Z" fill="#03336E"/>
<path d="M61.7621 363.268C59.659 363.268 57.6285 362.705 55.743 361.65L44.1402 355.246C32.8274 348.982 25.8656 337.301 25.8656 324.633V312.318L24.7053 311.685V324.915C24.7053 337.512 31.7396 349.264 42.9799 355.527L54.5828 361.931C56.4683 362.987 58.4988 363.55 60.6018 363.55C61.7621 363.55 62.9223 363.409 64.0101 363.057C63.2849 363.198 62.5597 363.268 61.7621 363.268Z" fill="#001A46"/>
<path d="M30.7243 344.268L64.2278 362.987C65.0255 362.776 65.8231 362.424 66.5483 362.002L28.6214 340.89C29.274 342.016 29.9266 343.212 30.7243 344.268ZM26.0832 334.486L70.1742 359.116C70.6093 358.624 70.9719 358.061 71.3345 357.498L25.4305 331.882C25.5756 332.726 25.8656 333.571 26.0832 334.486ZM24.7053 324.915C24.7053 325.478 24.7054 325.97 24.7779 326.463L72.7848 353.275C72.8573 352.712 72.9299 352.149 72.9299 351.586V351.023L24.7053 324.141V324.915ZM24.7053 316.963V319.285L72.9299 346.168V343.845L24.7053 316.963Z" fill="#3F92D1"/>
<path d="M29.2757 341.874L65.8974 362.283C66.1149 362.142 66.4049 362.072 66.6225 361.931L28.6956 340.819C28.8406 341.171 29.0582 341.523 29.2757 341.874Z" fill="#72B5E8"/>
<path d="M25.6485 332.656L70.9722 357.99C71.1173 357.779 71.2623 357.638 71.3349 357.498L25.4309 331.882C25.5034 332.093 25.5759 332.374 25.6485 332.656Z" fill="#72B5E8"/>
<path d="M24.7072 324.914L72.8592 351.797C72.8592 351.727 72.8592 351.656 72.8592 351.586V351.023L24.6348 324.14V324.914H24.7072Z" fill="#72B5E8"/>
<path d="M24.7056 316.962V317.666L72.9301 344.549V343.845L24.7056 316.962Z" fill="#72B5E8"/>
<path d="M88.3021 335.612C87.5044 335.612 86.7067 335.401 85.9816 334.978L20.3527 298.877C17.2344 297.117 15.639 293.599 16.5093 290.221L24.7037 258.834C25.1388 257.215 25.719 255.667 26.4442 254.119C26.9518 253.134 27.9671 252.5 29.0548 252.5C29.5625 252.5 29.9976 252.641 30.4327 252.852L101.863 292.684C103.748 293.739 104.619 295.921 103.966 298.032L92.7982 332.374C92.2906 334.345 90.4051 335.612 88.3021 335.612Z" fill="#084C94"/>
<path opacity="0.5" d="M16.5834 290.221L24.778 258.834C25.2131 257.215 25.7932 255.667 26.5184 254.119C27.026 253.134 28.0413 252.5 29.129 252.5C29.6366 252.5 30.0718 252.641 30.5069 252.852L101.937 292.684C103.895 293.739 15.6407 293.599 16.5834 290.221Z" fill="#2672AB"/>
<path d="M89.8245 332.023C88.9543 332.023 88.1566 331.811 87.4314 331.389L20.8597 294.725C18.6117 293.458 17.1613 291.276 16.8712 288.884L16.5087 290.15C15.6385 293.528 17.1614 297.117 20.3522 298.806L85.981 334.908C86.7062 335.33 87.5039 335.541 88.3016 335.541C90.4046 335.541 92.2176 334.204 92.8702 332.304L93.5229 330.263C92.6527 331.389 91.3474 332.023 89.8245 332.023Z" fill="#001A46"/>
<path d="M56.25 298.032L37.6854 294.091C37.4679 293.951 37.2503 293.88 36.9602 293.951L26.01 291.628C25.5749 291.558 25.2122 291.769 25.1397 292.191C25.0672 292.614 25.2848 292.965 25.7199 293.036L36.5976 295.358L40.151 307.251C40.2235 307.533 40.5136 307.744 40.8762 307.744C40.9488 307.744 41.0213 307.744 41.0938 307.744C41.4564 307.603 41.7464 307.251 41.6013 306.829L38.2656 295.71L55.8874 299.44C55.9599 299.44 55.9599 299.44 55.9599 299.44C56.3225 299.44 56.6851 299.229 56.7576 298.877C56.9026 298.455 56.6851 298.103 56.25 298.032Z" fill="#001A46"/>
<path d="M85.5478 313.937L66.9832 309.996C66.7656 309.855 66.5481 309.785 66.258 309.855L55.3078 307.533C54.8726 307.462 54.5101 307.673 54.4376 308.096C54.3651 308.518 54.5826 308.87 55.0177 308.94L65.8954 311.262L69.4488 323.156C69.5213 323.437 69.8114 323.648 70.174 323.648C70.2465 323.648 70.319 323.648 70.3915 323.648C70.7541 323.507 71.0442 323.156 70.8992 322.733L67.5633 311.614L85.1853 315.344C85.2578 315.344 85.2577 315.344 85.3302 315.344C85.6928 315.344 85.9829 315.133 86.0555 314.781C86.2005 314.359 85.9829 314.007 85.5478 313.937Z" fill="#001A46"/>
<path d="M146.753 315.415L142.04 318.089C141.024 318.652 140.372 319.778 140.372 320.974V321.185C140.372 322.382 141.677 323.085 142.765 322.522L146.971 320.13C147.986 319.567 148.566 318.511 148.566 317.385V316.541C148.639 315.485 147.551 314.922 146.753 315.415Z" fill="#A8CFF0"/>
<path d="M146.969 320.059L142.763 322.452C141.748 323.015 140.515 322.381 140.443 321.255V321.396V322.17C140.443 323.367 141.748 324.07 142.836 323.507L147.042 321.115C148.057 320.552 148.637 319.496 148.637 318.37V317.314C148.637 318.44 147.985 319.496 146.969 320.059Z" fill="#A8CFF0"/>
<path d="M138.27 331.178L173.368 333.43L137.834 353.768L138.27 331.178Z" fill="#A8CFF0"/>
<path d="M162.706 348.56V364.113L150.523 357.427L151.321 341.945L162.706 348.56Z" fill="#3F92D1"/>
<path d="M108.391 380.791C108.391 387.125 110.639 391.629 114.265 393.74C114.41 393.81 125.287 399.933 125.432 400.003C129.203 402.044 126.81 397.399 132.612 394.162C144.215 387.617 153.642 371.854 153.642 358.905C153.642 352.501 159.733 352.431 156.035 350.319C155.962 350.249 144.287 343.986 144.142 343.915C140.371 341.945 135.15 342.297 129.421 345.464C117.818 352.008 108.391 367.842 108.391 380.791Z" fill="#084C94"/>
<path d="M120.066 387.195C120.066 400.144 129.493 405.352 141.096 398.877C152.699 392.332 162.126 376.569 162.126 363.62C162.126 350.671 152.699 345.464 141.096 351.938C129.493 358.483 120.066 374.246 120.066 387.195Z" fill="#03336E"/>
<path d="M126.084 383.817C126.084 393.036 132.829 396.766 141.096 392.121C149.363 387.477 156.107 376.217 156.107 366.998C156.107 357.779 149.363 354.049 141.096 358.694C132.829 363.339 126.084 374.598 126.084 383.817Z" fill="#A8CFF0"/>
<path d="M149.654 356.865C152.337 358.413 154.005 361.579 154.005 366.154C154.005 375.373 147.261 386.633 138.994 391.277C135.803 393.037 132.83 393.599 130.437 393.107C133.192 394.655 136.963 394.444 141.097 392.122C149.364 387.477 156.108 376.217 156.108 366.998C156.108 361.298 153.57 357.709 149.654 356.865Z" fill="#72B5E8"/>
<path d="M140.083 351.445C145.667 348.349 150.743 347.926 154.514 349.756C151.033 348.771 146.682 349.545 141.896 352.149C130.293 358.694 120.866 374.457 120.866 387.406C120.866 394.162 123.404 398.806 127.538 400.777C122.389 399.369 119.053 394.443 119.053 386.702C119.053 373.754 128.48 357.99 140.083 351.445Z" fill="#2672AB"/>
<path d="M138.993 361.79C137.905 362.424 137.035 363.831 137.035 365.098C137.035 366.294 137.905 366.787 138.993 366.154C140.08 365.52 140.951 364.113 140.951 362.846C140.951 361.72 140.08 361.227 138.993 361.79ZM138.993 384.099C137.905 384.732 137.035 386.14 137.035 387.406C137.035 388.603 137.905 389.095 138.993 388.462C140.08 387.829 140.951 386.421 140.951 385.154C140.951 383.958 140.08 383.465 138.993 384.099ZM144.649 365.591C145.447 366.013 146.679 365.309 147.405 364.042C148.202 362.776 148.202 361.368 147.405 360.946C146.607 360.524 145.374 361.227 144.649 362.494C143.924 363.831 143.924 365.168 144.649 365.591ZM133.264 384.662C132.466 384.24 131.233 384.943 130.508 386.21C129.71 387.477 129.71 388.884 130.508 389.307C131.306 389.729 132.538 389.025 133.264 387.758C134.061 386.492 134.061 385.084 133.264 384.662ZM149 367.35C147.912 367.983 147.042 369.391 147.042 370.657C147.042 371.854 147.912 372.347 149 371.713C150.088 371.08 150.958 369.672 150.958 368.406C150.958 367.209 150.088 366.717 149 367.35ZM128.985 378.539C127.897 379.173 127.027 380.58 127.027 381.847C127.027 383.114 127.897 383.536 128.985 382.903C130.073 382.269 130.943 380.862 130.943 379.595C130.943 378.469 130.073 377.976 128.985 378.539ZM147.405 376.71C146.607 376.287 145.374 376.991 144.649 378.258C143.851 379.525 143.851 380.932 144.649 381.354C145.447 381.777 146.679 381.073 147.405 379.806C148.202 378.539 148.202 377.132 147.405 376.71ZM133.264 368.898C132.466 368.476 131.233 369.18 130.508 370.446C129.71 371.713 129.71 373.121 130.508 373.543C131.306 373.965 132.538 373.261 133.264 371.995C134.061 370.728 134.061 369.32 133.264 368.898Z" fill="#03336E"/>
<path d="M132.901 377.695C132.901 379.454 133.554 380.651 134.496 381.284C134.496 381.284 136.889 382.691 136.962 382.691C137.977 383.254 137.324 381.988 138.92 381.073C142.111 379.243 144.721 374.95 144.721 371.361C144.721 369.602 146.389 369.602 145.374 368.969C145.374 368.969 142.763 367.561 142.763 367.491C141.748 366.928 140.298 367.068 138.702 367.913C135.512 369.743 132.901 374.106 132.901 377.695Z" fill="#3F92D1"/>
<path d="M135.511 379.173C135.511 382.762 138.122 384.169 141.313 382.41C144.503 380.58 147.114 376.288 147.114 372.698C147.114 369.109 144.503 367.702 141.313 369.461C138.122 371.221 135.511 375.584 135.511 379.173Z" fill="#2672AB"/>
<path d="M114.702 397.892V375.443L129.858 350.179L151.106 338.286L138.27 331.178L116.95 343.142L101.794 368.335V390.855L114.702 397.892Z" fill="#D1EBFF"/>
<path d="M114.702 397.892V375.443L129.858 350.179L151.106 338.286L138.27 331.178L116.95 343.142L101.794 368.335V390.855L114.702 397.892Z" fill="#D1EBFF"/>
<path opacity="0.7" d="M114.702 397.892V375.443L101.794 368.335V390.855L114.702 397.892Z" fill="#72B5E8"/>
<path d="M114.702 375.443L129.858 350.179L116.95 343.142L101.794 368.335L114.702 375.443Z" fill="#A8CFF0"/>
<path d="M118.327 396.063V376.358L132.396 352.713L151.178 342.227L162.708 348.56V364.113L166.262 362.143V346.59L151.178 338.216L129.858 350.179L114.701 375.443V398.033L118.327 396.063Z" fill="#72B5E8"/>
<path d="M4.25635 344.689L85.1139 391.277C89.0299 393.458 93.8887 393.458 97.8772 391.277L113.033 383.043V396.414L97.8046 404.718C93.8161 406.9 88.9574 406.9 85.0415 404.718L7.15703 361.298C5.41659 360.312 4.32883 358.483 4.32883 356.583V344.689H4.25635Z" fill="#2672AB"/>
<path d="M97.7305 377.132C97.7305 378.117 97.1503 378.962 96.2076 379.313C92.5817 380.721 88.4481 380.51 84.9673 378.61L73.4369 372.206H73.3644C70.8988 370.798 71.1889 367.28 73.7995 366.224L79.3835 363.479C80.2537 363.128 81.2689 363.198 82.1391 363.55C85.4749 365.028 90.5512 368.335 95.1923 366.857C96.5702 366.435 97.803 367.843 97.803 369.25L97.7305 377.132Z" fill="#2672AB"/>
<path d="M5.63256 347.223L85.1123 391.277C89.0283 393.459 93.887 393.459 97.8755 391.277L113.032 383.043L108.898 380.721L97.948 386.703C93.9595 388.955 89.1008 388.884 85.1123 386.703L10.4187 344.901V339.552L5.55997 342.438C3.6745 343.564 3.74709 346.168 5.63256 347.223Z" fill="#3F92D1"/>
<path d="M10.2766 344.056H10.3491L10.4216 339.623H10.2766V344.056Z" fill="#72B5E8"/>
<path d="M112.09 382.55L97.7314 390.362C93.8154 392.544 88.9567 392.544 85.0407 390.362L5.56089 346.308C4.90822 345.956 4.47317 345.323 4.25561 344.689C4.1831 345.675 4.69074 346.66 5.63347 347.223L85.1132 391.277C89.0292 393.458 93.888 393.458 97.8764 391.277L113.033 383.043L112.09 382.55Z" fill="#72B5E8"/>
<path d="M113.543 335.259C113.325 335.259 113.035 335.119 112.89 334.908C112.672 334.556 112.817 334.133 113.107 333.922L118.184 330.967C120.867 329.418 122.535 326.533 122.535 323.507V304.365C122.535 301.48 121.012 298.736 118.546 297.117L113.615 293.88C113.253 293.669 113.18 293.176 113.398 292.895C113.615 292.543 114.123 292.472 114.413 292.683L119.344 295.921C122.245 297.821 123.985 300.988 123.985 304.365V323.507C123.985 327.026 122.027 330.333 118.909 332.163L113.833 335.119C113.76 335.26 113.688 335.259 113.543 335.259Z" fill="#A8CFF0"/>
<path d="M126.45 324.633L122.824 322.592C121.229 321.677 119.924 319.285 119.924 317.244V306.688C119.924 304.647 121.229 303.662 122.824 304.577L126.45 306.617C128.046 307.532 129.351 309.925 129.351 311.966V322.522C129.278 324.563 128.046 325.548 126.45 324.633Z" fill="#A8CFF0"/>
<path d="M126.45 306.688L122.824 304.647C121.882 304.154 121.084 304.225 120.576 304.788C120.939 304.788 121.374 304.858 121.809 305.069L125.435 307.11C127.031 308.025 128.336 310.418 128.336 312.459V323.015C128.336 323.859 128.118 324.563 127.683 324.985C128.626 324.915 129.279 324 129.279 322.592V312.036C129.279 309.925 128.046 307.532 126.45 306.688Z" fill="#72B5E8"/>
<path d="M173.513 229.066L93.9607 184.801L63.9382 202.254C50.9575 209.572 42.9805 223.084 42.9805 237.652L43.1255 237.581L122.46 281.424L173.513 229.066Z" fill="#D1EBFF"/>
<path opacity="0.5" d="M141.024 262.423L154.294 248.841L67.3453 200.283L64.082 202.183C59.2958 204.928 55.1622 208.447 51.8989 212.599L141.024 262.423Z" fill="white"/>
<path d="M121.878 281.142L173.003 252.008V228.714L142.836 245.815C129.855 253.063 121.878 266.575 121.878 281.142Z" fill="white"/>
<path d="M122.459 281.354L173.584 252.219V228.925L143.417 246.026C130.436 253.275 122.459 266.786 122.459 281.354Z" fill="#72B5E8"/>
<path d="M10.2766 328.855V338.074C10.2766 338.778 10.7117 339.482 11.3643 339.834L17.8909 343.071C19.1237 343.704 20.5016 342.508 20.0665 341.241L17.4558 333.5C17.0932 332.515 16.2956 331.67 15.2804 331.178L10.2766 328.855Z" fill="#2672AB"/>
<path d="M73.5824 370.728L87.8684 378.539C89.1738 379.243 90.8417 378.328 90.8417 376.85V370.798C90.8417 368.828 89.7539 367.068 87.9409 366.154L83.4448 363.831C81.6319 362.916 79.4563 363.057 77.7884 364.254L73.3648 367.42C72.2045 368.335 72.3496 370.024 73.5824 370.728Z" fill="white"/>
<path d="M10.2766 331.952V337.23C10.2766 337.934 10.7117 338.638 11.3643 338.99L17.8909 342.227C19.1237 342.86 20.5016 341.664 20.0665 340.397L17.4558 333.501C17.0932 332.515 16.2956 331.671 15.2804 331.178L13.1048 330.193C11.7995 329.56 10.2766 330.474 10.2766 331.952Z" fill="#D1EBFF"/>
<path d="M10.2766 331.952C10.2766 331.952 19.1238 342.438 19.5589 342.157C20.0665 341.805 20.3566 341.101 20.1391 340.397L17.5284 333.501C17.1658 332.515 16.3681 331.671 15.3529 331.178L13.1773 330.193C11.7994 329.56 10.2766 330.474 10.2766 331.952Z" fill="white"/>
<path d="M27.0264 372.276L26.9539 369.813C26.9539 367.139 29.9272 365.52 32.2478 366.857L55.4535 379.806C59.0794 381.847 61.255 385.577 61.255 389.588V391.558L27.0264 372.276Z" fill="#3F92D1"/>
<path d="M90.6963 369.532C90.3337 368.124 89.391 366.857 88.0132 366.224L83.517 363.902C81.704 362.987 79.5285 363.128 77.8606 364.324L73.437 367.491C72.7118 367.983 72.4943 368.828 72.7118 369.532H90.6963Z" fill="#D1EBFF"/>
<path d="M77.0642 365.45L79.5298 370.446C79.5298 370.446 83.5183 367.069 82.7206 365.52C81.9954 364.042 77.0642 365.45 77.0642 365.45Z" fill="#FFCC00"/>
<path d="M80.3293 368.968C80.3293 370.235 79.3866 370.728 78.2988 370.094C77.1385 369.461 76.2683 367.913 76.2683 366.646C76.2683 365.379 77.211 364.887 78.2988 365.52C79.3866 366.153 80.3293 367.702 80.3293 368.968Z" fill="#FFDE17"/>
<path d="M11.5789 333.922L14.1895 339.2C14.1895 339.2 18.3956 335.682 17.5979 334.063C16.8002 332.444 11.5789 333.922 11.5789 333.922Z" fill="#FFCC00"/>
<path d="M14.9883 337.723C14.9883 339.06 14.0456 339.623 12.8128 338.919C11.58 338.215 10.6372 336.597 10.6372 335.26C10.6372 333.923 11.58 333.36 12.8128 334.063C14.0456 334.767 14.9883 336.386 14.9883 337.723Z" fill="#FFDE17"/>
<path d="M80.7615 369.883L83.2271 374.95C83.2271 374.95 90.7689 370.446 89.9712 368.898C89.246 367.28 80.7615 369.883 80.7615 369.883Z" fill="#FFCC00"/>
<path d="M84.0252 373.472C84.0252 374.739 83.0824 375.232 81.9221 374.598C80.7618 373.965 79.8191 372.417 79.8191 371.15C79.8191 369.883 80.7618 369.391 81.9221 370.024C83.0824 370.657 84.0252 372.206 84.0252 373.472Z" fill="#FFDE17"/>
<path d="M90.9146 376.85V370.798C90.9146 368.828 89.8269 367.068 88.0139 366.154L83.5177 363.831C81.7048 362.916 79.5292 363.057 77.8613 364.254L90.9146 376.85Z" fill="url(#paint0_radial_439_7576)"/>
<path d="M54.8 382.058V388.11L32.3918 375.795V369.602L54.8 382.058Z" fill="#D1EBFF"/>
<path d="M32.3918 369.602V370.517L54.0748 382.551V387.688L54.8 388.11V382.058L32.3918 369.602Z" fill="white"/>
<path d="M77.2809 334.978V341.03L20.2817 309.714V303.521L77.2809 334.978Z" fill="#3F92D1"/>
<path d="M77.2809 334.978V336.245L20.2817 304.929V303.521L77.2809 334.978Z" fill="#72B5E8"/>
<path d="M10.2766 331.952V337.23C10.2766 337.934 17.4558 333.43 17.4558 333.43C17.0932 332.445 16.2956 331.6 15.2804 331.108L13.1048 330.123C11.7995 329.56 10.2766 330.474 10.2766 331.952Z" fill="url(#paint1_radial_439_7576)"/>
<path d="M83.4467 397.329C83.4467 399.089 82.1414 399.792 80.6185 398.877C79.0231 398.033 77.7903 395.851 77.7903 394.162C77.7903 392.403 79.0231 391.699 80.6185 392.614C82.2139 393.459 83.4467 395.64 83.4467 397.329Z" fill="#A8CFF0"/>
<path d="M82.0677 398.103C80.4723 397.258 79.2395 395.077 79.2395 393.388C79.2395 392.966 79.312 392.543 79.457 392.262C78.4418 392.192 77.7166 392.895 77.7166 394.232C77.7166 395.992 78.9495 398.103 80.5449 398.947C81.7052 399.581 82.7203 399.37 83.1554 398.525C82.8653 398.455 82.5028 398.314 82.0677 398.103Z" fill="#03336E"/>
<path d="M75.8302 393.036C75.8302 394.796 74.5974 395.499 73.002 394.584C71.4066 393.74 70.1738 391.558 70.1738 389.869C70.1738 388.11 71.4066 387.406 73.002 388.321C74.5249 389.166 75.8302 391.277 75.8302 393.036Z" fill="#A8CFF0"/>
<path d="M74.4538 393.811C72.8584 392.966 71.6256 390.785 71.6256 389.096C71.6256 388.673 71.6981 388.251 71.8431 387.97C70.8279 387.899 70.1028 388.603 70.1028 389.94C70.1028 391.699 71.3356 393.811 72.931 394.655C74.0913 395.288 75.1065 395.077 75.5416 394.233C75.2516 394.163 74.8164 394.022 74.4538 393.811Z" fill="#03336E"/>
<path d="M21.0097 362.635C21.0097 364.394 19.7769 365.098 18.1815 364.183C16.5861 363.339 15.3533 361.157 15.3533 359.468C15.3533 357.709 16.5861 357.005 18.1815 357.92C19.7769 358.764 21.0097 360.876 21.0097 362.635Z" fill="#A8CFF0"/>
<path d="M19.7043 363.409C18.1089 362.565 16.8761 360.383 16.8761 358.694C16.8761 358.272 16.9487 357.85 17.0937 357.568C16.0785 357.498 15.3533 358.201 15.3533 359.538C15.3533 361.298 16.6586 363.409 18.1815 364.254C19.3418 364.887 20.357 364.676 20.7921 363.831C20.4295 363.761 20.0669 363.62 19.7043 363.409Z" fill="#03336E"/>
<path d="M13.3937 358.272C13.3937 360.031 12.0884 360.735 10.5655 359.82C8.97011 358.975 7.7373 356.794 7.7373 355.105C7.7373 353.345 8.97011 352.642 10.5655 353.557C12.0884 354.401 13.3937 356.583 13.3937 358.272Z" fill="#A8CFF0"/>
<path d="M12.0168 359.046C10.4214 358.201 9.18859 356.02 9.18859 354.331C9.18859 353.909 9.2611 353.486 9.40613 353.205C8.39088 353.134 7.66577 353.838 7.66577 355.175C7.66577 356.935 8.89857 359.046 10.494 359.89C11.6543 360.524 12.6695 360.312 13.1046 359.468C12.8146 359.398 12.3794 359.257 12.0168 359.046Z" fill="#03336E"/>
<path d="M90.552 369.391V378.328C92.2199 378.398 93.8153 378.117 95.3382 377.272L95.4107 368.335C93.8878 369.179 92.2199 369.531 90.552 369.391Z" fill="#EB4680"/>
<path d="M148.929 310.629C147.478 310.629 146.318 309.503 146.318 308.095V281.494C146.318 279.172 147.623 277.061 149.654 275.864L163.142 268.264C163.505 268.053 164.012 267.912 164.447 267.912C165.898 267.912 167.058 269.038 167.058 270.446V297.047C167.058 299.369 165.753 301.48 163.722 302.677L150.234 310.277C149.799 310.488 149.364 310.629 148.929 310.629ZM164.447 269.39C164.23 269.39 164.085 269.46 163.867 269.531L150.379 277.131C148.783 278.046 147.768 279.735 147.768 281.565V308.166C147.768 309.081 148.784 309.503 149.509 309.151L162.997 301.551C164.592 300.636 165.608 298.947 165.608 297.117V270.516C165.608 269.812 165.028 269.39 164.447 269.39Z" fill="#A8CFF0"/>
<path d="M148.93 310.629C148.495 310.629 148.06 310.488 147.625 310.277L148.35 309.08C148.712 309.292 149.148 309.292 149.51 309.08L162.999 301.48C164.594 300.565 165.609 298.876 165.609 297.047V270.445C165.609 269.882 165.247 269.53 164.884 269.39L165.392 268.123C166.407 268.475 166.987 269.39 166.987 270.445V297.047C166.987 299.369 165.682 301.48 163.651 302.676L150.163 310.277C149.8 310.488 149.365 310.629 148.93 310.629Z" fill="#A8CFF0"/>
<path d="M116.948 343.142L129.857 350.179L151.177 338.216L129.857 349.405L116.948 343.142Z" fill="white"/>
<g opacity="0.3">
<path d="M484.036 47.7134L485.123 48.4172L178.807 219.706L177.719 219.003L484.036 47.7134Z" fill="#72B5E8"/>
<path d="M475.477 42.9285L476.637 43.6321L170.321 214.921L169.16 214.218L475.477 42.9285Z" fill="#72B5E8"/>
<path d="M466.994 38.1426L468.082 38.776L161.765 210.136L160.605 209.432L466.994 38.1426Z" fill="#72B5E8"/>
<path d="M458.434 33.2869L459.522 33.9906L153.205 205.28L152.118 204.646L458.434 33.2869Z" fill="#72B5E8"/>
<path d="M449.88 28.5015L450.967 29.2052L144.651 200.494L143.563 199.791L449.88 28.5015Z" fill="#72B5E8"/>
<path d="M441.322 23.7163L442.482 24.42L136.093 195.709L135.005 195.006L441.322 23.7163Z" fill="#72B5E8"/>
<path d="M432.763 18.9307L433.923 19.564L127.607 190.924L126.447 190.22L432.763 18.9307Z" fill="#72B5E8"/>
<path d="M424.278 14.0752L425.366 14.779L119.05 186.068L117.962 185.435L424.278 14.0752Z" fill="#72B5E8"/>
<path d="M415.723 9.28955L416.811 9.99322L110.494 181.283L109.407 180.579L415.723 9.28955Z" fill="#72B5E8"/>
<path d="M407.166 4.50391L408.253 5.20768L101.937 176.497L100.849 175.793L407.166 4.50391Z" fill="#72B5E8"/>
</g>
<g opacity="0.3">
<path d="M483.093 47.0095L484.181 47.7132L177.864 219.073L176.777 218.369L483.093 47.0095Z" fill="#2672AB"/>
<path d="M474.535 42.2241L475.623 42.9279L169.306 214.217L168.219 213.513L474.535 42.2241Z" fill="#2672AB"/>
<path d="M465.976 37.4387L467.137 38.1424L160.748 209.432L159.66 208.728L465.976 37.4387Z" fill="#2672AB"/>
<path d="M457.421 32.6536L458.582 33.2869L152.266 204.647L151.105 203.943L457.421 32.6536Z" fill="#2672AB"/>
<path d="M448.938 27.7974L450.026 28.5011L143.71 199.79L142.622 199.157L448.938 27.7974Z" fill="#2672AB"/>
<path d="M440.379 23.0125L441.467 23.7162L135.151 195.005L134.063 194.302L440.379 23.0125Z" fill="#2672AB"/>
<path d="M431.821 18.2268L432.909 18.9306L126.593 190.22L125.505 189.516L431.821 18.2268Z" fill="#2672AB"/>
<path d="M423.266 13.4414L424.427 14.0747L118.11 185.434L116.95 184.731L423.266 13.4414Z" fill="#2672AB"/>
<path d="M414.779 8.58569L415.867 9.28947L109.551 180.579L108.391 179.945L414.779 8.58569Z" fill="#2672AB"/>
<path d="M406.223 3.80029L407.311 4.50396L100.994 175.793L99.9065 175.089L406.223 3.80029Z" fill="#2672AB"/>
</g>
<path d="M496 154.611L181.851 330.193V320.551L496 145.04V154.611Z" fill="#72B5E8"/>
<path d="M492.809 143.421L178.661 319.003L181.852 320.552L496 145.04L492.809 143.421Z" fill="#D1EBFF"/>
<path d="M178.731 328.504L181.849 330.193V320.552L178.731 318.863V328.504Z" fill="#A8CFF0"/>
<path d="M495.707 154.822L487.077 159.678L474.894 156.863L483.524 152.007L495.707 154.822Z" fill="#D62D69"/>
<path d="M473.374 167.349L464.671 172.134L452.488 169.319L461.19 164.463L473.374 167.349Z" fill="#D62D69"/>
<path d="M450.964 179.805L442.334 184.661L430.151 181.846L438.781 176.99L450.964 179.805Z" fill="#D62D69"/>
<path d="M428.628 192.331L419.926 197.117L407.815 194.302L416.445 189.446L428.628 192.331Z" fill="#D62D69"/>
<path d="M406.221 204.788L397.592 209.643L385.409 206.828L394.111 201.973L406.221 204.788Z" fill="#D62D69"/>
<path d="M383.886 217.314L375.256 222.099L363.073 219.284L371.703 214.499L383.886 217.314Z" fill="#D62D69"/>
<path d="M361.549 229.77L352.847 234.626L340.736 231.811L349.366 226.955L361.549 229.77Z" fill="#D62D69"/>
<path d="M339.142 242.296L330.513 247.082L318.33 244.267L327.032 239.481L339.142 242.296Z" fill="#D62D69"/>
<path d="M316.805 254.752L308.175 259.608L295.992 256.793L304.622 251.938L316.805 254.752Z" fill="#D62D69"/>
<path d="M294.471 267.279L285.768 272.135L273.585 269.25L282.288 264.464L294.471 267.279Z" fill="#D62D69"/>
<path d="M272.062 279.735L263.432 284.591L251.249 281.776L259.879 276.92L272.062 279.735Z" fill="#D62D69"/>
<path d="M249.727 292.262L241.097 297.117L228.914 294.303L237.544 289.447L249.727 292.262Z" fill="#D62D69"/>
<path d="M227.32 304.718L218.69 309.574L206.507 306.759L215.209 301.903L227.32 304.718Z" fill="#D62D69"/>
<path d="M204.984 317.244L196.354 322.1L184.171 319.285L192.801 314.429L204.984 317.244Z" fill="#D62D69"/>
<path d="M435.85 133.836C444.357 119.721 444.442 104.416 436.04 99.6515C427.638 94.8868 413.931 102.467 405.424 116.581C396.917 130.696 396.832 146.001 405.234 150.766C413.636 155.53 427.343 147.951 435.85 133.836Z" fill="#084C94"/>
<path d="M433.734 98.7239C437.29 101.024 439.487 105.515 439.487 111.816C439.487 125.124 429.798 141.328 417.85 148.028C412.919 150.788 408.399 151.477 404.764 150.42C408.715 152.965 414.357 152.811 420.648 149.285C432.596 142.586 442.284 126.381 442.284 113.074C442.268 105.27 438.918 100.226 433.734 98.7239Z" fill="#03336E"/>
<path d="M472.424 128.052C471.982 128.052 471.634 127.699 471.634 127.285C471.634 126.779 471.618 126.273 471.602 125.783C471.586 125.354 471.918 125.001 472.345 124.97C472.788 124.94 473.151 125.277 473.183 125.691C473.214 126.212 473.23 126.749 473.23 127.285C473.214 127.714 472.867 128.052 472.424 128.052ZM471.745 121.95C471.381 121.95 471.065 121.705 470.97 121.352C470.733 120.371 470.433 119.42 470.069 118.531C469.911 118.133 470.117 117.688 470.528 117.535C470.923 117.381 471.397 117.581 471.555 117.964C471.934 118.915 472.266 119.942 472.519 121C472.614 121.414 472.361 121.827 471.934 121.919C471.855 121.95 471.792 121.95 471.745 121.95ZM468.568 114.99C468.331 114.99 468.078 114.883 467.92 114.668C467.319 113.871 466.656 113.135 465.944 112.491C465.628 112.2 465.597 111.724 465.897 111.402C466.197 111.096 466.687 111.065 467.019 111.356C467.809 112.077 468.552 112.874 469.216 113.763C469.469 114.101 469.39 114.591 469.042 114.837C468.884 114.944 468.726 114.99 468.568 114.99Z" fill="#A8CFF0"/>
<path d="M421.66 149.944C421.66 136.637 431.348 120.432 443.296 113.733C449.065 110.498 454.296 110.084 458.169 112L458.184 111.985L461.535 113.794L459.97 116.385C460.697 118.393 461.092 120.739 461.092 123.422C461.092 136.729 451.404 152.934 439.456 159.634C437.006 161.013 434.636 161.872 432.439 162.27L430.842 164.923L428.598 163.758C424.331 161.734 421.66 156.935 421.66 149.944Z" fill="#F76195"/>
<path d="M461.06 147.781C469.566 133.666 469.651 118.362 461.249 113.597C452.847 108.832 439.14 116.412 430.633 130.527C422.127 144.641 422.042 159.946 430.444 164.711C438.846 169.476 452.553 161.896 461.06 147.781Z" fill="white"/>
<path d="M461.544 148.044C470.051 133.929 470.136 118.624 461.734 113.86C453.332 109.095 439.624 116.675 431.118 130.789C422.611 144.904 422.526 160.209 430.928 164.974C439.33 169.738 453.037 162.159 461.544 148.044Z" fill="#D62D69"/>
<path d="M458.278 139.811L455.181 139.55L458.389 136.791C458.847 136.392 459.116 135.718 459.005 135.273C458.879 134.828 458.405 134.798 457.947 135.181L453.079 139.366L448.827 139.014L453.079 133.893L457.947 132.621C458.026 132.605 458.089 132.575 458.168 132.529C458.547 132.314 458.895 131.839 459.005 131.348C459.132 130.766 458.863 130.398 458.389 130.52L455.181 131.364L458.278 127.623C458.689 127.132 458.832 126.458 458.594 126.136C458.357 125.814 457.82 125.952 457.409 126.442L454.311 130.183L455.165 126.136C455.291 125.553 455.023 125.185 454.548 125.308C454.09 125.431 453.616 125.998 453.49 126.58L452.178 132.743L447.863 137.941V132.483L451.435 126.504C451.767 125.936 451.767 125.339 451.435 125.139C451.103 124.955 450.55 125.262 450.218 125.829L447.863 129.754V125.599C447.863 125.063 447.484 124.848 446.994 125.124C446.52 125.385 446.125 126.028 446.125 126.565V130.72L443.77 129.417C443.438 129.233 442.885 129.539 442.553 130.106C442.221 130.674 442.221 131.272 442.553 131.471L446.125 133.449V138.83L441.936 138.477L440.625 133.786C440.498 133.341 440.024 133.311 439.566 133.694C439.107 134.092 438.839 134.767 438.949 135.212L439.803 138.308L436.563 138.048C436.152 138.017 435.63 138.462 435.377 139.06C435.14 139.658 435.283 140.163 435.694 140.194L438.933 140.455L435.725 143.214C435.267 143.613 434.998 144.288 435.109 144.732C435.219 145.1 435.567 145.192 435.946 144.977C436.025 144.931 436.089 144.885 436.168 144.824L441.036 140.639L445.287 140.991L441.036 146.097L436.168 147.369C435.709 147.492 435.235 148.059 435.109 148.641C434.982 149.224 435.251 149.592 435.725 149.469L438.933 148.626L435.694 152.52C435.283 153.011 435.14 153.685 435.377 154.007C435.536 154.222 435.82 154.237 436.12 154.069C436.263 153.992 436.421 153.869 436.547 153.701L439.787 149.807L438.933 153.854C438.807 154.437 439.076 154.804 439.55 154.682C439.629 154.667 439.692 154.636 439.771 154.59C440.15 154.375 440.498 153.9 440.609 153.409L441.921 147.246L446.109 142.218V147.676L442.537 153.639C442.205 154.207 442.205 154.804 442.537 155.004C442.869 155.188 443.422 154.881 443.754 154.314L446.109 150.389V154.375C446.109 154.912 446.488 155.126 446.978 154.85C447.452 154.59 447.847 153.946 447.847 153.409V149.423L450.202 150.726C450.376 150.818 450.597 150.788 450.819 150.665C451.04 150.542 451.261 150.328 451.435 150.037C451.767 149.469 451.767 148.871 451.435 148.672L447.863 146.694V141.145L452.178 141.497L453.49 146.189C453.6 146.556 453.948 146.648 454.327 146.434C454.406 146.388 454.469 146.342 454.548 146.281C455.007 145.882 455.276 145.207 455.165 144.763L454.311 141.666L457.409 141.927C457.551 141.942 457.694 141.896 457.836 141.819C458.136 141.651 458.421 141.313 458.579 140.915C458.832 140.347 458.689 139.842 458.278 139.811Z" fill="white"/>
<path d="M348.895 415.966C348.232 415.966 347.663 415.46 347.631 414.801C347.599 414.126 348.137 413.543 348.832 413.513C349.796 413.467 350.76 413.313 351.677 413.068C352.357 412.899 353.052 413.283 353.226 413.927C353.416 414.586 353.02 415.26 352.341 415.429C351.235 415.72 350.097 415.889 348.959 415.95C348.943 415.966 348.911 415.966 348.895 415.966ZM344.201 415.46C344.091 415.46 343.98 415.444 343.854 415.414C342.747 415.107 341.689 414.693 340.677 414.172C340.061 413.85 339.824 413.114 340.155 412.516C340.487 411.918 341.246 411.688 341.862 412.01C342.716 412.455 343.617 412.807 344.533 413.053C345.197 413.237 345.592 413.911 345.403 414.571C345.26 415.107 344.755 415.46 344.201 415.46ZM356.324 413.62C355.881 413.62 355.47 413.405 355.233 413.007C354.885 412.424 355.091 411.673 355.691 411.336L358.426 409.787C359.026 409.45 359.801 409.649 360.148 410.232C360.496 410.814 360.291 411.566 359.69 411.903L356.956 413.451C356.766 413.559 356.545 413.62 356.324 413.62ZM337.153 412.041C336.947 412.041 336.726 411.995 336.536 411.888L333.786 410.37C333.186 410.033 332.964 409.281 333.312 408.699C333.66 408.116 334.434 407.902 335.035 408.239L337.785 409.757C338.385 410.094 338.607 410.845 338.259 411.428C338.022 411.811 337.595 412.041 337.153 412.041ZM363.135 409.741C362.693 409.741 362.282 409.527 362.045 409.128C361.697 408.546 361.903 407.794 362.503 407.457L365.237 405.909C365.838 405.571 366.612 405.771 366.96 406.353C367.308 406.936 367.102 407.687 366.502 408.024L363.768 409.573C363.578 409.695 363.357 409.741 363.135 409.741ZM330.278 408.254C330.072 408.254 329.851 408.208 329.661 408.101L326.911 406.583C326.311 406.246 326.089 405.495 326.437 404.912C326.785 404.33 327.559 404.115 328.16 404.452L330.91 405.97C331.51 406.307 331.732 407.058 331.384 407.641C331.147 408.024 330.72 408.254 330.278 408.254ZM323.418 404.452C323.213 404.452 322.992 404.406 322.802 404.299L320.052 402.781C319.451 402.444 319.23 401.693 319.578 401.11C319.926 400.527 320.7 400.313 321.301 400.65L324.051 402.168C324.651 402.505 324.872 403.256 324.525 403.839C324.288 404.238 323.861 404.452 323.418 404.452ZM316.543 400.665C316.338 400.665 316.117 400.619 315.927 400.512L313.177 398.994C312.576 398.657 312.355 397.906 312.703 397.323C313.051 396.741 313.825 396.526 314.426 396.863L317.176 398.381C317.776 398.718 317.997 399.47 317.65 400.052C317.413 400.451 316.986 400.665 316.543 400.665ZM309.668 396.879C309.463 396.879 309.242 396.833 309.052 396.725L306.302 395.208C305.701 394.87 305.48 394.119 305.828 393.537C306.176 392.954 306.95 392.739 307.551 393.077L310.301 394.594C310.901 394.932 311.122 395.683 310.775 396.265C310.538 396.664 310.111 396.879 309.668 396.879ZM302.809 393.092C302.604 393.092 302.382 393.046 302.193 392.939L299.443 391.421C298.842 391.084 298.621 390.332 298.969 389.75C299.316 389.167 300.091 388.953 300.691 389.29L303.441 390.808C304.042 391.145 304.263 391.896 303.915 392.479C303.678 392.877 303.252 393.092 302.809 393.092ZM295.934 389.305C295.729 389.305 295.507 389.259 295.318 389.152L292.568 387.634C291.967 387.297 291.746 386.546 292.094 385.963C292.441 385.381 293.216 385.166 293.816 385.503L296.566 387.021C297.167 387.358 297.388 388.109 297.04 388.692C296.803 389.075 296.377 389.305 295.934 389.305ZM289.075 385.519C288.87 385.519 288.648 385.473 288.459 385.365L285.709 383.847C285.108 383.51 284.887 382.759 285.234 382.176C285.582 381.594 286.357 381.379 286.957 381.716L289.707 383.234C290.308 383.572 290.529 384.323 290.181 384.905C289.928 385.289 289.502 385.519 289.075 385.519ZM282.2 381.732C281.994 381.732 281.773 381.686 281.584 381.578L278.834 380.061C278.233 379.723 278.012 378.972 278.359 378.39C278.707 377.807 279.482 377.592 280.082 377.93L282.832 379.448C283.433 379.785 283.654 380.536 283.306 381.119C283.069 381.502 282.642 381.732 282.2 381.732ZM275.325 377.93C275.119 377.93 274.898 377.884 274.709 377.776L271.959 376.259C271.358 375.921 271.137 375.17 271.484 374.588C271.832 374.005 272.607 373.79 273.207 374.128L275.957 375.645C276.558 375.983 276.779 376.734 276.431 377.316C276.194 377.715 275.767 377.93 275.325 377.93ZM268.466 374.143C268.26 374.143 268.039 374.097 267.849 373.99L265.099 372.472C264.499 372.135 264.278 371.383 264.625 370.801C264.973 370.218 265.747 370.004 266.348 370.341L269.098 371.859C269.698 372.196 269.92 372.947 269.572 373.53C269.335 373.928 268.892 374.143 268.466 374.143ZM261.591 370.356C261.385 370.356 261.164 370.31 260.974 370.203L258.224 368.685C257.624 368.348 257.402 367.597 257.75 367.014C258.098 366.432 258.872 366.217 259.473 366.554L262.223 368.072C262.823 368.409 263.045 369.16 262.697 369.743C262.46 370.142 262.033 370.356 261.591 370.356ZM255.269 365.926C254.842 365.926 254.431 365.726 254.194 365.358C253.53 364.331 253.104 363.212 252.946 362.001C252.851 361.326 253.341 360.713 254.036 360.621C254.747 360.529 255.364 361.004 255.459 361.679C255.569 362.538 255.869 363.335 256.344 364.04C256.723 364.607 256.533 365.374 255.948 365.726C255.727 365.864 255.49 365.926 255.269 365.926ZM255.079 358.628C254.874 358.628 254.652 358.582 254.463 358.475C253.862 358.138 253.641 357.386 253.989 356.804C254.605 355.761 255.427 354.857 256.454 354.152C257.023 353.753 257.813 353.891 258.224 354.428C258.635 354.979 258.493 355.746 257.94 356.145C257.213 356.65 256.628 357.279 256.201 358.015C255.948 358.398 255.522 358.628 255.079 358.628ZM261.211 353.952C260.785 353.952 260.374 353.738 260.137 353.37C259.773 352.787 259.963 352.036 260.563 351.683L263.266 350.089C263.867 349.736 264.641 349.92 265.005 350.503C265.368 351.085 265.178 351.837 264.578 352.189L261.875 353.784C261.654 353.891 261.433 353.952 261.211 353.952ZM267.96 349.951C267.533 349.951 267.122 349.736 266.885 349.368C266.522 348.786 266.711 348.035 267.312 347.682L270.015 346.088C270.615 345.735 271.39 345.919 271.753 346.501C272.117 347.084 271.927 347.835 271.326 348.188L268.624 349.782C268.403 349.89 268.181 349.951 267.96 349.951ZM274.693 345.965C274.266 345.965 273.855 345.75 273.618 345.382C273.255 344.8 273.444 344.049 274.045 343.696L276.747 342.101C277.348 341.749 278.122 341.933 278.486 342.515C278.849 343.098 278.66 343.849 278.059 344.202L275.357 345.796C275.151 345.904 274.93 345.965 274.693 345.965ZM281.441 341.963C281.015 341.963 280.604 341.749 280.367 341.381C280.003 340.798 280.193 340.047 280.793 339.695L283.496 338.1C284.097 337.748 284.871 337.931 285.234 338.514C285.598 339.097 285.408 339.848 284.808 340.2L282.105 341.795C281.9 341.902 281.663 341.963 281.441 341.963ZM288.19 337.962C287.763 337.962 287.352 337.748 287.115 337.38C286.752 336.797 286.941 336.046 287.542 335.693L290.244 334.099C290.845 333.746 291.62 333.93 291.983 334.513C292.347 335.095 292.157 335.846 291.556 336.199L288.854 337.793C288.632 337.916 288.411 337.962 288.19 337.962ZM294.938 333.976C294.512 333.976 294.101 333.761 293.864 333.394C293.5 332.811 293.69 332.06 294.29 331.707L296.993 330.113C297.594 329.76 298.368 329.944 298.732 330.527C299.095 331.109 298.905 331.86 298.305 332.213L295.602 333.807C295.381 333.915 295.16 333.976 294.938 333.976ZM301.671 329.975C301.245 329.975 300.834 329.76 300.597 329.392C300.233 328.81 300.423 328.058 301.023 327.706L303.726 326.111C304.326 325.759 305.101 325.943 305.464 326.525C305.828 327.108 305.638 327.859 305.038 328.212L302.335 329.806C302.13 329.929 301.893 329.975 301.671 329.975ZM308.42 325.989C307.993 325.989 307.582 325.774 307.345 325.406C306.982 324.824 307.171 324.072 307.772 323.72L310.474 322.125C311.075 321.773 311.849 321.957 312.213 322.539C312.576 323.122 312.387 323.873 311.786 324.226L309.084 325.82C308.878 325.927 308.641 325.989 308.42 325.989ZM315.168 321.987C314.742 321.987 314.331 321.773 314.094 321.405C313.73 320.822 313.92 320.071 314.52 319.718L317.223 318.124C317.824 317.771 318.598 317.955 318.962 318.538C319.325 319.12 319.135 319.872 318.535 320.224L315.832 321.819C315.611 321.926 315.39 321.987 315.168 321.987ZM321.901 318.001C321.474 318.001 321.064 317.787 320.826 317.419C320.463 316.836 320.653 316.085 321.253 315.732L323.956 314.138C324.556 313.785 325.331 313.969 325.694 314.552C326.058 315.134 325.868 315.886 325.268 316.238L322.565 317.833C322.36 317.94 322.138 318.001 321.901 318.001ZM328.65 314C328.223 314 327.812 313.785 327.575 313.417C327.211 312.835 327.401 312.084 328.002 311.731L330.704 310.137C331.305 309.784 332.079 309.968 332.443 310.551C332.806 311.133 332.617 311.884 332.016 312.237L329.314 313.831C329.108 313.939 328.871 314 328.65 314ZM335.398 309.999C334.972 309.999 334.561 309.784 334.324 309.416C333.96 308.833 334.15 308.082 334.75 307.73L337.453 306.135C338.053 305.783 338.828 305.967 339.191 306.549C339.555 307.132 339.365 307.883 338.765 308.236L336.062 309.83C335.857 309.953 335.62 309.999 335.398 309.999ZM342.147 306.013C341.72 306.013 341.309 305.798 341.072 305.43C340.709 304.847 340.898 304.096 341.499 303.744L344.201 302.149C344.802 301.797 345.576 301.981 345.94 302.563C346.303 303.146 346.114 303.897 345.513 304.25L342.811 305.844C342.589 305.951 342.368 306.013 342.147 306.013ZM348.88 302.011C348.453 302.011 348.042 301.797 347.805 301.429C347.441 300.846 347.631 300.095 348.232 299.742L350.934 298.148C351.535 297.795 352.309 297.979 352.673 298.562C353.036 299.144 352.847 299.896 352.246 300.248L349.543 301.843C349.338 301.965 349.117 302.011 348.88 302.011ZM355.628 298.025C355.202 298.025 354.791 297.811 354.553 297.443C354.19 296.86 354.38 296.109 354.98 295.756L357.683 294.162C358.283 293.809 359.058 293.993 359.421 294.576C359.785 295.158 359.595 295.91 358.995 296.262L356.292 297.857C356.087 297.964 355.85 298.025 355.628 298.025ZM362.377 294.024C361.95 294.024 361.539 293.809 361.302 293.441C360.939 292.859 361.128 292.107 361.729 291.755L364.431 290.16C365.032 289.808 365.806 289.992 366.17 290.574C366.533 291.157 366.344 291.908 365.743 292.261L363.041 293.855C362.819 293.962 362.598 294.024 362.377 294.024ZM369.125 290.038C368.699 290.038 368.288 289.823 368.051 289.455C367.687 288.873 367.877 288.121 368.477 287.769L371.18 286.174C371.781 285.822 372.555 286.006 372.919 286.588C373.282 287.171 373.092 287.922 372.492 288.275L369.789 289.869C369.568 289.977 369.347 290.038 369.125 290.038ZM375.858 286.036C375.431 286.036 375.021 285.822 374.783 285.454C374.42 284.871 374.61 284.12 375.21 283.767L377.913 282.173C378.513 281.82 379.288 282.004 379.651 282.587C380.015 283.17 379.825 283.921 379.225 284.273L376.522 285.868C376.316 285.975 376.095 286.036 375.858 286.036ZM382.607 282.035C382.18 282.035 381.769 281.82 381.532 281.452C381.168 280.87 381.358 280.119 381.959 279.766L384.661 278.172C385.262 277.819 386.036 278.003 386.4 278.586C386.763 279.168 386.574 279.919 385.973 280.272L383.271 281.866C383.065 281.989 382.828 282.035 382.607 282.035ZM389.355 278.049C388.929 278.049 388.518 277.834 388.281 277.466C387.917 276.884 388.107 276.133 388.707 275.78L391.41 274.186C392.01 273.833 392.785 274.017 393.148 274.6C393.512 275.182 393.322 275.933 392.722 276.286L390.019 277.88C389.798 277.988 389.577 278.049 389.355 278.049ZM396.104 274.048C395.677 274.048 395.266 273.833 395.029 273.465C394.666 272.883 394.855 272.131 395.456 271.779L398.158 270.184C398.759 269.832 399.533 270.016 399.897 270.598C400.26 271.181 400.071 271.932 399.47 272.285L396.768 273.879C396.546 274.002 396.325 274.048 396.104 274.048ZM402.837 270.062C402.41 270.062 401.999 269.847 401.762 269.479C401.398 268.896 401.588 268.145 402.189 267.793L404.891 266.198C405.492 265.846 406.266 266.03 406.63 266.612C406.993 267.195 406.804 267.946 406.203 268.299L403.5 269.893C403.295 270 403.058 270.062 402.837 270.062ZM409.585 266.06C409.158 266.06 408.748 265.846 408.51 265.478C408.147 264.895 408.337 264.144 408.937 263.791L411.64 262.197C412.24 261.844 413.015 262.028 413.378 262.611C413.742 263.193 413.552 263.945 412.952 264.297L410.249 265.892C410.044 265.999 409.806 266.06 409.585 266.06ZM416.334 262.074C415.907 262.074 415.496 261.86 415.259 261.492C414.896 260.909 415.085 260.158 415.686 259.805L418.388 258.211C418.989 257.858 419.763 258.042 420.127 258.625C420.49 259.207 420.301 259.959 419.7 260.311L416.998 261.906C416.776 262.013 416.555 262.074 416.334 262.074ZM423.067 258.073C422.64 258.073 422.229 257.858 421.992 257.49C421.628 256.908 421.818 256.157 422.419 255.804L425.121 254.21C425.722 253.857 426.496 254.041 426.86 254.623C427.223 255.206 427.034 255.957 426.433 256.31L423.73 257.904C423.525 258.012 423.304 258.073 423.067 258.073ZM429.815 254.072C429.388 254.072 428.977 253.857 428.74 253.489C428.377 252.906 428.567 252.155 429.167 251.803L431.87 250.208C432.47 249.856 433.245 250.04 433.608 250.622C433.972 251.205 433.782 251.956 433.181 252.308L430.479 253.903C430.273 254.026 430.036 254.072 429.815 254.072ZM436.39 249.84C436.058 249.84 435.726 249.718 435.473 249.457C434.999 248.966 435.015 248.184 435.521 247.725C436.2 247.096 436.816 246.375 437.338 245.594C437.717 245.026 438.492 244.858 439.092 245.226C439.677 245.594 439.851 246.345 439.472 246.927C438.84 247.878 438.113 248.736 437.275 249.518C437.006 249.733 436.69 249.84 436.39 249.84ZM440.183 243.248C440.088 243.248 440.009 243.233 439.914 243.217C439.235 243.079 438.792 242.42 438.95 241.761C439.124 240.964 439.219 240.151 439.219 239.323V238.971C439.219 238.296 439.788 237.744 440.483 237.744C441.179 237.744 441.748 238.296 441.748 238.971V239.323C441.748 240.32 441.637 241.316 441.431 242.282C441.289 242.865 440.768 243.248 440.183 243.248ZM440.483 235.613C439.788 235.613 439.219 235.061 439.219 234.387V231.321C439.219 230.646 439.788 230.094 440.483 230.094C441.179 230.094 441.748 230.646 441.748 231.321V234.387C441.748 235.061 441.179 235.613 440.483 235.613ZM440.483 227.948C439.788 227.948 439.219 227.396 439.219 226.721V223.655C439.219 222.981 439.788 222.429 440.483 222.429C441.179 222.429 441.748 222.981 441.748 223.655V226.721C441.748 227.396 441.179 227.948 440.483 227.948ZM440.483 220.282C439.788 220.282 439.219 219.73 439.219 219.056V215.99C439.219 215.315 439.788 214.763 440.483 214.763C441.179 214.763 441.748 215.315 441.748 215.99V219.056C441.748 219.73 441.179 220.282 440.483 220.282ZM440.483 212.617C439.788 212.617 439.219 212.065 439.219 211.39V208.324C439.219 207.65 439.788 207.098 440.483 207.098C441.179 207.098 441.748 207.65 441.748 208.324V211.39C441.748 212.065 441.179 212.617 440.483 212.617ZM440.483 204.951C439.788 204.951 439.219 204.399 439.219 203.725V200.659C439.219 199.984 439.788 199.432 440.483 199.432C441.179 199.432 441.748 199.984 441.748 200.659V203.725C441.748 204.399 441.179 204.951 440.483 204.951ZM440.483 197.286C439.788 197.286 439.219 196.734 439.219 196.059V192.993C439.219 192.319 439.788 191.767 440.483 191.767C441.179 191.767 441.748 192.319 441.748 192.993V196.059C441.748 196.734 441.179 197.286 440.483 197.286ZM440.483 189.621C439.788 189.621 439.219 189.069 439.219 188.394V185.328C439.219 184.653 439.788 184.101 440.483 184.101C441.179 184.101 441.748 184.653 441.748 185.328V188.394C441.748 189.069 441.179 189.621 440.483 189.621ZM440.483 181.955C439.788 181.955 439.219 181.403 439.219 180.729V177.662C439.219 176.988 439.788 176.436 440.483 176.436C441.179 176.436 441.748 176.988 441.748 177.662V180.729C441.748 181.403 441.179 181.955 440.483 181.955ZM440.483 174.29C439.788 174.29 439.219 173.738 439.219 173.063V169.997C439.219 169.322 439.788 168.771 440.483 168.771C441.179 168.771 441.748 169.322 441.748 169.997V173.063C441.748 173.738 441.179 174.29 440.483 174.29Z" fill="#FEE500"/>
<path opacity="0.2" d="M421.469 396.22C405.76 405.02 372.38 402.659 372.38 402.659C372.38 402.659 368.176 383.955 383.87 375.171C394.191 369.391 410.975 369.422 421.343 375.232C431.727 381.042 431.774 390.44 421.469 396.22Z" fill="#92B4D1"/>
<path d="M435.426 312.575C435.078 312.575 434.762 312.36 434.667 312.023L434.588 311.732C434.462 311.318 434.714 310.904 435.125 310.781C435.552 310.658 435.979 310.904 436.105 311.302L436.2 311.609C436.327 312.023 436.074 312.437 435.663 312.559C435.568 312.559 435.505 312.575 435.426 312.575ZM433.94 307.884C433.608 307.884 433.308 307.684 433.197 307.362C432.865 306.412 432.518 305.446 432.138 304.495C431.98 304.097 432.186 303.652 432.597 303.514C433.008 303.361 433.466 303.56 433.608 303.959C433.987 304.925 434.335 305.891 434.683 306.872C434.825 307.27 434.604 307.715 434.193 307.837C434.098 307.868 434.019 307.884 433.94 307.884ZM431.095 300.724C430.795 300.724 430.495 300.555 430.368 300.264C429.957 299.329 429.515 298.409 429.072 297.489C428.883 297.106 429.056 296.646 429.452 296.462C429.847 296.278 430.321 296.447 430.495 296.83C430.953 297.765 431.38 298.7 431.806 299.651C431.98 300.034 431.791 300.494 431.396 300.663C431.301 300.709 431.19 300.724 431.095 300.724ZM427.681 293.81C427.397 293.81 427.128 293.656 426.986 293.396C426.496 292.491 425.99 291.602 425.485 290.728C425.263 290.36 425.406 289.885 425.785 289.686C426.164 289.471 426.638 289.609 426.86 289.977C427.381 290.882 427.903 291.771 428.393 292.691C428.598 293.074 428.456 293.534 428.061 293.733C427.918 293.794 427.792 293.81 427.681 293.81Z" fill="#A8CFF0"/>
<path d="M430.384 332.321C429.958 332.321 429.594 331.983 429.594 331.569C429.578 330.573 429.531 329.561 429.452 328.549C429.42 328.12 429.752 327.767 430.179 327.737C430.59 327.706 430.985 328.028 431.016 328.442C431.096 329.484 431.143 330.512 431.159 331.539C431.175 331.953 430.843 332.305 430.384 332.321ZM429.736 324.671C429.357 324.671 429.009 324.395 428.962 324.011C428.82 323.015 428.646 322.018 428.456 321.022C428.377 320.608 428.662 320.209 429.088 320.133C429.515 320.056 429.926 320.332 430.005 320.746C430.195 321.773 430.369 322.785 430.527 323.797C430.59 324.211 430.29 324.609 429.863 324.671C429.815 324.671 429.784 324.671 429.736 324.671ZM428.219 317.158C427.871 317.158 427.54 316.928 427.445 316.576C427.192 315.595 426.923 314.614 426.623 313.648C426.496 313.234 426.749 312.82 427.16 312.697C427.587 312.575 428.014 312.82 428.14 313.218C428.44 314.215 428.709 315.211 428.978 316.208C429.088 316.622 428.82 317.036 428.409 317.143C428.346 317.143 428.282 317.158 428.219 317.158ZM425.959 309.815C425.627 309.815 425.327 309.616 425.216 309.309C424.869 308.359 424.505 307.408 424.126 306.457C423.968 306.059 424.173 305.614 424.584 305.461C424.979 305.308 425.453 305.507 425.611 305.89C425.991 306.856 426.37 307.822 426.718 308.788C426.86 309.186 426.639 309.631 426.228 309.769C426.133 309.8 426.038 309.815 425.959 309.815ZM423.019 302.686C422.719 302.686 422.435 302.517 422.292 302.242C421.866 301.322 421.423 300.402 420.965 299.482C420.775 299.099 420.933 298.639 421.328 298.455C421.723 298.271 422.198 298.424 422.387 298.807C422.861 299.727 423.304 300.662 423.731 301.613C423.904 301.996 423.731 302.456 423.335 302.625C423.241 302.671 423.13 302.686 423.019 302.686ZM419.511 295.833C419.226 295.833 418.958 295.695 418.815 295.435C418.31 294.545 417.788 293.672 417.267 292.798C417.045 292.43 417.172 291.97 417.551 291.755C417.915 291.541 418.404 291.663 418.626 292.031C419.163 292.92 419.685 293.81 420.206 294.714C420.412 295.082 420.269 295.557 419.89 295.757C419.764 295.803 419.637 295.833 419.511 295.833ZM415.433 289.256C415.18 289.256 414.927 289.134 414.769 288.919C414.2 288.076 413.6 287.233 412.999 286.405C412.746 286.052 412.825 285.577 413.189 285.332C413.552 285.086 414.042 285.163 414.295 285.516C414.912 286.359 415.512 287.202 416.097 288.076C416.334 288.428 416.239 288.904 415.876 289.134C415.733 289.226 415.591 289.256 415.433 289.256Z" fill="#A8CFF0"/>
<path d="M383.65 270.859C372.492 264.604 362.488 264.42 355.565 269.111L347.552 272.745L348.532 277.743C346.809 281.591 345.83 286.282 345.83 291.786C345.83 307.715 354.601 332.827 363.705 354.596L373.187 402.628L383.65 397.554C383.65 397.554 421.47 367.198 421.47 334.13C421.47 310.888 404.528 282.557 383.65 270.859Z" fill="#CAB710"/>
<path d="M411.007 339.204C411.007 372.257 373.187 402.628 373.187 402.628C373.187 402.628 335.366 329.913 335.366 296.86C335.366 273.618 352.293 264.251 373.187 275.949C394.08 287.631 411.007 315.962 411.007 339.204Z" fill="#FEE500"/>
<path opacity="0.7" d="M375.589 274.677C364.684 268.56 354.885 268.253 347.979 272.607C354.68 269.679 363.499 270.507 373.187 275.949C394.065 287.646 411.007 315.978 411.007 339.22C411.007 367.551 383.254 393.874 375.305 400.834C375.463 401.156 373.993 401.984 373.993 401.984C373.993 401.984 413.394 371.016 413.394 337.947C413.41 314.69 396.467 286.374 375.589 274.677Z" fill="white"/>
<path d="M382.987 334.276C388.33 331.246 388.275 321.513 382.866 312.537C377.456 303.561 368.739 298.74 363.397 301.77C358.054 304.8 358.108 314.533 363.518 323.509C368.928 332.485 377.644 337.305 382.987 334.276Z" fill="white"/>
<path d="M377.439 331.462C369.837 327.2 363.674 316.883 363.674 308.42C363.674 305.062 364.654 302.533 366.297 300.923C362.188 301.276 359.438 304.664 359.438 310.321C359.438 318.784 365.602 329.101 373.204 333.363C377.803 335.939 381.849 335.694 384.362 333.241C382.307 333.425 379.952 332.873 377.439 331.462Z" fill="#CAB710"/>
<path d="M360.385 405.326L367.529 410.217L372.697 403.011L360.385 405.326Z" fill="#FEE500"/>
<defs>
<radialGradient id="paint0_radial_439_7576" cx="0" cy="0" r="1" gradientUnits="userSpaceOnUse" gradientTransform="translate(85.4083 375.256) scale(12.2353 11.8734)">
<stop stop-color="white"/>
<stop offset="1"/>
</radialGradient>
<radialGradient id="paint1_radial_439_7576" cx="0" cy="0" r="1" gradientUnits="userSpaceOnUse" gradientTransform="translate(16.1781 338.508) scale(9.53821 9.25619)">
<stop stop-color="white"/>
<stop offset="1"/>
</radialGradient>
</defs>
</svg>
