<svg width="59" height="58" viewBox="0 0 59 58" fill="none" xmlns="http://www.w3.org/2000/svg">
<path d="M28.2022 44.63C24.4115 42.6012 20.0114 38.2732 16.8512 31.7921C22.828 39.0704 26.3432 42.8223 35.5159 45.7318C31.3234 43.7144 26.2983 39.8679 25.2262 32.9167C24.2916 26.8451 24.3672 22.0503 24.1336 18.3066C23.4097 19.7936 22.1227 21.0874 19.8806 21.7592C19.8806 21.7592 20.9416 21.2156 22.019 19.6554C23.5179 17.485 23.7461 14.6838 22.6211 12.296C21.4943 9.90674 19.1827 8.28559 16.5449 8.04406C16.543 8.04454 16.5391 8.04359 16.5351 8.04366C7.50101 7.22448 -0.382604 22.5042 9.42879 37.7933C15.5057 46.9297 25.5371 48.9198 32.7766 48.9151C40.6431 51.7865 49.3632 50.8951 56.6965 44.75C54.3934 45.8996 42.7918 52.438 28.2022 44.63Z" fill="#FAB408"/>
</svg>
