<svg width="22" height="22" viewBox="0 0 22 22" fill="none" xmlns="http://www.w3.org/2000/svg">
<path d="M11 21C6.28595 21 3.92893 21 2.46447 19.5355C1 18.0711 1 15.714 1 11C1 6.28595 1 3.92893 2.46447 2.46447C3.92893 1 6.28595 1 11 1C15.714 1 18.0711 1 19.5355 2.46447C21 3.92893 21 6.28595 21 11C21 15.714 21 18.0711 19.5355 19.5355C18.0711 21 15.714 21 11 21Z" stroke="#1C274C" stroke-width="1.5"/>
<path fill-rule="evenodd" clip-rule="evenodd" d="M11 4.5C10.6062 4.5 10.2436 4.59786 9.84666 4.76204C9.46331 4.92057 9.01808 5.15423 8.46366 5.44518L7.11737 6.15168C6.43692 6.50875 5.89238 6.79451 5.47193 7.07529C5.03635 7.36618 4.70086 7.67247 4.45654 8.08737C4.21305 8.50088 4.10351 8.94864 4.05098 9.48186C3.99999 9.99945 3.99999 10.636 4 11.4366V11.5634C3.99999 12.364 3.99999 13.0005 4.05098 13.5181C4.10351 14.0514 4.21305 14.4991 4.45654 14.9126C4.70086 15.3275 5.03635 15.6338 5.47193 15.9247C5.89238 16.2055 6.43692 16.4912 7.11736 16.8483L8.4636 17.5548C9.01804 17.8458 9.46329 18.0794 9.84666 18.238C10.2436 18.4021 10.6062 18.5 11 18.5C11.3938 18.5 11.7564 18.4021 12.1533 18.238C12.5367 18.0794 12.9819 17.8458 13.5363 17.5548L14.8826 16.8483C15.5631 16.4912 16.1076 16.2055 16.528 15.9247C16.9637 15.6338 17.2992 15.3275 17.5435 14.9126C17.7869 14.4991 17.8965 14.0514 17.949 13.5181C18 13.0005 18 12.364 18 11.5635V11.4365C18 10.636 18 9.99944 17.949 9.48186C17.8965 8.94864 17.7869 8.50088 17.5435 8.08737C17.2992 7.67247 16.9637 7.36618 16.528 7.07529C16.1076 6.79451 15.5631 6.50875 14.8826 6.15167L13.5363 5.44519C12.9819 5.15424 12.5367 4.92058 12.1533 4.76204C11.7564 4.59786 11.3938 4.5 11 4.5ZM8.89726 6.3207C9.47662 6.01667 9.8826 5.80415 10.2199 5.66464C10.5482 5.52886 10.7789 5.47674 11 5.47674C11.2211 5.47674 11.4518 5.52886 11.7801 5.66464C12.1174 5.80415 12.5234 6.01667 13.1027 6.3207L14.4051 7.00413C15.1146 7.3765 15.6132 7.63881 15.9856 7.88756C16.1694 8.01028 16.3137 8.12423 16.4304 8.23881L14.2615 9.32322L8.72676 6.41018L8.89726 6.3207ZM7.70815 6.94472L7.59494 7.00413C6.88537 7.37649 6.38686 7.63881 6.01439 7.88756C5.83062 8.01028 5.68623 8.12423 5.56965 8.23881L11 10.954L13.1861 9.86095L7.84231 7.04845C7.79039 7.02113 7.74543 6.98577 7.70815 6.94472ZM5.09895 9.0955C5.06607 9.23477 5.04122 9.39292 5.02302 9.57762C4.97729 10.0418 4.97674 10.6303 4.97674 11.4619V11.5381C4.97674 12.3697 4.97729 12.9582 5.02302 13.4224C5.06774 13.8764 5.1527 14.1699 5.2982 14.417C5.44289 14.6627 5.65218 14.8705 6.01439 15.1125C6.38686 15.3612 6.88537 15.6235 7.59494 15.9959L8.89726 16.6793C9.47662 16.9833 9.8826 17.1959 10.2199 17.3353C10.3264 17.3794 10.4227 17.4146 10.5116 17.4422V11.8018L5.09895 9.0955ZM11.4884 17.4422C11.5773 17.4146 11.6736 17.3794 11.7801 17.3353C12.1174 17.1959 12.5234 16.9833 13.1027 16.6793L14.4051 15.9959C15.1146 15.6235 15.6132 15.3612 15.9856 15.1125C16.3478 14.8705 16.5571 14.6627 16.7018 14.417C16.8473 14.1699 16.9323 13.8764 16.977 13.4224C17.0227 12.9582 17.0233 12.3697 17.0233 11.5381V11.4619C17.0233 10.6303 17.0227 10.0418 16.977 9.57762C16.9588 9.39292 16.9339 9.23477 16.901 9.09549L14.7442 10.1739V12.1512C14.7442 12.4209 14.5255 12.6395 14.2558 12.6395C13.9861 12.6395 13.7674 12.4209 13.7674 12.1512V10.6623L11.4884 11.8018V17.4422Z" fill="#1C274C"/>
</svg>
