<svg width="22" height="22" viewBox="0 0 22 22" fill="none" xmlns="http://www.w3.org/2000/svg">
<path d="M11 21C6.28595 21 3.92893 21 2.46447 19.5355C1 18.0711 1 15.714 1 11C1 6.28595 1 3.92893 2.46447 2.46447C3.92893 1 6.28595 1 11 1C15.714 1 18.0711 1 19.5355 2.46447C21 3.92893 21 6.28595 21 11C21 15.714 21 18.0711 19.5355 19.5355C18.0711 21 15.714 21 11 21Z" stroke="#1C274C" stroke-width="1.5"/>
<path d="M12.4227 16.3618L15.9348 7.19598C16.2164 6.46107 15.5389 5.78361 14.804 6.06521L5.63824 9.5773C4.80779 9.8955 4.78079 11.06 5.5981 11.3083L9.0751 12.3648C9.3455 12.447 9.553 12.6545 9.6352 12.9249L10.6917 16.4019C10.94 17.2192 12.1045 17.1922 12.4227 16.3618Z" stroke="#1C274C" stroke-width="1.5"/>
</svg>
