<svg width="12" height="13" viewBox="0 0 12 13" fill="none" xmlns="http://www.w3.org/2000/svg">
<path d="M0.292893 10.7929C-0.0976311 11.1834 -0.0976311 11.8166 0.292893 12.2071C0.683418 12.5976 1.31658 12.5976 1.70711 12.2071L0.292893 10.7929ZM11.8995 1.60051C11.8995 1.04822 11.4518 0.600505 10.8995 0.600505L1.89949 0.600506C1.34721 0.600505 0.899495 1.04822 0.899495 1.60051C0.899495 2.15279 1.34721 2.60051 1.89949 2.60051L9.8995 2.6005L9.89949 10.6005C9.89949 11.1528 10.3472 11.6005 10.8995 11.6005C11.4518 11.6005 11.8995 11.1528 11.8995 10.6005L11.8995 1.60051ZM1.70711 12.2071L11.6066 2.30761L10.1924 0.893398L0.292893 10.7929L1.70711 12.2071Z" fill="#177531"/>
</svg>
