<svg width="58" height="58" viewBox="0 0 58 58" fill="none" xmlns="http://www.w3.org/2000/svg">
<path d="M8.78649 11.8088L22.4998 24.6804L21.9402 25.2736C21.0284 26.2347 19.8741 26.9335 18.5988 27.2964C22.5266 32.5152 27.3331 37.014 32.8049 40.593C33.0939 39.3158 33.7207 38.1384 34.62 37.1833L35.1786 36.5868L48.8939 49.465L48.3343 50.0582C47.0248 51.3268 45.3381 52.1375 43.5283 52.368C41.7186 52.5986 39.8838 52.2366 38.3004 51.3366C31.5481 48.677 25.3888 44.7182 20.1731 39.6853C14.6395 34.6453 10.2051 28.5237 7.14502 21.6999C6.94518 21.2865 6.77475 20.8596 6.63499 20.4223L6.5602 20.2213L6.57347 20.2173C6.13662 18.8859 6.05945 17.4626 6.34971 16.0906C6.63997 14.7186 7.28742 13.4464 8.22689 12.402L8.78649 11.8088ZM51.5263 46.682L37.8109 33.8038L38.9969 32.5506C39.378 32.1492 39.9025 31.9141 40.456 31.8965C41.0095 31.8789 41.5472 32.0801 41.9518 32.4565L52.6256 42.4781C53.0272 42.8579 53.2616 43.3809 53.2776 43.9331C53.2937 44.4852 53.09 45.0217 52.7112 45.4255L51.5263 46.682ZM12.6005 7.77026C12.9816 7.36779 13.5067 7.13186 14.061 7.11403C14.6154 7.0962 15.1538 7.29794 15.5587 7.67513L26.2326 17.6968C26.634 18.0771 26.868 18.6005 26.8834 19.1529C26.8988 19.7053 26.6944 20.2418 26.3148 20.6451L25.1332 21.9007L11.4179 9.02253L12.6005 7.77026Z" fill="#177531"/>
</svg>
