<svg width="22" height="22" viewBox="0 0 22 22" fill="none" xmlns="http://www.w3.org/2000/svg">
<path d="M11 21C6.28595 21 3.92893 21 2.46447 19.5355C1 18.0711 1 15.714 1 11C1 6.28595 1 3.92893 2.46447 2.46447C3.92893 1 6.28595 1 11 1C15.714 1 18.0711 1 19.5355 2.46447C21 3.92893 21 6.28595 21 11C21 15.714 21 18.0711 19.5355 19.5355C18.0711 21 15.714 21 11 21Z" stroke="#1C274C" stroke-width="1.5"/>
<path d="M11 17C14.3137 17 17 14.3137 17 11C17 7.68629 14.3137 5 11 5C7.68629 5 5 7.68629 5 11C5 11.9598 5.22537 12.867 5.62608 13.6715C5.73256 13.8853 5.76801 14.1297 5.70627 14.3604L5.34891 15.696C5.19377 16.2758 5.72421 16.8062 6.30401 16.6511L7.63963 16.2937C7.87036 16.232 8.11473 16.2675 8.32852 16.3739C9.13302 16.7746 10.0402 17 11 17Z" stroke="#1C274C"/>
</svg>
