<svg width="270" height="381" viewBox="0 0 270 381" fill="none" xmlns="http://www.w3.org/2000/svg">
<path fill-rule="evenodd" clip-rule="evenodd" d="M135 12.5303L135 -3.395e-06C171.06 -3.395e-06 204.961 13.9943 230.46 39.3988C255.958 64.8086 270 98.5858 270 134.52C270 162.66 263.063 193.097 249.383 224.988C238.531 250.283 223.423 276.574 204.481 303.124C172.31 348.213 140.639 378.051 139.306 379.301C138.096 380.432 136.549 381 135 381L135 365.969V225.838L135 213.307C178.602 213.307 214.075 177.962 214.075 134.52C214.075 91.0728 178.602 55.7274 135 55.7274L135 43.197V12.5303Z" fill="#4385F3"/>
<path d="M135 12.5303V43.197L135 55.7274C91.398 55.7274 55.925 91.0728 55.925 134.52C55.925 177.962 91.398 213.307 135 213.307L135 225.838V365.969L135 381C133.452 381 131.904 380.432 130.694 379.301C129.361 378.051 97.6904 348.213 65.5195 303.124C46.5769 276.574 31.4692 250.283 20.6173 224.988C6.93657 193.097 0 162.66 0 134.52C0 98.5858 14.042 64.8086 39.5405 39.3988C65.0384 13.9943 98.9401 -3.395e-06 135 -3.395e-06L135 12.5303Z" fill="#185ABC"/>
<path fill-rule="evenodd" clip-rule="evenodd" d="M194.211 134.612C194.211 167.218 167.701 193.648 135 193.648V75.5699C167.701 75.5699 194.211 102.006 194.211 134.612Z" fill="#A8D8FF"/>
<path d="M75.7896 134.612C75.7896 102.006 102.299 75.5699 135 75.5699V193.648C102.299 193.648 75.7896 167.218 75.7896 134.612Z" fill="#89C0F4"/>
</svg>
