<svg width="267" height="394" viewBox="0 0 267 394" fill="none" xmlns="http://www.w3.org/2000/svg">
<path fill-rule="evenodd" clip-rule="evenodd" d="M108.965 166.754V120.144C108.965 106.805 119.942 95.9873 133.499 95.9873V190.911C119.941 190.911 108.965 180.095 108.965 166.754Z" fill="#89C0F4"/>
<path d="M133.499 190.911C147.058 190.911 158.034 180.095 158.034 166.754V120.144C158.034 106.805 147.058 95.9873 133.499 95.9873V190.911Z" fill="#A8D8FF"/>
<path fill-rule="evenodd" clip-rule="evenodd" d="M133.5 394L133.499 210.932C108.765 210.932 88.6222 191.118 88.6222 166.756V120.145C88.6222 99.2457 103.502 81.7796 123.339 77.2117V0C54.3842 5.13431 0 61.7395 0 130.933V262.569C0 335.145 59.7677 394 133.5 394Z" fill="#185ABC"/>
<path d="M143.682 0V77.2117C163.518 81.7796 178.367 99.2457 178.367 120.145V166.756C178.367 191.118 158.253 210.932 133.499 210.932L133.5 394C207.222 394 267 335.145 267 262.569V130.933C267 61.7395 212.637 5.13431 143.682 0Z" fill="#4385F3"/>
</svg>
