<svg width="201" height="200" viewBox="0 0 201 200" fill="none" xmlns="http://www.w3.org/2000/svg">
<path d="M147.406 166.011V28.742C147.398 26.2032 146.386 23.7706 144.591 21.9754C142.796 20.1803 140.364 19.1685 137.825 19.1611H29.242C26.7032 19.1685 24.2706 20.1803 22.4754 21.9754C20.6803 23.7706 19.6685 26.2032 19.6611 28.742V169.261C19.6738 173.492 21.3602 177.546 24.352 180.538C27.3439 183.53 31.3981 185.216 35.6292 185.229H166.567" stroke="#E3E9F4" stroke-width="10" stroke-linejoin="round"/>
<path d="M166.567 185.229C161.485 185.229 156.611 183.211 153.018 179.617C149.424 176.024 147.405 171.15 147.405 166.068V51.0977H176.148C178.689 51.0977 181.126 52.1071 182.922 53.9038C184.719 55.7006 185.729 58.1375 185.729 60.6785V166.068C185.729 171.15 183.71 176.024 180.116 179.617C176.523 183.211 171.649 185.229 166.567 185.229Z" stroke="#E3E9F4" stroke-width="10" stroke-linejoin="round"/>
<path d="M96.3076 51.0977H121.857" stroke="#E3E9F4" stroke-width="10" stroke-linecap="round" stroke-linejoin="round"/>
<path d="M96.3076 76.6465H121.857" stroke="#E3E9F4" stroke-width="10" stroke-linecap="round" stroke-linejoin="round"/>
<path d="M45.21 102.195H121.857" stroke="#E3E9F4" stroke-width="10" stroke-linecap="round" stroke-linejoin="round"/>
<path d="M45.21 127.744H121.857" stroke="#E3E9F4" stroke-width="10" stroke-linecap="round" stroke-linejoin="round"/>
<path d="M45.21 153.293H121.857" stroke="#E3E9F4" stroke-width="10" stroke-linecap="round" stroke-linejoin="round"/>
<path d="M70.7594 83.0333H45.2105C43.5165 83.0333 41.8919 82.3604 40.694 81.1625C39.4962 79.9647 38.8232 78.3401 38.8232 76.6461V51.0972C38.8232 49.4032 39.4962 47.7786 40.694 46.5807C41.8919 45.3829 43.5165 44.71 45.2105 44.71H70.7594C72.4534 44.71 74.078 45.3829 75.2758 46.5807C76.4737 47.7786 77.1466 49.4032 77.1466 51.0972V76.6461C77.1466 78.3401 76.4737 79.9647 75.2758 81.1625C74.078 82.3604 72.4534 83.0333 70.7594 83.0333Z" fill="#E3E9F4"/>
</svg>
