<svg width="40" height="40" viewBox="0 0 40 40" fill="none" xmlns="http://www.w3.org/2000/svg">
<rect width="40" height="40" rx="12.5714" fill="#FFE795"/>
<path d="M8.99812 10.5913L16.4001 17.6101L16.1 17.9315C15.611 18.4522 14.9911 18.8299 14.3054 19.0249C16.4282 21.8679 19.0226 24.3211 21.9733 26.2756C22.1266 25.582 22.4618 24.9433 22.9441 24.4258L23.2436 24.1027L30.6467 31.1251L30.3466 31.4465C29.6441 32.1336 28.7379 32.5712 27.7644 32.6933C26.791 32.8154 25.803 32.6155 24.9494 32.1236C21.3112 30.6665 17.9898 28.5043 15.1743 25.7602C12.1877 23.0116 9.7908 19.6772 8.13214 15.9635C8.02388 15.7386 7.93142 15.5063 7.85544 15.2684L7.81484 15.159L7.82198 15.1569C7.58457 14.4326 7.54055 13.6589 7.69434 12.9139C7.84813 12.1688 8.19431 11.4786 8.69802 10.9127L8.99812 10.5913ZM32.0583 29.6173L24.6553 22.5949L25.2912 21.9159C25.4956 21.6985 25.7775 21.5717 26.0753 21.563C26.3731 21.5544 26.6628 21.6648 26.8812 21.87L32.6426 27.3347C32.8593 27.5418 32.9864 27.8265 32.996 28.1265C33.0056 28.4266 32.8969 28.7178 32.6938 28.9366L32.0583 29.6173ZM11.0434 8.40332C11.2478 8.18527 11.53 8.05798 11.8282 8.04926C12.1265 8.04055 12.4166 8.15112 12.6351 8.35681L18.3965 13.8216C18.6132 14.0289 18.74 14.3138 18.7493 14.614C18.7585 14.9142 18.6495 15.2054 18.4459 15.4239L17.8123 16.1042L10.4092 9.08177L11.0434 8.40332Z" fill="black"/>
</svg>
