<svg width="41" height="41" viewBox="0 0 41 41" fill="none" xmlns="http://www.w3.org/2000/svg">
<path fill-rule="evenodd" clip-rule="evenodd" d="M20.5 37.5833C29.9348 37.5833 37.5833 29.9348 37.5833 20.5C37.5833 11.0651 29.9348 3.41667 20.5 3.41667C11.0651 3.41667 3.41667 11.0651 3.41667 20.5C3.41667 29.9348 11.0651 37.5833 20.5 37.5833ZM11.4181 24.0043C10.523 24.3028 10.0393 25.2702 10.3377 26.1652C10.6286 27.038 11.2878 28.2246 12.4587 29.3955C14.3755 31.3122 17.0496 32.4583 20.5 32.4583C23.9503 32.4583 26.6245 31.3122 28.5413 29.3955C29.7122 28.2246 30.3714 27.038 30.6624 26.1652C30.9606 25.2702 30.477 24.3028 29.5818 24.0043C28.6868 23.706 27.7194 24.1897 27.421 25.0848C27.2848 25.4933 26.8764 26.2286 26.1254 26.9795C24.839 28.2659 23.0288 29.0417 20.5 29.0417C17.9712 29.0417 16.161 28.2659 14.8746 26.9795C14.1236 26.2286 13.7152 25.4933 13.579 25.0848C13.2807 24.1897 12.3132 23.706 11.4181 24.0043ZM10.5369 16.3226C11.0603 17.1076 12.1209 17.3198 12.9059 16.7964L13.5732 16.3516C14.1471 15.969 14.8946 15.969 15.4684 16.3516L16.1357 16.7964C16.9208 17.3198 17.9814 17.1076 18.5048 16.3226C19.0281 15.5376 18.8159 14.4769 18.0309 13.9536L17.3637 13.5087C15.6422 12.3611 13.3995 12.3611 11.678 13.5087L11.0107 13.9536C10.2257 14.4769 10.0136 15.5376 10.5369 16.3226ZM22.4952 16.3226C23.0186 17.1076 24.0793 17.3198 24.8643 16.7964L25.5316 16.3516C26.1054 15.969 26.853 15.969 27.4268 16.3516L28.0941 16.7964C28.879 17.3198 29.9397 17.1076 30.4632 16.3226C30.9864 15.5376 30.7743 14.4769 29.9893 13.9536L29.322 13.5087C27.6005 12.3611 25.3578 12.3611 23.6363 13.5087L22.9691 13.9536C22.1841 14.4769 21.9719 15.5376 22.4952 16.3226Z" fill="#0561BD"/>
<path fill-rule="evenodd" clip-rule="evenodd" d="M0 20.5C0 31.8218 9.17816 41 20.5 41C31.8218 41 41 31.8218 41 20.5C41 9.17816 31.8218 0 20.5 0C9.17816 0 0 9.17816 0 20.5ZM37.5833 20.5C37.5833 29.9348 29.9348 37.5833 20.5 37.5833C11.0651 37.5833 3.41667 29.9348 3.41667 20.5C3.41667 11.0651 11.0651 3.41667 20.5 3.41667C29.9348 3.41667 37.5833 11.0651 37.5833 20.5Z" fill="#0561BD"/>
<path d="M10.3377 26.1652C10.0393 25.2702 10.523 24.3028 11.4181 24.0043C12.3132 23.706 13.2807 24.1897 13.579 25.0848C13.7152 25.4933 14.1236 26.2286 14.8746 26.9795C16.161 28.2659 17.9712 29.0417 20.5 29.0417C23.0288 29.0417 24.839 28.2659 26.1254 26.9795C26.8764 26.2286 27.2848 25.4933 27.421 25.0848C27.7194 24.1897 28.6868 23.706 29.5818 24.0043C30.477 24.3028 30.9606 25.2702 30.6624 26.1652C30.3714 27.038 29.7122 28.2246 28.5413 29.3955C26.6245 31.3122 23.9503 32.4583 20.5 32.4583C17.0496 32.4583 14.3755 31.3122 12.4587 29.3955C11.2878 28.2246 10.6286 27.038 10.3377 26.1652Z" fill="white"/>
<path d="M24.8643 16.7964C24.0793 17.3198 23.0186 17.1076 22.4952 16.3226C21.9719 15.5376 22.1841 14.4769 22.9691 13.9536L23.6363 13.5087C25.3578 12.3611 27.6005 12.3611 29.322 13.5087L29.9893 13.9536C30.7743 14.4769 30.9864 15.5376 30.4632 16.3226C29.9397 17.1076 28.879 17.3198 28.0941 16.7964L27.4268 16.3516C26.853 15.969 26.1054 15.969 25.5316 16.3516L24.8643 16.7964Z" fill="white"/>
<path d="M12.9059 16.7964C12.1209 17.3198 11.0603 17.1076 10.5369 16.3226C10.0136 15.5376 10.2257 14.4769 11.0107 13.9536L11.678 13.5087C13.3995 12.3611 15.6422 12.3611 17.3637 13.5087L18.0309 13.9536C18.8159 14.4769 19.0281 15.5376 18.5048 16.3226C17.9814 17.1076 16.9208 17.3198 16.1357 16.7964L15.4684 16.3516C14.8946 15.969 14.1471 15.969 13.5732 16.3516L12.9059 16.7964Z" fill="white"/>
</svg>
