<svg width="21" height="21" viewBox="0 0 21 21" fill="none" xmlns="http://www.w3.org/2000/svg">
<path d="M19.2394 12.0946H12.0965V19.2375C12.0965 20.0232 11.4537 20.666 10.668 20.666C9.88231 20.666 9.23945 20.0232 9.23945 19.2375V12.0946H2.09654C1.31083 12.0946 0.667969 11.4517 0.667969 10.666C0.667969 9.88036 1.31083 9.2375 2.09654 9.2375H9.23945V2.09459C9.23945 1.30887 9.88231 0.666016 10.668 0.666016C11.4537 0.666016 12.0965 1.30887 12.0965 2.09459V9.2375H19.2394C20.0251 9.2375 20.668 9.88036 20.668 10.666C20.668 11.4517 20.0251 12.0946 19.2394 12.0946Z" fill="black"/>
</svg>
