<svg width="44" height="39" viewBox="0 0 44 39" fill="none" xmlns="http://www.w3.org/2000/svg">
<path d="M22.2681 39C21.6604 39 21.1514 38.7929 20.7411 38.3786C20.3308 37.9643 20.1249 37.4522 20.1234 36.8423C20.1234 36.5906 20.1771 36.3295 20.2843 36.0591C20.3915 35.7887 20.5524 35.5463 20.7668 35.3319L29.9352 26.1079C30.1496 25.8921 30.2568 25.631 30.2568 25.3246C30.2568 25.0183 30.1496 24.7579 29.9352 24.5436C29.7207 24.3292 29.4612 24.23 29.1567 24.2458C28.8521 24.2616 28.5933 24.3789 28.3803 24.5975L19.2656 33.7676C19.0511 33.9834 18.8188 34.1452 18.5686 34.2531C18.3184 34.361 18.0503 34.4149 17.7643 34.4149C17.1567 34.4149 16.6477 34.2078 16.2374 33.7935C15.827 33.3792 15.6211 32.8679 15.6197 32.2594C15.6197 31.8998 15.6733 31.6028 15.7805 31.3683C15.8878 31.1338 16.0308 30.9274 16.2095 30.749L25.3778 21.5228C25.5923 21.3071 25.6995 21.0553 25.6995 20.7676C25.6995 20.4799 25.5923 20.2282 25.3778 20.0124C25.1633 19.7967 24.9131 19.6888 24.6272 19.6888C24.3412 19.6888 24.091 19.7967 23.8766 20.0124L14.7082 29.1826C14.4938 29.3983 14.2614 29.5602 14.0112 29.668C13.761 29.7759 13.4751 29.8299 13.1534 29.8299C12.5815 29.8299 12.081 29.6141 11.6521 29.1826C11.2232 28.751 11.0087 28.2476 11.0087 27.6722C11.0087 27.3845 11.0623 27.1148 11.1696 26.8631C11.2768 26.6113 11.4377 26.3776 11.6521 26.1618L20.7668 16.9917C20.9813 16.7759 21.0885 16.5149 21.0885 16.2085C21.0885 15.9021 20.9813 15.6417 20.7668 15.4274C20.5524 15.2131 20.3022 15.1052 20.0162 15.1037C19.7303 15.1023 19.48 15.2102 19.2656 15.4274L10.1509 24.6515C9.97215 24.8313 9.75769 24.9751 9.50748 25.083C9.25727 25.1909 8.95345 25.2448 8.59601 25.2448C7.98836 25.2448 7.47937 25.0377 7.06903 24.6234C6.65868 24.2091 6.4528 23.697 6.45137 23.0871C6.45137 22.7994 6.50499 22.5297 6.61222 22.278C6.71945 22.0263 6.8803 21.7925 7.09476 21.5768L17.6035 11.0041C17.9967 10.6086 18.4885 10.4288 19.079 10.4647C19.6695 10.5007 20.1606 10.7165 20.5524 11.112L27.0935 17.6929C27.4867 18.0885 27.9514 18.4035 28.4875 18.638C29.0237 18.8725 29.5598 18.989 30.096 18.9876C31.2398 18.9876 32.2406 18.5833 33.0985 17.7749C33.9563 16.9665 34.3853 15.9323 34.3853 14.6722C34.3853 14.1687 34.2959 13.6473 34.1172 13.1079C33.9385 12.5685 33.6168 12.065 33.1521 11.5975L25.8067 4.20747C25.4135 3.81189 25.154 3.38036 25.0282 2.91286C24.9024 2.44537 24.9653 1.99585 25.217 1.56432C25.5386 1.0249 25.9497 0.629322 26.4501 0.377593C26.9505 0.125864 27.5046 0 28.1122 0C28.8628 0 29.6313 0.179806 30.4177 0.539419C31.2041 0.899032 31.9189 1.40249 32.5623 2.04979L41.6234 11.2199C42.2668 11.8672 42.7408 12.5864 43.0453 13.3776C43.3499 14.1687 43.5014 15.0858 43.5 16.1286C43.5 16.8479 43.3391 17.5764 43.0174 18.3144C42.6957 19.0523 42.2311 19.7262 41.6234 20.3361L23.7693 38.3527C23.4834 38.6404 23.2332 38.8202 23.0187 38.8921C22.8042 38.964 22.554 39 22.2681 39ZM2.53741 19.8506C1.85827 19.3472 1.34928 18.7452 1.01042 18.0446C0.671571 17.3441 0.50143 16.5976 0.5 15.805C0.5 14.9779 0.670141 14.1687 1.01042 13.3776C1.35071 12.5864 1.84183 11.8672 2.48379 11.2199L11.5449 2.04979C12.1525 1.43845 12.8231 0.970954 13.5566 0.647303C14.29 0.323651 15.0671 0.161826 15.8878 0.161826C16.7814 0.161826 17.6485 0.323651 18.4892 0.647303C19.3299 0.970954 20.0534 1.43845 20.6596 2.04979L31.6509 13.1079C31.8296 13.2877 31.9819 13.5128 32.1077 13.7832C32.2335 14.0537 32.2957 14.332 32.2943 14.6183C32.2943 15.2296 32.0891 15.7424 31.6787 16.1567C31.2684 16.571 30.7587 16.7774 30.1496 16.7759C29.8637 16.7759 29.587 16.7134 29.3196 16.5882C29.0523 16.4631 28.8285 16.3099 28.6484 16.1286L22.0536 9.54772C21.2315 8.72061 20.2221 8.30705 19.0254 8.30705C17.8287 8.30705 16.8186 8.72061 15.995 9.54772L5.91521 19.6888C5.45054 20.1563 4.9058 20.3994 4.281 20.4181C3.65619 20.4368 3.075 20.2476 2.53741 19.8506Z" fill="#227C3B"/>
</svg>
