<svg width="44" height="54" viewBox="0 0 44 54" fill="none" xmlns="http://www.w3.org/2000/svg">
<path fill-rule="evenodd" clip-rule="evenodd" d="M2.77904 4.97973V33.0861C2.77904 43.144 11.4016 51.3266 22 51.3266C32.5984 51.3266 41.221 43.032 41.221 32.8366V4.97973C28.6225 1.90457 15.3775 1.90457 2.77904 4.97973ZM9.18751 25.7672C9.18751 32.5634 14.9351 38.0925 22 38.0925C29.0649 38.0925 34.8125 32.5629 34.8125 25.767C34.8125 18.971 29.0649 13.4417 22 13.4417C14.9351 13.4417 9.18751 18.971 9.18751 25.7672Z" fill="#FAB408"/>
<path fill-rule="evenodd" clip-rule="evenodd" d="M22 16.1151C16.4675 16.1151 11.9665 20.4448 11.9665 25.767C11.9665 31.0891 16.4675 35.4188 22 35.4188C27.5325 35.4188 32.0334 31.0891 32.0334 25.767C32.0334 20.4448 27.5325 16.1151 22 16.1151ZM19.0028 31.5959C19.2632 31.8464 19.6167 31.9873 19.9852 31.9873C20.3537 31.9873 20.7069 31.8464 20.9676 31.5959L29.5362 23.3532C30.079 22.8313 30.079 21.985 29.5362 21.4628C28.994 20.941 28.1136 20.941 27.5714 21.4628L19.9852 28.7606L16.4286 25.3392C15.8864 24.8174 15.006 24.8174 14.4638 25.3392C13.921 25.861 13.921 26.7074 14.4638 27.2295L19.0028 31.5959Z" fill="#FAB408"/>
<path fill-rule="evenodd" clip-rule="evenodd" d="M22 54C16.1118 54 10.5901 51.8458 6.45238 47.9344C2.29132 44.0014 0 38.7282 0 33.0861V3.94701C0 3.3423 0.422414 2.81271 1.02936 2.65605C14.7486 -0.885349 29.2514 -0.885349 42.9706 2.65605C43.5779 2.81271 44 3.3423 44 3.94701V32.8366C44 44.5064 34.1308 54 22 54ZM2.77904 4.97973V33.0861C2.77904 43.144 11.4016 51.3266 22 51.3266C32.5984 51.3266 41.221 43.032 41.221 32.8366V4.97973C28.6225 1.90457 15.3775 1.90457 2.77904 4.97973Z" fill="#FAB408"/>
<path d="M19.9852 31.9873C19.6167 31.9873 19.2632 31.8464 19.0028 31.5959L14.4638 27.2295C13.921 26.7074 13.921 25.861 14.4638 25.3392C15.006 24.8174 15.8864 24.8174 16.4286 25.3392L19.9852 28.7606L27.5714 21.4628C28.1136 20.941 28.994 20.941 29.5362 21.4628C30.079 21.985 30.079 22.8313 29.5362 23.3532L20.9676 31.5959C20.7069 31.8464 20.3537 31.9873 19.9852 31.9873Z" fill="white"/>
<path fill-rule="evenodd" clip-rule="evenodd" d="M22 38.0925C14.9351 38.0925 9.18751 32.5634 9.18751 25.7672C9.18751 18.971 14.9351 13.4417 22 13.4417C29.0649 13.4417 34.8125 18.971 34.8125 25.767C34.8125 32.5629 29.0649 38.0925 22 38.0925ZM11.9665 25.767C11.9665 20.4448 16.4675 16.1151 22 16.1151C27.5325 16.1151 32.0334 20.4448 32.0334 25.767C32.0334 31.0891 27.5325 35.4188 22 35.4188C16.4675 35.4188 11.9665 31.0891 11.9665 25.767Z" fill="white"/>
</svg>
