<svg width="59" height="59" viewBox="0 0 59 59" fill="none" xmlns="http://www.w3.org/2000/svg">
<path fill-rule="evenodd" clip-rule="evenodd" d="M23.5273 6.15067C36.3573 2.82548 49.4346 10.5371 52.7337 23.3735C56.0329 36.2099 48.3053 49.3135 35.4753 52.6387C22.6453 55.9639 9.56804 48.2523 6.26892 35.4159C2.9698 22.5795 10.6973 9.47586 23.5273 6.15067ZM29.4148 29.4817C30.0803 29.3092 30.7553 29.7072 30.9265 30.3731C31.0976 31.0389 30.6987 31.7153 30.0332 31.8878C29.3677 32.0603 28.6927 31.6622 28.5215 30.9964C28.3514 30.3343 28.7531 29.6532 29.4148 29.4817ZM28.6172 26.3311C31.0145 25.7098 33.4541 27.1516 34.0696 29.5464C34.6861 31.9449 33.2413 34.3894 30.8477 35.0098C28.4541 35.6301 26.0107 34.1893 25.3953 31.7945C24.7788 29.396 26.2236 26.9515 28.6172 26.3311ZM10.2174 27.5852C10.7031 22.4919 13.1225 17.6723 16.9094 14.5482C22.1107 10.2584 29.243 8.22435 36.4804 11.1505C40.7467 12.8735 42.6141 14.7097 45.3935 18.1013C47.6252 21.1667 46.7994 22.5671 41.9541 21.777C31.8139 19.6556 22.7714 22.213 14.6832 28.8448C11.864 31.9361 9.48748 30.5828 10.2174 27.5852ZM39.5984 45.9894C45.3744 42.382 48.0136 37.4288 48.9518 31.7421C49.401 27.417 44.4701 27.2665 43.5272 30.283C43.055 32.4472 42.3274 34.3871 41.1577 36.0501C39.3257 38.6514 36.0234 39.8947 36.4596 43.7886C36.6853 45.8123 37.5826 47.4521 39.5984 45.9894ZM28.7687 48.7962C21.9756 48.4463 17.279 45.3943 13.7175 40.8739C11.2399 37.3073 15.4825 34.7793 17.7613 36.9608C19.2175 38.6252 20.7891 39.9692 22.6141 40.8561C25.471 42.2422 28.9599 41.7254 30.4548 45.3449C31.2326 47.2255 31.2376 49.0965 28.7687 48.7962Z" fill="#FAB408"/>
</svg>
