<svg width="44" height="44" viewBox="0 0 44 44" fill="none" xmlns="http://www.w3.org/2000/svg">
<g clip-path="url(#clip0_1097_314)">
<path d="M37.4 0H6.6C2.95492 0 0 2.95492 0 6.6V37.4C0 41.0451 2.95492 44 6.6 44H37.4C41.0451 44 44 41.0451 44 37.4V6.6C44 2.95492 41.0451 0 37.4 0Z" fill="#37AEE2"/>
<path d="M17.1016 34.7188C16.1562 34.7188 16.2422 34.375 15.9844 33.5156L13.2344 24.4922L34.2891 12.1172" fill="#C8DAEA"/>
<path d="M17.1016 34.7188C17.7031 34.7188 18.0469 34.375 18.4766 34.0312L22.3438 30.3359L17.5312 27.4141" fill="#A9C9DD"/>
<path d="M17.5317 27.4143L29.1333 35.9221C30.3364 36.6956 31.3677 36.2659 31.7114 34.719L36.438 12.5471C36.8677 10.6565 35.6645 9.79713 34.3755 10.3987L6.78953 21.0549C4.98484 21.7424 4.98484 22.8596 6.44578 23.2893L13.5786 25.5237L29.9067 15.1253C30.6802 14.6956 31.3677 14.8674 30.852 15.469" fill="#F6FBFE"/>
</g>
<defs>
<clipPath id="clip0_1097_314">
<rect width="44" height="44" fill="white"/>
</clipPath>
</defs>
</svg>
