<svg width="45" height="45" viewBox="0 0 45 45" fill="none" xmlns="http://www.w3.org/2000/svg">
<path d="M41.5776 26.9868L38.9061 25.787L42.1838 18.4892C42.6184 17.5215 42.66 16.4248 42.2993 15.4405C41.9386 14.4562 41.2053 13.6648 40.2606 13.2406L33.1366 10.041L34.3657 7.30431C34.909 6.09463 34.961 4.72381 34.5101 3.49342C34.0593 2.26302 33.1426 1.27383 31.9617 0.74347C30.7809 0.213104 29.4325 0.185004 28.2133 0.665349C26.9942 1.1457 26.004 2.09514 25.4607 3.30482L24.2316 6.04147L17.1076 2.84188C16.1629 2.41759 15.0842 2.39511 14.1089 2.77938C13.1336 3.16366 12.3414 3.92322 11.9068 4.89096L8.79305 11.8238L11.4645 13.0237C14.136 14.2235 15.2899 17.3727 14.0608 20.1094C12.8317 22.846 9.71124 24.0755 7.03974 22.8756L4.36824 21.6758L1.25449 28.6086C0.819852 29.5764 0.778294 30.673 1.13896 31.6574C1.49963 32.6417 2.23297 33.433 3.17767 33.8573L9.94547 36.8969L11.1746 34.1603C12.4037 31.4236 15.5242 30.1942 18.1957 31.394C20.8672 32.5939 22.0211 35.7431 20.792 38.4797L19.5629 41.2164L26.3306 44.256C27.2754 44.6803 28.354 44.7028 29.3294 44.3185C30.3047 43.9342 31.0968 43.1747 31.5315 42.2069L34.8091 34.9092L37.4806 36.109C38.6615 36.6394 40.0098 36.6675 41.229 36.1871C42.4482 35.7068 43.4383 34.7573 43.9816 33.5477C44.5249 32.338 44.5769 30.9672 44.126 29.7368C43.6752 28.5064 42.7585 27.5172 41.5776 26.9868Z" fill="#1967D2"/>
</svg>
