<svg width="14" height="18" viewBox="0 0 14 18" fill="none" xmlns="http://www.w3.org/2000/svg">
<path fill-rule="evenodd" clip-rule="evenodd" d="M0 7.44556C0 3.34404 3.12401 0 7 0C10.876 0 14 3.34404 14 7.44556C14 9.42565 13.4608 11.5517 12.5075 13.3886C11.5555 15.2231 10.1645 16.8172 8.4244 17.6684C7.52048 18.1105 6.47952 18.1105 5.5756 17.6684C3.8355 16.8172 2.4445 15.2231 1.49245 13.3886C0.539224 11.5517 0 9.42565 0 7.44556ZM7 1.25582C3.80674 1.25582 1.2 4.0165 1.2 7.44556C1.2 9.20128 1.6821 11.1227 2.54696 12.7892C3.41299 14.458 4.63682 15.8229 6.08368 16.5307C6.66568 16.8154 7.33432 16.8154 7.91632 16.5307C9.3632 15.8229 10.587 14.458 11.453 12.7892C12.3179 11.1227 12.8 9.20128 12.8 7.44556C12.8 4.0165 10.1933 1.25582 7 1.25582ZM7 5.44187C6.00592 5.44187 5.2 6.28524 5.2 7.32559C5.2 8.36591 6.00592 9.20931 7 9.20931C7.99408 9.20931 8.8 8.36591 8.8 7.32559C8.8 6.28524 7.99408 5.44187 7 5.44187ZM4 7.32559C4 5.59167 5.34314 4.18605 7 4.18605C8.65688 4.18605 10 5.59167 10 7.32559C10 9.05954 8.65688 10.4651 7 10.4651C5.34314 10.4651 4 9.05954 4 7.32559Z" fill="#CFCFCF"/>
</svg>
