<svg width="44" height="44" viewBox="0 0 44 44" fill="none" xmlns="http://www.w3.org/2000/svg">
<g clip-path="url(#clip0_1097_320)">
<path d="M37.4 0H6.6C2.95492 0 0 2.95492 0 6.6V37.4C0 41.0451 2.95492 44 6.6 44H37.4C41.0451 44 44 41.0451 44 37.4V6.6C44 2.95492 41.0451 0 37.4 0Z" fill="#25D366"/>
<path d="M10.57 33.7731L11.7731 28.1871C10.2267 25.7481 9.6235 22.8286 10.0766 19.9764C10.5296 17.1242 12.0079 14.5354 14.2339 12.6956C16.46 10.8558 19.2809 9.89147 22.1673 9.98358C25.0538 10.0757 27.8075 11.2179 29.9117 13.1959C32.0159 15.1738 33.3261 17.8517 33.5964 20.7269C33.8667 23.6022 33.0786 26.4773 31.3798 28.8128C29.6811 31.1482 27.1886 32.7836 24.3698 33.4121C21.5511 34.0405 18.5999 33.6189 16.07 32.2262L10.57 33.7731Z" fill="#25D366" stroke="white" stroke-width="2.23438"/>
<path d="M26.469 23.4605C26.2112 23.2886 25.9534 23.2027 25.6956 23.5464L24.6644 24.9214C24.4065 25.0933 24.2347 25.1792 23.8909 25.0073C22.6019 24.3198 20.7972 23.5464 19.2503 20.9683C19.1644 20.6245 19.3362 20.4527 19.5081 20.2808L20.2815 19.0777C20.4534 18.9058 20.3675 18.7339 20.2815 18.562L19.2503 16.0698C18.9925 15.3823 18.7347 15.4683 18.4769 15.4683H17.7894C17.6175 15.4683 17.2737 15.5542 16.93 15.898C15.0394 17.7886 15.8128 20.4527 17.1878 22.1714C17.4456 22.5152 19.1644 25.6089 22.8597 27.2417C25.6097 28.4448 26.2112 28.273 26.9847 28.1011C27.93 28.0152 28.8753 27.2417 29.305 26.4683C29.3909 26.2105 29.8206 25.0933 29.4768 24.9214" fill="white"/>
</g>
<defs>
<clipPath id="clip0_1097_320">
<rect width="44" height="44" fill="white"/>
</clipPath>
</defs>
</svg>
