<svg width="36" height="24" viewBox="0 0 36 24" fill="none" xmlns="http://www.w3.org/2000/svg">
<path d="M32.7245 0H3.27562C1.47166 0 0 1.47523 0 3.28355V20.7164C0 22.5248 1.47166 24 3.27562 24H32.7245C34.5284 24 36 22.5248 36 20.7164V3.28355C36 1.47523 34.5284 0 32.7245 0ZM34.4493 22.5565L22.8344 12.8486L17.9922 17.5122C17.9922 17.5122 15.8875 15.4659 13.1657 12.8327L1.55083 22.5565C1.53501 22.5406 11.0612 12.7217 12.0264 11.7223C7.23171 7.07461 1.29761 1.3166 1.31343 1.30074L18.0079 14.8155C18.0079 14.8155 34.7341 1.33241 34.7499 1.34828L23.9895 11.7382C25.0497 12.8327 34.4651 22.5406 34.4493 22.5565Z" fill="#2672AB"/>
</svg>
