<svg width="24" height="24" viewBox="0 0 24 24" fill="none" xmlns="http://www.w3.org/2000/svg">
<path d="M22.0968 22.5249L16.863 17.2911C13.4456 18.8692 9.9829 16.6893 8.64321 15.3496C7.29217 13.9986 5.12366 10.5358 6.70177 7.12986L1.46791 1.896C-1.89266 5.84695 0.84348 12.114 6.36118 17.6317C11.8789 23.1607 18.1459 25.8969 22.0968 22.5249ZM8.07554 5.80154C8.80215 5.07493 8.80215 3.88281 8.07554 3.1562L5.46423 0.544958C4.73762 -0.181653 3.54557 -0.181653 2.81896 0.544958L1.8085 1.55542L7.06508 6.81193L8.07554 5.80154ZM17.1922 16.9278L22.4488 22.1843L23.4592 21.1739C24.1859 20.4473 24.1859 19.2552 23.4592 18.5285L20.848 15.9173C20.1214 15.1907 18.9293 15.1907 18.2027 15.9173L17.1922 16.9278Z" fill="#2672AB"/>
</svg>
