<?xml version="1.0" encoding="utf-8"?>
<!-- Generator: Adobe Illustrator 25.0.1, SVG Export Plug-In . SVG Version: 6.00 Build 0)  -->
<svg version="1.1" id="Layer_1" xmlns="http://www.w3.org/2000/svg" xmlns:xlink="http://www.w3.org/1999/xlink" x="0px" y="0px"
	 viewBox="0 0 132 80" style="enable-background:new 0 0 132 80;" xml:space="preserve">
<style type="text/css">
	.st0{fill:#002A3A;}
	.st1{fill:#FFFFFF;}
	.st2{fill:#E1523D;}
</style>
<rect x="0" y="0" class="st0" width="132" height="80"/>
<path class="st1" d="M129.2,51c-1.2,2.1-9.1,14.4-13.2,13.4c-2.9-0.7-2.9-7.1-2.7-9.7c0.2-2.6,0.7-13.8,0-17.3c-2-1-8.5-1.1-9.9,3.5
	c-1.4,4.7-2.8,18.8-0.9,24.1c1.9,5.2,5.2,7.3,8.4,7.3c3.2,0.1,9.7-0.8,16.6-11.6C133.9,50.8,130,50.9,129.2,51z"/>
<path class="st1" d="M111.9,17.1c0.2-0.7,0.2-1.5,0-2.3c-0.2-0.5-0.6-1-1.1-1.2c-0.5-0.3-1.1-0.3-1.7-0.2l-12.7,2.1
	c0.2-4.3,0.3-7.3,0.3-8.2c0.1-3.8-1.2-9.2-9.8-6.7c-0.5,2.6-1.3,9-2,16.3c-4.4,0.3-8.8,0.2-13.1-0.2c-1.1,1.3-2,6.8,3.1,8.4
	c3.1,0.7,6.3,0.6,9.3-0.4c-0.5,5.9-1,11.8-1.3,16.7c-0.1,1.6-0.2,3.1-0.3,4.7c-8.8,12.7-15.6,15.4-17.6,14.6
	c-2.4-0.9-1.9-6.9-1.8-8.4c0.1-1.5,1.6-35.4,1.7-39.8c0.1-4.5-1.5-7.1-2.6-7.9c-1-0.6-2.1-1-3.3-1.1c-1.2-0.1-2.4,0-3.5,0.4
	c-1.8,10.3-4.8,34.9-5.7,47.7c-1.1,1.8-2.2,3.3-3,4.5c-2.1,2.7-4.9,5-6.7,4.7c-1.9-0.3-2.4-4.1-2.7-7.2c-0.3-3.1-0.2-11.9-0.1-13.4
	c-1.4-1.4-5.5-2-7.4-0.9c-1.8,1.1-3,2.7-3.6,7.8c-1.1,2.8-2.6,5.5-4.4,8c-1.6,2.1-4.3,5.5-7.1,3.9c-2.1-1.2-1.4-9.8,0.7-14.9
	s5.3-10.1,10.9-10.9c4.1-0.5,7.4,2,8.8,3.2c0.6-0.3,1.1-0.8,1.4-1.5c0.3-0.6,0.4-1.3,0.2-2c-0.4-1.6-3.3-6.1-9.2-6.8
	C21.7,25.4,13.3,29.3,8,36.7c-4.3,5.7-7,12.4-7.8,19.5c-0.6,5.6,0.6,12.1,4.9,14.5c4.2,2.2,13.7-1,20.9-12.7
	c0.5,6,2.7,12.1,9.2,12.9c5.4,0.7,10.9-4.9,15.2-11c1.6,6.8,5.9,9.5,8.3,10c3.1,0.7,7.4,0.8,15.6-6.5c3.1-2.9,5.8-6.1,8.1-9.6
	c-0.2,9.4,0,18.5,0.4,25.8c1.9,0.7,6.1,1.4,8.6-1.3c2.5-2.7,2.9-8.3,3.1-12.1c0.2-2.6,1.1-28,1.7-44.6L111.9,17.1z"/>
<path class="st2" d="M108.9,24.3c-2.9,0.6-4.9,3-4.4,5.3s3.2,3.7,6.2,3.1c2.9-0.6,4.9-3,4.4-5.3C114.6,25.1,111.8,23.7,108.9,24.3z"
	/>
<script  xmlns=""></script>
</svg>
