<?xml version="1.0" encoding="utf-8"?>
<!-- Generator: Adobe Illustrator 25.0.1, SVG Export Plug-In . SVG Version: 6.00 Build 0)  -->
<svg version="1.1" id="Layer_1" xmlns="http://www.w3.org/2000/svg" xmlns:xlink="http://www.w3.org/1999/xlink" x="0px" y="0px"
	 viewBox="0 0 179 127.6" style="enable-background:new 0 0 179 127.6;" xml:space="preserve">
<style type="text/css">
	.st0{fill:#D32329;}
</style>
<g id="Слой_2">
	<g id="Layer_1_1_">
		<path class="st0" d="M66.5,50.7c-7.7,0-14,6.3-14,14v62h28v-62C80.5,57,74.2,50.7,66.5,50.7z"/>
		<path class="st0" d="M112.6,50.7c-7.7,0-14,6.3-14,14v62h28v-62C126.6,56.9,120.3,50.7,112.6,50.7
			C112.6,50.7,112.6,50.7,112.6,50.7z"/>
		<path class="st0" d="M0,0v126.7h34.4v-62c0-7.6-6-13.7-13.5-14V32.9c8.5,0.1,16.7,3.7,22.5,9.9c12-12.7,32.1-13.3,44.8-1.3
			c0.4,0.4,0.9,0.8,1.3,1.3c12-12.7,32.1-13.3,44.9-1.3c0.4,0.4,0.8,0.8,1.3,1.3c5.9-6.2,14-9.8,22.5-9.9v17.8
			c-7.5,0.3-13.5,6.4-13.5,14v62H179V0H0z"/>
	</g>
</g>
<script  xmlns=""></script>
</svg>
