<svg width="259" height="56" viewBox="0 0 259 56" fill="none" xmlns="http://www.w3.org/2000/svg">
<path d="M130.314 20.0156L130.985 17.7002H143.565L139.508 31.7878H138.268L141.658 20.0156H130.314Z" fill="#F97D0A"/>
<path d="M39.1107 13.76H58.7192L60.5402 7.32614H41.2812C36.3554 7.40373 34.0686 9.28928 32.796 13.4552L28.5572 28.4041C27.5345 31.2832 29.1694 35.0105 33.2397 35.197H52.6517L54.4727 28.7629H34.8689L36.0802 24.4787H55.6854L57.5065 18.0446H37.8993L39.1107 13.76V13.76ZM96.5734 24.4795H81.6527C76.9702 24.4639 74.2319 20.6069 75.5642 15.9006C76.9012 10.8388 80.4618 7.24917 86.5409 7.32614H108.178L106.361 13.76H84.7183C83.5656 13.76 82.3139 14.7011 81.974 15.9006C81.6459 17.0584 82.3943 18.0446 83.5051 18.0446H98.2879C102.48 18.0446 105.243 21.3063 104.645 25.4715C103.68 31.282 100.119 35.3226 93.0476 35.1923H63.2998C58.8869 35.1278 57.5906 32.3814 58.6436 28.7188L64.6961 7.32422H71.0979L65.0407 28.7583H95.3861C96.5363 28.687 97.6135 27.8602 97.9319 26.7469C98.2594 25.5834 97.6979 24.5435 96.5734 24.4795V24.4795ZM30.3707 7.32614H1.84729L0 13.76H11.1288L5.108 35.2031H11.5198L17.5634 13.76H28.5542L30.3707 7.32614V7.32614Z" fill="#F97D0A"/>
<path d="M132.209 35.2166L132.512 32.187C131.363 33.4402 130.042 34.3833 128.535 35.0292C127.028 35.6688 125.383 35.9918 123.6 35.9918C120.239 35.9918 117.654 34.8614 115.831 32.6069C114.014 30.3459 113.305 27.3939 113.709 23.7442C113.953 21.5349 114.552 19.3839 115.498 17.2909C116.444 15.1979 117.674 13.3311 119.175 11.6903C120.662 10.0625 122.356 8.83506 124.25 8.00826C126.151 7.18139 128.218 6.76801 130.452 6.76801C133.941 6.76801 136.578 7.66588 138.375 9.45524C140.166 11.251 140.903 13.7251 140.579 16.8838H134.862C134.944 15.2173 134.564 13.9383 133.709 13.0533C132.861 12.1683 131.583 11.7291 129.871 11.7291C128.512 11.7291 127.278 12.0068 126.166 12.5688C125.055 13.1308 124.066 13.9771 123.201 15.101C122.306 16.2702 121.551 17.6204 120.946 19.1383C120.333 20.6564 119.944 22.1938 119.773 23.7442C119.514 26.0826 119.867 27.8977 120.837 29.1961C121.807 30.4945 123.28 31.147 125.25 31.147C127.097 31.147 128.766 30.6109 130.249 29.545C131.725 28.4791 132.735 27.0903 133.266 25.3719H126.327L127.639 20.8372H140.219L136.078 35.2166H132.209V35.2166ZM139.695 35.2166L147.685 7.34941H153.517L146.955 30.2943H159.824L158.39 35.2166H139.695ZM176.806 11.6128C174.212 11.6128 171.99 12.7303 170.126 14.9654C168.264 17.1939 167.134 20.075 166.745 23.589C166.483 25.9534 166.867 27.775 167.897 29.0606C168.92 30.346 170.509 30.9919 172.659 30.9919C173.921 30.9919 175.091 30.7207 176.187 30.178C177.277 29.6354 178.234 28.8473 179.069 27.8138C180.02 26.6123 180.819 25.2041 181.481 23.589C182.136 21.9742 182.551 20.3722 182.727 18.7831C182.985 16.451 182.609 14.6747 181.599 13.4473C180.595 12.2265 178.995 11.6128 176.806 11.6128V11.6128ZM160.869 23.6278C161.143 21.1603 161.828 18.8025 162.925 16.5674C164.022 14.3388 165.432 12.4138 167.156 10.7989C168.615 9.42287 170.251 8.37001 172.069 7.65299C173.88 6.93597 175.774 6.57422 177.75 6.57422C181.606 6.57422 184.482 7.69814 186.37 9.95261C188.257 12.2071 188.977 15.3659 188.527 19.429C188.281 21.6512 187.634 23.8281 186.58 25.9662C185.525 28.1108 184.18 29.9713 182.543 31.5604C181.046 33.0397 179.385 34.1507 177.557 34.9065C175.723 35.6559 173.769 36.0306 171.696 36.0306C167.866 36.0306 164.994 34.9324 163.087 32.7296C161.181 30.5268 160.442 27.4908 160.869 23.6278V23.6278ZM194.92 30.4106H201.338C203.096 30.4106 204.448 30.0617 205.381 29.3705C206.314 28.6729 206.856 27.6135 207.014 26.1859C207.131 25.1265 206.855 24.3062 206.192 23.7248C205.529 23.1434 204.531 22.8527 203.211 22.8527H197.096L194.92 30.4106ZM198.409 18.318H204.64C206.185 18.318 207.356 18.0402 208.152 17.4782C208.948 16.9163 209.411 16.0507 209.541 14.8749C209.642 13.9577 209.416 13.2664 208.868 12.8078C208.314 12.3491 207.445 12.1166 206.247 12.1166H200.189L198.409 18.318V18.318ZM187.783 35.2166L195.85 7.34941H206.891C209.897 7.34941 212.108 7.9631 213.537 9.18398C214.967 10.4048 215.555 12.1812 215.297 14.5132C215.12 16.1152 214.589 17.4782 213.705 18.6087C212.82 19.7391 211.62 20.5724 210.118 21.115C211.155 21.6318 211.895 22.3359 212.33 23.2338C212.765 24.1317 212.915 25.2169 212.774 26.4895C212.46 29.3318 211.326 31.4958 209.365 32.9816C207.41 34.4737 204.721 35.2166 201.296 35.2166H187.783V35.2166ZM223.078 24.9457H230.378L230.167 13.176L223.078 24.9457ZM210.61 35.2166L228.231 7.34941H234.945L236.258 35.2166H230.503L230.447 29.7904H220.14L216.784 35.2166H210.61V35.2166ZM237.873 35.2166L245.863 7.34941H251.695L245.133 30.2943H258.001L256.568 35.2166H237.873V35.2166Z" fill="#003A7D"/>
<path d="M110.058 42.087L109.318 44.7474H113.386L113.001 46.1399H108.933L108.053 49.3005H106.262L108.646 40.6942H114.65L114.266 42.087H110.058V42.087ZM120.768 40.5693C121.959 40.5693 122.869 40.8862 123.502 41.5199C124.134 42.1517 124.405 43.0148 124.313 44.1051C124.229 45.1121 123.938 46.0294 123.44 46.857C122.943 47.6868 122.291 48.3205 121.487 48.7626C120.684 49.2046 119.788 49.4257 118.801 49.4257C118.018 49.4257 117.351 49.2797 116.796 48.9857C116.243 48.6919 115.838 48.2727 115.58 47.7245C115.325 47.176 115.227 46.536 115.288 45.8044C115.369 44.8472 115.658 43.953 116.155 43.1254C116.653 42.2975 117.3 41.6638 118.095 41.2259C118.892 40.7883 119.783 40.5693 120.768 40.5693V40.5693ZM120.564 41.9932C119.907 41.9932 119.333 42.1454 118.844 42.4498C118.357 42.7562 117.961 43.2148 117.659 43.83C117.356 44.4451 117.175 45.087 117.119 45.7543C117.056 46.5047 117.192 47.0677 117.526 47.4429C117.86 47.8202 118.353 48.0081 119.005 48.0081C119.66 48.0081 120.231 47.8557 120.718 47.5515C121.207 47.2448 121.603 46.7905 121.909 46.1878C122.213 45.5854 122.394 44.9413 122.452 44.2531C122.512 43.536 122.38 42.9793 122.058 42.5852C121.735 42.1891 121.239 41.9932 120.564 41.9932ZM130.957 49.3005L129.83 46.0398H127.727L126.826 49.3005H125.029L127.419 40.6942H131.382C132.026 40.6942 132.57 40.7943 133.015 40.9946C133.459 41.1926 133.784 41.4781 133.992 41.8494C134.2 42.2205 134.284 42.6561 134.242 43.1564C134.186 43.8279 133.918 44.3991 133.438 44.8662C132.958 45.3352 132.337 45.627 131.574 45.7397L132.941 49.3005H130.957ZM130.509 44.6346C131.097 44.6346 131.552 44.5158 131.875 44.2781C132.196 44.0385 132.376 43.7007 132.413 43.2607C132.445 42.8814 132.34 42.5915 132.1 42.3913C131.859 42.1932 131.505 42.0933 131.038 42.0933H128.825L128.118 44.6346H130.509V44.6346ZM143.09 49.3005H140.96L141.212 44.3408L141.3 42.9961L141.336 42.4832C141.039 43.1356 140.811 43.6216 140.657 43.9445C140.501 44.2657 139.593 46.0502 137.933 49.3005H135.772L135.954 40.6942H137.657L137.458 45.6729C137.43 46.3567 137.385 47.0614 137.324 47.7848L137.745 46.907L138.303 45.7772L140.89 40.6942H142.814L142.475 47.7848C142.61 47.4888 142.803 47.0718 143.057 46.536C143.31 46.0002 144.267 44.0531 145.925 40.6942H147.697L143.09 49.3005V49.3005ZM152.446 49.3005L152.296 47.1032H149.028L147.657 49.3005H145.869L151.38 40.6942H153.499L154.225 49.3005H152.446V49.3005ZM152.066 42.0202C151.959 42.2809 151.723 42.7125 151.361 43.3149L149.867 45.748H152.271L152.095 42.9856C152.067 42.4353 152.058 42.114 152.066 42.0202ZM162.001 49.3005L160.874 46.0398H158.771L157.87 49.3005H156.073L158.463 40.6942H162.425C163.07 40.6942 163.614 40.7943 164.058 40.9946C164.503 41.1926 164.828 41.4781 165.036 41.8494C165.243 42.2205 165.328 42.6561 165.286 43.1564C165.229 43.8279 164.961 44.3991 164.482 44.8662C164.002 45.3352 163.381 45.627 162.617 45.7397L163.985 49.3005H162.001ZM161.553 44.6346C162.141 44.6346 162.595 44.5158 162.919 44.2781C163.24 44.0385 163.42 43.7007 163.457 43.2607C163.489 42.8814 163.384 42.5915 163.143 42.3913C162.902 42.1932 162.549 42.0933 162.082 42.0933H159.869L159.161 44.6346H161.553V44.6346ZM170.774 40.6942C172.125 40.6942 173.133 41.0091 173.799 41.6409C174.463 42.2725 174.746 43.1815 174.646 44.3719C174.566 45.3332 174.293 46.1817 173.83 46.9175C173.367 47.6557 172.737 48.2372 171.938 48.6627C171.138 49.0879 170.266 49.3005 169.321 49.3005H165.804L168.194 40.6942H170.774V40.6942ZM167.985 47.908H169.384C170.034 47.908 170.619 47.7682 171.144 47.4888C171.67 47.2115 172.088 46.8092 172.402 46.2838C172.716 45.7585 172.902 45.1476 172.961 44.4511C173.025 43.6818 172.861 43.094 172.467 42.6916C172.072 42.2892 171.472 42.087 170.67 42.087H169.6L167.985 47.908ZM185.705 42.087L183.702 49.3005H181.905L183.91 42.087H181.141L181.525 40.6942H188.866L188.481 42.087H185.705ZM194.153 40.5693C195.343 40.5693 196.254 40.8862 196.886 41.5199C197.519 42.1517 197.789 43.0148 197.698 44.1051C197.613 45.1121 197.322 46.0294 196.825 46.857C196.327 47.6868 195.676 48.3205 194.872 48.7626C194.068 49.2046 193.173 49.4257 192.186 49.4257C191.402 49.4257 190.735 49.2797 190.18 48.9857C189.627 48.6919 189.222 48.2727 188.965 47.7245C188.709 47.176 188.611 46.536 188.673 45.8044C188.753 44.8472 189.042 43.953 189.54 43.1254C190.037 42.2975 190.684 41.6638 191.48 41.2259C192.277 40.7883 193.168 40.5693 194.153 40.5693V40.5693ZM193.948 41.9932C193.292 41.9932 192.718 42.1454 192.229 42.4498C191.742 42.7562 191.346 43.2148 191.043 43.83C190.74 44.4451 190.559 45.087 190.503 45.7543C190.441 46.5047 190.576 47.0677 190.91 47.4429C191.244 47.8202 191.738 48.0081 192.39 48.0081C193.044 48.0081 193.616 47.8557 194.103 47.5515C194.592 47.2448 194.987 46.7905 195.294 46.1878C195.598 45.5854 195.779 44.9413 195.836 44.2531C195.896 43.536 195.764 42.9793 195.442 42.5852C195.12 42.1891 194.623 41.9932 193.948 41.9932ZM202.691 49.413C201.473 49.413 200.546 49.0899 199.911 48.4457C199.275 47.8015 199.006 46.8988 199.103 45.7397C199.188 44.7223 199.476 43.8174 199.966 43.0294C200.456 42.2392 201.11 41.6324 201.922 41.2072C202.735 40.7819 203.648 40.5693 204.662 40.5693C205.589 40.5693 206.345 40.7778 206.933 41.1967C207.521 41.6159 207.892 42.2018 208.042 42.9543L206.286 43.4296C206.208 42.9711 206.01 42.6165 205.694 42.3643C205.379 42.1121 204.963 41.9869 204.448 41.9869C203.802 41.9869 203.222 42.1391 202.71 42.4435C202.196 42.748 201.788 43.1815 201.481 43.7423C201.174 44.3053 200.989 44.9515 200.928 45.6834C200.867 46.4067 201.013 46.9758 201.366 47.3887C201.721 47.8015 202.249 48.0081 202.956 48.0081C203.394 48.0081 203.824 47.9558 204.247 47.8494C204.672 47.7432 205.036 47.6013 205.343 47.4222L205.74 46.0294H203.658L204.001 44.7598H207.739L206.81 48.229C206.14 48.6646 205.481 48.971 204.832 49.1485C204.186 49.3256 203.472 49.413 202.691 49.413V49.413ZM208.839 49.3005L211.223 40.6942H217.967L217.582 42.087H212.635L212.034 44.2468H216.611L216.226 45.6396H211.649L211.02 47.908H216.219L215.828 49.3005H208.839V49.3005ZM223.716 42.087L221.713 49.3005H219.916L221.921 42.087H219.151L219.536 40.6942H226.877L226.492 42.087H223.716V42.087ZM231.824 49.3005L232.852 45.6124H229.043L228.015 49.3005H226.224L228.608 40.6942H230.406L229.453 44.1219H233.262L234.214 40.6942H235.943L233.552 49.3005H231.824V49.3005ZM235.955 49.3005L238.339 40.6942H245.083L244.699 42.087H239.752L239.15 44.2468H243.728L243.343 45.6396H238.766L238.137 47.908H243.335L242.944 49.3005H235.955ZM250.926 49.3005L249.799 46.0398H247.696L246.795 49.3005H244.998L247.388 40.6942H251.35C251.994 40.6942 252.539 40.7943 252.983 40.9946C253.428 41.1926 253.753 41.4781 253.961 41.8494C254.168 42.2205 254.252 42.6561 254.211 43.1564C254.154 43.8279 253.886 44.3991 253.407 44.8662C252.927 45.3352 252.306 45.627 251.542 45.7397L252.91 49.3005H250.926ZM250.478 44.6346C251.066 44.6346 251.52 44.5158 251.844 44.2781C252.165 44.0385 252.345 43.7007 252.382 43.2607C252.413 42.8814 252.309 42.5915 252.068 42.3913C251.827 42.1932 251.474 42.0933 251.006 42.0933H248.794L248.086 44.6346H250.478V44.6346Z" fill="#003A7D"/>
</svg>
