<svg width="158" height="102" viewBox="0 0 158 102" fill="none" xmlns="http://www.w3.org/2000/svg">
<path d="M39.1296 101.867L79.4288 86.7963L40.2992 72.0571L0 87.1278L39.1296 101.867Z" fill="#D6E0E8"/>
<path d="M98.5896 98.9246L138.889 83.8539L99.7592 69.1147L59.46 84.1854L98.5896 98.9246Z" fill="#D6E0E8"/>
<path d="M116.049 19.3718C116.049 19.3718 119.09 18.6811 119.728 17.6312C120.366 16.5814 119.175 14.8823 119.707 13.1556C120.239 11.4151 121.089 10.3376 122.344 8.79051C123.599 7.24338 124.492 6.19353 123.471 6.48361C122.45 6.7737 119.282 7.87879 120.281 6.13827C121.281 4.41157 125.194 2.36714 128.362 1.2068C131.51 0.032637 135.04 -0.45084 134.955 0.516114C134.87 1.48307 133.062 2.80918 132.041 3.2374C131.021 3.66562 128.724 4.48063 128.703 5.00554C128.681 5.53046 129.362 7.78212 128.469 9.66077C127.576 11.5532 125.64 13.6529 124.896 14.7856C124.13 15.9045 124.088 16.4294 126.215 15.6421C128.32 14.8547 128.15 15.5868 128.15 15.5868L126.767 15.9321C126.767 15.9321 123.131 17.4516 123.195 16.4985C123.259 15.5315 124.003 14.8409 125.151 13.4181C126.3 12.0091 128.256 9.68839 128.171 8.05839C128.086 6.42838 127.278 5.58574 128.511 4.50827C129.745 3.43081 131.956 3.23744 133.041 2.32574C134.126 1.42785 134.572 0.916721 133.892 0.57138C133.19 0.22604 132.382 0.184627 128.362 1.59362C124.343 3.01642 121.855 4.81216 121.238 5.57191C120.622 6.33166 120.749 7.02235 122.578 6.44217C124.428 5.862 125.832 5.35089 124.279 7.25717C122.727 9.16345 120.239 11.9262 120.558 13.6805C120.877 15.4211 121.345 16.4018 120.643 17.3964C119.941 18.391 119.303 18.7639 116.411 19.7033C113.497 20.6426 116.049 19.3718 116.049 19.3718Z" fill="#919191"/>
<path d="M128.192 16.6782L113.709 22.0241L115.9 13.1419C115.794 12.838 116.113 12.3822 116.559 12.2302L136.209 4.97805C136.656 4.81228 136.975 5.03331 136.868 5.42009L128.192 16.6782Z" fill="#2D2D2C"/>
<path d="M129.957 17.6588L115.475 23.0047L117.666 14.1225C117.559 13.8186 117.878 13.3627 118.325 13.2108L137.975 5.95864C138.421 5.79287 138.74 6.0139 138.634 6.40068L129.957 17.6588Z" fill="#4B4B4B"/>
<path d="M96.4418 20.4218L39.7039 41.7362L34.0684 39.5675L90.7851 18.2668L96.4418 20.4218Z" fill="#F16460"/>
<path d="M39.7039 101.908L34.0684 99.7533V57.3455L39.7039 59.5142V101.908Z" fill="#929493"/>
<path d="M96.442 38.2001L39.7041 59.5145V41.7363L96.442 20.4219V38.2001Z" fill="#D61F26"/>
<path d="M49.6989 51.2951C49.7414 52.7317 48.8482 53.9059 47.3596 54.4584C46.3814 54.8314 45.5733 54.7347 44.9565 54.2788L45.7434 52.8284C46.2538 53.1461 46.8067 53.1875 47.2107 53.0356C47.6786 52.856 47.9338 52.483 47.9338 51.9305L47.8488 48.7948L45.4882 49.6927L45.4457 48.3113L49.5925 46.7504L49.6989 51.2951Z" fill="white"/>
<path d="M52.3355 51.24L51.8677 52.6766L50.0601 53.3535L52.8672 45.4935L54.6748 44.8167L57.7584 50.4526L55.887 51.1571L55.3554 50.1073L52.3355 51.24ZM53.7604 46.8749L52.8247 49.7481L54.8237 49.0022L53.7604 46.8749Z" fill="white"/>
<path d="M63.2241 48.3943L59.9492 45.4382L60.0555 49.5961L58.3967 50.2177L58.2266 43.4767L59.779 42.8965L63.0753 45.8526L62.9689 41.6948L64.6064 41.0731L64.7766 47.8142L63.2241 48.3943Z" fill="white"/>
<path d="M72.3054 42.1091C72.348 43.891 71.157 45.4796 69.2218 46.2117C67.2866 46.9438 66.0107 46.2946 65.9681 44.5126L65.8618 40.6034L67.6269 39.9403L67.7332 43.8496C67.7544 44.7613 68.3712 45.0928 69.2218 44.7751C70.0512 44.4574 70.6042 43.6838 70.5829 42.7721L70.4765 38.8629L72.2204 38.1998L72.3054 42.1091Z" fill="white"/>
<path d="M74.9844 42.7034L74.5166 44.14L72.709 44.8168L75.5161 36.9569L77.3237 36.28L80.4073 41.916L78.5359 42.6205L78.0042 41.5706L74.9844 42.7034ZM76.4093 38.3382L75.4736 41.2115L77.4726 40.4656L76.4093 38.3382Z" fill="white"/>
<path d="M84.129 38.5868L84.0864 38.6006L82.7467 39.1117L82.7892 41.0042L81.0241 41.6672L80.854 34.9261L83.9376 33.752C85.7665 33.0613 86.8297 33.5172 86.8723 35.0228C86.8935 36.0589 86.4682 36.9568 85.6814 37.6612L87.1913 39.3327L85.1923 40.0786L84.129 38.5868ZM84.0439 37.2606C84.8095 36.9706 85.2348 36.4318 85.2135 35.7135C85.1923 35.009 84.7457 34.8156 83.9801 35.1057L82.6403 35.603L82.7041 37.7441L84.0439 37.2606Z" fill="white"/>
<path d="M91.6785 37.6613L89.9347 38.3244L89.8709 36.1971L87.1914 32.5503L88.9565 31.8872L90.7003 34.1941L92.2527 30.644L94.0178 29.981L91.636 35.4926L91.6785 37.6613Z" fill="white"/>
<path d="M96.442 80.6078L39.7041 101.908V59.5144L96.442 38.2V80.6078Z" fill="#E7EBEB"/>
<path d="M65.4999 68.6865L61.672 70.1093C60.5662 70.5237 59.1626 69.9988 59.1626 69.1699V66.7111C59.1626 65.7442 59.9495 64.8601 61.2467 64.3766L65.0746 62.9538C66.1804 62.5394 67.584 63.0643 67.584 63.8931V66.3519C67.584 67.3189 66.7759 68.203 65.4999 68.6865Z" fill="#ED1C24"/>
<path d="M55.1001 58.423L56.4611 57.0692L57.2267 56.7792V59.5005L57.9497 59.238V59.7353L55.4616 60.6608V60.1635L56.291 59.8458V58.2296C56.291 58.1467 56.291 58.0638 56.291 57.981L55.8019 58.4644C55.7593 58.5059 55.7168 58.5335 55.6743 58.5611C55.6317 58.5888 55.5892 58.6026 55.5467 58.6026C55.5041 58.6164 55.4828 58.6164 55.4403 58.6164C55.419 58.6164 55.3978 58.6026 55.3765 58.6026L55.1001 58.423Z" fill="#ED1C24"/>
<path d="M54.9941 66.1589V65.9378C54.9941 65.8964 55.0154 65.8411 55.0366 65.7859C55.0579 65.7306 55.1005 65.6754 55.1643 65.6063L56.419 64.1973C56.5253 64.073 56.6104 63.9625 56.6955 63.8658C56.7805 63.7691 56.8443 63.6724 56.8869 63.5757C56.9294 63.4928 56.9719 63.3961 56.9932 63.327C57.0144 63.2442 57.0357 63.1613 57.0357 63.0922C57.0357 62.9679 56.9931 62.885 56.9081 62.8436C56.823 62.8022 56.6954 62.816 56.5253 62.885C56.3977 62.9403 56.2701 63.0094 56.185 63.0922C56.1 63.1751 56.0149 63.2718 55.9936 63.3685C55.9511 63.4652 55.8873 63.5343 55.8235 63.5895C55.7598 63.6448 55.6534 63.6862 55.5258 63.7138L55.0366 63.8382C55.0579 63.6724 55.1218 63.5066 55.2281 63.3547C55.3132 63.2027 55.4407 63.0646 55.5683 62.9265C55.6959 62.7883 55.866 62.6778 56.0362 62.5673C56.2063 62.4568 56.3977 62.3739 56.5891 62.3048C56.8018 62.222 56.9931 62.1805 57.1633 62.1529C57.3334 62.1391 57.4823 62.1391 57.6099 62.1805C57.7375 62.222 57.8226 62.2772 57.8864 62.3739C57.9502 62.4568 57.9927 62.5811 57.9927 62.7193C57.9927 62.8436 57.9714 62.9541 57.9289 63.0784C57.8863 63.1889 57.8225 63.3133 57.7375 63.4376C57.6524 63.5619 57.5673 63.6862 57.461 63.8105C57.3547 63.9349 57.2484 64.0592 57.142 64.1835L56.2914 65.1505C56.3977 65.0814 56.5041 65.0261 56.6104 64.9709C56.7167 64.9156 56.823 64.8742 56.9081 64.8328L57.7162 64.5289C57.8225 64.4874 57.8864 64.4874 57.9502 64.5012C58.014 64.515 58.0352 64.5565 58.0352 64.6255V65.0123L54.9941 66.1589Z" fill="#464646"/>
<path d="M54.9517 70.6482L55.3557 70.3719C55.4621 70.3028 55.5683 70.2476 55.6534 70.2337C55.7385 70.2199 55.8023 70.22 55.8448 70.2614C55.9299 70.3443 56.0362 70.3995 56.1213 70.4133C56.2276 70.4271 56.334 70.4134 56.4828 70.3581C56.5892 70.3167 56.6742 70.2752 56.7593 70.22C56.8444 70.1647 56.9081 70.1095 56.9507 70.0542C56.9932 69.999 57.0357 69.9299 57.057 69.8746C57.0782 69.8194 57.0995 69.7503 57.0995 69.7089C57.0995 69.6398 57.0995 69.5845 57.0783 69.5293C57.057 69.474 57.0357 69.4464 56.9719 69.4326C56.9081 69.4188 56.8231 69.4188 56.6955 69.4464C56.5679 69.474 56.3977 69.5293 56.1851 69.6122V69.1563C56.3765 69.0872 56.5253 69.0182 56.6316 68.9491C56.738 68.88 56.8231 68.8248 56.8869 68.7695C56.9507 68.7143 56.9932 68.6452 57.0145 68.59C57.0357 68.5347 57.0357 68.4656 57.0357 68.4104C57.0357 68.2861 56.9932 68.2031 56.9081 68.1617C56.823 68.1203 56.6955 68.1341 56.5253 68.2031C56.3765 68.2584 56.2701 68.3275 56.1851 68.4104C56.1 68.5071 56.0362 68.5899 55.9937 68.6866C55.9511 68.7833 55.8874 68.8524 55.8236 68.9077C55.7598 68.9629 55.6534 69.0043 55.5258 69.032L55.0367 69.1563C55.0579 68.9905 55.1218 68.8248 55.2281 68.659C55.3132 68.5071 55.4407 68.3689 55.5683 68.2308C55.6959 68.1065 55.8661 67.9822 56.0362 67.8855C56.2063 67.7888 56.3977 67.6921 56.5891 67.623C56.8018 67.5401 56.9932 67.4848 57.1633 67.471C57.3334 67.4572 57.461 67.4572 57.5886 67.4987C57.695 67.5263 57.78 67.5954 57.8438 67.6644C57.9076 67.7473 57.9289 67.844 57.9289 67.9545C57.9289 68.0512 57.9077 68.1479 57.8864 68.2446C57.8651 68.3275 57.8226 68.4104 57.7588 68.4933C57.695 68.5761 57.6311 68.6452 57.5673 68.7143C57.4823 68.7834 57.3973 68.8524 57.2909 68.9077C57.7801 68.8524 58.014 69.0044 58.014 69.3497C58.014 69.5155 57.9715 69.6812 57.8864 69.847C57.8013 69.9989 57.695 70.1509 57.5461 70.289C57.3973 70.4272 57.2484 70.5515 57.057 70.662C56.8656 70.7725 56.6742 70.8692 56.4828 70.9383C56.2702 71.0211 56.1 71.0764 55.9299 71.104C55.7598 71.1316 55.6321 71.1316 55.5045 71.104C55.3769 71.0764 55.2707 71.0349 55.1643 70.9659C55.1005 70.8692 55.0155 70.7725 54.9517 70.6482Z" fill="#464646"/>
<path d="M54.7812 75.621L56.8016 72.8583L57.7798 72.4991V74.4607L58.2263 74.2949V74.6817C58.2263 74.7231 58.2051 74.7508 58.1838 74.7922C58.1626 74.8337 58.0988 74.8613 58.0562 74.8751L57.7798 74.9718V75.7039L56.8866 76.0354V75.3033L55.1428 75.9664C55.079 75.994 55.0365 75.994 54.9939 75.9802C54.9514 75.9664 54.9088 75.9526 54.9088 75.9111L54.7812 75.621ZM55.7595 75.2204L56.8866 74.806V73.9634C56.8866 73.9081 56.8866 73.8529 56.8866 73.7976C56.8866 73.7424 56.9079 73.6733 56.9079 73.6042L55.7595 75.2204Z" fill="#464646"/>
<path d="M54.9941 81.6851L55.2919 81.2983C55.3132 81.2569 55.3557 81.2293 55.3982 81.1878C55.4407 81.1602 55.4833 81.1326 55.5258 81.1188C55.5896 81.0911 55.6534 81.0911 55.696 81.0911C55.7385 81.0911 55.8023 81.105 55.8661 81.105C55.9299 81.105 55.9937 81.105 56.0787 81.105C56.1638 81.0912 56.2701 81.0635 56.3977 81.0221C56.5253 80.9806 56.6316 80.9254 56.7167 80.8563C56.8018 80.7872 56.8656 80.732 56.9294 80.6491C56.9932 80.58 57.0144 80.4971 57.057 80.4281C57.0782 80.3452 57.0995 80.2761 57.0995 80.1933C57.0995 80.0413 57.0357 79.9446 56.9081 79.9031C56.7805 79.8617 56.6316 79.8894 56.3977 79.9722C56.2063 80.0413 56.0149 80.1518 55.8235 80.2761L55.2493 80.3728L55.6109 78.6185L57.8438 77.7759V78.0521C57.8438 78.0936 57.8438 78.1488 57.8226 78.1903C57.8013 78.2317 57.78 78.2732 57.7375 78.3284C57.695 78.3699 57.6311 78.4113 57.5673 78.4527C57.5035 78.4942 57.4185 78.5356 57.3121 78.5632L56.2701 78.95L56.1425 79.5164C56.2276 79.4749 56.2914 79.4335 56.3764 79.4059C56.4615 79.3782 56.5253 79.3368 56.5891 79.3092C56.823 79.2263 57.0144 79.1711 57.2058 79.1572C57.376 79.1434 57.5248 79.1572 57.6524 79.2125C57.78 79.2539 57.8651 79.3368 57.9289 79.4335C57.9927 79.5302 58.014 79.6545 58.014 79.7927C58.014 79.9722 57.9714 80.138 57.8864 80.3038C57.8013 80.4833 57.695 80.6491 57.5461 80.8011C57.3972 80.9668 57.2271 81.1049 57.0144 81.2431C56.8018 81.3812 56.5891 81.4917 56.3339 81.5746C56.1851 81.6299 56.0575 81.6713 55.9299 81.6989C55.8023 81.7266 55.6746 81.7404 55.5683 81.7404C55.462 81.7404 55.3557 81.7404 55.2493 81.7266C55.1643 81.7266 55.0792 81.7127 54.9941 81.6851Z" fill="#464646"/>
<path d="M54.9941 86.2435C54.9941 85.9258 55.1643 85.539 55.4833 85.0831L56.4615 83.7294C56.504 83.6742 56.5678 83.6051 56.6529 83.5498C56.738 83.4808 56.8443 83.4393 56.9506 83.3979L57.78 83.094L56.4828 84.7102C56.4615 84.7378 56.4403 84.7516 56.419 84.7792C56.3977 84.8068 56.3765 84.8207 56.3552 84.8483C56.419 84.8069 56.504 84.7654 56.5678 84.724C56.6529 84.6826 56.7167 84.6549 56.8231 84.6135C56.9719 84.5582 57.1421 84.5168 57.2909 84.4891C57.4398 84.4753 57.5886 84.4754 57.6949 84.5168C57.8225 84.5582 57.9076 84.6135 57.9927 84.7102C58.0777 84.8069 58.099 84.9312 58.099 85.0969C58.099 85.2489 58.0565 85.4008 57.9927 85.5666C57.9076 85.7324 57.8013 85.8843 57.6737 86.0363C57.5461 86.1882 57.3759 86.3263 57.1633 86.4645C56.9719 86.6026 56.7592 86.7132 56.5253 86.796C56.2914 86.8927 56.0575 86.9342 55.8661 86.9618C55.6747 86.9756 55.5045 86.9618 55.3769 86.9065C55.2493 86.8513 55.143 86.7684 55.0792 86.6579C55.0154 86.5612 54.9941 86.4231 54.9941 86.2435ZM55.8873 86.0086C55.8873 86.0915 55.9086 86.1606 55.9299 86.2158C55.9511 86.2711 55.9936 86.3125 56.0574 86.3402C56.1212 86.3678 56.1851 86.3816 56.2701 86.3678C56.3552 86.3678 56.4402 86.3402 56.5678 86.2987C56.6529 86.2573 56.7592 86.2158 56.8443 86.1606C56.9293 86.1053 56.9932 86.0363 57.057 85.9672C57.1208 85.8981 57.1633 85.8291 57.2058 85.7462C57.2484 85.6633 57.2696 85.5942 57.2696 85.5252C57.2696 85.4423 57.2484 85.3732 57.2271 85.318C57.2059 85.2627 57.142 85.2213 57.0782 85.2075C57.0144 85.1799 56.9506 85.1798 56.8656 85.1798C56.7805 85.1798 56.6954 85.2075 56.5891 85.2489C56.504 85.2904 56.419 85.3318 56.3339 85.387C56.2489 85.4423 56.185 85.4975 56.1212 85.5666C56.0574 85.6357 56.0149 85.7047 55.9936 85.7876C55.8873 85.8567 55.8873 85.9258 55.8873 86.0086Z" fill="#464646"/>
<path d="M55.0366 89.8629V89.4208L58.0989 88.2743V88.5644C58.0989 88.6472 58.0777 88.7163 58.0564 88.7854C58.0352 88.8406 58.0139 88.8959 57.9926 88.9511L56.4828 91.8935C56.4402 91.9763 56.3764 92.0454 56.3126 92.1145C56.2275 92.1835 56.1425 92.2526 56.0149 92.294L55.3344 92.5427L56.8868 89.6418C56.9294 89.5589 56.9718 89.4899 57.0356 89.4208C57.0782 89.3517 57.142 89.2827 57.1845 89.2136L55.2706 89.9319C55.2493 89.9457 55.2068 89.9457 55.1855 89.9457C55.1642 89.9457 55.143 89.9457 55.1217 89.9319C55.1004 89.9181 55.0792 89.9181 55.0792 89.9043C55.0367 89.9043 55.0366 89.8905 55.0366 89.8629Z" fill="#ED1C24"/>
<path d="M44.8721 64.3494L45.0847 64.0179C45.106 63.9764 45.1486 63.9488 45.1698 63.9074C45.2124 63.8798 45.2549 63.8521 45.3187 63.8245C45.3825 63.8107 45.425 63.7969 45.4675 63.7969C45.5101 63.7969 45.5526 63.7969 45.6164 63.7969C45.6589 63.7969 45.7228 63.7969 45.7866 63.7831C45.8504 63.7693 45.9354 63.7554 46.0417 63.714C46.1055 63.6863 46.1693 63.6587 46.2118 63.6311C46.2544 63.6035 46.2969 63.5758 46.3394 63.5482C46.3607 63.5206 46.382 63.493 46.4032 63.4516C46.4245 63.4239 46.4245 63.3963 46.4245 63.3686C46.4245 63.3272 46.4033 63.2858 46.3607 63.2858C46.3182 63.2719 46.2757 63.272 46.1906 63.272C46.1268 63.272 46.0417 63.2858 45.9567 63.2996C45.8716 63.3134 45.7865 63.3272 45.7015 63.341C45.6164 63.3548 45.5101 63.3548 45.425 63.3548C45.3399 63.3548 45.2549 63.341 45.1911 63.3134C45.1273 63.2858 45.0635 63.2443 45.0209 63.1891C44.9784 63.1338 44.9572 63.0509 44.9572 62.9404C44.9572 62.8437 44.9784 62.747 45.0422 62.6365C45.0848 62.526 45.1698 62.4293 45.2761 62.3188C45.3825 62.2221 45.5101 62.1116 45.659 62.0149C45.8078 61.9182 45.9992 61.8353 46.1906 61.7525C46.297 61.711 46.4245 61.6696 46.5308 61.6419C46.6372 61.6143 46.7435 61.6005 46.8286 61.5867C46.9136 61.5729 47.02 61.5729 47.0838 61.5729C47.1688 61.5729 47.2326 61.5867 47.2964 61.6143L47.0838 61.932C47.0625 61.9735 47.0412 62.0011 46.9987 62.0149C46.9774 62.0425 46.9349 62.0564 46.8924 62.0702C46.8498 62.084 46.8073 62.0978 46.7648 62.0978C46.7223 62.0978 46.6797 62.0978 46.6159 62.1116C46.5734 62.1116 46.5096 62.1254 46.4458 62.1254C46.382 62.1392 46.3182 62.1531 46.2331 62.1807C46.1268 62.2221 46.0205 62.2774 45.9567 62.3326C45.8929 62.3879 45.8716 62.4431 45.8716 62.5122C45.8716 62.5536 45.8928 62.5813 45.9354 62.5951C45.9779 62.6089 46.0205 62.6089 46.1055 62.6089C46.1693 62.6089 46.2544 62.5951 46.3394 62.5813C46.4245 62.5675 46.5096 62.5536 46.5947 62.5536C46.6797 62.5398 46.786 62.5398 46.8711 62.5398C46.9562 62.5398 47.0413 62.5536 47.105 62.5675C47.1688 62.5813 47.2326 62.6227 47.2751 62.6779C47.3177 62.7332 47.3389 62.8023 47.3389 62.899C47.3389 63.0095 47.3177 63.1338 47.2539 63.2443C47.1901 63.3548 47.105 63.4791 46.9987 63.5897C46.8923 63.7002 46.7435 63.8107 46.5734 63.9074C46.4033 64.0041 46.2118 64.1008 45.9992 64.1837C45.8928 64.2251 45.7865 64.2527 45.6802 64.2803C45.5739 64.308 45.4675 64.3218 45.3612 64.3356C45.2549 64.3494 45.1698 64.3494 45.0847 64.3494C44.9997 64.3771 44.9359 64.3632 44.8721 64.3494Z" fill="#ED1C24"/>
<path d="M43.8726 70.2617V67.9686L44.4468 67.7476C44.5531 67.7061 44.6381 67.7199 44.6807 67.7752L44.7233 67.8857C44.7658 67.8305 44.8296 67.7752 44.8934 67.72C44.9572 67.6647 44.9997 67.6094 45.0635 67.568C45.1273 67.5127 45.1911 67.4713 45.2761 67.4298C45.3612 67.3884 45.425 67.347 45.5314 67.3194C45.7228 67.2503 45.8716 67.2227 45.9992 67.2503C46.1268 67.2779 46.2118 67.3332 46.2756 67.4298C46.3182 67.3332 46.382 67.2503 46.467 67.1812C46.5521 67.0983 46.6159 67.0293 46.701 66.974C46.7861 66.9049 46.8711 66.8497 46.9775 66.8083C47.0838 66.753 47.1688 66.7116 47.2751 66.6839C47.4453 66.6149 47.6154 66.5734 47.743 66.5596C47.8706 66.5458 47.9982 66.5596 48.0833 66.6011C48.1683 66.6425 48.2534 66.6977 48.2959 66.7944C48.3385 66.8911 48.3597 67.0016 48.3597 67.1398V68.5902L47.4453 68.9356V67.4851C47.4453 67.2503 47.3177 67.1812 47.0413 67.2779C46.9137 67.3194 46.8073 67.4022 46.7223 67.4851C46.6372 67.5818 46.5947 67.6785 46.5947 67.8028V69.2533L45.6802 69.5986V68.1482C45.6802 68.0239 45.6377 67.941 45.5739 67.9133C45.5101 67.8857 45.4037 67.8995 45.2761 67.9548C45.1911 67.9824 45.106 68.0238 45.0422 68.0929C44.9784 68.1482 44.8934 68.2173 44.8296 68.2863V69.9439L43.8726 70.2617Z" fill="#8B8A8A"/>
<path d="M43.7451 73.3285L44.4894 73.0522C44.5532 73.0246 44.6171 73.0246 44.6596 73.0246C44.7021 73.0246 44.7234 73.0523 44.7446 73.0799L45.0637 73.9916C45.0849 74.0606 45.1062 74.1297 45.1275 74.1988C45.1487 74.2679 45.17 74.3369 45.1913 74.3922C45.2125 74.3093 45.255 74.2264 45.2763 74.1435C45.2975 74.0607 45.3401 73.9778 45.3614 73.8811L45.7441 72.7069C45.7654 72.6655 45.7867 72.624 45.8292 72.5826C45.8718 72.5411 45.9356 72.5135 45.9781 72.4859L46.3822 72.334C46.446 72.3063 46.5097 72.3063 46.5523 72.3063C46.5948 72.3063 46.6373 72.3339 46.6373 72.3616L46.9988 73.2594C47.0201 73.3285 47.0626 73.3976 47.0839 73.4529C47.1052 73.5219 47.1477 73.5772 47.169 73.6462C47.1903 73.5633 47.2115 73.4805 47.2328 73.4114C47.2541 73.3285 47.2753 73.2456 47.3179 73.149L47.6368 71.9886C47.6581 71.9472 47.6794 71.9057 47.7219 71.8643C47.7645 71.8229 47.8282 71.7952 47.8707 71.7676L48.5726 71.5051L47.6156 74.1574L46.8712 74.4336C46.8287 74.4474 46.8075 74.4474 46.7649 74.4474C46.7437 74.4336 46.7224 74.4198 46.7011 74.3783L46.2546 73.3976C46.2333 73.3561 46.212 73.3147 46.1908 73.2733C46.1695 73.2318 46.1482 73.1904 46.1482 73.1351C46.1269 73.1904 46.127 73.2456 46.1057 73.3147C46.0844 73.37 46.0632 73.4252 46.0419 73.4943L45.5953 74.8066C45.5741 74.8895 45.5102 74.9585 45.4039 75L44.6808 75.2763L43.7451 73.3285Z" fill="#8B8A8A"/>
<path d="M45.042 78.4806V78.2182L45.5311 77.9558L45.7012 77.3203C45.7225 77.2374 45.7863 77.1822 45.9139 77.1407L46.403 76.9612V77.638L47.1686 77.348V77.8038L46.403 78.0939V79.2404C46.403 79.2957 46.4243 79.3371 46.4456 79.3509C46.4881 79.3785 46.5306 79.3647 46.5944 79.3509C46.637 79.3371 46.6582 79.3233 46.6795 79.3095C46.7007 79.2957 46.722 79.2818 46.7433 79.268C46.7645 79.2542 46.7858 79.2404 46.7858 79.2266C46.8071 79.2128 46.8071 79.2128 46.8283 79.199C46.8496 79.1852 46.8709 79.1852 46.8921 79.1852C46.9134 79.1852 46.9346 79.199 46.9346 79.2128L47.2111 79.42C47.0835 79.5305 46.9559 79.6272 46.807 79.7101C46.6582 79.793 46.5093 79.8758 46.3392 79.9311C46.1903 79.9864 46.0627 80.014 45.9564 80.0278C45.8501 80.0416 45.7437 80.0278 45.6799 80.0002C45.5949 79.9725 45.5524 79.9173 45.5098 79.8482C45.4673 79.7792 45.4461 79.6962 45.4461 79.5995V78.4116L45.1909 78.5083C45.1483 78.5221 45.1058 78.5359 45.0633 78.5221C45.042 78.5635 45.042 78.5359 45.042 78.4806Z" fill="#8B8A8A"/>
<path d="M43.3408 84.4206V84.1582L43.83 83.8957L44.0001 83.2603C44.0214 83.1774 44.0851 83.1221 44.2127 83.0807L44.7019 82.9011V83.5918L45.4674 83.3017V83.7576L44.7019 84.0476V85.1942C44.7019 85.2494 44.7231 85.2909 44.7444 85.3047C44.7869 85.3323 44.8295 85.3185 44.8933 85.3047C44.9358 85.2909 44.9571 85.2771 44.9784 85.2632C44.9996 85.2494 45.0209 85.2356 45.0421 85.2218C45.0634 85.208 45.0847 85.1942 45.0847 85.1804C45.1059 85.1665 45.1272 85.1666 45.1272 85.1528C45.1485 85.1389 45.1698 85.1389 45.191 85.1389C45.2123 85.1389 45.2336 85.1528 45.2548 85.1666L45.5313 85.3876C45.4037 85.4981 45.2761 85.5948 45.1272 85.6915C44.9784 85.7743 44.8295 85.8572 44.6594 85.9125C44.5105 85.9677 44.3829 86.0092 44.2765 86.0092C44.1702 86.023 44.0639 86.0092 44.0001 85.9816C43.9151 85.954 43.8725 85.8987 43.83 85.8296C43.7874 85.7605 43.7662 85.6777 43.7662 85.581V84.393L43.511 84.4897C43.4685 84.5035 43.4259 84.5173 43.3834 84.5035C43.3409 84.5035 43.3408 84.4759 43.3408 84.4206Z" fill="#8B8A8A"/>
<path d="M45.8716 85.4288V82.1273L46.8073 81.782V82.9976C46.9136 82.8871 47.0413 82.7904 47.1688 82.6937C47.2964 82.597 47.4666 82.5141 47.6367 82.4588C47.8068 82.3898 47.9557 82.3622 48.0833 82.3483C48.2109 82.3483 48.3172 82.3622 48.4023 82.4036C48.4873 82.4451 48.5511 82.5141 48.6149 82.597C48.6575 82.6799 48.6787 82.7904 48.6787 82.9147V84.3651L47.7643 84.7105V83.2601C47.7643 83.1495 47.7218 83.0805 47.658 83.039C47.5942 82.9976 47.4878 83.0114 47.3389 83.0666C47.2326 83.1081 47.1475 83.1495 47.0625 83.2186C46.9774 83.2877 46.8924 83.3568 46.8073 83.4396V85.0696L45.8716 85.4288Z" fill="#8B8A8A"/>
<path d="M45.1699 88.9929V88.7028L45.6165 88.537V88.4127C45.6165 88.2746 45.6378 88.1502 45.7016 88.0259C45.7654 87.9016 45.8504 87.7773 45.9568 87.653C46.0631 87.5425 46.1907 87.4319 46.3395 87.3352C46.4884 87.2385 46.6585 87.1557 46.8712 87.0728C46.9562 87.0451 47.0201 87.0175 47.0839 87.0037C47.1477 86.9899 47.2115 86.9761 47.2965 86.9623L47.2752 87.3076C47.2752 87.3352 47.2753 87.349 47.254 87.3767C47.2328 87.4043 47.2328 87.4181 47.1902 87.4319C47.169 87.4458 47.1477 87.4734 47.1264 87.4872C47.1052 87.501 47.0839 87.5148 47.0413 87.5286C46.9563 87.5563 46.8925 87.5977 46.8287 87.6253C46.7649 87.6668 46.7223 87.6944 46.6798 87.7497C46.6373 87.7911 46.5948 87.8463 46.5735 87.9016C46.5522 87.9569 46.5309 88.0259 46.5309 88.1088V88.2193L47.254 87.943V88.3989L46.5522 88.6614V90.4847L45.6378 90.8301V89.0067L45.4251 89.0896C45.3613 89.1034 45.2975 89.1034 45.255 89.0896C45.1912 89.0758 45.1699 89.0481 45.1699 88.9929Z" fill="#8B8A8A"/>
<path d="M44.8721 96.1486L45.0847 95.8171C45.106 95.7757 45.1486 95.748 45.1698 95.7066C45.2124 95.6789 45.2549 95.6513 45.3187 95.6237C45.3825 95.6099 45.425 95.5961 45.4675 95.5961C45.5101 95.5961 45.5526 95.5961 45.6164 95.5961C45.6589 95.5961 45.7228 95.5961 45.7866 95.5823C45.8504 95.5684 45.9354 95.5546 46.0417 95.5132C46.1055 95.4856 46.1693 95.458 46.2118 95.4303C46.2544 95.4027 46.2969 95.3751 46.3394 95.3475C46.3607 95.3198 46.382 95.2922 46.4032 95.2646C46.4245 95.2369 46.4245 95.2093 46.4245 95.1817C46.4245 95.1403 46.4033 95.0988 46.3607 95.0988C46.3182 95.085 46.2757 95.085 46.1906 95.085C46.1268 95.085 46.0417 95.0988 45.9567 95.1126C45.8716 95.1264 45.7865 95.1402 45.7015 95.1402C45.6164 95.154 45.5101 95.154 45.425 95.154C45.3399 95.154 45.2549 95.1402 45.1911 95.1126C45.1273 95.085 45.0635 95.0435 45.0209 94.9883C44.9784 94.933 44.9572 94.8502 44.9572 94.7396C44.9572 94.643 44.9784 94.5463 45.0422 94.4357C45.0848 94.3252 45.1698 94.2285 45.2761 94.118C45.3825 94.0213 45.5101 93.9108 45.659 93.8141C45.8078 93.7174 45.9992 93.6345 46.1906 93.5517C46.297 93.5102 46.4245 93.4688 46.5308 93.4412C46.6372 93.4135 46.7435 93.3997 46.8286 93.3859C46.9136 93.3721 47.02 93.3721 47.0838 93.3721C47.1688 93.3721 47.2326 93.3859 47.2964 93.4135L47.0838 93.7312C47.0625 93.7727 47.0412 93.8003 46.9987 93.8141C46.9774 93.8417 46.9349 93.8556 46.8924 93.8694C46.8498 93.8832 46.8073 93.897 46.7648 93.897C46.7223 93.897 46.6797 93.897 46.6159 93.9108C46.5734 93.9108 46.5096 93.9246 46.4458 93.9246C46.382 93.9385 46.3182 93.9522 46.2331 93.9799C46.1268 94.0213 46.0205 94.0766 45.9567 94.1318C45.8929 94.1871 45.8716 94.2424 45.8716 94.3114C45.8716 94.3529 45.8928 94.3805 45.9354 94.3943C45.9779 94.4081 46.0205 94.4081 46.1055 94.4081C46.1693 94.4081 46.2544 94.3943 46.3394 94.3805C46.4245 94.3667 46.5096 94.3529 46.5947 94.3529C46.6797 94.3391 46.786 94.339 46.8711 94.339C46.9562 94.339 47.0413 94.3528 47.105 94.3667C47.1688 94.3943 47.2326 94.4219 47.2751 94.4772C47.3177 94.5324 47.3389 94.6015 47.3389 94.6982C47.3389 94.8087 47.3177 94.933 47.2539 95.0435C47.1901 95.1541 47.105 95.2784 46.9987 95.3889C46.8923 95.4994 46.7435 95.6099 46.5734 95.7066C46.4033 95.8033 46.2118 95.9 45.9992 95.9829C45.8928 96.0243 45.7865 96.0519 45.6802 96.0796C45.5739 96.1072 45.4675 96.121 45.3612 96.1348C45.2549 96.1486 45.1698 96.1486 45.0847 96.1486C44.9997 96.1763 44.9359 96.1763 44.8721 96.1486Z" fill="#ED1C24"/>
<path d="M61.502 57.4701C61.502 57.3872 61.5233 57.2905 61.5445 57.2076C61.5658 57.1247 61.6083 57.028 61.6721 56.9452C61.7359 56.8623 61.7997 56.7656 61.906 56.6827C61.9911 56.5998 62.1187 56.5169 62.2463 56.4341C62.0549 56.4479 61.906 56.4064 61.7997 56.3236C61.7146 56.2407 61.6508 56.1163 61.6508 55.9506C61.6508 55.8262 61.6933 55.7019 61.7571 55.5638C61.8209 55.4257 61.9273 55.3013 62.0549 55.177C62.1825 55.0527 62.3313 54.9284 62.5015 54.8317C62.6716 54.7212 62.863 54.6245 63.0544 54.5554C63.2458 54.4864 63.4372 54.4311 63.6073 54.4173C63.7775 54.3896 63.9263 54.4035 64.0539 54.4311C64.1815 54.4587 64.2665 54.514 64.3516 54.5969C64.4154 54.6797 64.458 54.7764 64.458 54.9008C64.458 55.0665 64.4154 55.2184 64.3091 55.3842C64.2028 55.5362 64.0752 55.6881 63.8625 55.8263C63.9901 55.8124 64.1177 55.8124 64.2028 55.8263C64.2879 55.8401 64.3729 55.8677 64.4367 55.9091C64.5005 55.9506 64.543 56.0058 64.5643 56.0749C64.5855 56.144 64.6068 56.213 64.6068 56.3097C64.6068 56.4479 64.5643 56.5998 64.5005 56.738C64.4367 56.8899 64.3091 57.028 64.1815 57.1523C64.0539 57.2905 63.8838 57.4148 63.6924 57.5253C63.501 57.6359 63.2883 57.7464 63.0544 57.8292C62.8205 57.9121 62.6078 57.9674 62.4164 57.995C62.225 58.0226 62.0549 58.0226 61.9273 57.9812C61.7997 57.9535 61.6934 57.8845 61.6083 57.8016C61.5445 57.7325 61.502 57.622 61.502 57.4701ZM62.459 57.1109C62.459 57.18 62.4802 57.2215 62.5015 57.2767C62.5227 57.3181 62.5653 57.3596 62.6078 57.3872C62.6504 57.401 62.7142 57.4148 62.7992 57.4148C62.863 57.4148 62.9694 57.3872 63.0757 57.3458C63.182 57.3043 63.267 57.2629 63.3521 57.2076C63.4372 57.1524 63.4797 57.0971 63.5435 57.0419C63.586 56.9866 63.6286 56.9175 63.6498 56.8623C63.6711 56.7932 63.6924 56.738 63.6924 56.6689C63.6924 56.5998 63.6924 56.5446 63.6711 56.4893C63.6499 56.4341 63.6073 56.4064 63.5648 56.3788C63.5222 56.3512 63.4584 56.3512 63.3734 56.3512C63.2883 56.3512 63.2032 56.3788 63.0969 56.4202C62.9906 56.4617 62.8842 56.5031 62.8204 56.5584C62.7354 56.6136 62.6929 56.6689 62.6291 56.7241C62.5865 56.7794 62.544 56.8485 62.5227 56.9037C62.459 56.9728 62.459 57.028 62.459 57.1109ZM62.544 55.6467C62.544 55.7019 62.544 55.7572 62.5653 55.7986C62.5865 55.8401 62.6078 55.8815 62.6503 55.9091C62.6929 55.9368 62.7354 55.9506 62.7992 55.9506C62.863 55.9506 62.9481 55.9368 63.0544 55.8953C63.1607 55.8539 63.2458 55.8125 63.3096 55.7572C63.3734 55.7019 63.4372 55.6605 63.4585 55.6052C63.501 55.55 63.5222 55.4947 63.5435 55.4395C63.5647 55.3842 63.5648 55.329 63.5648 55.2737C63.5648 55.2185 63.5647 55.177 63.5435 55.1356C63.5222 55.0941 63.501 55.0665 63.4585 55.0389C63.4159 55.0251 63.3734 55.0113 63.3096 55.0113C63.2458 55.0113 63.1608 55.0251 63.0757 55.0665C62.9906 55.108 62.9055 55.1356 62.8417 55.1908C62.7779 55.2323 62.7141 55.2875 62.6928 55.3428C62.6503 55.398 62.6291 55.4533 62.6078 55.4947C62.544 55.5362 62.544 55.5914 62.544 55.6467Z" fill="#ED1C24"/>
<path d="M61.502 61.5175C61.502 61.3655 61.5445 61.2136 61.6083 61.0617C61.6721 60.9097 61.7784 60.7577 61.9273 60.6058C62.0549 60.4538 62.225 60.3157 62.4164 60.1914C62.6078 60.0671 62.8205 59.9565 63.0544 59.8737C63.2883 59.7908 63.501 59.7355 63.6924 59.7217C63.8838 59.7079 64.0326 59.7217 64.1602 59.7632C64.2878 59.8184 64.3942 59.8875 64.458 59.998C64.5218 60.1085 64.5643 60.2328 64.5643 60.3986C64.5643 60.6058 64.5217 60.813 64.4367 61.0064C64.3516 61.1998 64.2453 61.407 64.0964 61.6004L63.1607 62.9403C63.1182 62.9955 63.0544 63.0646 62.9693 63.1199C62.8843 63.1751 62.778 63.2304 62.6716 63.2718L61.8209 63.5895L63.2033 61.849C63.2245 61.8214 63.2458 61.78 63.2883 61.7523C63.3096 61.7247 63.3308 61.6833 63.3521 61.6556C63.267 61.7247 63.1607 61.7938 63.0544 61.849C62.9481 61.9043 62.8417 61.9595 62.7141 62.001C62.5653 62.0562 62.4377 62.0839 62.2888 62.0977C62.1399 62.1115 62.0123 62.1115 61.906 62.0701C61.7997 62.0424 61.6933 61.9734 61.6295 61.8905C61.5445 61.7938 61.502 61.6694 61.502 61.5175ZM62.4377 61.1169C62.4377 61.4346 62.6503 61.5175 63.0331 61.3656C63.2245 61.2965 63.3734 61.186 63.4797 61.0617C63.586 60.9373 63.6498 60.7992 63.6498 60.661C63.6498 60.5782 63.6286 60.5229 63.6073 60.4815C63.5861 60.44 63.5435 60.3986 63.4797 60.3848C63.4159 60.371 63.3521 60.3572 63.2883 60.371C63.2032 60.3848 63.1182 60.3986 63.0331 60.44C62.9481 60.4677 62.863 60.5229 62.7779 60.5643C62.7141 60.6196 62.6503 60.6749 62.5865 60.7301C62.544 60.7854 62.5015 60.8544 62.459 60.9235C62.459 60.9926 62.4377 61.0479 62.4377 61.1169Z" fill="#464646"/>
<path d="M59.6729 67.1672L61.289 65.5648L62.2035 65.2195V69.032L61.0764 69.4602L61.0976 66.9324C61.0976 66.8357 61.0976 66.739 61.0976 66.6285L60.5235 67.2086C60.4597 67.2639 60.4171 67.2915 60.3746 67.3191C60.3321 67.3468 60.2683 67.3606 60.2257 67.3744C60.1832 67.3882 60.1407 67.3882 60.0981 67.3882C60.0556 67.3882 60.0344 67.3744 60.0131 67.3606L59.6729 67.1672Z" fill="white"/>
<path d="M62.8418 66.8773C62.8418 66.5458 62.8843 66.2281 62.9907 65.9518C63.097 65.6756 63.2246 65.4131 63.3947 65.1921C63.5649 64.9711 63.7775 64.7777 63.9902 64.6119C64.2241 64.4462 64.4793 64.308 64.7557 64.2113C65.0322 64.1146 65.2874 64.0594 65.5213 64.0456C65.7553 64.0317 65.9679 64.0732 66.138 64.1699C66.3081 64.2666 66.4357 64.4185 66.5421 64.6257C66.6484 64.8329 66.691 65.1092 66.691 65.4407C66.691 65.7722 66.6484 66.0762 66.5421 66.3662C66.457 66.6425 66.3081 66.905 66.138 67.126C65.9679 67.347 65.7553 67.5404 65.5213 67.72C65.2874 67.8858 65.0322 68.0239 64.7557 68.1206C64.4793 68.2311 64.2241 68.2864 63.9902 68.2864C63.7563 68.3002 63.5649 68.2449 63.3947 68.162C63.2246 68.0653 63.097 67.9134 62.9907 67.7062C62.8843 67.4851 62.8418 67.2089 62.8418 66.8773ZM63.9902 66.4491C63.9902 66.7116 64.0114 66.9188 64.054 67.0707C64.0965 67.2227 64.1603 67.3332 64.2241 67.4023C64.2879 67.4713 64.3729 67.5128 64.4793 67.5128C64.5643 67.5128 64.6707 67.499 64.777 67.4575C64.8833 67.4161 64.9684 67.3747 65.0535 67.2918C65.1386 67.2227 65.2236 67.126 65.3087 67.0017C65.3725 66.8773 65.4362 66.7254 65.4788 66.5458C65.5213 66.3662 65.5426 66.1452 65.5426 65.869C65.5426 65.6065 65.5213 65.3993 65.4788 65.2473C65.4362 65.0954 65.3725 64.9849 65.3087 64.9158C65.2449 64.8468 65.1598 64.8191 65.0535 64.8191C64.9472 64.8191 64.8621 64.8329 64.777 64.8744C64.6707 64.9158 64.5856 64.9711 64.4793 65.0401C64.3942 65.1092 64.3091 65.2059 64.2241 65.3302C64.1603 65.4545 64.0965 65.6065 64.054 65.786C63.9902 65.9656 63.9902 66.1867 63.9902 66.4491Z" fill="white"/>
<path d="M59.8857 72.527L61.2467 71.1733L62.0124 70.8832V73.6045L62.7354 73.3282V73.8255L60.2472 74.751V74.2537L61.0766 73.936V72.3198C61.0766 72.2369 61.0766 72.1541 61.0766 72.0712L60.5875 72.5547C60.545 72.5961 60.5024 72.6237 60.4599 72.6513C60.4174 72.6651 60.3748 72.6928 60.3323 72.6928C60.2898 72.7066 60.2685 72.7066 60.2259 72.7066C60.2047 72.7066 60.1834 72.6928 60.1621 72.6928L59.8857 72.527Z" fill="#464646"/>
<path d="M63.3521 71.2284L64.7131 69.8747L65.4787 69.5846V72.3059L66.2017 72.0296V72.5407L63.7136 73.4663V72.969L64.5429 72.6512V71.0351C64.5429 70.9522 64.5429 70.8693 64.5429 70.7864L64.0539 71.2699C64.0113 71.3113 63.9688 71.3389 63.9263 71.3666C63.8837 71.3942 63.8412 71.408 63.7987 71.408C63.7562 71.4218 63.7348 71.4218 63.6923 71.4218C63.671 71.4218 63.6498 71.408 63.6285 71.408L63.3521 71.2284Z" fill="#464646"/>
<path d="M59.8857 77.8177L61.2467 76.4639L62.0124 76.1738V78.8951L62.7354 78.6188V79.1161L60.2472 80.0416V79.5444L61.0766 79.2266V77.6105C61.0766 77.5276 61.0766 77.4447 61.0766 77.3618L60.5875 77.8453C60.545 77.8867 60.5024 77.9143 60.4599 77.942C60.4174 77.9558 60.3748 77.9834 60.3323 77.9834C60.2898 77.9972 60.2685 77.9972 60.2259 77.9972C60.2047 77.9972 60.1834 77.9834 60.1621 77.9834L59.8857 77.8177Z" fill="#464646"/>
<path d="M63.2456 78.9503V78.7293C63.2456 78.6878 63.2668 78.6325 63.2881 78.5773C63.3094 78.522 63.3519 78.453 63.4157 78.3977L64.6705 76.9887C64.7768 76.8644 64.8618 76.7539 64.9469 76.6572C65.0319 76.5605 65.0957 76.4638 65.1383 76.3671C65.1808 76.2842 65.2234 76.1875 65.2659 76.1185C65.2872 76.0356 65.3084 75.9665 65.3084 75.8836C65.3084 75.7593 65.2659 75.6764 65.1808 75.635C65.0958 75.5935 64.9682 75.6073 64.7981 75.6764C64.6492 75.7317 64.5429 75.8008 64.4578 75.8836C64.3727 75.9665 64.3089 76.0632 64.2664 76.1599C64.2239 76.2566 64.16 76.3257 64.0962 76.3809C64.0324 76.4362 63.9261 76.4776 63.7985 76.5052L63.3094 76.6296C63.3519 76.4638 63.3945 76.298 63.5008 76.1461C63.5859 75.9941 63.7135 75.856 63.8411 75.7178C63.9687 75.5935 64.1388 75.4692 64.3089 75.3587C64.479 75.2482 64.6705 75.1653 64.8618 75.0963C65.0745 75.0134 65.2659 74.9581 65.436 74.9443C65.6061 74.9305 65.755 74.9305 65.8826 74.9719C66.0102 75.0134 66.0953 75.0686 66.1591 75.1653C66.2228 75.262 66.2654 75.3725 66.2654 75.5107C66.2654 75.635 66.2441 75.7455 66.2016 75.8698C66.159 75.9803 66.0952 76.1047 66.0102 76.229C65.9251 76.3533 65.8401 76.4638 65.7338 76.5881C65.6274 76.7124 65.5211 76.8368 65.4147 76.9611L64.5641 77.928C64.6704 77.859 64.7767 77.8037 64.8831 77.7485C64.9894 77.6932 65.0958 77.6518 65.1808 77.6104L65.989 77.3064C66.0953 77.265 66.159 77.265 66.2228 77.2788C66.2866 77.2926 66.3079 77.334 66.3079 77.4031V77.8037L63.2456 78.9503Z" fill="#464646"/>
<path d="M59.8857 83.1222L61.2467 81.7685L62.0124 81.4784V84.1997L62.7354 83.9234V84.4207L60.2472 85.3462V84.8489L61.0766 84.5312V82.915C61.0766 82.8321 61.0766 82.7492 61.0766 82.6663L60.5875 83.1498C60.545 83.1913 60.5024 83.2189 60.4599 83.2465C60.4174 83.2604 60.3748 83.288 60.3323 83.288C60.2898 83.3018 60.2685 83.3018 60.2259 83.3018C60.2047 83.3018 60.1834 83.288 60.1621 83.2741L59.8857 83.1222Z" fill="#464646"/>
<path d="M63.2031 83.4399L63.6072 83.1637C63.7135 83.0946 63.8198 83.0531 63.9049 83.0255C63.9899 83.0117 64.0537 83.0117 64.0963 83.0531C64.1813 83.136 64.2877 83.1913 64.3727 83.2051C64.4791 83.2189 64.5854 83.2051 64.7343 83.1498C64.8406 83.1084 64.9256 83.0669 65.0107 83.0117C65.0958 82.9564 65.1596 82.9012 65.2021 82.8459C65.2447 82.7907 65.2872 82.7216 65.3084 82.6663C65.3297 82.6111 65.351 82.542 65.351 82.5006C65.351 82.4315 65.351 82.3763 65.3297 82.321C65.3085 82.2657 65.2872 82.2382 65.2234 82.2243C65.1596 82.2105 65.0745 82.2105 64.9469 82.2381C64.8193 82.2657 64.6492 82.321 64.4365 82.4039V81.948C64.6279 81.879 64.7768 81.8099 64.8831 81.7547C64.9894 81.6856 65.0745 81.6303 65.1383 81.5751C65.2021 81.5198 65.2447 81.4508 65.2659 81.3955C65.2872 81.3403 65.2872 81.2712 65.2872 81.2159C65.2872 81.0916 65.2446 81.0087 65.1596 80.9673C65.0745 80.9259 64.9469 80.9397 64.7768 81.0087C64.6492 81.064 64.5216 81.133 64.4365 81.2159C64.3515 81.2988 64.2664 81.3955 64.2451 81.4922C64.2026 81.5889 64.1388 81.6718 64.075 81.7132C64.0112 81.7685 63.9049 81.8099 63.7773 81.8376L63.2881 81.9619C63.3094 81.7823 63.3732 81.6303 63.4795 81.4646C63.5646 81.3126 63.6922 81.1745 63.8198 81.0363C63.9474 80.912 64.1175 80.7877 64.2877 80.6772C64.4578 80.5805 64.6492 80.4838 64.8406 80.4148C65.0533 80.3319 65.2446 80.2904 65.4148 80.2628C65.5849 80.249 65.7125 80.249 65.8401 80.2904C65.9464 80.3318 66.0315 80.3871 66.0953 80.4562C66.1591 80.5391 66.1804 80.6358 66.1804 80.7463C66.1804 80.843 66.1591 80.9396 66.1378 81.0363C66.1165 81.1192 66.074 81.2021 66.0102 81.285C65.9464 81.3679 65.8827 81.4369 65.7976 81.506C65.7125 81.5751 65.6275 81.6442 65.5211 81.6994C66.0102 81.6442 66.2442 81.7823 66.2442 82.1415C66.2442 82.3072 66.2016 82.473 66.1166 82.6387C66.0315 82.7907 65.9252 82.9426 65.7763 83.0808C65.6274 83.2189 65.4786 83.3432 65.2872 83.4537C65.0958 83.5642 64.9044 83.6609 64.713 83.73C64.5003 83.8129 64.3302 83.8543 64.1601 83.8819C63.9899 83.9096 63.8624 83.9096 63.7348 83.8958C63.6072 83.8681 63.5008 83.8267 63.3945 83.7576C63.352 83.6609 63.2669 83.5643 63.2031 83.4399Z" fill="#464646"/>
<path d="M59.8857 88.4264L61.2467 87.0727L62.0124 86.7826V89.5039L62.7354 89.2276V89.7249L60.2472 90.6642V90.1669L61.0766 89.8492V88.233C61.0766 88.1501 61.0766 88.0673 61.0766 87.9844L60.5875 88.4679C60.545 88.5093 60.5024 88.5369 60.4599 88.5646C60.4174 88.5784 60.3748 88.606 60.3323 88.606C60.2898 88.6198 60.2685 88.6198 60.2259 88.6198C60.2047 88.6198 60.1834 88.606 60.1621 88.5922L59.8857 88.4264Z" fill="#ED1C24"/>
<path d="M63.0332 88.4127L65.0535 85.65L66.0317 85.2909V87.2524L66.4783 87.0866V87.4734C66.4783 87.5011 66.4571 87.5425 66.4358 87.584C66.4145 87.6254 66.3507 87.653 66.3082 87.6668L66.0317 87.7635V88.4956L65.1385 88.8272V88.0951L63.3948 88.7581C63.331 88.7857 63.2884 88.7857 63.2459 88.7719C63.2033 88.7581 63.1608 88.7443 63.1608 88.7029L63.0332 88.4127ZM64.0114 88.0122L65.1385 87.5977V86.7551C65.1385 86.6999 65.1385 86.6446 65.1385 86.5894C65.1385 86.5341 65.1598 86.465 65.1598 86.396L64.0114 88.0122Z" fill="#ED1C24"/>
<path d="M68.8174 53.3675L70.1784 52.0137L70.944 51.7236V54.4449L71.667 54.1825V54.6798L69.1789 55.6053V55.108L70.0083 54.7903V53.1741C70.0083 53.0912 70.0083 53.0083 70.0083 52.9254L69.5192 53.4089C69.4767 53.4503 69.4341 53.478 69.3915 53.5056C69.349 53.5332 69.3065 53.547 69.264 53.547C69.2214 53.5609 69.2002 53.5609 69.1576 53.5609C69.1364 53.5609 69.1151 53.547 69.0939 53.547L68.8174 53.3675Z" fill="#ED1C24"/>
<path d="M72.1777 54.1134L72.4541 53.7266C72.4754 53.6852 72.518 53.6575 72.5605 53.6161C72.603 53.5884 72.6456 53.5608 72.6881 53.547C72.7519 53.5194 72.7944 53.5194 72.8582 53.5194C72.9007 53.5194 72.9646 53.5332 73.0284 53.5332C73.0922 53.5332 73.156 53.5332 73.241 53.5332C73.3261 53.5194 73.4324 53.4917 73.56 53.4503C73.6876 53.4089 73.7939 53.3536 73.879 53.2845C73.9641 53.2155 74.0279 53.1602 74.0917 53.0774C74.1555 53.0083 74.1767 52.9254 74.2193 52.8563C74.2405 52.7734 74.2618 52.6905 74.2618 52.6215C74.2618 52.4695 74.198 52.3728 74.0917 52.3314C73.9641 52.29 73.7939 52.3176 73.5812 52.4005C73.3898 52.4696 73.1985 52.5662 73.0071 52.6906L72.4329 52.7873L72.7944 51.0329L75.0274 50.1903V50.4666C75.0274 50.508 75.0274 50.5633 75.0061 50.6047C74.9848 50.6461 74.9635 50.7014 74.921 50.7428C74.8785 50.7843 74.8147 50.8257 74.7509 50.8672C74.6871 50.9086 74.6021 50.95 74.4957 50.9915L73.4536 51.3783L73.3261 51.9446C73.4111 51.9032 73.4962 51.8618 73.56 51.8341C73.6451 51.8065 73.7089 51.7651 73.7727 51.7513C74.0066 51.6684 74.198 51.6131 74.3894 51.5993C74.5595 51.5855 74.7084 51.5993 74.836 51.6407C74.9636 51.6822 75.0486 51.765 75.1124 51.8617C75.1762 51.9584 75.1975 52.0828 75.1975 52.2209C75.1975 52.4005 75.155 52.5663 75.0699 52.7458C74.9848 52.9254 74.8785 53.0912 74.7296 53.2431C74.5808 53.4089 74.4106 53.547 74.198 53.6852C73.9853 53.8233 73.7726 53.9338 73.5174 54.0167C73.3686 54.0719 73.241 54.1134 73.1134 54.141C72.9858 54.1686 72.8582 54.1824 72.7519 54.1824C72.6456 54.1824 72.5392 54.1825 72.4329 54.1686C72.3479 54.1686 72.2415 54.141 72.1777 54.1134Z" fill="#ED1C24"/>
<path d="M68.8174 58.6719L70.1784 57.3182L70.944 57.0281V59.7494L71.667 59.4869V59.9842L69.1789 60.9097V60.4124L70.0083 60.0947V58.4785C70.0083 58.3957 70.0083 58.3128 70.0083 58.2299L69.5192 58.7133C69.4767 58.7548 69.4341 58.7824 69.3915 58.81C69.349 58.8239 69.3065 58.8515 69.264 58.8515C69.2214 58.8653 69.2002 58.8653 69.1576 58.8653C69.1364 58.8653 69.1151 58.8515 69.0939 58.8515L68.8174 58.6719Z" fill="#464646"/>
<path d="M72.1777 58.6855C72.1777 58.3678 72.3478 57.981 72.6668 57.5252L73.645 56.1714C73.6876 56.1162 73.7514 56.0471 73.8365 55.9918C73.9216 55.9228 74.0278 55.8814 74.1342 55.8399L74.9636 55.536L73.6663 57.1522C73.6451 57.1798 73.6238 57.1936 73.6025 57.2213C73.5813 57.2489 73.56 57.2627 73.5387 57.2903C73.6025 57.2489 73.6876 57.2074 73.7514 57.166C73.8365 57.1246 73.9002 57.097 73.9853 57.0555C74.1342 57.0003 74.3043 56.9588 74.4532 56.9312C74.602 56.9174 74.7509 56.9174 74.8572 56.9588C74.9848 57.0003 75.0699 57.0555 75.155 57.1522C75.24 57.2489 75.2613 57.3732 75.2613 57.539C75.2613 57.691 75.2188 57.8429 75.155 58.0087C75.0699 58.1744 74.9636 58.3264 74.836 58.4783C74.7084 58.6303 74.5382 58.7684 74.3469 58.9065C74.1555 59.0447 73.9428 59.1552 73.6876 59.2381C73.4537 59.3347 73.2198 59.3762 73.0284 59.4038C72.837 59.4176 72.6668 59.4038 72.5392 59.3486C72.4116 59.2933 72.3053 59.2104 72.2415 59.0999C72.199 59.0032 72.1777 58.8651 72.1777 58.6855ZM73.0496 58.4507C73.0496 58.5335 73.0709 58.6027 73.0922 58.6579C73.1134 58.7132 73.156 58.7546 73.2198 58.7822C73.2836 58.8098 73.3474 58.8236 73.4324 58.8098C73.5175 58.8098 73.6025 58.7822 73.7301 58.7408C73.8152 58.6993 73.9215 58.6579 74.0066 58.6026C74.0917 58.5474 74.1555 58.4783 74.2193 58.4092C74.2831 58.3402 74.3256 58.2711 74.3681 58.1882C74.4107 58.1053 74.4319 58.0363 74.4319 57.9672C74.4319 57.8843 74.4106 57.8152 74.3894 57.76C74.3468 57.7047 74.3043 57.6633 74.2405 57.6495C74.1767 57.6219 74.1129 57.6219 74.0279 57.6357C73.9428 57.6357 73.8577 57.6633 73.7514 57.7048C73.6663 57.7324 73.5813 57.7876 73.4962 57.8429C73.4112 57.8981 73.3473 57.9534 73.2835 58.0224C73.2197 58.0915 73.1772 58.1606 73.156 58.2435C73.0709 58.2849 73.0496 58.3678 73.0496 58.4507Z" fill="#464646"/>
<path d="M68.8174 63.9765L70.1784 62.6228L70.944 62.3326V65.0539L71.667 64.7777V65.275L69.1789 66.2005V65.7032L70.0083 65.3855V63.7693C70.0083 63.6864 70.0083 63.6035 70.0083 63.5206L69.5192 64.0041C69.4767 64.0456 69.4341 64.0732 69.3915 64.1008C69.349 64.1146 69.3065 64.1423 69.264 64.1423C69.2214 64.1561 69.2002 64.1561 69.1576 64.1561C69.1364 64.1561 69.1151 64.1423 69.0939 64.1423L68.8174 63.9765Z" fill="#464646"/>
<path d="M72.2197 62.3049V61.8628L75.282 60.7163V61.0064C75.282 61.0893 75.2607 61.1583 75.2395 61.2274C75.2182 61.2827 75.1969 61.3379 75.1757 61.3794L73.6658 64.3216C73.6233 64.4045 73.5595 64.4736 73.4957 64.5427C73.4106 64.6117 73.3255 64.6808 73.1979 64.7223L72.5174 64.9709L74.0699 62.0701C74.1124 61.9872 74.1549 61.9181 74.1975 61.849C74.24 61.78 74.3038 61.7109 74.3463 61.6418L72.4324 62.3601C72.4111 62.3739 72.3686 62.374 72.3473 62.374C72.3261 62.374 72.3048 62.3739 72.2835 62.3601C72.2623 62.3601 72.241 62.3463 72.241 62.3325C72.2197 62.3463 72.2197 62.3187 72.2197 62.3049Z" fill="#464646"/>
<path d="M68.8174 69.4051L70.1784 68.0513L70.944 67.7612V70.4825L71.667 70.2201V70.7173L69.1789 71.6429V71.1455L70.0083 70.8279V69.2116C70.0083 69.1288 70.0083 69.0459 70.0083 68.963L69.5192 69.4465C69.4767 69.4879 69.4341 69.5155 69.3915 69.5432C69.349 69.5708 69.3065 69.5846 69.264 69.5846C69.2214 69.5984 69.2002 69.5984 69.1576 69.5984C69.1364 69.5984 69.1151 69.5846 69.0939 69.5846L68.8174 69.4051Z" fill="#464646"/>
<path d="M72.1558 69.6123C72.1558 69.5294 72.177 69.4327 72.1983 69.3498C72.2195 69.267 72.2621 69.1703 72.3259 69.0874C72.3897 69.0045 72.4535 68.9216 72.5598 68.8249C72.6449 68.742 72.7725 68.6592 72.9001 68.5763C72.7087 68.5901 72.5598 68.5486 72.4535 68.4657C72.3684 68.3829 72.3046 68.2586 72.3046 68.0928C72.3046 67.9685 72.3471 67.8441 72.4109 67.706C72.4747 67.5817 72.5811 67.4436 72.7087 67.3192C72.8363 67.1949 72.9851 67.0706 73.1553 66.9739C73.3254 66.8634 73.5168 66.7805 73.7082 66.6976C73.9209 66.6147 74.091 66.5733 74.2611 66.5595C74.4312 66.5457 74.5801 66.5457 74.7077 66.5733C74.8353 66.6009 74.9203 66.6562 75.0054 66.739C75.0692 66.8219 75.1117 66.9186 75.1117 67.0429C75.1117 67.2087 75.0692 67.3607 74.9629 67.5264C74.8778 67.6784 74.7289 67.8303 74.5376 67.9685C74.6652 67.9547 74.7715 67.9547 74.8778 67.9685C74.9629 67.9823 75.0479 68.0099 75.1117 68.0514C75.1755 68.0928 75.218 68.148 75.2393 68.2171C75.2606 68.2862 75.2819 68.3553 75.2819 68.452C75.2819 68.5901 75.2393 68.742 75.1755 68.8802C75.1117 69.0321 74.9841 69.1702 74.8565 69.2946C74.7077 69.4327 74.5588 69.5571 74.3675 69.6676C74.1761 69.7781 73.9634 69.8886 73.7294 69.9715C73.4955 70.0543 73.2829 70.1096 73.0915 70.1372C72.9001 70.1649 72.7299 70.1648 72.6023 70.1234C72.4747 70.0958 72.3684 70.0267 72.2834 69.9438C72.1983 69.8747 72.1558 69.7504 72.1558 69.6123ZM73.1127 69.2393C73.1127 69.3084 73.134 69.3637 73.1553 69.4051C73.1765 69.4465 73.219 69.488 73.2616 69.5018C73.3041 69.5294 73.3679 69.5294 73.453 69.5294C73.538 69.5294 73.6231 69.5018 73.7294 69.4603C73.8358 69.4189 73.9208 69.3775 74.0059 69.3222C74.091 69.267 74.1548 69.2117 74.1973 69.1564C74.2398 69.1012 74.2824 69.0321 74.3037 68.9769C74.3249 68.9078 74.3462 68.8525 74.3462 68.7835C74.3462 68.7144 74.3249 68.6591 74.3249 68.6039C74.3036 68.5486 74.2611 68.521 74.2186 68.4934C74.176 68.4658 74.1123 68.4657 74.0272 68.4657C73.9421 68.4657 73.857 68.4934 73.7507 68.5348C73.6444 68.5763 73.538 68.6315 73.4742 68.673C73.3892 68.7282 73.3467 68.7835 73.2829 68.8387C73.2403 68.894 73.1978 68.9631 73.1766 69.0183C73.134 69.1012 73.1127 69.1702 73.1127 69.2393ZM73.2191 67.7751C73.2191 67.8303 73.2191 67.8856 73.2404 67.927C73.2616 67.9823 73.2828 68.0099 73.3254 68.0375C73.3679 68.0652 73.4105 68.079 73.4742 68.079C73.538 68.079 73.6231 68.0652 73.7294 68.0237C73.8358 67.9823 73.9208 67.9409 73.9846 67.8856C74.0484 67.8303 74.1122 67.7889 74.1335 67.7336C74.176 67.6784 74.1973 67.6231 74.2186 67.5679C74.2398 67.5126 74.2399 67.4574 74.2399 67.4021C74.2399 67.3469 74.2398 67.3054 74.2186 67.264C74.1973 67.2225 74.176 67.1949 74.1335 67.1673C74.091 67.1396 74.0484 67.1396 73.9846 67.1396C73.9208 67.1396 73.8358 67.1673 73.7507 67.1949C73.6657 67.2364 73.5806 67.264 73.5168 67.3192C73.453 67.3607 73.3892 67.4159 73.3679 67.4712C73.3254 67.5264 73.3041 67.5679 73.2829 67.6231C73.2191 67.6784 73.2191 67.7198 73.2191 67.7751Z" fill="#464646"/>
<path d="M68.8174 74.7095L70.1784 73.3557L70.944 73.0657V75.787L71.667 75.5107V76.008L69.1789 76.9335V76.4362L70.0083 76.1185V74.5023C70.0083 74.4194 70.0083 74.3365 70.0083 74.2536L69.5192 74.7371C69.4767 74.7786 69.4341 74.8062 69.3915 74.8338C69.349 74.8476 69.3065 74.8753 69.264 74.8753C69.2214 74.8891 69.2002 74.8891 69.1576 74.8891C69.1364 74.8891 69.1151 74.8753 69.0939 74.8753L68.8174 74.7095Z" fill="#464646"/>
<path d="M72.1777 73.6459C72.1777 73.494 72.2202 73.342 72.284 73.1901C72.3478 73.0381 72.4542 72.8724 72.603 72.7342C72.7306 72.5823 72.9008 72.4441 73.0922 72.3198C73.2836 72.1955 73.4962 72.085 73.7301 72.0021C73.964 71.9192 74.1767 71.864 74.3681 71.8502C74.5595 71.8363 74.7084 71.8501 74.836 71.8916C74.9636 71.933 75.0699 72.0159 75.1337 72.1264C75.1975 72.2369 75.24 72.3612 75.24 72.527C75.24 72.7342 75.1975 72.9414 75.1124 73.1348C75.0273 73.3282 74.8998 73.5354 74.7722 73.7288L73.8365 75.0687C73.794 75.124 73.7301 75.193 73.645 75.2483C73.56 75.3035 73.475 75.3588 73.3686 75.4003L72.5179 75.718L73.9003 73.9912C73.9215 73.9498 73.964 73.9222 73.9853 73.8946C74.0066 73.867 74.0278 73.8255 74.0491 73.7979C73.964 73.8669 73.8577 73.936 73.7514 73.9912C73.6451 74.0465 73.5387 74.1018 73.4111 74.1432C73.2623 74.1985 73.1347 74.2261 72.9858 74.2537C72.8369 74.2675 72.7093 74.2675 72.603 74.2261C72.4967 74.1985 72.3903 74.1294 72.3265 74.0465C72.2202 73.936 72.1777 73.8117 72.1777 73.6459ZM73.0922 73.2591C73.0922 73.5768 73.2836 73.6598 73.6876 73.5078C73.879 73.4387 74.0278 73.3282 74.1342 73.2039C74.2405 73.0796 74.3043 72.9414 74.3043 72.8033C74.3043 72.7342 74.283 72.6652 74.2618 72.6237C74.2405 72.5823 74.198 72.5408 74.1342 72.527C74.0704 72.5132 74.0066 72.4994 73.9428 72.5132C73.8577 72.527 73.7727 72.5408 73.6876 72.5823C73.6025 72.6099 73.5175 72.6651 73.4324 72.7066C73.3686 72.7618 73.3048 72.8171 73.241 72.8723C73.1985 72.9276 73.1559 72.9967 73.1347 73.0658C73.1134 73.121 73.0922 73.1901 73.0922 73.2591Z" fill="#464646"/>
<path d="M68.7109 82.4316V82.2105C68.7109 82.1691 68.7322 82.1139 68.7534 82.0586C68.7747 82.0034 68.8172 81.9481 68.881 81.879L70.1357 80.47C70.2421 80.3457 70.3271 80.2352 70.4122 80.1385C70.4973 80.0418 70.5611 79.9451 70.6036 79.8484C70.6461 79.7655 70.6887 79.6688 70.71 79.5997C70.7312 79.5169 70.7525 79.434 70.7525 79.3649C70.7525 79.2406 70.7099 79.1577 70.6249 79.1163C70.5398 79.0749 70.4122 79.0887 70.2421 79.1577C70.1145 79.213 69.9869 79.2821 69.9018 79.3649C69.8168 79.4478 69.7317 79.5445 69.7104 79.6412C69.6679 79.7379 69.6041 79.807 69.5403 79.8622C69.4765 79.9175 69.3702 79.9589 69.2426 79.9866L68.7534 80.1109C68.7747 79.9451 68.8385 79.7793 68.9448 79.6274C69.0299 79.4755 69.1575 79.3373 69.2851 79.1992C69.4127 79.061 69.5828 78.9505 69.753 78.8538C69.9231 78.7433 70.1145 78.6604 70.3059 78.5914C70.5186 78.5085 70.7099 78.467 70.8801 78.4394C71.0502 78.4256 71.199 78.4256 71.3266 78.4671C71.4542 78.5085 71.5393 78.5637 71.6031 78.6604C71.6669 78.7433 71.7095 78.8676 71.7095 79.0058C71.7095 79.1301 71.6882 79.2406 71.6457 79.3649C71.6031 79.4893 71.5393 79.5998 71.4542 79.7241C71.3692 79.8484 71.2841 79.9727 71.1778 80.0971C71.0715 80.2214 70.9651 80.3457 70.8588 80.47L70.0081 81.437C70.1145 81.3679 70.2208 81.3127 70.3271 81.2574C70.4334 81.2021 70.5398 81.1607 70.6249 81.1193L71.433 80.8154C71.5393 80.7739 71.6031 80.7739 71.6669 80.7877C71.7307 80.8016 71.752 80.843 71.752 80.9121V81.2988L68.7109 82.4316Z" fill="#464646"/>
<path d="M72.1138 79.5441C72.1138 79.2679 72.1563 79.0054 72.2414 78.7706C72.3264 78.5357 72.4327 78.3147 72.5816 78.1351C72.7304 77.9417 72.9006 77.776 73.092 77.6378C73.2834 77.4997 73.496 77.3892 73.7299 77.2925C73.9639 77.2096 74.1766 77.1544 74.368 77.1544C74.5594 77.1405 74.7295 77.182 74.8783 77.2649C75.0272 77.3478 75.1335 77.4721 75.2186 77.6517C75.3037 77.8312 75.3462 78.0523 75.3462 78.3423C75.3462 78.6186 75.3037 78.8811 75.2186 79.1159C75.1335 79.3507 75.0272 79.5717 74.8783 79.7513C74.7295 79.9447 74.5594 80.1105 74.368 80.2486C74.1766 80.3867 73.9639 80.4972 73.7299 80.5939C73.496 80.6768 73.2834 80.7321 73.092 80.7321C72.9006 80.7459 72.7304 80.7045 72.5816 80.6216C72.4327 80.5387 72.3264 80.4144 72.2414 80.2348C72.1563 80.0552 72.1138 79.8204 72.1138 79.5441ZM73.0707 79.185C73.0707 79.406 73.092 79.5856 73.1345 79.7099C73.177 79.8342 73.2196 79.9309 73.2834 79.9862C73.3472 80.0414 73.411 80.069 73.4961 80.069C73.5811 80.069 73.6449 80.0552 73.7299 80.0276C73.815 80 73.9001 79.9585 73.9639 79.8895C74.049 79.8342 74.1127 79.7513 74.1765 79.6408C74.2403 79.5303 74.2829 79.406 74.3254 79.254C74.3679 79.1021 74.3892 78.9087 74.3892 78.6877C74.3892 78.4667 74.3679 78.2871 74.3254 78.1628C74.2829 78.0384 74.2403 77.9417 74.1765 77.8865C74.1127 77.8312 74.049 77.8036 73.9639 77.8036C73.8788 77.8036 73.7937 77.8174 73.7299 77.845C73.6449 77.8727 73.5599 77.9141 73.4961 77.9832C73.411 78.0384 73.3472 78.1213 73.2834 78.2318C73.2196 78.3285 73.177 78.4666 73.1345 78.6186C73.092 78.7705 73.0707 78.9639 73.0707 79.185Z" fill="#464646"/>
<path d="M77.6641 52.3729V52.1519C77.6641 52.1105 77.6853 52.0552 77.7066 52C77.7278 51.9447 77.7704 51.8757 77.8342 51.8204L79.0889 50.4114C79.1952 50.2871 79.2803 50.1766 79.3653 50.0799C79.4504 49.9832 79.5142 49.8865 79.5568 49.7898C79.5993 49.7069 79.6418 49.6102 79.6844 49.5412C79.7056 49.4583 79.7269 49.3754 79.7269 49.3063C79.7269 49.182 79.6843 49.0991 79.5993 49.0577C79.5142 49.0162 79.3866 49.0301 79.2165 49.0991C79.0676 49.1544 78.9613 49.2234 78.8762 49.3063C78.7912 49.3892 78.7274 49.4859 78.6849 49.5826C78.6423 49.6793 78.5785 49.7484 78.5147 49.8036C78.4509 49.8589 78.3446 49.9003 78.217 49.9279L77.7279 50.0523C77.7704 49.8727 77.8129 49.7207 77.9192 49.5688C78.0043 49.4168 78.1319 49.2787 78.2595 49.1406C78.3871 49.0162 78.5572 48.8919 78.7274 48.7952C78.8975 48.6847 79.0889 48.6018 79.2803 48.5328C79.493 48.4499 79.6843 48.3946 79.8545 48.3808C80.0246 48.367 80.1734 48.367 80.301 48.4084C80.4286 48.4499 80.5137 48.5052 80.5775 48.6018C80.6413 48.6985 80.6839 48.8091 80.6839 48.9472C80.6839 49.0715 80.6626 49.182 80.6201 49.3063C80.5775 49.4168 80.5137 49.5412 80.4286 49.6655C80.3436 49.7898 80.2586 49.9141 80.1522 50.0247C80.0459 50.149 79.9395 50.2733 79.8332 50.3976L78.9826 51.3646C79.0889 51.2955 79.1952 51.2402 79.3015 51.185C79.4079 51.1297 79.5142 51.0883 79.5993 51.0468L80.4074 50.7429C80.5137 50.7015 80.5775 50.7015 80.6413 50.7153C80.7051 50.7291 80.7264 50.7706 80.7264 50.8396V51.2402L77.6641 52.3729Z" fill="#ED1C24"/>
<path d="M81.1309 51.0742V50.8532C81.1309 50.8118 81.1521 50.7565 81.1734 50.7013C81.1946 50.646 81.2372 50.577 81.301 50.5217L82.5557 49.1127C82.662 48.9884 82.7471 48.8779 82.8321 48.7812C82.9172 48.6845 82.981 48.5878 83.0235 48.4911C83.066 48.4082 83.1086 48.3115 83.1511 48.2425C83.1724 48.1596 83.1937 48.0767 83.1937 48.0076C83.1937 47.8833 83.1511 47.8004 83.0661 47.759C82.981 47.7175 82.8534 47.7313 82.6832 47.8004C82.5344 47.8557 82.4281 47.9247 82.343 48.0076C82.258 48.0905 82.1941 48.1872 82.1516 48.2839C82.1091 48.3806 82.0453 48.4497 81.9815 48.5049C81.9177 48.5602 81.8114 48.6016 81.6838 48.6292L81.1947 48.7536C81.2159 48.574 81.2797 48.422 81.386 48.2701C81.4711 48.1181 81.5987 47.98 81.7263 47.8419C81.8539 47.7175 82.024 47.5932 82.1942 47.4965C82.3643 47.386 82.5557 47.3031 82.7471 47.234C82.9598 47.1512 83.1511 47.1097 83.3213 47.0821C83.4914 47.0683 83.6402 47.0683 83.7678 47.1097C83.8954 47.1512 83.9805 47.2064 84.0443 47.3031C84.1081 47.3998 84.1506 47.5103 84.1506 47.6485C84.1506 47.7728 84.1293 47.8833 84.0868 48.0076C84.0443 48.1319 83.9805 48.2425 83.8954 48.3668C83.8104 48.4911 83.7253 48.6016 83.619 48.7259C83.5126 48.8503 83.4063 48.9746 83.3 49.1127L82.4493 50.0797C82.5557 50.0106 82.662 49.9553 82.7683 49.9001C82.8747 49.8448 82.981 49.8034 83.0661 49.762L83.8742 49.4581C83.9805 49.4166 84.0443 49.4166 84.1081 49.4304C84.1719 49.4442 84.1932 49.4857 84.1932 49.5547V49.9553L81.1309 51.0742Z" fill="#ED1C24"/>
<path d="M77.6641 57.6771V57.4561C77.6641 57.4147 77.6853 57.3594 77.7066 57.3042C77.7278 57.2489 77.7704 57.1799 77.8342 57.1246L79.0889 55.7156C79.1952 55.5913 79.2803 55.4808 79.3653 55.3841C79.4504 55.2874 79.5142 55.1907 79.5568 55.094C79.5993 55.0111 79.6418 54.9144 79.6844 54.8454C79.7056 54.7625 79.7269 54.6934 79.7269 54.6105C79.7269 54.4862 79.6843 54.4033 79.5993 54.3619C79.5142 54.3204 79.3866 54.3342 79.2165 54.4033C79.0676 54.4586 78.9613 54.5276 78.8762 54.6105C78.7912 54.6934 78.7274 54.7901 78.6849 54.8868C78.6423 54.9835 78.5785 55.0526 78.5147 55.1078C78.4509 55.1631 78.3446 55.2045 78.217 55.2321L77.7279 55.3565C77.7704 55.1769 77.8129 55.0249 77.9192 54.873C78.0043 54.721 78.1319 54.5829 78.2595 54.4448C78.3871 54.3204 78.5572 54.1961 78.7274 54.0994C78.8975 53.9889 79.0889 53.906 79.2803 53.837C79.493 53.7541 79.6843 53.6988 79.8545 53.685C80.0246 53.6712 80.1734 53.6712 80.301 53.7126C80.4286 53.7541 80.5137 53.8094 80.5775 53.906C80.6413 54.0027 80.6839 54.1133 80.6839 54.2514C80.6839 54.3757 80.6626 54.4862 80.6201 54.6105C80.5775 54.7348 80.5137 54.8454 80.4286 54.9697C80.3436 55.094 80.2586 55.2183 80.1522 55.3288C80.0459 55.4532 79.9395 55.5775 79.8332 55.7156L78.9826 56.6826C79.0889 56.6135 79.1952 56.5583 79.3015 56.503C79.4079 56.4478 79.5142 56.4063 79.5993 56.3649L80.4074 56.061C80.5137 56.0195 80.5775 56.0195 80.6413 56.0333C80.7051 56.0471 80.7264 56.0886 80.7264 56.1577V56.5582L77.6641 57.6771Z" fill="#464646"/>
<path d="M81.0879 55.5638L81.492 55.2876C81.5983 55.2185 81.7046 55.177 81.7897 55.1494C81.8748 55.1356 81.9386 55.1356 81.9811 55.177C82.0662 55.2599 82.1725 55.3152 82.2576 55.329C82.3639 55.3428 82.4702 55.329 82.6191 55.2737C82.7254 55.2323 82.8105 55.1908 82.8955 55.1356C82.9806 55.0803 83.0444 55.0251 83.0869 54.9698C83.1294 54.9146 83.172 54.8455 83.1933 54.7902C83.2145 54.7212 83.2358 54.6659 83.2358 54.6245C83.2358 54.5554 83.2358 54.5002 83.2145 54.4449C83.1932 54.3896 83.172 54.362 83.1082 54.3482C83.0444 54.3344 82.9593 54.3344 82.8317 54.362C82.7041 54.3897 82.534 54.4449 82.3214 54.5278V54.0719C82.5128 54.0029 82.6616 53.9338 82.7679 53.8785C82.8743 53.8095 82.9593 53.7542 83.0231 53.699C83.0869 53.6437 83.1294 53.5747 83.1507 53.5194C83.172 53.4642 83.172 53.3951 83.172 53.3398C83.172 53.2155 83.1295 53.1326 83.0444 53.0912C82.9593 53.0498 82.8318 53.0636 82.6616 53.1326C82.534 53.1879 82.4064 53.2569 82.3214 53.3398C82.2363 53.4365 82.1512 53.5194 82.13 53.6161C82.0874 53.7128 82.0236 53.7957 81.9598 53.8371C81.896 53.8924 81.7897 53.9338 81.6621 53.9614L81.173 54.0858C81.1942 53.9062 81.258 53.7542 81.3644 53.5885C81.4494 53.4365 81.577 53.2984 81.7046 53.1602C81.8322 53.0359 82.0024 52.9116 82.1725 52.8011C82.3426 52.6906 82.534 52.6077 82.7254 52.5386C82.9381 52.4557 83.1295 52.4005 83.2996 52.3867C83.4697 52.3729 83.5973 52.3729 83.7249 52.4143C83.8313 52.4419 83.9163 52.511 83.9801 52.5801C84.0439 52.6629 84.0652 52.7597 84.0652 52.8702C84.0652 52.9669 84.0439 53.0635 84.0226 53.1602C84.0014 53.2431 83.9588 53.326 83.895 53.4089C83.8312 53.4918 83.7674 53.5608 83.7036 53.6299C83.6186 53.699 83.5335 53.7681 83.4272 53.8233C83.9163 53.7681 84.1502 53.92 84.1502 54.2653C84.1502 54.4311 84.1077 54.5969 84.0226 54.7626C83.9376 54.9146 83.8312 55.0665 83.6824 55.2047C83.5335 55.3428 83.3847 55.4671 83.1933 55.5776C83.0019 55.6881 82.8104 55.7849 82.6191 55.8539C82.4064 55.9368 82.2363 55.9782 82.0662 56.0058C81.896 56.0335 81.7684 56.0335 81.6408 56.0058C81.5132 55.9782 81.4069 55.9368 81.3006 55.8677C81.2368 55.7848 81.173 55.6881 81.0879 55.5638Z" fill="#464646"/>
<path d="M77.6641 62.9817V62.7607C77.6641 62.7193 77.6853 62.664 77.7066 62.6088C77.7278 62.5535 77.7704 62.4844 77.8342 62.4292L79.0889 61.0202C79.1952 60.8959 79.2803 60.7854 79.3653 60.6887C79.4504 60.592 79.5142 60.4953 79.5568 60.3986C79.5993 60.3157 79.6418 60.219 79.6844 60.1499C79.7056 60.067 79.7269 59.998 79.7269 59.9151C79.7269 59.7908 79.6843 59.7079 79.5993 59.6664C79.5142 59.625 79.3866 59.6388 79.2165 59.7079C79.0676 59.7631 78.9613 59.8322 78.8762 59.9151C78.7912 59.998 78.7274 60.0947 78.6849 60.1914C78.6423 60.2881 78.5785 60.3571 78.5147 60.4124C78.4509 60.4676 78.3446 60.5091 78.217 60.5367L77.7279 60.661C77.7704 60.4814 77.8129 60.3295 77.9192 60.1775C78.0043 60.0256 78.1319 59.8875 78.2595 59.7493C78.3871 59.625 78.5572 59.5007 78.7274 59.404C78.8975 59.2935 79.0889 59.2106 79.2803 59.1415C79.493 59.0586 79.6843 59.0034 79.8545 58.9896C80.0246 58.9758 80.1734 58.9758 80.301 59.0172C80.4286 59.0586 80.5137 59.1139 80.5775 59.2106C80.6413 59.3073 80.6839 59.4178 80.6839 59.556C80.6839 59.6803 80.6626 59.7908 80.6201 59.9151C80.5775 60.0394 80.5137 60.1499 80.4286 60.2742C80.3436 60.3986 80.2586 60.5229 80.1522 60.6334C80.0459 60.7577 79.9395 60.8821 79.8332 61.0202L78.9826 61.9871C79.0889 61.9181 79.1952 61.8628 79.3015 61.8076C79.4079 61.7523 79.5142 61.7109 79.5993 61.6694L80.4074 61.3655C80.5137 61.3241 80.5775 61.3241 80.6413 61.3379C80.7051 61.3517 80.7264 61.3932 80.7264 61.4622V61.8628L77.6641 62.9817Z" fill="#464646"/>
<path d="M80.939 60.5367L82.9592 57.774L83.9375 57.4148V59.3763L84.3841 59.2106V59.5974C84.3841 59.6388 84.3628 59.6664 84.3416 59.7079C84.3203 59.7493 84.2564 59.7769 84.2139 59.7907L83.9375 59.8874V60.6196L83.0443 60.9511V60.219L81.3005 60.882C81.2367 60.9097 81.1942 60.9097 81.1304 60.8959C81.0878 60.882 81.0453 60.8682 81.0453 60.8268L80.939 60.5367ZM81.9172 60.1361L83.0443 59.7079V58.8653C83.0443 58.81 83.0443 58.7547 83.0443 58.6995C83.0443 58.6442 83.0656 58.5752 83.0656 58.5061L81.9172 60.1361Z" fill="#464646"/>
<path d="M77.6641 68.2721V68.0511C77.6641 68.0097 77.6853 67.9544 77.7066 67.8992C77.7278 67.8439 77.7704 67.7887 77.8342 67.7196L79.0889 66.3106C79.1952 66.1863 79.2803 66.0758 79.3653 65.9791C79.4504 65.8824 79.5142 65.7857 79.5568 65.689C79.5993 65.5923 79.6418 65.5094 79.6844 65.4403C79.7056 65.3574 79.7269 65.2746 79.7269 65.2055C79.7269 65.0812 79.6843 64.9983 79.5993 64.9569C79.5142 64.9154 79.3866 64.9292 79.2165 64.9983C79.0676 65.0536 78.9613 65.1226 78.8762 65.2055C78.7912 65.2884 78.7274 65.3851 78.6849 65.4818C78.6423 65.5785 78.5785 65.6475 78.5147 65.7028C78.4509 65.758 78.3446 65.7995 78.217 65.8271L77.7279 65.9515C77.7704 65.7719 77.8129 65.6199 77.9192 65.468C78.0043 65.316 78.1319 65.1779 78.2595 65.0398C78.3871 64.9154 78.5572 64.7911 78.7274 64.6944C78.8975 64.5839 79.0889 64.501 79.2803 64.432C79.493 64.3491 79.6843 64.2938 79.8545 64.28C80.0246 64.2662 80.1734 64.2662 80.301 64.3076C80.4286 64.3491 80.5137 64.4043 80.5775 64.501C80.6413 64.5977 80.6839 64.7082 80.6839 64.8463C80.6839 64.9707 80.6626 65.0812 80.6201 65.1917C80.5775 65.316 80.5137 65.4265 80.4286 65.5509C80.3436 65.6752 80.2586 65.7995 80.1522 65.9238C80.0459 66.0481 79.9395 66.1725 79.8332 66.2968L78.9826 67.2637C79.0889 67.1947 79.1952 67.1394 79.3015 67.0841C79.4079 67.0289 79.5142 66.9875 79.5993 66.946L80.4074 66.6421C80.5137 66.6007 80.5775 66.6007 80.6413 66.6145C80.7051 66.6283 80.7264 66.6697 80.7264 66.7388V67.1256L77.6641 68.2721Z" fill="#464646"/>
<path d="M81.1519 66.5871L81.4283 66.2004C81.4495 66.1589 81.4921 66.1313 81.5346 66.0898C81.5772 66.0622 81.6197 66.0346 81.6622 66.0208C81.726 65.9931 81.7685 65.9932 81.8323 65.9932C81.8749 65.9932 81.9387 66.0069 82.0025 66.0069C82.0663 66.0069 82.1301 66.0069 82.2152 66.0069C82.3002 65.9931 82.4065 65.9655 82.5341 65.9241C82.6617 65.8826 82.7681 65.8274 82.8531 65.7583C82.9382 65.6892 83.0233 65.6202 83.0658 65.5511C83.1296 65.482 83.1721 65.3992 83.1934 65.3301C83.2146 65.2472 83.2359 65.1643 83.2359 65.0952C83.2359 64.9433 83.1721 64.8466 83.0658 64.8052C82.9382 64.7637 82.768 64.7914 82.5554 64.8743C82.364 64.9433 82.1726 65.04 81.9812 65.1782L81.407 65.2748L81.7685 63.5205L84.0015 62.6779V62.9541C84.0015 62.9956 84.0015 63.0508 83.9802 63.0923C83.959 63.1337 83.9377 63.189 83.8951 63.2304C83.8526 63.2719 83.7888 63.3133 83.725 63.3548C83.6612 63.3962 83.5762 63.4376 83.4699 63.4791L82.4278 63.8659L82.3002 64.4322C82.3852 64.3908 82.4703 64.3493 82.5341 64.3217C82.5979 64.2941 82.683 64.2526 82.7468 64.225C82.9807 64.1421 83.1721 64.0869 83.3635 64.073C83.5336 64.0592 83.6825 64.0731 83.8101 64.1283C83.9377 64.1698 84.0227 64.2526 84.0865 64.3493C84.1503 64.446 84.1716 64.5703 84.1716 64.7085C84.1716 64.888 84.1291 65.0538 84.044 65.2334C83.9589 65.413 83.8526 65.5787 83.7037 65.7307C83.5549 65.8826 83.3848 66.0346 83.1721 66.1727C82.9594 66.3109 82.7468 66.4214 82.4916 66.5043C82.3427 66.5595 82.2151 66.6009 82.0875 66.6286C81.9599 66.6562 81.8323 66.67 81.726 66.67C81.6197 66.67 81.5134 66.67 81.407 66.6562C81.3007 66.6424 81.2157 66.6286 81.1519 66.5871Z" fill="#464646"/>
<path d="M77.6641 73.5767V73.3557C77.6641 73.3142 77.6853 73.259 77.7066 73.2038C77.7278 73.1485 77.7704 73.0932 77.8342 73.0242L79.0889 71.6152C79.1952 71.4908 79.2803 71.3803 79.3653 71.2836C79.4504 71.1869 79.5142 71.0903 79.5568 70.9936C79.5993 70.9107 79.6418 70.814 79.6844 70.7449C79.7056 70.662 79.7269 70.5791 79.7269 70.5101C79.7269 70.3858 79.6843 70.3029 79.5993 70.2614C79.5142 70.22 79.3866 70.2338 79.2165 70.3029C79.0676 70.3581 78.9613 70.4272 78.8762 70.5101C78.7912 70.593 78.7274 70.6897 78.6849 70.7864C78.6423 70.8831 78.5785 70.9521 78.5147 71.0074C78.4509 71.0626 78.3446 71.1041 78.217 71.1317L77.7279 71.256C77.7704 71.0764 77.8129 70.9245 77.9192 70.7725C78.0043 70.6206 78.1319 70.4825 78.2595 70.3443C78.3871 70.22 78.5572 70.0957 78.7274 69.999C78.8975 69.8885 79.0889 69.8056 79.2803 69.7365C79.493 69.6536 79.6843 69.5984 79.8545 69.5845C80.0246 69.5707 80.1734 69.5708 80.301 69.6122C80.4286 69.6536 80.5137 69.7089 80.5775 69.8056C80.6413 69.8885 80.6839 70.0128 80.6839 70.1509C80.6839 70.2752 80.6626 70.3858 80.6201 70.5101C80.5775 70.6206 80.5137 70.7449 80.4286 70.8692C80.3436 70.9936 80.2586 71.1179 80.1522 71.2284C80.0459 71.3527 79.9395 71.477 79.8332 71.6014L78.9826 72.5683C79.0889 72.4992 79.1952 72.444 79.3015 72.3888C79.4079 72.3335 79.5142 72.2921 79.5993 72.2506L80.4074 71.9467C80.5137 71.9053 80.5775 71.9052 80.6413 71.9191C80.7051 71.9329 80.7264 71.9743 80.7264 72.0434V72.4302L77.6641 73.5767Z" fill="#464646"/>
<path d="M81.1309 71.173C81.1309 70.8553 81.3009 70.4685 81.6199 70.0126L82.5982 68.6589C82.6408 68.6036 82.7045 68.5345 82.7896 68.4655C82.8747 68.3964 82.981 68.355 83.0873 68.3135L83.9167 68.0096L82.6194 69.6259C82.5982 69.6535 82.5769 69.6673 82.5557 69.6949C82.5344 69.7225 82.5131 69.7363 82.4919 69.764C82.5557 69.7225 82.6407 69.6811 82.7045 69.6396C82.7896 69.5982 82.8534 69.5706 82.9597 69.5292C83.1086 69.4739 83.2787 69.4325 83.4276 69.4048C83.5764 69.391 83.7253 69.391 83.8316 69.4324C83.9592 69.4739 84.0443 69.5292 84.1294 69.6259C84.1932 69.7226 84.2357 69.8468 84.2357 70.0264C84.2357 70.1784 84.1932 70.3303 84.1294 70.4961C84.0443 70.6618 83.938 70.8138 83.8104 70.9657C83.6615 71.1177 83.5126 71.2559 83.3 71.394C83.1086 71.5321 82.8959 71.6288 82.662 71.7255C82.4281 71.8222 82.1942 71.8775 82.0028 71.8913C81.8114 71.9051 81.6412 71.8913 81.5136 71.836C81.386 71.7807 81.2797 71.6979 81.2159 71.5874C81.1734 71.4769 81.1309 71.3387 81.1309 71.173ZM82.024 70.9243C82.024 71.0072 82.0453 71.0763 82.0666 71.1315C82.0878 71.1868 82.1304 71.2282 82.1942 71.2559C82.258 71.2835 82.3218 71.2973 82.4068 71.2835C82.4919 71.2835 82.5769 71.2559 82.7045 71.2144C82.8109 71.173 82.8959 71.1315 82.981 71.0763C83.0661 71.021 83.1299 70.9519 83.1937 70.8829C83.2575 70.8138 83.3 70.7448 83.3426 70.6619C83.3851 70.579 83.3851 70.5099 83.3851 70.4409C83.3851 70.358 83.3638 70.2889 83.3426 70.2336C83.3 70.1784 83.2575 70.1369 83.1937 70.1231C83.1299 70.1093 83.0661 70.0955 82.981 70.1093C82.8959 70.1231 82.8109 70.137 82.7045 70.1784C82.6195 70.2198 82.5344 70.2613 82.4493 70.3165C82.3643 70.3718 82.3005 70.427 82.2367 70.4961C82.1729 70.5651 82.1303 70.6342 82.1091 70.7171C82.0453 70.7724 82.024 70.8414 82.024 70.9243Z" fill="#464646"/>
<path d="M68.7109 87.5006V87.2796C68.7109 87.2382 68.7322 87.1829 68.7534 87.1277C68.7747 87.0724 68.8172 87.0172 68.881 86.9481L70.1357 85.5391C70.2421 85.4148 70.3271 85.3043 70.4122 85.2076C70.4973 85.1109 70.5611 85.0142 70.6036 84.9175C70.6461 84.8346 70.6886 84.7379 70.7312 84.6689C70.7524 84.586 70.7738 84.5031 70.7738 84.434C70.7738 84.3097 70.7312 84.2268 70.6462 84.1854C70.5611 84.1439 70.4334 84.1577 70.2633 84.2268C70.1145 84.2821 70.0081 84.3511 69.9231 84.434C69.838 84.5169 69.7742 84.6136 69.7317 84.7103C69.6891 84.807 69.6254 84.8761 69.5616 84.9313C69.4978 84.9866 69.3914 85.028 69.2638 85.0556L68.7747 85.1799C68.8173 85.0004 68.8598 84.8484 68.9661 84.6965C69.0512 84.5445 69.1788 84.4064 69.3064 84.2682C69.434 84.1439 69.6041 84.0196 69.7742 83.9229C69.9444 83.8124 70.1357 83.7295 70.3271 83.6604C70.5398 83.5776 70.7312 83.5223 70.9013 83.5085C71.0715 83.4947 71.2203 83.4947 71.3479 83.5361C71.4755 83.5776 71.5606 83.6328 71.6244 83.7295C71.6882 83.8124 71.7307 83.9367 71.7307 84.0749C71.7307 84.1992 71.7094 84.3097 71.6669 84.4202C71.6244 84.5445 71.5606 84.655 71.4755 84.7793C71.3904 84.9037 71.3054 85.028 71.199 85.1385C71.0927 85.2628 70.9864 85.3872 70.8801 85.5115L70.0294 86.4784C70.1358 86.4094 70.2421 86.3541 70.3484 86.2988C70.4547 86.2436 70.5611 86.2021 70.6462 86.1607L71.4542 85.8568C71.5605 85.8154 71.6244 85.8154 71.6882 85.8292C71.752 85.843 71.7733 85.8844 71.7733 85.9535V86.3403L68.7109 87.5006Z" fill="#ED1C24"/>
<path d="M72.2832 83.771L73.6442 82.4173L74.4098 82.1272V84.8485L75.1329 84.5722V85.0695L72.6448 85.995V85.4977L73.4741 85.18V83.5638C73.4741 83.4809 73.4741 83.398 73.4741 83.3151L72.985 83.7986C72.9424 83.8401 72.8999 83.8677 72.8574 83.8953C72.8148 83.923 72.7723 83.9368 72.7298 83.9368C72.6872 83.9506 72.666 83.9506 72.6235 83.9506C72.6022 83.9506 72.5809 83.9368 72.5597 83.9368L72.2832 83.771Z" fill="#ED1C24"/>
<path d="M86.1919 49.2235V49.0025C86.1919 48.9611 86.2131 48.9058 86.2344 48.8506C86.2557 48.7953 86.2982 48.7401 86.362 48.671L87.6167 47.262C87.723 47.1377 87.8081 47.0272 87.8932 46.9305C87.9782 46.8338 88.042 46.7371 88.0845 46.6404C88.1271 46.5575 88.1696 46.4608 88.1909 46.3918C88.2122 46.3089 88.2334 46.226 88.2334 46.1569C88.2334 46.0326 88.1909 45.9497 88.1058 45.9083C88.0208 45.8668 87.8932 45.8806 87.7231 45.9497C87.5742 46.005 87.4679 46.074 87.3828 46.1569C87.2977 46.2398 87.2339 46.3365 87.1914 46.4332C87.1489 46.5299 87.085 46.599 87.0212 46.6542C86.9574 46.7095 86.8511 46.7509 86.7235 46.7785L86.2344 46.9028C86.2557 46.7371 86.3195 46.5713 86.4258 46.4194C86.5109 46.2674 86.6385 46.1293 86.7661 45.9911C86.8937 45.8668 87.0638 45.7425 87.2339 45.6458C87.404 45.5353 87.5955 45.4524 87.7869 45.3833C87.9995 45.3005 88.1909 45.259 88.361 45.2314C88.5311 45.2176 88.68 45.2176 88.8076 45.259C88.9352 45.3005 89.0203 45.3557 89.0841 45.4524C89.1479 45.5491 89.1904 45.6596 89.1904 45.7978C89.1904 45.9221 89.1692 46.0326 89.1266 46.1569C89.0841 46.2812 89.0202 46.3917 88.9352 46.5161C88.8501 46.6404 88.7651 46.7647 88.6588 46.889C88.5524 47.0133 88.4461 47.1377 88.3397 47.262L87.4891 48.2289C87.5954 48.1599 87.7017 48.1046 87.8081 48.0494C87.9144 47.9941 88.0208 47.9527 88.1058 47.9113L88.914 47.6074C89.0203 47.5659 89.084 47.5659 89.1478 47.5797C89.2116 47.5935 89.2329 47.635 89.2329 47.704V48.0908L86.1919 49.2235Z" fill="#464646"/>
<path d="M89.6577 45.7426C89.6577 45.5907 89.7002 45.4387 89.764 45.2867C89.8278 45.1348 89.9341 44.9691 90.083 44.8309C90.2106 44.679 90.3807 44.5408 90.5721 44.4165C90.7635 44.2922 90.9762 44.1817 91.2101 44.0988C91.444 44.0159 91.6567 43.9607 91.8481 43.933C92.0395 43.9192 92.1884 43.933 92.316 43.9745C92.4436 44.0297 92.5499 44.0988 92.6137 44.2093C92.6775 44.3198 92.72 44.4441 92.72 44.6099C92.72 44.8171 92.6774 45.0243 92.5924 45.2177C92.5073 45.4111 92.401 45.6183 92.2521 45.8117L91.3165 47.1516C91.2739 47.2068 91.2101 47.2759 91.125 47.3312C91.04 47.3864 90.9549 47.4417 90.8273 47.4831L89.9767 47.8008L91.359 46.0603C91.3802 46.0327 91.4015 45.9913 91.4441 45.9636C91.4653 45.936 91.4866 45.8946 91.5079 45.8669C91.4228 45.936 91.3164 46.0051 91.2101 46.0603C91.1038 46.1156 90.9974 46.1708 90.8698 46.2123C90.721 46.2675 90.5934 46.2952 90.4445 46.309C90.2957 46.3228 90.168 46.3228 90.0617 46.2813C89.9554 46.2537 89.8491 46.1846 89.7853 46.1017C89.7002 46.0189 89.6577 45.8946 89.6577 45.7426ZM90.5721 45.342C90.5721 45.6597 90.7635 45.7426 91.1676 45.5906C91.359 45.5216 91.5078 45.4111 91.6142 45.2867C91.7205 45.1624 91.763 45.0243 91.763 44.8862C91.763 44.8171 91.7417 44.748 91.7205 44.7066C91.6992 44.6652 91.6567 44.6237 91.5929 44.6099C91.5291 44.5961 91.4653 44.5823 91.4015 44.5961C91.3164 44.6099 91.2314 44.6237 91.1463 44.6652C91.0612 44.7066 90.9762 44.748 90.8911 44.7895C90.8273 44.8447 90.7635 44.9 90.6997 44.9552C90.6572 45.0105 90.6146 45.0796 90.5934 45.1486C90.5934 45.2177 90.5721 45.2729 90.5721 45.342Z" fill="#464646"/>
<path d="M86.1494 53.7128L86.5535 53.4366C86.6598 53.3675 86.7662 53.3261 86.8512 53.2985C86.9363 53.2846 87.0001 53.2846 87.0426 53.3261C87.1277 53.4089 87.234 53.4642 87.3191 53.478C87.4254 53.4919 87.5317 53.478 87.6806 53.4228C87.7869 53.3813 87.872 53.3399 87.957 53.2846C88.0421 53.2294 88.1059 53.1741 88.1484 53.1189C88.191 53.0636 88.2335 52.9945 88.2548 52.9393C88.2761 52.8702 88.2973 52.815 88.2973 52.7735C88.2973 52.7045 88.2973 52.6492 88.276 52.5939C88.2548 52.5387 88.2335 52.5111 88.1697 52.4972C88.1059 52.4834 88.0208 52.4834 87.8932 52.5111C87.7657 52.5387 87.5955 52.5939 87.3829 52.6768V52.221C87.5743 52.1519 87.7231 52.0828 87.8295 52.0276C87.9358 51.9585 88.0208 51.9033 88.0846 51.848C88.1484 51.7927 88.191 51.7237 88.2122 51.6685C88.2335 51.6132 88.2335 51.5441 88.2335 51.4889C88.2335 51.3645 88.191 51.2816 88.1059 51.2402C88.0209 51.1988 87.8933 51.2126 87.7231 51.2816C87.5956 51.3369 87.4679 51.406 87.3829 51.4889C87.2766 51.5856 87.234 51.6684 87.1915 51.7651C87.149 51.8618 87.0851 51.9447 87.0213 51.9861C86.9575 52.0414 86.8512 52.0828 86.7236 52.1105L86.2345 52.2348C86.277 52.0552 86.3196 51.9033 86.4259 51.7375C86.5109 51.5856 86.6386 51.4474 86.7661 51.3093C86.8937 51.185 87.0639 51.0606 87.234 50.9639C87.4041 50.8673 87.5956 50.7706 87.7869 50.7015C87.9996 50.6186 88.191 50.5771 88.3611 50.5495C88.5312 50.5357 88.6589 50.5357 88.7865 50.5772C88.8928 50.6048 88.9778 50.6739 89.0416 50.7429C89.1054 50.8258 89.1267 50.9225 89.1267 51.033C89.1267 51.1297 89.1054 51.2264 89.0841 51.3231C89.0629 51.406 89.0204 51.4889 88.9566 51.5718C88.8928 51.6546 88.829 51.7237 88.7652 51.7928C88.6801 51.8618 88.595 51.9309 88.4887 52C88.9778 51.9447 89.2117 52.0829 89.2117 52.442C89.2117 52.6078 89.1692 52.7735 89.0841 52.9393C88.9991 53.0912 88.8927 53.2432 88.7439 53.3813C88.595 53.5195 88.4462 53.6438 88.2548 53.7543C88.0634 53.8648 87.872 53.9615 87.6806 54.0306C87.4679 54.1135 87.2978 54.1687 87.1277 54.1963C86.9576 54.224 86.8299 54.224 86.7024 54.1963C86.5748 54.1687 86.4684 54.1273 86.3621 54.0582C86.2983 53.9339 86.2132 53.8372 86.1494 53.7128Z" fill="#464646"/>
<path d="M89.5942 51.6411C89.5942 51.3649 89.6368 51.1024 89.7219 50.8676C89.807 50.6327 89.9132 50.4117 90.0621 50.2322C90.211 50.0388 90.3811 49.873 90.5725 49.7348C90.7639 49.5967 90.9766 49.4862 91.2105 49.3895C91.4444 49.3066 91.6571 49.2514 91.8485 49.2514C92.0399 49.2376 92.21 49.279 92.3589 49.3619C92.5077 49.4448 92.6141 49.5691 92.6991 49.7487C92.7842 49.9282 92.8267 50.1493 92.8267 50.4393C92.8267 50.7156 92.7842 50.9781 92.6991 51.2129C92.6141 51.4477 92.5077 51.6549 92.3589 51.8483C92.21 52.0417 92.0399 52.2075 91.8485 52.3456C91.6571 52.4838 91.4444 52.5943 91.2105 52.691C90.9766 52.7739 90.7639 52.8291 90.5725 52.8291C90.3811 52.8429 90.211 52.8015 90.0621 52.7186C89.9132 52.6357 89.807 52.5114 89.7219 52.3318C89.6368 52.1522 89.5942 51.9174 89.5942 51.6411ZM90.5512 51.282C90.5512 51.503 90.5725 51.6826 90.615 51.8069C90.6576 51.9312 90.7001 52.0279 90.7639 52.0832C90.8277 52.1384 90.8915 52.1661 90.9766 52.1661C91.0617 52.1661 91.1254 52.1522 91.2105 52.1246C91.2955 52.097 91.3806 52.0555 91.4444 51.9865C91.5295 51.9312 91.5933 51.8483 91.6571 51.7378C91.7209 51.6273 91.7634 51.503 91.8059 51.3511C91.8485 51.1991 91.8697 51.0057 91.8697 50.7847C91.8697 50.5637 91.8485 50.3841 91.8059 50.2598C91.7634 50.1354 91.7209 50.0388 91.6571 49.9835C91.5933 49.9283 91.5295 49.9006 91.4444 49.9006C91.3594 49.9006 91.2743 49.9145 91.2105 49.9421C91.1254 49.9697 91.0404 50.0249 90.9766 50.0802C90.8915 50.1354 90.8277 50.2184 90.7639 50.3289C90.7001 50.4256 90.6576 50.5637 90.615 50.7156C90.5725 50.8676 90.5512 51.0609 90.5512 51.282Z" fill="#464646"/>
<path d="M77.9194 84.0199V83.7989C77.9194 83.7575 77.9407 83.7022 77.962 83.647C77.9833 83.5917 78.0258 83.5364 78.0896 83.4674L79.3443 82.0584C79.4506 81.9341 79.5357 81.8235 79.6208 81.7268C79.7058 81.6302 79.7696 81.5335 79.8121 81.4368C79.8547 81.3401 79.8972 81.2572 79.9185 81.1881C79.9397 81.1053 79.961 81.0224 79.961 80.9533C79.961 80.829 79.9184 80.7461 79.8334 80.7047C79.7483 80.6632 79.6207 80.677 79.4506 80.7461C79.3017 80.8013 79.1954 80.8704 79.1103 80.9533C79.0253 81.0362 78.9615 81.1329 78.9189 81.2296C78.8764 81.3263 78.8126 81.3953 78.7488 81.4506C78.685 81.5059 78.5787 81.5473 78.4511 81.5749L77.962 81.6992C77.9833 81.5197 78.0471 81.3677 78.1534 81.2157C78.2385 81.0638 78.3661 80.9257 78.4937 80.7875C78.6213 80.6632 78.7913 80.5389 78.9615 80.4422C79.1316 80.3317 79.323 80.2488 79.5144 80.1797C79.7271 80.0968 79.9185 80.0554 80.0886 80.0278C80.2587 80.014 80.4076 80.014 80.5352 80.0554C80.6628 80.0969 80.7479 80.1521 80.8117 80.2488C80.8755 80.3455 80.918 80.456 80.918 80.5941C80.918 80.7184 80.8967 80.829 80.8542 80.9395C80.8116 81.0638 80.7478 81.1743 80.6628 81.2986C80.5777 81.423 80.4926 81.5473 80.3863 81.6716C80.28 81.7959 80.1737 81.9203 80.0673 82.0446L79.2167 83.0115C79.323 82.9424 79.4293 82.8872 79.5357 82.832C79.642 82.7767 79.7483 82.7353 79.8334 82.6938L80.6415 82.3899C80.7478 82.3485 80.8117 82.3484 80.8755 82.3623C80.9392 82.3761 80.9605 82.4176 80.9605 82.4866V82.8734L77.9194 84.0199Z" fill="#ED1C24"/>
<path d="M81.3857 81.7962C81.3857 81.7133 81.407 81.6166 81.4283 81.5337C81.4495 81.4508 81.492 81.3541 81.5558 81.2712C81.6196 81.1884 81.6835 81.0917 81.7898 81.0088C81.8749 80.9259 82.0025 80.843 82.1301 80.7601C81.9387 80.774 81.7898 80.7325 81.7047 80.6496C81.6197 80.5667 81.5558 80.4424 81.5558 80.2767C81.5558 80.1523 81.5984 80.028 81.6622 79.8899C81.726 79.7517 81.8323 79.6274 81.9599 79.5031C82.0875 79.3788 82.2364 79.2545 82.4065 79.1578C82.5767 79.0472 82.768 78.9505 82.9807 78.8815C83.1721 78.8124 83.3635 78.7571 83.5336 78.7433C83.7038 78.7295 83.8526 78.7295 83.9802 78.7571C84.1078 78.7848 84.1928 78.84 84.2779 78.9229C84.3417 79.0058 84.3843 79.1025 84.3843 79.2268C84.3843 79.3926 84.3417 79.5583 84.2354 79.7103C84.1291 79.8622 84.0015 80.0142 83.8101 80.1523C83.9377 80.1385 84.0652 80.1385 84.1503 80.1523C84.2354 80.1662 84.3205 80.1938 84.3843 80.2352C84.4481 80.2767 84.4906 80.3319 84.5119 80.401C84.5331 80.47 84.5544 80.5391 84.5544 80.6358C84.5544 80.7739 84.5119 80.9259 84.4481 81.064C84.3843 81.216 84.2779 81.3541 84.1291 81.4923C84.0015 81.6304 83.8313 81.7547 83.6399 81.8652C83.4485 81.9757 83.2359 82.0862 83.002 82.1691C82.7681 82.252 82.5554 82.3072 82.364 82.3349C82.1726 82.3625 82.0025 82.3625 81.8749 82.321C81.7473 82.2934 81.6409 82.2244 81.5558 82.1415C81.4282 82.0586 81.3857 81.9481 81.3857 81.7962ZM82.3427 81.4232C82.3427 81.4784 82.364 81.5337 82.3853 81.5889C82.4065 81.6304 82.449 81.6718 82.4916 81.6856C82.5341 81.7133 82.5979 81.7133 82.6829 81.7133C82.7467 81.7133 82.8531 81.6856 82.9594 81.6442C83.0657 81.6028 83.1508 81.5613 83.2359 81.506C83.3209 81.4508 83.3635 81.3955 83.4273 81.3403C83.4698 81.285 83.5124 81.216 83.5336 81.1607C83.5549 81.0916 83.5761 81.0364 83.5761 80.9673C83.5761 80.8983 83.5761 80.843 83.5549 80.7878C83.5336 80.7325 83.4911 80.7049 83.4486 80.6773C83.406 80.6496 83.3422 80.6496 83.2572 80.6496C83.1721 80.6496 83.087 80.6773 82.9807 80.7187C82.8744 80.7601 82.768 80.8016 82.7042 80.8568C82.6192 80.9121 82.5766 80.9673 82.5128 81.0226C82.4703 81.0779 82.4278 81.1469 82.4065 81.2021C82.364 81.285 82.3427 81.3541 82.3427 81.4232ZM82.4278 79.9589C82.4278 80.0142 82.4278 80.0695 82.449 80.1109C82.4703 80.1523 82.4916 80.1938 82.5341 80.2214C82.5767 80.249 82.6191 80.2628 82.6829 80.2628C82.7467 80.2628 82.8319 80.249 82.9382 80.2076C83.0445 80.1661 83.1296 80.1247 83.1934 80.0695C83.2572 80.0142 83.321 79.9727 83.3423 79.9175C83.3848 79.8622 83.406 79.807 83.4273 79.7517C83.4485 79.6965 83.4486 79.6412 83.4486 79.586C83.4486 79.5307 83.4485 79.4893 83.4273 79.4478C83.406 79.4064 83.3848 79.3788 83.3423 79.365C83.2997 79.3373 83.2572 79.3373 83.1934 79.3373C83.1296 79.3373 83.0445 79.3511 82.9594 79.3926C82.8743 79.434 82.7893 79.4616 82.7255 79.5169C82.6617 79.5583 82.5979 79.6136 82.5766 79.6689C82.5341 79.7241 82.5128 79.7793 82.4916 79.8208C82.449 79.8622 82.4278 79.9175 82.4278 79.9589Z" fill="#ED1C24"/>
<path d="M81.4072 74.6957V74.2537L84.4695 73.1072V73.3973C84.4695 73.4801 84.4482 73.5492 84.427 73.6183C84.4057 73.6735 84.3844 73.7288 84.3632 73.7702L82.8533 76.7125C82.8108 76.7954 82.7469 76.8645 82.6831 76.9335C82.5981 77.0026 82.513 77.0717 82.3854 77.1131L81.7049 77.3618L83.2574 74.4609C83.2999 74.378 83.3424 74.309 83.385 74.2399C83.4275 74.1708 83.4913 74.1017 83.5338 74.0327L81.6198 74.751C81.5986 74.7648 81.5561 74.7648 81.5348 74.7648C81.5136 74.7648 81.4923 74.7648 81.471 74.751C81.4498 74.751 81.4284 74.7372 81.4284 74.7233C81.4284 74.7372 81.4072 74.7234 81.4072 74.6957Z" fill="#464646"/>
<path d="M77.9194 78.7294V78.5084C77.9194 78.467 77.9407 78.4117 77.962 78.3564C77.9833 78.3012 78.0258 78.2459 78.0896 78.1769L79.3443 76.7679C79.4506 76.6436 79.5357 76.5331 79.6208 76.4364C79.7058 76.3397 79.7696 76.2429 79.8121 76.1462C79.8547 76.0634 79.8972 75.9667 79.9185 75.8976C79.9397 75.8147 79.961 75.7319 79.961 75.6628C79.961 75.5385 79.9184 75.4556 79.8334 75.4141C79.7483 75.3727 79.6207 75.3865 79.4506 75.4556C79.3017 75.5108 79.1954 75.5799 79.1103 75.6628C79.0253 75.7457 78.9615 75.8424 78.9189 75.939C78.8764 76.0357 78.8126 76.1048 78.7488 76.1601C78.685 76.2153 78.5787 76.2568 78.4511 76.2844L77.962 76.4087C77.9833 76.2429 78.0471 76.0772 78.1534 75.9253C78.2385 75.7733 78.3661 75.6352 78.4937 75.497C78.6213 75.3727 78.7913 75.2484 78.9615 75.1517C79.1316 75.0412 79.323 74.9583 79.5144 74.8892C79.7271 74.8064 79.9185 74.7649 80.0886 74.7373C80.2587 74.7235 80.4076 74.7234 80.5352 74.7649C80.6628 74.8063 80.7479 74.8616 80.8117 74.9583C80.8755 75.055 80.918 75.1655 80.918 75.3036C80.918 75.428 80.8967 75.5385 80.8542 75.6628C80.8116 75.7871 80.7478 75.8976 80.6628 76.0219C80.5777 76.1463 80.4926 76.2706 80.3863 76.3949C80.28 76.5192 80.1737 76.6436 80.0673 76.7679L79.2167 77.7348C79.323 77.6658 79.4293 77.6105 79.5357 77.5553C79.642 77.5 79.7483 77.4586 79.8334 77.4171L80.6415 77.1132C80.7478 77.0718 80.8117 77.0718 80.8755 77.0856C80.9392 77.0994 80.9605 77.1409 80.9605 77.2099V77.5967L77.9194 78.7294Z" fill="#464646"/>
<path d="M96.442 39.1531L39.7041 60.4675V59.5144L96.442 38.2V39.1531Z" fill="#BEC9C8"/>
<path d="M93.9745 17.6868L84.9364 14.3024C84.7238 14.2195 84.4473 14.2195 84.2771 14.2886H84.2559L80.832 15.5733V15.5871L81.3425 16.5679V22.9774C81.3425 23.4332 81.704 23.8615 82.3207 24.0825L90.5294 27.1491L91.295 27.7569C91.3588 27.7569 91.38 27.7431 91.4226 27.7154L94.6125 26.5413C94.6125 26.5413 94.6337 26.5413 94.6763 26.5275C94.8889 26.4446 95.0165 26.3065 95.0165 26.1269V18.7918C94.974 18.336 94.5912 17.894 93.9745 17.6868ZM85.3404 22.6044C84.9789 22.4663 84.745 22.19 84.745 21.9137L84.7238 17.894L89.6575 19.745C90.019 19.8831 90.253 20.1318 90.253 20.4357L90.2742 24.4554L85.3404 22.6044Z" fill="url(#paint0_linear_434_17994)"/>
<path d="M91.6141 20.0211C91.6141 19.5653 91.2526 19.1371 90.6359 18.916L81.5978 15.5317C81.3213 15.435 81.0236 15.4488 80.811 15.5732C80.6196 15.6284 80.4707 15.7942 80.4707 15.9599V23.2811C80.4707 23.7508 80.8748 24.1652 81.4702 24.3863L90.5083 27.7706C90.7422 27.8673 91.0612 27.8534 91.2739 27.7567C91.3376 27.7567 91.3589 27.7429 91.4014 27.7153C91.5503 27.6186 91.6354 27.4943 91.6354 27.3562L91.6141 20.0211ZM85.3406 22.6043C84.9791 22.4662 84.7451 22.1899 84.7451 21.9136L84.7239 17.8938L89.6577 19.7449C90.0192 19.883 90.2531 20.1316 90.2531 20.4355L90.2743 24.4553L85.3406 22.6043Z" fill="#7A7A7A"/>
<path d="M90.2956 24.4552V26.0299C90.2956 26.2924 89.8491 26.4582 89.5088 26.32L82.5122 23.7092C82.1082 23.5711 81.9168 23.3086 81.9168 23.0185L81.8955 17.424C81.8955 17.1616 82.3421 16.9958 82.6823 17.134L84.7452 17.9075L84.7664 21.9273C84.7664 22.2035 85.0004 22.4798 85.3619 22.6179L90.2956 24.4552Z" fill="#A9A8A8"/>
<path d="M86.7232 19.8002L79.4927 22.5215L82.0021 25.8229L84.2775 24.9941L89.2964 23.1154L86.7232 19.8002Z" fill="#F16460"/>
<path d="M90.2739 22.7423L90.2952 24.7729L87.7433 25.7122V28.9584L84.2769 25.7951L82.0015 25.8227L90.2739 22.7423Z" fill="#D61F26"/>
<path d="M83.4261 21.5962L74.388 18.2118C74.1754 18.129 73.8989 18.1289 73.7288 18.198H73.7076L70.2837 19.4827V19.4965L70.7941 20.4773V26.8868C70.7941 27.3426 71.1556 27.7709 71.7723 27.9919L79.981 31.0585L80.7466 31.6663C80.8104 31.6663 80.8317 31.6525 80.8742 31.6249L84.0641 30.4507C84.0641 30.4507 84.0854 30.4507 84.1279 30.4369C84.3406 30.354 84.4682 30.2159 84.4682 30.0363V22.7013C84.4257 22.3836 85.7229 22.4112 83.4261 21.5962ZM74.7921 26.5138C74.4306 26.3757 74.1754 26.0994 74.1754 25.8231L74.1541 21.8033L79.0879 23.6544C79.4494 23.7925 79.6833 24.0412 79.6833 24.3451L79.7046 28.3648L74.7921 26.5138Z" fill="url(#paint1_linear_434_17994)"/>
<path d="M81.0448 23.9307C81.0448 23.4748 80.6833 23.0466 80.0666 22.8256L71.0285 19.4413C70.752 19.3446 70.4543 19.3584 70.2416 19.4827C70.0502 19.538 69.9014 19.7037 69.9014 19.8833V27.2045C69.9014 27.6742 70.3054 28.0886 70.9009 28.3096L79.939 31.6939C80.1729 31.7906 80.4919 31.7769 80.7045 31.6802C80.7683 31.6802 80.7896 31.6664 80.8321 31.6387C80.981 31.542 81.0661 31.4177 81.0661 31.2796L81.0448 23.9307ZM74.7925 26.5138C74.431 26.3757 74.1758 26.0994 74.1758 25.8232L74.1546 21.8034L79.0883 23.6544C79.4499 23.7925 79.6838 24.0412 79.6838 24.3451L79.705 28.3649L74.7925 26.5138Z" fill="#7A7A7A"/>
<path d="M79.7258 28.3648V29.9396C79.7258 30.2021 79.2792 30.3678 78.939 30.2297L71.9424 27.6189C71.5384 27.4808 71.347 27.2183 71.347 26.9283L71.3257 21.3337C71.3257 21.0713 71.7723 20.9055 72.1126 21.0436L74.1753 21.8172L74.1966 25.837C74.1966 26.1132 74.4306 26.3895 74.8134 26.5276L79.7258 28.3648Z" fill="#A9A8A8"/>
<path d="M76.2814 23.7096L68.9233 26.4309L71.4327 29.7324L73.7082 28.9035L78.727 27.0249L76.2814 23.7096Z" fill="#F16460"/>
<path d="M79.6626 26.7211L79.7264 28.6826L77.1744 29.6219V32.8682L73.7081 29.7048L71.4326 29.7325L79.6626 26.7211Z" fill="#D61F26"/>
<path d="M72.9432 25.5465L63.9051 22.1622C63.6925 22.0793 63.416 22.0793 63.2459 22.1483H63.2246L59.8008 23.433V23.4468L60.3111 24.4276V30.8371C60.3111 31.293 60.6727 31.7212 61.2894 31.9422L69.4981 35.0088L70.2637 35.6166C70.3275 35.6166 70.3487 35.6028 70.3913 35.5752L73.5812 34.4011C73.5812 34.4011 73.6024 34.401 73.645 34.3872C73.8576 34.3043 73.9852 34.1662 73.9852 34.0004V26.6654C73.9427 26.1958 73.5599 25.7675 72.9432 25.5465ZM64.3092 30.4642C63.9477 30.326 63.7137 30.0498 63.7137 29.7735L63.6924 25.7537L68.6262 27.6047C68.9877 27.7429 69.2216 28.0053 69.2216 28.2954L69.2429 32.3152L64.3092 30.4642Z" fill="url(#paint2_linear_434_17994)"/>
<path d="M70.5824 27.8949C70.5824 27.4391 70.2209 27.0109 69.6042 26.7899L60.5661 23.4055C60.2896 23.3088 59.9919 23.3226 59.7792 23.4469C59.5878 23.5022 59.439 23.668 59.439 23.8337V31.155C59.439 31.6246 59.843 32.039 60.4385 32.26L69.4766 35.6444C69.7105 35.7411 70.0295 35.7273 70.2422 35.6306C70.306 35.6306 70.3272 35.6168 70.3698 35.5891C70.5186 35.4924 70.6037 35.3681 70.6037 35.23L70.5824 27.8949ZM64.3089 30.4643C63.9474 30.3261 63.7135 30.0499 63.7135 29.7736L63.6922 25.7538L68.6259 27.6049C68.9875 27.743 69.2214 28.0054 69.2214 28.2955L69.2427 32.3153L64.3089 30.4643Z" fill="#7A7A7A"/>
<path d="M69.2643 32.3153V33.8901C69.2643 34.1525 68.8177 34.3183 68.4775 34.1802L61.481 31.5694C61.0769 31.4312 60.8855 31.1688 60.8855 30.8787L60.8643 25.2842C60.8643 25.0217 61.3108 24.8559 61.6511 24.9941L63.7139 25.7677L63.7352 29.7874C63.7352 30.0637 63.9691 30.3399 64.3306 30.4781L69.2643 32.3153Z" fill="#A9A8A8"/>
<path d="M65.6914 27.6737L58.4609 30.3812L60.9703 33.6965L63.2458 32.8676L68.2646 30.9752L65.6914 27.6737Z" fill="#F16460"/>
<path d="M69.2423 30.6437L69.2635 32.6328L66.7116 33.5722V36.8322L63.2452 33.655L60.9697 33.6965L69.2423 30.6437Z" fill="#D61F26"/>
<path d="M62.4369 29.5111L53.3988 26.1267C53.1861 26.0439 52.9097 26.0439 52.7395 26.1129H52.7182L49.2944 27.3976V27.4114L49.8048 28.3922V34.8017C49.8048 35.2575 50.1663 35.6858 50.783 35.9068L58.9918 38.9734L59.7573 39.5812C59.8211 39.5812 59.8424 39.5674 59.885 39.5398L63.0749 38.3656C63.0749 38.3656 63.0962 38.3656 63.1387 38.3518C63.3513 38.2689 63.4789 38.1308 63.4789 37.9512V30.6162C63.4364 30.1603 63.0323 29.7321 62.4369 29.5111ZM53.8028 34.4287C53.4413 34.2906 53.1861 34.0143 53.1861 33.7381L53.1649 29.7183L58.0986 31.5693C58.4601 31.7074 58.694 31.9561 58.694 32.26L58.7153 36.2798L53.8028 34.4287Z" fill="url(#paint3_linear_434_17994)"/>
<path d="M60.0761 31.8594C60.0761 31.4036 59.7145 30.9753 59.0978 30.7543L50.0597 27.37C49.7833 27.2733 49.4855 27.2871 49.2729 27.4114C49.0815 27.4667 48.9326 27.6324 48.9326 27.812V35.1333C48.9326 35.6029 49.3367 36.0173 49.9321 36.2383L58.9702 39.6227C59.2041 39.7194 59.5232 39.7056 59.7358 39.6089C59.7996 39.6089 59.8209 39.5951 59.8634 39.5674C60.0123 39.4707 60.0973 39.3464 60.0973 39.2083L60.0761 31.8594ZM53.8026 34.4288C53.441 34.2906 53.1858 34.0144 53.1858 33.7381L53.1646 29.7183L58.0983 31.5693C58.4598 31.7075 58.6937 31.9561 58.6937 32.26L58.715 36.2798L53.8026 34.4288Z" fill="#7A7A7A"/>
<path d="M58.7366 36.2798V37.8545C58.7366 38.117 58.29 38.2827 57.9497 38.1446L50.9532 35.5338C50.5491 35.3957 50.3577 35.147 50.3577 34.8431L50.3364 29.2486C50.3364 28.9862 50.783 28.8204 51.1233 28.9586L53.1861 29.7321L53.2074 33.7519C53.2074 34.0282 53.4413 34.3044 53.8241 34.4426L58.7366 36.2798Z" fill="#A9A8A8"/>
<path d="M55.1643 31.6385L47.9551 34.346L50.4432 37.6613L52.7399 36.8324L57.7588 34.94L55.1643 31.6385Z" fill="#F16460"/>
<path d="M58.7366 34.5807V36.5975L56.1847 37.5368V40.7968L52.7396 37.6197L50.4429 37.6611L58.7366 34.5807Z" fill="#D61F26"/>
<path d="M51.805 33.5448L42.7669 30.1604C42.5543 30.0776 42.2778 30.0776 42.1077 30.1466H42.0864L38.6626 31.4313V31.4451L39.173 32.4259V38.8354C39.173 39.2913 39.5345 39.7195 40.1512 39.9405L48.3599 43.0071L49.1255 43.6149C49.1893 43.6149 49.2106 43.6011 49.2531 43.5735L52.4431 42.3993C52.4431 42.3993 52.4643 42.3993 52.5068 42.3855C52.7195 42.3026 52.847 42.1645 52.847 41.9849V34.6499C52.8045 34.194 52.4217 33.7658 51.805 33.5448ZM43.171 38.4624C42.8095 38.3243 42.5543 38.048 42.5543 37.7717L42.533 33.752L47.4667 35.603C47.8283 35.7412 48.0622 35.9898 48.0622 36.2937L48.0835 40.3135L43.171 38.4624Z" fill="url(#paint4_linear_434_17994)"/>
<path d="M49.4443 35.8932C49.4443 35.4374 49.0827 35.0092 48.466 34.7881L39.4279 31.4038C39.1514 31.3071 38.8537 31.3209 38.641 31.4452C38.4497 31.5005 38.3008 31.6663 38.3008 31.8458V39.167C38.3008 39.6367 38.7048 40.0511 39.3003 40.2722L48.3384 43.6565C48.5723 43.7532 48.8913 43.7393 49.104 43.6426C49.1678 43.6426 49.1891 43.6288 49.2316 43.6012C49.3804 43.5045 49.4655 43.3802 49.4655 43.2421L49.4443 35.8932ZM43.1707 38.4625C42.8092 38.3244 42.554 38.0481 42.554 37.7719L42.5328 33.7521L47.4665 35.6031C47.828 35.7413 48.0619 35.9899 48.0619 36.2938L48.0832 40.3136L43.1707 38.4625Z" fill="#7A7A7A"/>
<path d="M48.1047 40.3133V41.888C48.1047 42.1504 47.6581 42.3162 47.3179 42.1781L40.3213 39.5673C39.9173 39.4292 39.7259 39.1667 39.7259 38.8766L39.7046 33.2821C39.7046 33.0196 40.1512 32.8539 40.4914 32.992L42.5542 33.7656L42.5755 37.7853C42.5755 38.0616 42.8095 38.3379 43.1923 38.476L48.1047 40.3133Z" fill="#A9A8A8"/>
<path d="M44.5315 35.672L37.3223 38.3795L39.8104 41.6948L42.1071 40.8659L47.126 38.9873L44.5315 35.672Z" fill="#F16460"/>
<path d="M48.1043 38.573V40.6312L45.5736 41.5844V44.8306L42.1073 41.6535L39.8105 41.6949L48.1043 38.573Z" fill="#D61F26"/>
<path d="M39.7039 59.5141L34.0684 57.3454V39.5673L39.7039 41.736V59.5141Z" fill="#921A1C"/>
<path d="M99.1636 99.2144L157.092 77.4027V7.06372L99.1636 28.8755V99.2144Z" fill="#C8974B"/>
<path d="M99.1855 99.2146L94.8472 97.6122V27.2732L99.1855 28.8756V99.2146Z" fill="#AB7934"/>
<path d="M157.093 7.04986L152.755 5.4613L94.8472 27.273L99.1855 28.8754L157.093 7.04986Z" fill="#EBC16C"/>
<path d="M143.185 28.1159L106.331 63.6445C105.119 64.1971 104.055 63.7688 103.949 62.6775L101.269 32.1495C101.163 31.0582 102.056 29.7183 103.268 29.1657L122.259 20.6565C123.471 20.104 124.534 20.5322 124.641 21.6235L145.184 25.1183C145.29 26.2234 144.397 27.5633 143.185 28.1159Z" fill="#B4B4B4"/>
<path d="M122.706 84.3373L103.8 91.7C102.588 92.1005 101.652 91.4928 101.716 90.3324L104.566 42.3577C104.629 41.1973 105.65 39.9403 106.862 39.5259L143.164 61.3376C144.376 60.937 145.311 61.5448 145.248 62.7052L125.002 81.5055C124.939 82.6658 123.918 83.9367 122.706 84.3373Z" fill="#B4B4B4"/>
<path d="M153.988 35.8101C153.988 35.8101 155.434 50.1762 154.541 61.6692C154.392 63.5616 153.839 69.7502 153.605 72.3886C153.542 73.1069 152.967 73.8942 152.244 74.281C148.565 76.2287 137.188 81.9614 123.535 86.2712C106.841 91.5481 120.047 77.1404 120.047 77.1404L153.988 35.8101Z" fill="#B4B4B4"/>
<path d="M154.051 37.3436C154.051 37.3436 154.881 58.1608 153.669 65.0952L152.69 70.6207C152.542 71.4909 151.882 72.375 151.032 72.8861C147.523 74.9582 137.804 80.3317 124.619 84.5034C107.925 89.7802 119.005 75.5521 119.005 75.5521L154.051 37.3436Z" fill="#D7D6D6"/>
<path d="M155.838 71.2834C155.838 72.8996 154.562 74.3915 152.457 75.2342C152.457 75.2342 141.505 78.7981 125.151 85.7601C120.792 87.6112 110.159 92.5703 110.159 92.5703C108.393 93.2471 106.969 92.4598 106.947 90.8159C106.947 90.8159 104.821 72.43 104.608 65.2745C104.374 57.1383 103.864 29.5663 103.864 29.5663C103.864 27.9225 105.267 26.03 107.032 25.3531L151.096 8.38999C152.861 7.71312 154.286 8.50048 154.307 10.1443C154.307 10.1443 154.775 40.3547 155.009 49.3612C155.136 55.6602 155.838 71.2834 155.838 71.2834Z" fill="url(#paint5_linear_434_17994)"/>
<path d="M110.308 44.8441L133.488 36.2382V34.1523L110.308 42.7583V44.8441Z" fill="#595A5A"/>
<path d="M110.308 49.1953L133.488 40.5894V38.5035L110.308 47.0956V49.1953Z" fill="#595A5A"/>
<path d="M110.308 59.7351L133.488 51.1292V49.0433L110.308 57.6354V59.7351Z" fill="#595A5A"/>
<path d="M110.308 64.0726L133.488 55.4805V53.3809L110.308 61.9867V64.0726Z" fill="#595A5A"/>
<path d="M135.614 17.7692L121.131 23.1151L117.984 14.4677C117.878 14.1638 118.197 13.708 118.643 13.556L138.293 6.30385C138.74 6.13809 139.059 6.35912 138.952 6.7459L135.614 17.7692Z" fill="#2D2D2C"/>
<path d="M137.379 18.7504L122.897 24.0962L119.75 15.4489C119.643 15.145 119.962 14.6892 120.409 14.5372L140.059 7.28506C140.505 7.1193 140.824 7.34028 140.718 7.72706L137.379 18.7504Z" fill="#4B4B4B"/>
<path d="M138.081 17.9355L133.891 19.4826C133.636 19.5793 133.445 19.4827 133.445 19.2893V18.0737C133.445 17.8803 133.636 17.6316 133.891 17.5487L138.081 16.0016C138.655 15.7944 139.123 15.9878 139.123 16.4575V16.7337C139.123 17.1896 138.655 17.7283 138.081 17.9355Z" fill="#2D2D2C"/>
<path d="M125.406 21.9964C125.406 21.9964 128.213 21.5681 128.447 20.3525C128.681 19.1369 126.767 16.8577 126.597 14.7718C126.427 12.686 126.852 11.4704 127.49 9.71603C128.128 7.9617 128.617 6.78754 127.682 6.99474C126.746 7.20195 124.003 8.12748 124.322 6.11069C124.641 4.0939 127.767 2.11856 130.51 1.11016C133.232 0.10177 136.613 -0.00874251 136.911 1.19304C137.23 2.39483 135.933 3.77618 135.061 4.16297C134.189 4.54975 132.19 5.24043 132.403 5.88967C132.594 6.53891 134.21 9.42598 134.061 11.65C133.913 13.874 132.828 16.2223 132.509 17.5069C132.19 18.7916 132.36 19.4409 134.189 18.764C136.018 18.0871 136.124 18.9712 136.124 18.9712L134.87 19.206C134.87 19.206 131.807 20.5874 131.467 19.3994C131.127 18.2114 131.616 17.4517 132.19 15.8493C132.785 14.2469 133.827 11.65 133.062 9.60554C132.296 7.56112 131.148 6.40077 131.977 5.24043C132.785 4.08008 134.955 4.13534 135.678 3.16838C136.401 2.20143 136.656 1.63508 135.827 1.11016C134.976 0.585247 134.146 0.405678 130.638 1.59365C127.129 2.78162 125.342 4.67407 125.045 5.54433C124.726 6.40077 125.13 7.27105 126.767 6.8152C128.405 6.34554 129.638 5.91728 128.809 8.0722C128.001 10.2271 126.618 13.3076 127.66 15.5316C128.702 17.7556 129.574 19.0264 129.255 20.1591C128.936 21.2918 128.447 21.6787 125.917 22.4384C123.343 23.212 125.406 21.9964 125.406 21.9964Z" fill="#C6C5C5"/>
<path d="M120.111 24.5795L124.301 23.0324C124.556 22.9357 124.747 22.7009 124.747 22.5075V21.2919C124.747 21.0985 124.556 21.0018 124.301 21.0985L120.111 22.6456C119.537 22.8528 119.069 23.4054 119.069 23.8612V24.1375C119.069 24.5933 119.537 24.7867 120.111 24.5795Z" fill="#2D2D2C"/>
<path d="M139.527 18.2116L135.337 19.7587C135.082 19.8554 134.891 19.7587 134.891 19.5653V18.3497C134.891 18.1563 135.082 17.9077 135.337 17.8248L139.527 16.2776C140.101 16.0704 140.569 16.2638 140.569 16.7335V17.0097C140.569 17.4518 140.101 17.9905 139.527 18.2116Z" fill="#757575"/>
<path d="M121.536 24.842L125.725 23.2948C125.98 23.1981 126.172 22.9633 126.172 22.7699V21.5543C126.172 21.3609 125.98 21.2642 125.725 21.3609L121.536 22.9081C120.961 23.1153 120.494 23.6678 120.494 24.1237V24.3999C120.515 24.8558 120.961 25.0492 121.536 24.842Z" fill="#757575"/>
<path d="M149.309 28.3647L138.782 32.3569V41.5154L149.309 37.537V28.3647Z" stroke="#757575" stroke-width="0.2501" stroke-miterlimit="10"/>
<path d="M149.309 43.8219L138.782 47.8141V56.9725L149.309 52.9942V43.8219Z" stroke="#757575" stroke-width="0.2501" stroke-miterlimit="10"/>
<path d="M149.309 59.2794L138.782 63.2716V72.4162L149.309 68.4517V59.2794Z" stroke="#757575" stroke-width="0.2501" stroke-miterlimit="10"/>
<path d="M147.608 25.4222L143.801 34.3044L140.42 33.0197L139.187 35.1608L145.481 37.8407L150.309 26.6792L147.608 25.4222Z" fill="#609540"/>
<path d="M147.608 41.5013L143.801 50.3835L140.42 49.0988L139.187 51.2399L145.481 53.9198L150.309 42.7584L147.608 41.5013Z" fill="#609540"/>
<path d="M147.608 57.083L143.801 65.979L140.42 64.6943L139.187 66.8354L145.481 69.5153L150.309 58.3539L147.608 57.083Z" fill="#609540"/>
<path d="M110.308 76.9193L133.488 68.3272V66.2275L110.308 74.8334V76.9193Z" fill="#595A5A"/>
<path d="M110.308 81.2708L133.488 72.6787V70.579L110.308 79.1849V81.2708Z" fill="#595A5A"/>
<defs>
<linearGradient id="paint0_linear_434_17994" x1="96.5237" y1="29.8962" x2="87.9621" y2="8.02462" gradientUnits="userSpaceOnUse">
<stop offset="0.1748" stop-color="#908F8F"/>
<stop offset="0.1807" stop-color="#AAAAAA"/>
<stop offset="0.5343" stop-color="#AAAAAA"/>
<stop offset="0.5387" stop-color="#ACABAB"/>
<stop offset="0.5403" stop-color="#B1B1B1"/>
<stop offset="0.5414" stop-color="#BBBBBA"/>
<stop offset="0.5421" stop-color="#C7C6C5"/>
</linearGradient>
<linearGradient id="paint1_linear_434_17994" x1="86.1216" y1="33.7407" x2="77.5602" y2="11.8692" gradientUnits="userSpaceOnUse">
<stop offset="0.1748" stop-color="#908F8F"/>
<stop offset="0.1807" stop-color="#AAAAAA"/>
<stop offset="0.5343" stop-color="#AAAAAA"/>
<stop offset="0.5387" stop-color="#ACABAB"/>
<stop offset="0.5403" stop-color="#B1B1B1"/>
<stop offset="0.5414" stop-color="#BBBBBA"/>
<stop offset="0.5421" stop-color="#C7C6C5"/>
</linearGradient>
<linearGradient id="paint2_linear_434_17994" x1="75.49" y1="37.7619" x2="66.9285" y2="15.8902" gradientUnits="userSpaceOnUse">
<stop offset="0.1748" stop-color="#908F8F"/>
<stop offset="0.1807" stop-color="#AAAAAA"/>
<stop offset="0.5343" stop-color="#AAAAAA"/>
<stop offset="0.5387" stop-color="#ACABAB"/>
<stop offset="0.5403" stop-color="#B1B1B1"/>
<stop offset="0.5414" stop-color="#BBBBBA"/>
<stop offset="0.5421" stop-color="#C7C6C5"/>
</linearGradient>
<linearGradient id="paint3_linear_434_17994" x1="64.972" y1="41.7258" x2="56.4104" y2="19.8542" gradientUnits="userSpaceOnUse">
<stop offset="0.1748" stop-color="#908F8F"/>
<stop offset="0.1807" stop-color="#AAAAAA"/>
<stop offset="0.5343" stop-color="#AAAAAA"/>
<stop offset="0.5387" stop-color="#ACABAB"/>
<stop offset="0.5403" stop-color="#B1B1B1"/>
<stop offset="0.5414" stop-color="#BBBBBA"/>
<stop offset="0.5421" stop-color="#C7C6C5"/>
</linearGradient>
<linearGradient id="paint4_linear_434_17994" x1="54.3455" y1="45.7629" x2="45.7839" y2="23.8913" gradientUnits="userSpaceOnUse">
<stop offset="0.1748" stop-color="#908F8F"/>
<stop offset="0.1807" stop-color="#AAAAAA"/>
<stop offset="0.5343" stop-color="#AAAAAA"/>
<stop offset="0.5387" stop-color="#ACABAB"/>
<stop offset="0.5403" stop-color="#B1B1B1"/>
<stop offset="0.5414" stop-color="#BBBBBA"/>
<stop offset="0.5421" stop-color="#C7C6C5"/>
</linearGradient>
<linearGradient id="paint5_linear_434_17994" x1="129.679" y1="19.5205" x2="151.7" y2="76.7165" gradientUnits="userSpaceOnUse">
<stop offset="0.1143" stop-color="#F7F8F8"/>
<stop offset="0.4275" stop-color="#FAFBFC"/>
<stop offset="0.9133" stop-color="white"/>
</linearGradient>
</defs>
</svg>
