<svg width="62" height="75" viewBox="0 0 62 75" fill="none" xmlns="http://www.w3.org/2000/svg">
<path d="M61.5 53.0218C61.5 43.6326 53.944 37.8814 46.8251 36.2109C54.303 34.0781 60.3243 28.1221 60.3243 20.389C60.3243 14.3966 57.7047 9.398 52.7641 5.91535C47.8418 2.44564 40.6474 0.5 31.5 0.5C18.2232 0.5 8.67778 5.31959 2.5897 12.1089L2.31124 12.4194L2.5668 12.749L11.4382 24.1917L11.7653 24.6136L12.1649 24.2596C17.0976 19.8901 23.1792 17.6045 29.5761 17.6045C32.9597 17.6045 35.8649 18.1042 37.9048 19.1153C39.924 20.1161 41.0471 21.5842 41.0471 23.5675C41.0471 24.3944 40.8169 25.0974 40.3773 25.6972C39.9336 26.3025 39.2575 26.828 38.3301 27.2595C36.4643 28.1276 33.6649 28.5769 30.0036 28.5769C27.315 28.5769 21.7867 28.5765 20.4221 28.4724L19.8841 28.4314V28.971V45.1814V45.7334L20.4334 45.679C20.9387 45.6289 22.5386 45.602 24.4358 45.5887C26.3176 45.5755 28.4535 45.5755 30.0036 45.5755C34.8588 45.5755 37.9357 46.0557 39.7874 46.9797C40.6991 47.4347 41.2961 47.9889 41.6708 48.6342C42.0473 49.2826 42.2228 50.0635 42.2228 51.0087C42.2228 52.7681 41.3221 54.3404 39.4416 55.4962C37.5441 56.6623 34.6534 57.3955 30.7518 57.3955C24.6507 57.3955 16.6637 54.9893 11.6472 50.1202L11.2397 49.7247L10.8989 50.1789L1.60003 62.5751L1.3569 62.8993L1.62358 63.2043C7.29751 69.694 17.7099 74.5 31.5 74.5C40.446 74.5 47.9313 72.3371 53.1947 68.5659C58.4695 64.7867 61.5 59.397 61.5 53.0218Z" fill="white" stroke="#FEEDEE"/>
</svg>
