<svg width="62" height="75" viewBox="0 0 62 75" fill="none" xmlns="http://www.w3.org/2000/svg">
<path d="M61 74.5H61.5V74V57.8257V57.3257H61H36.1689C53.2274 45.2665 60.9587 35.9422 60.9587 24.938C60.9587 17.5591 57.8296 11.4327 52.5315 7.16134C47.2421 2.89704 39.8167 0.5 31.2294 0.5C21.0601 0.5 9.43538 4.09167 1.63091 12.6317L1.33593 12.9545L1.61651 13.2898L11.9009 25.5823L12.2397 25.9873L12.6257 25.6269C17.7459 20.8456 23.6908 17.89 31.5541 17.89C34.1333 17.89 36.5159 18.5203 38.2382 19.7148C39.9445 20.8982 41.0138 22.6384 41.0138 24.938C41.0138 26.6358 40.6684 28.1939 39.6772 29.9317C38.6773 31.6847 37.0117 33.6356 34.3414 36.0943C28.9963 41.016 19.7419 47.8704 4.08941 59.1453L3.88165 59.2949V59.551V74V74.5H4.38165H61Z" fill="white" stroke="#ECF0F7"/>
</svg>
