<svg width="112" height="96" viewBox="0 0 112 96" fill="none" xmlns="http://www.w3.org/2000/svg">
<path d="M100.947 29.1794C99.2911 22.0389 95.2589 15.6571 89.5919 10.6926C83.5854 5.43086 75.7508 1.77372 66.9918 0.50286C64.7511 0.178288 62.4582 0 60.113 0C39.7588 0 22.8256 12.7771 19.1852 29.664C18.8875 31.0537 18.6785 32.4663 18.5636 33.9063C18.4957 34.752 18.4487 35.6069 18.4487 36.4663C18.4487 49.3303 26.0639 60.6308 37.5599 67.1223C44.0626 70.7931 51.7979 72.9326 60.1078 72.9326C83.1153 72.9326 101.772 56.608 101.772 36.4663C101.777 33.9657 101.49 31.5291 100.947 29.1794Z" fill="#3E73B9"/>
<path d="M100.012 25.943C98.7058 22.711 94.7885 13.8973 86.2489 8.07328C82.7442 7.68014 81.1355 9.48128 76.8474 13.9018C73.327 17.527 70.4021 19.3556 65.0172 19.5018C63.0742 19.5521 56.8796 15.5293 54.0853 14.6104C50.2673 13.3579 47.849 15.5613 45.2218 17.5224C42.7461 19.3693 39.9517 20.8184 39.7898 24.5304C39.7376 25.8058 41.3463 26.6379 41.7537 28.3201C42.4118 31.031 42.2081 34.6699 43.8168 36.3064C48.178 40.7407 52.158 44.2379 56.0648 51.1498C58.3943 55.2687 62.0766 53.6276 67.5921 53.6504C71.4363 53.6687 78.3255 56.8504 81.7727 54.5327C84.8909 52.439 85.6587 47.5521 87.7897 45.4264C89.7796 43.4424 91.9524 40.471 92.13 36.663C92.3755 31.2276 95.3683 29.4264 100.012 25.943Z" fill="#2350A3"/>
<path d="M42.3494 55.3738C42.3494 53.3532 41.1429 52.9601 43.838 50.9075C45.5355 49.6138 45.875 45.3807 41.2891 43.7212C39.1529 42.9487 35.0633 41.7784 32.9793 41.4584C29.1455 40.8732 28.0853 38.9258 24.6798 37.9795C22.3921 37.3441 20.6633 37.1521 18.4487 38.4687C20.4387 58.7658 35.7005 67.0629 45.2952 70.2858C45.4989 70.3407 46.7054 65.5361 45.9742 63.671C43.838 58.2492 42.3494 60.1738 42.3494 55.3738Z" fill="#2350A3"/>
<path d="M66.2236 60.0045C63.0375 59.6936 57.0049 55.3736 54.5448 58.3953C52.3512 61.0879 58.6032 66.153 61.2042 67.0536C63.8628 67.9725 66.7929 67.5565 69.3522 66.5736C71.4728 65.7599 75.2647 64.3199 75.8758 62.0707C76.7272 58.9622 69.6969 60.3427 66.2236 60.0045Z" fill="#2350A3"/>
<path d="M41.1898 3.9729C40.8816 7.0129 40.1242 13.39 37.45 13.806C32.3367 14.6015 31.7256 9.77861 31.7256 9.77861C31.7256 9.77861 36.2017 6.03919 41.1898 3.9729Z" fill="#2350A3"/>
<path d="M84.5411 53.353C84.9015 52.0227 82.1959 51.3416 80.6238 51.8307C79.2919 52.2421 77.9914 53.0833 77.0356 53.8604C75.688 54.9576 75.1866 56.2558 73.4787 57.161C71.5566 58.1804 69.3211 59.2547 66.8245 58.6833C65.1583 58.3039 63.9309 57.9518 62.3379 58.5781C60.5255 59.2958 59.1518 60.0547 57.0052 60.2238C55.9344 60.3107 54.9368 60.1598 53.8765 60.1096C53.3438 60.0821 52.8319 60.0593 52.3775 60.3016C50.6853 61.2067 50.9986 63.8216 52.5708 64.7587C53.1401 65.097 53.8452 65.2433 54.519 65.4078C55.6837 65.6958 56.4202 66.1438 57.3551 66.7518C58.734 67.6478 60.3531 68.1964 62.0663 68.6398C64.5211 69.2753 67.9997 70.2307 69.9374 68.4981C71.0238 67.529 71.5096 66.1987 72.4811 65.1564C73.604 63.9541 74.9724 62.8844 76.5341 61.9884C78.2369 61.0147 80.091 60.4067 82.0497 59.7667C83.3555 59.3416 84.6873 58.8159 85.3245 57.8284C85.8834 56.9781 85.7424 54.409 84.5411 53.353Z" fill="#E7F2FB"/>
<path d="M90.1921 12.7951C90.0668 11.8534 88.8237 11.2819 87.988 10.6785C85.5854 8.9368 81.6368 6.12537 80.8272 5.81451C78.7798 5.03737 77.5732 6.24422 77.6881 7.07165C77.7926 7.82593 80.1482 7.07165 80.284 8.54822C80.3728 9.51737 82.2218 11.1037 80.425 11.6842C79.2394 12.0682 77.6673 11.2819 76.5286 11.2682C75.1027 11.2499 73.7134 11.5379 72.5487 12.2831C70.8982 13.3345 71.2533 14.5185 72.5017 15.6934C72.8934 16.0637 73.541 16.5071 73.6455 17.0328C73.7552 17.5677 73.2642 17.9882 73.3217 18.5048C73.3478 18.7425 73.541 18.9254 73.6142 19.1357C74.1678 20.6305 73.6821 20.6122 72.815 21.5448C71.7234 22.7242 71.9637 24.2511 73.9171 24.5254C74.5909 24.6214 75.3169 24.4568 75.9854 24.3745C77.3173 24.2099 78.5186 24.2419 79.8453 24.4522C81.3391 24.6854 82.2688 24.7676 83.6738 24.1459C85.3921 23.3871 88.7245 21.8282 88.479 19.7939C88.4059 19.1997 87.9619 18.6922 87.8783 18.1117C87.6694 16.6854 88.667 16.3837 89.3982 15.4785C90.0354 14.6922 90.3175 13.7551 90.1921 12.7951Z" fill="#E7F2FB"/>
<path d="M100.205 26.5097C99.5626 23.9589 97.8338 18.8343 94.9402 16.672C94.3918 17.5543 93.1852 17.5543 93.6397 21.0514C92.7256 22.0937 90.6051 22.4457 90.2238 23.7211C87.0221 23.136 86.0558 26.1806 85.3455 27.1177C84.3688 28.4114 82.7862 28.9874 81.0103 28.5394C80.0023 28.2834 79.0882 28.0229 78.0332 27.9451C76.6386 27.8491 75.2075 27.936 73.8286 27.6617C72.7109 27.4377 71.682 26.8571 70.5329 26.7657C69.3002 26.6697 67.2998 27.8354 67.2998 28.9371C67.2946 30.9486 70.5486 29.9246 71.4365 30.8114C72.0058 31.3829 71.964 32.1463 72.4132 33.4263C72.7057 34.2583 72.7422 35.0949 73.1496 35.7989C73.6093 36.5897 75.359 36.8823 76.2156 37.0926C77.678 37.4583 79.1614 37.5086 80.582 36.9737C82.1019 36.3977 83.3711 35.3326 84.6351 34.4183C86.0767 33.3714 87.8003 32.384 89.0329 31.1406C89.6806 30.4823 90.1193 29.6411 89.8791 28.7634C89.7433 28.256 89.221 27.8629 88.7039 27.488C88.7091 27.3463 88.73 27.2046 88.777 27.0674C88.9285 26.6194 89.268 26.2309 89.7119 25.9794C90.4432 25.568 91.2736 25.5726 92.0989 25.6229C92.9659 25.9566 93.3054 26.5006 93.8643 27.3692C94.8671 28.9372 95.6975 30.5874 96.3452 32.2926C96.6534 33.0926 96.763 34.56 97.7136 35.0263C98.5389 35.4286 100.017 34.7703 100.017 33.4811C100.012 30.7337 100.701 28.4846 100.205 26.5097Z" fill="#E7F2FB"/>
<path d="M100.633 39.8402C100.519 39.0905 100.2 38.4139 100.007 37.687C99.7769 36.8322 99.9022 35.9865 99.803 35.1225C99.5993 33.3762 99.0091 30.7202 96.6065 30.4688C96.408 30.4459 96.1834 30.615 96.1416 30.7796C95.9432 31.5796 96.361 32.439 96.7057 33.2756C96.2148 33.3168 95.7238 33.495 95.3477 33.8425C94.3501 34.775 94.4076 36.0505 94.5434 37.2253C94.7158 38.7293 94.7105 40.1282 94.3815 41.5225C94.3919 40.1876 94.1726 38.8619 92.9399 37.9568C91.6707 37.0242 89.733 36.9053 88.5108 37.9613C87.931 38.4642 87.1528 39.7579 88.2914 42.423C87.2363 43.2688 85.5545 44.3065 85.1941 46.1945C84.1391 46.4642 82.123 47.351 80.8799 48.2105C79.7622 48.983 79.0675 49.8242 78.4042 50.9167C77.4275 52.5259 76.2941 53.303 74.2727 53.7602C72.9983 54.0482 71.6925 54.2356 70.486 54.7202C68.7206 55.4242 66.1875 57.879 64.6205 56.4436C63.0432 55.0036 60.9487 54.6013 60.9487 56.599C60.9487 58.2722 62.5261 58.4413 63.4297 59.223C64.6258 60.2607 66.2762 62.167 68.3341 61.783C70.392 61.399 71.9955 59.223 73.2177 59.223C74.1213 59.223 74.325 61.4585 75.4479 62.0253C76.8843 62.7522 78.2736 62.903 80.086 60.9648C80.9478 60.0459 81.5119 59.1042 82.7654 58.4962C83.7996 57.9888 84.9852 57.7556 85.9933 57.1979C87.2938 56.4756 88.0511 55.383 88.6831 54.2082C88.8294 54.295 88.9338 54.4733 89.0122 54.8528C89.2002 55.8036 88.8398 57.0928 88.7667 58.0528C88.7458 58.3545 89.2054 58.6059 89.4979 58.4185C92.099 56.7362 93.7025 54.359 95.353 51.9773C97.2333 49.2665 99.4165 46.5282 100.336 43.4196C100.665 42.2448 100.822 41.0333 100.633 39.8402Z" fill="white"/>
<path d="M52.1009 54.7247C51.8188 53.7555 50.5914 52.2973 49.2543 52.471C48.7163 52.5395 48.5335 52.791 48.2828 53.1841C47.8128 53.9155 47.8545 54.8252 47.3218 55.5384C46.5958 56.5167 45.3788 56.983 43.7022 56.6584C42.3651 56.3978 41.3101 55.4607 40.8452 54.0298C40.349 52.503 40.5318 51.3327 38.7926 50.4321C37.4555 49.7372 35.8885 49.7281 34.4 49.9521C32.7234 50.2035 31.2766 51.223 30.0909 49.8744C28.7225 48.3201 28.4509 47.7807 26.978 47.6664C28.383 46.5235 28.1741 45.3258 27.3541 44.2515C28.2733 44.2195 30.0335 44.1372 30.6864 43.5887C30.9527 43.8218 31.2296 44.0412 31.5168 44.247C33.371 45.5452 35.0581 45.2435 37.1473 44.6401C39.3566 44.0001 42.0099 43.6024 43.2844 41.6778C43.7962 40.9007 44.3603 38.8892 42.924 38.5327C42.1719 38.3452 41.216 38.9533 40.6937 39.3098C39.7379 39.9635 39.0485 40.7681 38.1292 41.2892C36.4996 41.3395 34.9536 41.0013 33.3867 40.4847C31.8981 39.9955 29.6052 39.3372 28.7121 38.0801C28.1741 37.3212 29.4537 33.8333 27.2914 34.4413C25.3954 34.9761 26.1998 36.8138 24.7634 36.471C22.2146 35.863 24.7164 34.263 23.7397 32.3475C23.3323 31.5521 21.7654 30.4413 21.3476 29.655C20.5954 28.2424 22.6899 26.8755 23.0398 25.5772C23.2905 24.6538 22.3713 24.2104 21.1177 24.0321C17.7907 31.3281 17.4512 40.1235 19.3889 43.7533C20.4596 44.9144 23.3166 46.583 25.1343 46.7521C24.3508 47.5384 23.8024 49.9978 26.6907 49.9384C26.3356 51.4332 28.7956 53.1018 30.7073 52.6812C31.6631 53.0607 32.1645 54.0847 32.6189 55.0218C32.8487 55.4972 32.9114 56.0275 33.089 56.5167C33.7366 58.3132 34.8857 58.4733 36.8809 58.4138C39.623 58.3315 41.1429 60.5807 43.885 60.535C46.063 60.503 48.5597 59.4104 50.2885 58.3087C51.6099 57.4538 52.5292 56.2012 52.1009 54.7247Z" fill="#E7F2FB"/>
<path d="M61.2256 18.8294C60.5884 17.2249 60.1131 15.5837 58.6663 14.7654C57.7366 14.2443 56.7076 14.45 56.3629 15.1083C56.2062 15.4054 55.9085 16.1369 56.8173 17.0923C56.0443 16.8546 55.2243 16.4934 54.6602 16.6077C55.1773 15.4557 53.0149 14.322 52.3307 15.3734C51.0302 14.7334 48.9462 14.8523 49.3901 16.5483C49.5468 17.1426 50.2467 17.426 50.8631 17.554C51.8345 17.7506 52.3934 17.6409 52.7538 18.6374C53.0828 19.5517 52.8583 20.2192 52.7695 21.1426C52.6702 22.1574 52.853 22.5963 53.9603 21.9563C54.4356 21.9929 55.9085 22.7563 56.0391 21.7277C56.6502 21.1883 56.8434 20.4797 56.786 19.7666C57.021 20.0089 57.1829 20.2969 57.3292 20.7677C57.5956 21.5906 57.7052 22.5643 57.8097 23.41C58.0082 25.0649 57.9768 26.8477 56.9009 28.2923C56.0861 29.3849 54.7803 31.0443 53.3283 31.3369C51.6726 30.1803 50.3355 29.9837 48.8783 30.2717C47.5673 29.2157 45.9273 30.1391 46.6533 32.0957C46.7577 32.37 47.0398 32.7266 47.4524 33.0237C46.0108 33.3346 44.5797 33.7963 43.1173 33.8603C40.464 33.9746 41.2526 31.4603 39.3306 30.9437C38.8135 30.802 38.0718 30.9711 37.889 31.4831C37.586 32.3014 39.2104 33.4671 39.5917 34.0569C40.2185 35.0214 40.4326 36.082 41.7436 36.4797C42.6942 36.7677 43.3627 36.786 43.9007 36.082C44.5693 35.2089 45.4311 34.8751 46.5645 34.6146C47.1651 34.4774 47.5569 34.4683 48.0426 34.0614C48.2359 33.8969 48.3873 33.7186 48.5022 33.5266C48.8678 33.618 49.27 33.65 49.7088 33.5769C50.3251 34.3403 51.986 34.9711 53.5373 33.7369C55.9399 33.3666 57.5068 33.2706 59.152 31.698C59.9929 30.898 61.2726 29.3437 61.377 28.2466C61.4763 27.2271 60.9592 26.2991 60.8913 25.2889C60.7346 22.9209 62.1657 21.202 61.2256 18.8294Z" fill="white"/>
<path d="M53.6261 11.3098C52.4091 11.1681 51.8555 10.5875 51.0094 9.92005C50.5968 9.59548 50.1998 9.37148 49.6305 9.33491C48.7739 9.28462 48.0322 9.66405 47.5204 10.2172C45.3998 10.1898 43.1957 11.1818 41.6079 12.3338C40.4484 13.1749 39.7276 14.2903 40.1402 15.4241C40.4588 16.3109 41.2632 16.3109 42.0153 17.2801C42.3704 17.7372 43.6031 17.6183 43.3733 16.8595C44.1045 16.1829 43.7128 15.1726 43.6449 14.7841C44.4597 14.3132 45.1961 13.6275 44.4806 13.0241C45.0133 12.4846 45.7498 12.2378 46.5384 12.1555C47.5674 13.0652 48.9515 13.8743 50.8422 13.7281C51.5212 13.6732 52.7173 13.1475 52.8061 12.4709C53.3232 12.5898 53.8037 12.1509 53.9395 11.7943C54.0074 11.6115 53.8559 11.3372 53.6261 11.3098Z" fill="white"/>
<path d="M49.6928 20.32C49.4787 19.2549 48.9407 18.336 48.3923 19.1314C47.52 20.2103 47.8804 20.8092 48.6169 21.4492C48.4602 23.0903 46.9403 23.7029 45.1331 24.2469C43.8743 24.6217 42.2343 25.5955 40.9076 25.5543C39.2676 25.504 38.1707 25.0697 37.6275 23.7212C38.129 23.1223 38.1812 22.3772 37.8156 22.0663C37.9932 21.408 37.1731 21.3623 36.8075 21.4492C35.0526 21.8469 35.0421 23.8537 35.8726 24.8412C34.9325 26.1395 35.8517 27.1452 37.1731 26.9943C36.7187 27.6709 36.8493 28.576 37.1366 28.896C37.5962 29.4126 38.7244 29.3075 39.5078 28.6263C42.135 28.7909 44.5951 28.7726 46.653 27.3874C48.1415 26.3817 50.5912 24.96 50.2047 23.072C50.0793 22.4503 49.9748 22.0892 49.9801 21.4172C50.7531 20.7314 50.0271 20.1829 49.6928 20.32Z" fill="white"/>
<path d="M54.4198 23.904C54.4146 23.8995 54.4198 23.8903 54.4094 23.8858C54.1639 23.6389 53.8453 23.6572 53.6259 23.9406C53.3334 24.3246 53.5319 24.9692 53.3752 25.4035C53.0879 26.1943 52.4089 26.8252 51.5941 27.2275C51.0771 27.4789 49.5989 27.5657 49.3117 28.1189C49.0662 28.5943 49.6407 29.0515 50.1003 29.2023C50.8629 29.4537 51.3487 29.1703 51.9232 28.7909C52.738 28.2515 54.002 28.6263 54.7071 27.9177C54.9839 27.6435 54.9735 27.3646 54.9735 27.0172C54.9735 26.4 55.104 25.8149 55.1406 25.2023C55.1824 24.6629 54.9735 24.1143 54.4198 23.904Z" fill="white"/>
<path d="M46.1465 7.45606C45.384 7.14978 44.8773 6.93034 44.0678 7.1772C43.4619 7.36463 42.8874 7.61606 42.2293 7.76234C41.8219 7.8492 41.4406 7.9452 41.0645 8.11891C39.811 8.70863 36.5205 11.8675 38.3433 11.9818C39.038 12.0275 39.9833 10.3772 41.0488 10.0115C41.357 9.90635 41.5868 9.88805 41.8845 9.74634C42.8195 9.30291 43.4776 8.82291 44.611 8.93263C45.1176 8.98291 45.5929 9.2252 46.1048 9.20691C46.601 9.18863 47.0815 8.97377 47.1859 8.50749C47.3374 7.86749 46.7211 7.68921 46.1465 7.45606Z" fill="white"/>
<path d="M71.8705 11.2556C71.8641 11.2042 71.8641 11.2135 71.8705 11.2556V11.2556Z" fill="white"/>
<path d="M73.0135 9.86065C72.8254 9.18408 71.9793 8.33837 71.5406 7.77152C71.0182 7.10409 70.4959 6.35436 69.8274 5.78293C69.3364 5.36236 68.3179 4.61722 66.4011 5.34408C65.7169 5.60465 65.1632 5.7738 64.4999 6.01608C63.8052 6.26751 63.1628 6.81608 63.9619 7.36465C64.3432 7.62522 64.9229 7.47893 65.3565 7.47436C67.2629 7.45608 67.6389 8.10523 68.344 9.56808C68.7619 10.4321 69.5401 10.7429 69.9632 11.6847C70.1721 12.1555 70.1147 12.5761 70.5586 12.9555C71.2533 13.5498 72.5538 13.5407 72.8777 12.6218C73.05 12.1372 72.6792 11.8355 72.7001 11.3875C72.7314 10.7841 73.191 10.4915 73.0135 9.86065Z" fill="white"/>
<path d="M58.6973 45.7417C57.6997 44.64 55.7515 44.2103 54.6755 45.4537C53.8921 46.3589 54.0017 47.5657 53.0564 48.416C52.4609 48.9554 51.9021 49.3029 51.8342 50.0114C51.8133 50.016 51.7872 50.0251 51.7663 50.0297C51.3171 49.9794 50.9358 49.8606 50.4657 49.9337C49.5099 50.0846 49.0398 50.3863 48.0579 50.0251C47.2536 49.728 46.4701 49.3669 45.6814 49.0423C44.5428 48.5714 42.323 47.1863 41.1217 48.3063C40.5889 48.8046 40.8919 49.1886 40.8553 49.7554C40.7926 50.6469 40.0092 51.232 40.1868 52.16C40.6098 54.3223 43.049 53.3028 44.6107 53.7463C45.7232 54.0663 46.1724 55.2274 47.1178 55.7028C47.7915 56.0411 48.7108 55.7989 49.4264 55.712C50.4814 55.584 51.667 55.5566 52.649 55.1497C53.3959 54.8389 53.9338 54.4777 54.7539 54.2811C55.2971 54.1531 55.8507 54.0754 56.3573 53.8423C58.1018 53.0423 57.7885 51.5154 57.966 50.0571C58.1593 48.4571 60.1597 47.3554 58.6973 45.7417Z" fill="white"/>
<path d="M36.2906 37.5316C36.0555 37.1156 35.5803 36.9876 35.0841 36.9053C34.5774 36.8185 33.0889 37.0013 32.7964 36.6768C32.4046 36.2425 32.9165 35.8859 32.8852 35.4059C32.8538 34.9853 32.6136 34.7019 32.2532 34.4551C31.9137 34.2219 31.4697 34.1671 31.1145 33.9613C30.5713 33.6505 30.4355 33.2116 30.1117 32.7865C29.9185 32.5305 29.6469 32.4025 29.417 32.1831C28.5552 31.3556 28.1949 30.6013 28.1687 29.5042C28.1531 28.8276 28.6493 27.5659 28.2053 26.9213C27.4636 25.8425 25.8445 26.8482 25.4475 27.6665C25.2177 28.1373 25.2073 28.6448 25.4005 29.1248C25.7348 29.9568 26.1004 30.3956 26.0847 31.3922C26.0743 31.8813 25.9385 32.2836 26.0116 32.7956C26.1213 33.5453 26.4713 34.2585 27.0144 34.8482C27.5315 35.4105 27.5524 35.7899 27.7405 36.4711C27.8188 36.7545 27.7613 36.8231 27.9912 37.0836C28.0225 37.1156 28.0538 37.1431 28.0852 37.1751C27.5472 38.3636 27.3383 39.8905 28.8425 40.5808C29.4014 40.8368 30.0177 40.7773 30.5713 40.5625C31.7935 40.0916 32.4621 39.2276 33.9559 39.3191C35.0371 39.3922 37.0375 38.8436 36.2906 37.5316Z" fill="white"/>
<path d="M40.2965 45.5225C39.6436 45.2254 38.8184 45.0471 38.0819 45.0425C37.4708 45.0379 36.4524 45.6368 34.8593 45.1659C34.1803 44.9648 33.7259 44.5762 33.2454 44.1374C32.744 43.6756 32.3052 43.1179 31.6315 42.8345C30.8167 42.4962 29.746 42.4825 29.2028 43.2002C28.5394 44.0779 29.6258 45.1979 29.9131 46.0482C30.2944 47.1774 30.8428 47.5522 32.1277 47.8082C33.6371 48.1099 35.0265 48.8231 36.6456 48.6448C37.8678 48.5122 40.1033 47.9088 40.9024 46.9991C41.4821 46.3271 41.0068 45.8471 40.2965 45.5225Z" fill="white"/>
<path d="M76.0379 39.1725C75.6357 38.3816 74.6642 37.9062 73.7084 38.3176C72.2982 38.9256 73.6875 39.9588 72.5384 41.3942C72.3347 41.6045 72.0997 41.7645 71.9117 41.9976C71.6662 42.2993 71.5565 42.6879 71.2849 42.9713C70.82 43.4605 70.1358 43.593 69.5143 43.8262C68.7151 44.1279 68.0309 44.841 68.7413 45.5268C69.6083 46.3633 71.5565 46.1896 72.5593 45.7279C74.309 44.9188 74.0583 43.4559 75.1708 42.2673C76.0483 41.3302 76.6907 40.4433 76.0379 39.1725Z" fill="white"/>
<path d="M80.1591 23.3966C79.9345 21.2983 78.2057 18.2766 75.3226 18.5143C74.8786 18.5509 74.4817 18.6834 74.1474 18.88C72.9774 18.4686 71.656 18.432 70.8203 19.2732C69.9846 20.1143 69.8749 21.9429 70.0629 22.9897C70.1987 23.7257 70.6218 24.352 70.836 25.0652C71.1702 26.208 70.8151 27.3097 70.3345 28.3749C69.7443 29.6777 68.9348 30.9029 68.496 32.256C67.9476 33.952 68.0468 35.7623 66.0778 36.7406C64.3228 37.6137 60.6823 37.8377 59.9981 39.8857C59.3505 41.8195 63.1424 41.9612 64.4482 41.7097C67.9998 41.024 68.8199 37.5772 71.515 35.8492C74.1056 34.1852 76.7328 33.6823 77.0357 30.5737C77.1715 29.1612 78.8272 28.2606 79.4905 26.9623C80.0546 25.856 80.2897 24.608 80.1591 23.3966Z" fill="white"/>
<path opacity="0.3" d="M70.1676 39.9451C62.4636 55.2868 45.4939 63.5931 32.2639 58.5051C19.0339 53.4171 14.5525 36.8548 22.2513 21.5131C29.9553 6.17595 46.925 -2.13491 60.155 2.95309C73.3902 8.04566 77.8716 24.6079 70.1676 39.9451Z" fill="white"/>
<path opacity="0.3" d="M58.8596 32.946C53.4276 43.7575 41.4669 49.618 32.1385 46.0295C22.8101 42.4409 19.6502 30.7655 25.0821 19.954C30.5141 9.13805 42.4749 3.28205 51.8033 6.87062C61.1264 10.4592 64.2864 22.1346 58.8596 32.946Z" fill="white"/>
<path opacity="0.3" d="M50.5865 26.6423C47.0244 33.7372 39.1793 37.5772 33.0579 35.2229C26.9365 32.8686 24.8682 25.2115 28.4303 18.1166C31.9924 11.0217 39.8374 7.18175 45.9589 9.53604C52.0751 11.8903 54.1486 19.5475 50.5865 26.6423Z" fill="white"/>
<path opacity="0.5" d="M100.947 29.1795C99.2909 22.039 95.2587 15.6573 89.5917 10.6927C89.3148 10.4504 89.0276 10.2127 88.7403 9.97498C90.3072 12.8047 91.4563 15.8538 92.1614 19.0447C93.7753 26.3407 93.1016 34.359 89.9155 42.1258C88.8657 44.6858 87.5494 47.2184 85.946 49.687C77.7719 62.2995 64.2494 70.2492 50.4814 71.9452C53.5735 72.5898 56.7961 72.9327 60.1128 72.9327C83.1203 72.9327 101.777 56.6081 101.777 36.4664C101.777 33.9658 101.49 31.5293 100.947 29.1795Z" fill="#3E73B9"/>
<path d="M20.0632 87.2596L5.30811 79.8036V69.207L20.0632 76.6585V87.2596Z" fill="#D7EAF7"/>
<path d="M8.99583 74.2308L5.97168 72.7039V70.5325L8.99583 72.0593V74.2308Z" fill="white"/>
<path d="M8.99583 75.2L5.97168 73.6686V73.28L8.99583 74.8115V75.2Z" fill="#4F3745"/>
<path d="M8.99583 75.826L5.97168 74.2946V73.906L8.99583 75.4374V75.826Z" fill="#4F3745"/>
<path d="M8.99583 76.5255L5.97168 74.9987V74.6101L8.99583 76.137V76.5255Z" fill="#4F3745"/>
<path d="M16.4541 80.2422V80.6307L19.144 81.9885V81.5999L16.4541 80.2422Z" fill="#4F3745"/>
<path d="M20.063 87.2596L34.8181 79.8036V69.207L20.063 76.6585V87.2596Z" fill="#BCDAF3"/>
<path d="M28.5299 72.3795L26.3467 73.4858V77.8149L28.5299 76.7132V72.3795Z" fill="#FEBF32"/>
<path d="M34.8183 69.207L20.0632 61.6915L5.30811 69.207L20.0632 76.6584L34.8183 69.207Z" fill="#E7F2FB"/>
<path d="M28.5668 72.384L13.8117 64.8685L11.5605 66.0251L26.3104 73.4811L28.5668 72.384Z" fill="#FDD03F"/>
<path d="M17.6189 84.7088C17.6189 84.7865 17.6032 84.8185 17.5719 84.8368C17.4883 84.8368 17.3368 84.7134 17.3368 84.6037C17.3368 84.5488 17.2846 84.5031 17.2219 84.5031C17.1593 84.5031 17.107 84.5488 17.107 84.6037C17.107 84.8094 17.3473 85.038 17.5719 85.038C17.6554 85.038 17.7286 85.006 17.7808 84.942C17.8278 84.8871 17.8487 84.8094 17.8487 84.7088V83.1682L18.8567 83.6757C18.8567 82.9534 18.3553 82.1122 17.7338 81.8014C17.1122 81.4905 16.6108 81.8197 16.6108 82.542L17.6189 83.0494V84.7088Z" fill="#4F3745"/>
<path d="M14.1089 83.7395L16.125 84.7589V80.7223L14.1089 79.7029V83.7395ZM14.2133 79.8629L16.0153 80.7726V84.5943L14.2133 83.6846V79.8629Z" fill="#4F3745"/>
<path d="M16.3862 80.8322V84.8687L19.144 86.2584V82.2219L16.3862 80.8322ZM19.0395 86.0984L16.4959 84.8139V80.9922L19.0395 82.2767V86.0984Z" fill="#4F3745"/>
<path d="M14.4854 81.769C14.4854 82.1164 14.6891 82.5095 14.9607 82.7335V83.4467L14.6525 83.2913C14.5585 83.2455 14.4854 83.2958 14.4854 83.401C14.4854 83.5061 14.5585 83.6341 14.6525 83.6798L15.6083 84.1598C15.7023 84.2055 15.7754 84.1553 15.7754 84.0501C15.7754 83.9404 15.7023 83.817 15.6083 83.7713L15.3001 83.6158V82.9027C15.5717 82.953 15.7754 82.7655 15.7754 82.4227V80.8867L14.4854 80.2375V81.769Z" fill="#4F3745"/>
<path d="M15.4457 77.2846L0.695801 69.8286V59.2274L15.4457 66.6834V77.2846Z" fill="#D7EAF7"/>
<path d="M4.38352 64.2561L1.35938 62.7292V60.5532L4.38352 62.0847V64.2561Z" fill="white"/>
<path d="M4.38352 65.2205L1.35938 63.6936V63.3051L4.38352 64.8319V65.2205Z" fill="#4F3745"/>
<path d="M4.38352 65.8467L1.35938 64.3198V63.9313L4.38352 65.4581V65.8467Z" fill="#4F3745"/>
<path d="M4.38352 66.5511L1.35938 65.0197V64.6311L4.38352 66.1625V66.5511Z" fill="#4F3745"/>
<path d="M11.8369 70.2673V70.6559L14.532 72.0136V71.625L11.8369 70.2673Z" fill="#4F3745"/>
<path d="M15.4458 77.2846L30.2009 69.8286V59.2274L15.4458 66.6834V77.2846Z" fill="#BCDAF3"/>
<path d="M23.9176 62.4048L21.7344 63.5065V67.8402L23.9176 66.7385V62.4048Z" fill="#FEBF32"/>
<path d="M30.2008 59.2272L15.4457 51.7118L0.695801 59.2272L15.4457 66.6832L30.2008 59.2272Z" fill="#E7F2FB"/>
<path d="M23.9539 62.4047L9.19874 54.8938L6.94238 56.0504L21.6975 63.5064L23.9539 62.4047Z" fill="#FDD03F"/>
<path d="M13.0012 74.7291C13.0012 74.8068 12.9855 74.8388 12.9542 74.8571C12.8706 74.8571 12.7192 74.7336 12.7192 74.6239C12.7192 74.5691 12.6669 74.5234 12.6043 74.5234C12.5416 74.5234 12.4894 74.5691 12.4894 74.6239C12.4894 74.8296 12.7296 75.0582 12.9542 75.0582C13.0378 75.0582 13.1109 75.0262 13.1631 74.9622C13.2101 74.9074 13.231 74.8296 13.231 74.7291V73.1885L14.2391 73.6959C14.2391 72.9736 13.7377 72.1325 13.1161 71.8216C12.4946 71.5108 11.9932 71.8399 11.9932 72.5622L13.0012 73.0696V74.7291Z" fill="#4F3745"/>
<path d="M9.49121 73.7645L11.5073 74.7839V70.7473L9.49121 69.7279V73.7645ZM9.6009 69.8879L11.4028 70.7976V74.6193L9.6009 73.7096V69.8879Z" fill="#4F3745"/>
<path d="M11.7686 70.8571V74.8936L14.5263 76.2833V72.2468L11.7686 70.8571ZM14.4219 76.1233L11.873 74.8388V71.017L14.4219 72.3016V76.1233Z" fill="#4F3745"/>
<path d="M9.86768 71.7944C9.86768 72.1418 10.0714 72.5349 10.343 72.7589V73.4721L10.0348 73.3166C9.94079 73.2709 9.86768 73.3212 9.86768 73.4264C9.86768 73.5361 9.94079 73.6595 10.0348 73.7052L10.9906 74.1852C11.0846 74.2309 11.1578 74.1807 11.1578 74.0755C11.1578 73.9704 11.0846 73.8424 10.9906 73.7967L10.6825 73.6412V72.9281C10.9541 72.9784 11.1578 72.7909 11.1578 72.4481V70.9121L9.86768 70.2629V71.7944Z" fill="#4F3745"/>
<path d="M37.4927 95.9999L55.0526 87.1222V74.5096L37.4927 83.3828V95.9999Z" fill="#BF855A"/>
<path d="M37.4929 95.9999L25.7515 90.1667V77.5496L37.4929 83.3827V95.9999Z" fill="#AF744C"/>
<path d="M25.751 77.5496L43.3109 68.6079L55.0523 74.5096L37.4924 83.3828L25.751 77.5496Z" fill="#E4B483"/>
<path d="M30.2378 79.7808L47.7716 70.8483L49.3071 71.6208L31.7107 80.5123L30.2378 79.7808Z" fill="#E7F2FB"/>
<path d="M41.7911 83.2088L38.229 84.9916V83.9539L41.7911 82.1665V83.2088Z" fill="#4F3745"/>
<path d="M41.7911 84.1098L38.229 85.8926V85.3715L41.7911 83.5886V84.1098Z" fill="#4F3745"/>
<path d="M41.7911 84.9965L38.229 86.7793V86.2582L41.7911 84.4753V84.9965Z" fill="#4F3745"/>
<path d="M41.7911 88.1874L38.229 89.9703V87.2503L41.7911 85.4674V88.1874Z" fill="#E7F2FB"/>
<path d="M30.248 79.7627L31.7105 80.5033V83.4518L30.248 82.7113V79.7627Z" fill="#BCDAF3"/>
<path d="M50.7537 87.9995C50.7537 88.0864 50.7746 88.1184 50.806 88.1412C50.8948 88.1412 51.0671 88.0041 51.0671 87.8807C51.0671 87.8167 51.1246 87.7664 51.1977 87.7664C51.2708 87.7664 51.3283 87.8167 51.3283 87.8807C51.3283 88.1138 51.0567 88.3652 50.8112 88.3652C50.7172 88.3652 50.6336 88.3287 50.5762 88.2601C50.5239 88.1961 50.4978 88.1092 50.4978 87.9995V86.2761L49.3696 86.8475C49.3696 86.0384 49.9337 85.1012 50.6232 84.7538C51.3178 84.4018 51.8767 84.7721 51.8767 85.5812L50.7485 86.1527V87.9995H50.7537Z" fill="#4F3745"/>
<path d="M54.6818 86.9163L52.4307 88.0546V83.5426L54.6818 82.4043V86.9163ZM54.5617 82.5872L52.5508 83.602V87.8763L54.5617 86.8569V82.5872Z" fill="#4F3745"/>
<path d="M52.1327 83.6661V88.1781L49.0459 89.7324V85.2204L52.1327 83.6661ZM49.166 89.5541L52.0126 88.1187V83.8444L49.166 85.2799V89.5541Z" fill="#4F3745"/>
<path d="M54.2585 84.7175C54.2585 85.1015 54.0286 85.545 53.7257 85.7964V86.5964L54.0704 86.4227C54.1749 86.3724 54.2585 86.4272 54.2585 86.5461C54.2585 86.665 54.1749 86.8067 54.0704 86.857L53.0049 87.3964C52.9005 87.4467 52.8169 87.3918 52.8169 87.2729C52.8169 87.1541 52.9005 87.0124 53.0049 86.9621L53.3496 86.7884V85.9884C53.0467 86.0432 52.8169 85.8375 52.8169 85.449V83.7347L54.2585 83.0078V84.7175Z" fill="#4F3745"/>
<path d="M48.2407 80.8454L54.874 77.4854V69.6409L48.2407 73.0009V80.8454Z" fill="#CB9568"/>
<path d="M48.2413 80.8453L36.4424 74.9162V67.067L48.2413 73.0007V80.8453Z" fill="#AF744C"/>
<path d="M36.4424 67.067L43.0704 63.6659L54.8745 69.6408L48.2413 73.0007L36.4424 67.067Z" fill="#E4B483"/>
<path d="M52.3413 70.9576L40.5894 64.9417L39.127 65.6914L50.931 71.6571L52.3413 70.9576Z" fill="#E7F2FB"/>
<path d="M45.457 72.7818L47.6716 73.8926V73.2435L45.457 72.1372V72.7818Z" fill="#4F3745"/>
<path d="M45.457 73.3439L47.6716 74.4501V74.1301L45.457 73.0193V73.3439Z" fill="#4F3745"/>
<path d="M45.457 73.8924L47.6716 75.0032V74.6787L45.457 73.5724V73.8924Z" fill="#4F3745"/>
<path d="M45.457 75.8765L47.6716 76.9873V75.2959L45.457 74.1851V75.8765Z" fill="#E7F2FB"/>
<path d="M52.3306 70.944L50.936 71.6525V74.4686L52.3306 73.76V70.944Z" fill="#BCDAF3"/>
<path d="M39.9521 75.6292C39.9521 75.6932 39.9364 75.7207 39.9155 75.7344C39.8476 75.7344 39.7171 75.6292 39.7171 75.5378C39.7171 75.4921 39.6753 75.4555 39.623 75.4555C39.5708 75.4555 39.529 75.4921 39.529 75.5378C39.529 75.7115 39.7327 75.899 39.9155 75.899C39.9887 75.899 40.0461 75.8715 40.0879 75.8212C40.1245 75.7755 40.1453 75.707 40.1453 75.6247V74.3401L40.9863 74.7652C40.9863 74.1618 40.5632 73.4624 40.0461 73.2018C39.529 72.9412 39.1112 73.2155 39.106 73.819L39.9469 74.2441V75.6292H39.9521Z" fill="#4F3745"/>
<path d="M37.022 74.8202L38.7038 75.6705V72.2968L37.022 71.4465V74.8202ZM37.1108 71.5837L38.615 72.3425V75.5334L37.1108 74.7745V71.5837Z" fill="#4F3745"/>
<path d="M38.9233 72.3926V75.7663L41.2267 76.9274V73.5537L38.9233 72.3926ZM41.1431 76.7903L39.0174 75.7206V72.5297L41.1431 73.5994V76.7903Z" fill="#4F3745"/>
<path d="M37.3403 73.1746C37.3403 73.4626 37.5127 73.7917 37.7373 73.9792V74.5734L37.4813 74.4409C37.403 74.4043 37.3403 74.4454 37.3403 74.5323C37.3403 74.6237 37.403 74.7289 37.4813 74.7654L38.2753 75.1677C38.3536 75.2089 38.4163 75.1632 38.4163 75.0763C38.4163 74.9894 38.3536 74.8797 38.2753 74.8432L38.0193 74.7106V74.1163C38.2491 74.1574 38.4163 74.002 38.4163 73.714V72.434L37.3403 71.89V73.1746Z" fill="#4F3745"/>
<path d="M99.0148 89.2388L80.6401 79.9542V66.752L99.0148 76.0365V89.2388Z" fill="#CB9568"/>
<path d="M99.0146 89.2392L111.304 83.1409V69.9386L99.0146 76.0369V89.2392Z" fill="#BF855A"/>
<path d="M111.305 69.9386L92.93 60.5763L80.6401 66.7523L99.0148 76.0369L111.305 69.9386Z" fill="#E4B483"/>
<path d="M106.609 72.27L88.2605 62.9214L86.6519 63.7305L105.068 73.0334L106.609 72.27Z" fill="#E7F2FB"/>
<path d="M94.5229 75.8586L98.2418 77.7238V76.6358L94.5229 74.7706V75.8586Z" fill="#4F3745"/>
<path d="M94.5229 76.8003L98.2418 78.6655V78.1215L94.5229 76.2563V76.8003Z" fill="#4F3745"/>
<path d="M94.5229 77.7284L98.2418 79.5936V79.0496L94.5229 77.1844V77.7284Z" fill="#4F3745"/>
<path d="M94.5229 81.0655L98.2418 82.9352V80.0872L94.5229 78.222V81.0655Z" fill="#E7F2FB"/>
<path d="M106.599 72.2516L105.068 73.0242V76.1099L106.599 75.3373V72.2516Z" fill="#BCDAF3"/>
<path d="M85.1373 80.8732C85.1373 80.9647 85.1164 81.0013 85.0851 81.0241C84.9911 81.0241 84.8082 80.8778 84.8082 80.7498C84.8082 80.6858 84.7456 80.631 84.6724 80.631C84.5993 80.631 84.5366 80.6813 84.5366 80.7498C84.5366 80.9921 84.8187 81.2573 85.0798 81.2573C85.1791 81.2573 85.2679 81.2161 85.3253 81.1475C85.3776 81.0835 85.4037 80.9921 85.4037 80.8732V79.0721L86.5841 79.6664C86.5841 78.8207 85.9939 77.8378 85.2679 77.4721C84.5419 77.1064 83.9569 77.495 83.9517 78.3361L85.1321 78.9304V80.8732H85.1373Z" fill="#4F3745"/>
<path d="M81.0317 79.7395L83.3873 80.9281V76.2058L81.0317 75.0172V79.7395ZM81.1571 75.2046L83.262 76.2698V80.7406L81.1571 79.6755V75.2046Z" fill="#4F3745"/>
<path d="M83.6958 76.3384V81.0607L86.9236 82.6881V77.9658L83.6958 76.3384ZM86.7983 82.5007L83.8211 81.0012V76.5304L86.7983 78.0298V82.5007Z" fill="#4F3745"/>
<path d="M81.4761 77.4354C81.4761 77.8376 81.7163 78.2994 82.0349 78.5645V79.4011L81.6746 79.2182C81.5649 79.1634 81.4761 79.2228 81.4761 79.3462C81.4761 79.4742 81.5649 79.6205 81.6746 79.6754L82.7923 80.2376C82.902 80.2925 82.9908 80.2331 82.9908 80.1097C82.9908 79.9862 82.902 79.8354 82.7923 79.7805L82.4319 79.5977V78.7611C82.7505 78.8205 82.9908 78.6011 82.9908 78.1988V76.4022L81.4813 75.6388V77.4354H81.4761Z" fill="#4F3745"/>
<path d="M74.9155 95.9269L59.2725 88.0183V76.7817L74.9155 84.6857V95.9269Z" fill="#CB9568"/>
<path d="M74.9155 95.927L90.2504 88.279V77.0378L74.9155 84.6858V95.927Z" fill="#BF855A"/>
<path d="M90.2504 77.0378L74.6073 69.0698L59.2725 76.7818L74.9155 84.6858L90.2504 77.0378Z" fill="#E4B483"/>
<path d="M83.6538 80.3384L68.0369 72.3842L66.6685 73.0699L82.3428 80.9876L83.6538 80.3384Z" fill="#E7F2FB"/>
<path d="M71.0923 84.5304L74.2575 86.1212V85.1978L71.0923 83.6069V84.5304Z" fill="#4F3745"/>
<path d="M71.0923 85.3348L74.2575 86.9211V86.4593L71.0923 84.873V85.3348Z" fill="#4F3745"/>
<path d="M71.0923 86.1258L74.2575 87.7121V87.2503L71.0923 85.6641V86.1258Z" fill="#4F3745"/>
<path d="M71.0923 88.9694L74.2575 90.5557V88.1328L71.0923 86.542V88.9694Z" fill="#E7F2FB"/>
<path d="M83.6433 80.3246L82.3428 80.9829V83.6069L83.6433 82.9486V80.3246Z" fill="#BCDAF3"/>
<path d="M63.1067 88.8003C63.1067 88.878 63.091 88.91 63.0597 88.9283C62.9813 88.9283 62.8246 88.8048 62.8246 88.6951C62.8246 88.6403 62.7724 88.5946 62.7097 88.5946C62.6471 88.5946 62.5948 88.6403 62.5948 88.6951C62.5948 88.9008 62.8351 89.1294 63.0545 89.1294C63.138 89.1294 63.2111 89.0974 63.2634 89.0334C63.3104 88.9786 63.3313 88.9008 63.3313 88.8003V87.2643L64.3341 87.7717C64.3341 87.0494 63.8327 86.2174 63.2164 85.9066C62.6 85.5957 62.0986 85.9248 62.0986 86.6426L63.1015 87.15V88.8003H63.1067Z" fill="#4F3745"/>
<path d="M59.6069 87.8356L61.6126 88.8505V84.8276L59.6069 83.8127V87.8356ZM59.7166 83.9773L61.5081 84.8825V88.6905L59.7166 87.7853V83.9773Z" fill="#4F3745"/>
<path d="M61.8789 84.9421V88.965L64.6262 90.3501V86.3273L61.8789 84.9421ZM64.5218 90.1856L61.9886 88.9101V85.1067L64.5218 86.3821V90.1856Z" fill="#4F3745"/>
<path d="M59.9834 85.8746C59.9834 86.2175 60.1871 86.6106 60.4587 86.8346V87.5478L60.1505 87.3924C60.0565 87.3466 59.9834 87.3969 59.9834 87.5021C59.9834 87.6072 60.0565 87.7352 60.1505 87.7809L61.1011 88.2609C61.1951 88.3066 61.2683 88.2564 61.2683 88.1512C61.2683 88.0461 61.1951 87.9181 61.1011 87.8723L60.793 87.7169V87.0038C61.0646 87.0541 61.2683 86.8666 61.2683 86.5238V84.9969L59.9834 84.3478V85.8746Z" fill="#4F3745"/>
<path d="M97.5103 72.7451L104.144 69.3851V61.5405L97.5103 64.896V72.7451Z" fill="#CB9568"/>
<path d="M97.5103 72.7452L85.7114 66.8115V58.9669L97.5103 64.8961V72.7452Z" fill="#AF744C"/>
<path d="M85.7114 58.9666L92.3447 55.5654L104.144 61.5403L97.5103 64.8957L85.7114 58.9666Z" fill="#E4B483"/>
<path d="M101.616 62.8572L89.8589 56.8367L88.3965 57.5864L100.206 63.5567L101.616 62.8572Z" fill="#E7F2FB"/>
<path d="M94.7319 64.6814L96.9413 65.7877V65.1431L94.7319 64.0322V64.6814Z" fill="#4F3745"/>
<path d="M94.7319 65.239L96.9413 66.3498V66.0253L94.7319 64.9144V65.239Z" fill="#4F3745"/>
<path d="M94.7319 65.7921L96.9413 66.903V66.5784L94.7319 65.4675V65.7921Z" fill="#4F3745"/>
<path d="M94.7319 67.776L96.9413 68.8869V67.1909L94.7319 66.0846V67.776Z" fill="#E7F2FB"/>
<path d="M101.6 62.8434L100.206 63.5474V66.3634L101.6 65.6594V62.8434Z" fill="#BCDAF3"/>
<path d="M89.2267 67.5247C89.2267 67.5887 89.211 67.6162 89.1901 67.6299C89.1222 67.6299 88.9968 67.5247 88.9968 67.4333C88.9968 67.3876 88.9551 67.351 88.9028 67.351C88.8506 67.351 88.8088 67.3876 88.8088 67.4333C88.8088 67.607 89.0125 67.7945 89.1953 67.7945C89.2684 67.7945 89.3259 67.767 89.3677 67.7167C89.4042 67.671 89.4251 67.6025 89.4251 67.5202V66.2356L90.266 66.6607C90.266 66.0573 89.8482 65.3579 89.3259 65.0973C88.8088 64.8367 88.391 65.111 88.3857 65.7145L89.2267 66.1396V67.5247Z" fill="#4F3745"/>
<path d="M86.2915 66.7156L87.9733 67.5659V64.1922L86.2915 63.3419V66.7156ZM86.3855 63.4791L87.8898 64.2379V67.4288L86.3855 66.6699V63.4791Z" fill="#4F3745"/>
<path d="M88.1978 64.2882V67.6619L90.5011 68.8231V65.4494L88.1978 64.2882ZM90.4123 68.6859L88.2865 67.6162V64.4254L90.4123 65.4951V68.6859Z" fill="#4F3745"/>
<path d="M86.6099 65.0741C86.6099 65.3621 86.777 65.6913 87.0068 65.8787V66.473L86.7509 66.3404C86.6726 66.2993 86.6099 66.345 86.6099 66.4318C86.6099 66.5187 86.6726 66.6284 86.7509 66.665L87.5448 67.0673C87.6231 67.1038 87.6858 67.0627 87.6858 66.9758C87.6858 66.8844 87.6231 66.7793 87.5448 66.7427L87.2889 66.6101V66.0158C87.5187 66.057 87.6858 65.9016 87.6858 65.6136V64.3336L86.6099 63.7896V65.0741Z" fill="#4F3745"/>
</svg>
