<svg width="152" height="92" viewBox="0 0 152 92" fill="none" xmlns="http://www.w3.org/2000/svg">
<path d="M132.064 70.6277L92.9022 90.7739C90.7613 91.8729 87.0282 91.7374 84.5558 90.464L12.3023 53.2944C9.82991 52.0259 9.56366 50.1038 11.7046 48.9999L50.8661 28.8536C53.0071 27.7546 56.7401 27.8901 59.2125 29.1635L131.466 66.3331C133.933 67.6016 134.199 69.5238 132.064 70.6277Z" fill="#35212D"/>
<path d="M14.8286 48.5251L10.2588 48.8544V51.251L14.8286 52.3355V48.5251Z" fill="#35212D"/>
<path d="M130.091 66.7202H133.504L133.471 69.0684L129.51 69.998L130.091 66.7202Z" fill="#35212D"/>
<path d="M132.063 68.686L92.9017 88.8322C90.7608 89.9313 87.0277 89.7957 84.5553 88.5224L12.3018 51.3528C9.82942 50.0843 9.56317 48.1621 11.7041 47.0582L50.8656 26.912C53.0066 25.8129 56.7396 25.9485 59.212 27.2219L131.466 64.3914C133.932 65.6648 134.199 67.5869 132.063 68.686Z" fill="#4F3745"/>
<path d="M48.7738 39.6168L35.0642 46.6663L25.8213 41.9117L39.5254 34.8574L48.7738 39.6168Z" fill="#D7EAF7"/>
<path d="M25.8213 41.2725V41.9116L27.7775 42.9186L28.4024 42.5991L25.8213 41.2725Z" fill="#99C2E1"/>
<path d="M48.7738 38.9776L35.0642 46.0271L25.8213 41.2726L39.5254 34.2183L48.7738 38.9776Z" fill="#D7EAF7"/>
<path d="M128.418 66.4151L87.8977 87.2585L16.019 50.2826L56.5336 29.4392L128.418 66.4151Z" fill="#D7EAF7"/>
<path d="M128.418 65.1031L87.8977 85.9465L16.019 48.9706L56.5336 28.1223L128.418 65.1031Z" fill="white"/>
<path d="M128.418 65.103V66.4151L87.8979 87.2585V85.9464L128.418 65.103Z" fill="#BCDAF3"/>
<path d="M16.019 48.9707V50.2828L87.8976 87.2587V85.9466L16.019 48.9707Z" fill="#D7EAF7"/>
<path d="M37.206 45.4024C36.4018 45.4024 35.565 45.2281 34.8966 44.8843L29.4139 42.0664L28.3271 42.6378V41.2385C28.3271 41.0739 28.425 40.919 28.588 40.8366C28.751 40.7543 28.9466 40.7543 29.1096 40.8366L35.4129 44.0806C36.3257 44.5502 37.7494 44.6083 38.5156 44.2161L48.617 39.021C48.7529 38.9484 48.9811 38.8031 48.9811 38.6143C48.9811 38.4545 48.8181 38.2028 48.3562 37.9607L42.8898 35.1477L41.7922 35.7142V34.3149C41.7922 34.1503 41.89 33.9954 42.053 33.913C42.216 33.8307 42.4116 33.8307 42.5746 33.913L48.8779 37.157C49.606 37.5298 50.0298 38.0624 50.0298 38.6143C50.0298 39.1033 49.7147 39.5342 49.1441 39.8296L39.0426 45.0247C38.5482 45.2716 37.8907 45.4024 37.206 45.4024Z" fill="#BCDAF3"/>
<path d="M46.3286 59.293L78.2632 42.8604L79.2087 43.3494L47.2741 59.7772L46.3286 59.293Z" fill="#D7EAF7"/>
<path d="M49.2905 60.8375L81.2251 44.4097L82.176 44.8938L50.236 61.3217L49.2905 60.8375Z" fill="#D7EAF7"/>
<path d="M52.252 62.3819L84.192 45.9541L85.1375 46.4383L53.1974 62.8661L52.252 62.3819Z" fill="#D7EAF7"/>
<path d="M55.2129 63.9263L87.1529 47.4985L88.0984 47.9827L56.1584 64.4105L55.2129 63.9263Z" fill="#D7EAF7"/>
<path d="M58.1743 65.4708L90.1143 49.043L91.0598 49.5271L59.1252 65.955L58.1743 65.4708Z" fill="#D7EAF7"/>
<path d="M61.1411 67.0152L93.0757 50.5874L94.0212 51.0716L62.0866 67.4994L61.1411 67.0152Z" fill="#D7EAF7"/>
<path d="M64.1025 68.5599L96.0371 52.1321L96.9826 52.6162L65.048 69.0441L64.1025 68.5599Z" fill="#D7EAF7"/>
<path d="M67.0645 70.1046L98.999 53.6768L99.9445 54.1609L68.0099 70.5936L67.0645 70.1046Z" fill="#D7EAF7"/>
<path d="M70.0264 71.649L101.961 55.2212L102.906 55.7054L70.9718 72.138L70.0264 71.649Z" fill="#D7EAF7"/>
<path d="M72.9873 73.1937L104.922 56.7659L105.867 57.25L73.9328 73.6827L72.9873 73.1937Z" fill="#D7EAF7"/>
<path d="M75.9487 74.7381L107.883 58.3103L108.829 58.7945L76.8942 75.2271L75.9487 74.7381Z" fill="#D7EAF7"/>
<path d="M78.9097 76.2826L110.844 59.8547L111.79 60.3389L79.8552 76.7716L78.9097 76.2826Z" fill="#D7EAF7"/>
<path d="M81.8706 77.8272L113.805 61.3994L114.756 61.8836L82.8161 78.3162L81.8706 77.8272Z" fill="#D7EAF7"/>
<path d="M81.8711 77.7884L113.806 61.3606L114.757 61.8496L82.8166 78.2774L81.8711 77.7884Z" fill="#D7EAF7"/>
<path d="M84.8335 79.3328L116.773 62.905L117.719 63.394L85.779 79.8219L84.8335 79.3328Z" fill="#D7EAF7"/>
<path d="M103.624 72.7382L119.735 64.4492L120.68 64.9382L104.602 73.2078L103.624 72.7382Z" fill="#D7EAF7"/>
<path d="M47.6606 43.5043L63.7719 35.2153L64.7174 35.7043L48.6387 43.9739L47.6606 43.5043Z" fill="#D7EAF7"/>
<path d="M45.7148 42.1293L61.8261 33.8403L62.7716 34.3293L46.6929 42.5989L45.7148 42.1293Z" fill="#D7EAF7"/>
<path d="M75.7374 41.8435L68.4506 45.591L58.8545 40.6525L66.1412 36.905L75.7374 41.8435Z" fill="#FDD03F"/>
<path d="M94.0591 40.5318L109.948 32.359V20.7341L94.0591 28.9117V40.5318Z" fill="#BF855A"/>
<path d="M94.0597 40.5318L83.4312 35.1624V23.5375L94.0597 28.9117V40.5318Z" fill="#AF744C"/>
<path d="M83.4312 23.5375L99.3196 15.3018L109.948 20.7341L94.0597 28.9117L83.4312 23.5375Z" fill="#E4B483"/>
<path d="M87.4897 25.5903L103.357 17.3643L104.748 18.076L88.8265 26.2681L87.4897 25.5903Z" fill="#E7F2FB"/>
<path d="M97.9439 28.7519L94.7271 30.3932V29.4345L97.9439 27.7932V28.7519Z" fill="#4F3745"/>
<path d="M97.9439 29.5797L94.7271 31.2258V30.7465L97.9439 29.1003V29.5797Z" fill="#4F3745"/>
<path d="M97.9439 30.3981L94.7271 32.0395V31.565L97.9439 29.9188V30.3981Z" fill="#4F3745"/>
<path d="M97.9439 33.337L94.7271 34.9832V32.4752L97.9439 30.8339V33.337Z" fill="#E7F2FB"/>
<path d="M87.5005 25.5808L88.8209 26.2586V28.9748L87.5005 28.2921V25.5808Z" fill="#BCDAF3"/>
<path d="M106.057 33.1676C106.057 33.2451 106.073 33.279 106.106 33.2983C106.187 33.2983 106.345 33.1725 106.345 33.0563C106.345 32.9982 106.399 32.9546 106.459 32.9546C106.524 32.9546 106.573 33.003 106.573 33.0563C106.573 33.2693 106.329 33.5017 106.106 33.5017C106.019 33.5017 105.943 33.4678 105.894 33.4049C105.85 33.3468 105.823 33.2645 105.823 33.1628V31.5747L104.802 32.0976C104.802 31.352 105.313 30.4902 105.937 30.1658C106.562 29.8414 107.073 30.1851 107.073 30.9259L106.052 31.4488V33.1676H106.057Z" fill="#4F3745"/>
<path d="M109.611 32.1703L107.573 33.2209V29.0619L109.611 28.0161V32.1703ZM109.502 28.1759L107.682 29.1103V33.0466L109.502 32.1073V28.1759Z" fill="#4F3745"/>
<path d="M107.307 29.1732V33.3322L104.514 34.7654V30.6064L107.307 29.1732ZM104.623 34.6007L107.198 33.279V29.3427L104.623 30.6645V34.6007Z" fill="#4F3745"/>
<path d="M109.225 30.1417C109.225 30.4951 109.019 30.9018 108.741 31.1342V31.8701L109.057 31.7104C109.149 31.662 109.225 31.7152 109.225 31.8266C109.225 31.9379 109.149 32.0687 109.057 32.1171L108.089 32.6109C107.997 32.6593 107.921 32.6061 107.921 32.4947C107.921 32.3834 107.997 32.2526 108.089 32.2042L108.405 32.0444V31.3085C108.127 31.3618 107.921 31.1681 107.921 30.8147V29.2363L109.225 28.5681V30.1417Z" fill="#4F3745"/>
<path d="M101.308 26.8054L107.307 23.7115V16.4829L101.308 19.5767V26.8054Z" fill="#CB9568"/>
<path d="M101.308 26.8054L90.6304 21.3391V14.1154L101.308 19.5768V26.8054Z" fill="#AF744C"/>
<path d="M90.6304 14.1154L96.6293 10.978L107.307 16.483L101.308 19.5768L90.6304 14.1154Z" fill="#E4B483"/>
<path d="M105.019 17.6985L94.38 12.1548L93.0596 12.8423L103.742 18.3424L105.019 17.6985Z" fill="#E7F2FB"/>
<path d="M98.7871 19.3782L100.792 20.3998V19.8043L98.7871 18.7827V19.3782Z" fill="#4F3745"/>
<path d="M98.7871 19.8915L100.792 20.9131V20.6178L98.7871 19.5962V19.8915Z" fill="#4F3745"/>
<path d="M98.7871 20.3998L100.792 21.4214V21.1261L98.7871 20.1045V20.3998Z" fill="#4F3745"/>
<path d="M98.7871 22.2302L100.792 23.2518V21.6927L98.7871 20.6711V22.2302Z" fill="#E7F2FB"/>
<path d="M105.009 17.6836L103.748 18.3324V20.9275L105.009 20.2787V17.6836Z" fill="#BCDAF3"/>
<path d="M93.8091 21.9977C93.8091 22.0558 93.7928 22.08 93.7765 22.0946C93.7167 22.0946 93.5972 21.9977 93.5972 21.9154C93.5972 21.8719 93.5591 21.838 93.5102 21.838C93.4613 21.838 93.4233 21.8719 93.4233 21.9154C93.4233 22.0752 93.608 22.2495 93.7765 22.2495C93.8417 22.2495 93.896 22.2253 93.9341 22.1769C93.9667 22.1333 93.983 22.0752 93.983 21.9977V20.8115L94.7437 21.2037C94.7437 20.6469 94.3633 20.003 93.896 19.7609C93.4287 19.5188 93.0483 19.7754 93.0483 20.3322L93.8091 20.7244V21.9977Z" fill="#4F3745"/>
<path d="M91.1582 21.2522L92.6797 22.0365V18.9281L91.1582 18.1438V21.2522ZM91.2343 18.2745L92.5927 18.9766V21.9155L91.2343 21.2134V18.2745Z" fill="#4F3745"/>
<path d="M92.875 19.0154V22.1237L94.9616 23.1938V20.0854L92.875 19.0154ZM94.8801 23.0679L92.9565 22.0802V19.1413L94.8801 20.129V23.0679Z" fill="#4F3745"/>
<path d="M91.4399 19.7368C91.4399 20.0031 91.5921 20.3033 91.7986 20.4776V21.0296L91.5649 20.9085C91.4943 20.8746 91.4399 20.9134 91.4399 20.9957C91.4399 21.078 91.4943 21.1748 91.5649 21.2135L92.2876 21.5864C92.3583 21.6202 92.4126 21.5815 92.4126 21.4992C92.4126 21.4169 92.3583 21.3201 92.2876 21.2813L92.054 21.1603V20.6132C92.2605 20.6519 92.4126 20.5067 92.4126 20.2404V19.059L91.4399 18.5603V19.7368Z" fill="#4F3745"/>
<path d="M152 40.6721H149.734V41.0207L128.417 30.0543C126.477 29.0569 123.059 29.1828 120.821 30.3351L101.808 40.1443V40.033H99.5418V42.4974C99.5092 43.1607 99.9276 43.7998 100.84 44.2695L123.114 55.7249C125.054 56.7222 128.471 56.5964 130.71 55.444L150.142 45.4169C151.408 44.7681 152.033 43.9209 151.994 43.1317V40.6721H152Z" fill="#4F3745"/>
<path d="M152 38.7257H149.734V39.0743L128.417 28.1079C126.477 27.1105 123.059 27.2364 120.821 28.3887L101.808 38.1979V38.0866H99.5418V40.551C99.5092 41.2143 99.9276 41.8534 100.84 42.323L123.114 53.7785C125.054 54.7758 128.471 54.65 130.71 53.4976L150.142 43.4705C151.408 42.8217 152.033 41.9744 151.994 41.1852V38.7257H152Z" fill="#F7AC1A"/>
<path d="M100.846 39.7087L123.119 51.1641C125.059 52.1615 128.477 52.0356 130.716 50.8832L150.147 40.8561C152.386 39.7038 152.63 37.9463 150.691 36.9489L128.417 25.4935C126.478 24.4961 123.06 24.622 120.821 25.7743L101.39 35.8014C99.1563 36.9537 98.9117 38.7113 100.846 39.7087Z" fill="#FFCA35"/>
<path d="M136.628 30.7126L139.079 32.8624L139.926 32.4072V7.43869L136.628 5.73926V30.7126Z" fill="#F7AC1A"/>
<path d="M135.781 31.1629L139.079 32.8623V7.88892L135.781 6.19434V31.1629Z" fill="#FEC128"/>
<path d="M141.883 8.04896C141.883 5.12943 139.888 1.73541 137.432 0.471737C136.438 -0.0414813 135.52 -0.118953 134.775 0.157023L134.77 0.152184L132.982 1.08179L133.384 1.49333C133.129 2.03076 132.982 2.69407 132.982 3.47358C132.982 6.39311 134.976 9.78712 137.432 11.0508C137.807 11.2445 138.177 11.3704 138.524 11.4478L138.834 12.0627L140.524 11.1573V11.1525C141.355 10.6199 141.883 9.54504 141.883 8.04896Z" fill="#F7AC1A"/>
<path d="M131.477 4.27236C131.477 7.19189 133.471 10.5859 135.927 11.8496C138.383 13.1133 140.377 11.7721 140.377 8.85259C140.377 5.93306 138.383 2.53904 135.927 1.27536C133.465 0.00684005 131.477 1.34799 131.477 4.27236Z" fill="#FFCA35"/>
<path d="M131.993 4.51447C132.031 7.13381 133.835 10.2034 136.025 11.3606C138.215 12.5178 139.964 11.3364 139.926 8.7122C139.888 6.09285 138.084 3.02323 135.894 1.86607C133.704 0.704064 131.955 1.89028 131.993 4.51447Z" fill="#4F3745"/>
<path d="M132.243 4.59671C132.308 7.0708 134.025 9.97581 136.079 11.0894C138.133 12.203 139.741 11.1039 139.682 8.62982C139.616 6.15573 137.899 3.25072 135.845 2.13713C133.791 1.02355 132.177 2.12261 132.243 4.59671Z" fill="#E7F2FB"/>
<path d="M135.487 6.56252C135.498 6.87723 135.715 7.25004 135.976 7.39044C136.237 7.53085 136.443 7.39045 136.438 7.07574C136.427 6.76103 136.209 6.38822 135.949 6.24781C135.682 6.1074 135.476 6.24781 135.487 6.56252Z" fill="#4F3745"/>
<path d="M136.209 6.87713L135.959 3.44922L135.715 6.44138L136.209 6.87713Z" fill="#4F3745"/>
<path d="M148.289 39.2633C148.306 39.1568 148.3 39.0503 148.289 38.9438V37.4331L147.246 37.6026C147.192 37.5735 147.143 37.5397 147.083 37.5106L126.385 26.8638C124.581 25.939 121.408 26.0552 119.327 27.1252L103.047 35.5013C102.623 35.7192 102.286 35.9564 102.015 36.213L101.325 36.121V37.7672L101.346 37.7721C101.433 38.2853 101.825 38.7646 102.536 39.1326L123.234 49.7794C125.038 50.7042 128.211 50.588 130.292 49.518L146.572 41.1467C147.621 40.5996 148.197 39.9218 148.289 39.2633Z" fill="#BCDAF3"/>
<path d="M102.542 37.6121L123.239 48.259C125.043 49.1837 128.217 49.0675 130.298 47.9975L146.578 39.6262C148.659 38.5562 148.887 36.9197 147.083 35.995L126.386 25.3481C124.582 24.4234 121.408 24.5396 119.327 25.6096L103.047 33.9808C100.966 35.0509 100.738 36.6873 102.542 37.6121Z" fill="#E7F2FB"/>
<path d="M124.951 44.2258L110.795 36.9439V26.5924L124.951 33.8743V44.2258Z" fill="#CB9568"/>
<path d="M124.95 44.2257L138.828 37.1811V26.8296L124.95 33.8742V44.2257Z" fill="#BF855A"/>
<path d="M138.829 26.8297L124.673 19.4897L110.795 26.5925L124.951 33.8744L138.829 26.8297Z" fill="#E4B483"/>
<path d="M132.862 29.8653L118.723 22.5398L117.49 23.1692L131.672 30.4656L132.862 29.8653Z" fill="#E7F2FB"/>
<path d="M121.489 33.7339L124.358 35.1961V34.344L121.489 32.877V33.7339Z" fill="#4F3745"/>
<path d="M121.489 34.4698L124.358 35.9368V35.5059L121.489 34.0437V34.4698Z" fill="#4F3745"/>
<path d="M121.489 35.2009L124.358 36.663V36.237L121.489 34.7748V35.2009Z" fill="#4F3745"/>
<path d="M121.489 37.8202L124.358 39.2824V37.0504L121.489 35.5834V37.8202Z" fill="#E7F2FB"/>
<path d="M132.852 29.8557L131.672 30.4609V32.8769L132.852 32.2717V29.8557Z" fill="#BCDAF3"/>
<path d="M114.262 37.6654C114.262 37.738 114.246 37.7671 114.218 37.7816C114.148 37.7816 114.007 37.6702 114.007 37.5686C114.007 37.5153 113.958 37.4766 113.903 37.4766C113.844 37.4766 113.8 37.5201 113.8 37.5686C113.8 37.7574 114.017 37.9656 114.218 37.9656C114.295 37.9656 114.36 37.9365 114.409 37.8784C114.452 37.8252 114.468 37.7525 114.468 37.6654V36.2516L115.376 36.7213C115.376 36.058 114.919 35.2881 114.365 35.0025C113.805 34.7168 113.354 35.017 113.354 35.6803L114.262 36.1499V37.6654Z" fill="#4F3745"/>
<path d="M111.1 36.7744L112.915 37.7089V34.005L111.1 33.0706V36.7744ZM111.197 33.2206L112.822 34.0534V37.5588L111.197 36.726V33.2206Z" fill="#4F3745"/>
<path d="M113.153 34.1118V37.8157L115.642 39.0891V35.3852L113.153 34.1118ZM115.544 38.939L113.251 37.7624V34.2571L115.544 35.4336V38.939Z" fill="#4F3745"/>
<path d="M111.441 34.9685C111.441 35.2832 111.626 35.6463 111.871 35.8545V36.5082L111.594 36.3629C111.512 36.3193 111.441 36.3677 111.441 36.4646C111.441 36.5614 111.512 36.6776 111.594 36.7212L112.452 37.1618C112.534 37.2054 112.604 37.1569 112.604 37.0601C112.604 36.9633 112.534 36.8471 112.452 36.8035L112.175 36.6583V36.0046C112.419 36.053 112.604 35.8787 112.604 35.564V34.1551L111.441 33.5596V34.9685Z" fill="#4F3745"/>
<path d="M27.1851 75.5468L10.6392 67.0351V54.9358L27.1851 63.4475V75.5468Z" fill="#CB9568"/>
<path d="M27.1855 75.5467L38.2488 69.9546V57.8552L27.1855 63.4474V75.5467Z" fill="#BF855A"/>
<path d="M38.2484 57.8553L21.7024 49.2759L10.6392 54.9358L27.1851 63.4475L38.2484 57.8553Z" fill="#E4B483"/>
<path d="M34.0213 59.9905L17.5025 51.4255L16.0571 52.1663L32.6303 60.6925L34.0213 59.9905Z" fill="#E7F2FB"/>
<path d="M23.1372 63.2828L26.4899 64.9919V63.9945L23.1372 62.2854V63.2828Z" fill="#4F3745"/>
<path d="M23.1372 64.1444L26.4899 65.8536V65.3549L23.1372 63.6458V64.1444Z" fill="#4F3745"/>
<path d="M23.1372 64.9967L26.4899 66.7059V66.2072L23.1372 64.498V64.9967Z" fill="#4F3745"/>
<path d="M23.1372 68.0567L26.4899 69.7658V67.1561L23.1372 65.447V68.0567Z" fill="#E7F2FB"/>
<path d="M34.01 59.9761L32.6353 60.6878V63.5105L34.01 62.8036V59.9761Z" fill="#BCDAF3"/>
<path d="M14.6871 67.8775C14.6871 67.9598 14.6654 67.9937 14.6382 68.013C14.5513 68.013 14.3937 67.8823 14.3937 67.7613C14.3937 67.7032 14.3393 67.6547 14.2741 67.6547C14.2089 67.6547 14.1546 67.7032 14.1546 67.7613C14.1546 67.984 14.41 68.2261 14.6436 68.2261C14.736 68.2261 14.8121 68.1922 14.861 68.1244C14.9099 68.0663 14.9316 67.9791 14.9316 67.8726V66.2216L15.9912 66.7687C15.9912 65.9941 15.4587 65.0935 14.8066 64.7594C14.1546 64.4253 13.6275 64.7788 13.6221 65.5535L14.6817 66.1006V67.8775H14.6871Z" fill="#4F3745"/>
<path d="M10.9927 66.8365L13.1119 67.9259V63.5974L10.9927 62.5081V66.8365ZM11.1068 62.6824L13.0032 63.6555V67.7516L11.1068 66.7784V62.6824Z" fill="#4F3745"/>
<path d="M13.3945 63.7234V68.0519L16.3016 69.5431V65.2146L13.3945 63.7234ZM16.1875 69.3688L13.5032 67.9938V63.8977L16.1875 65.2727V69.3688Z" fill="#4F3745"/>
<path d="M11.3892 64.7257C11.3892 65.0937 11.6011 65.5197 11.8891 65.757V66.522L11.5631 66.3525C11.4653 66.3041 11.3892 66.3574 11.3892 66.4736C11.3892 66.5898 11.4707 66.7253 11.5631 66.7737L12.5684 67.2918C12.6662 67.3402 12.7422 67.287 12.7422 67.1708C12.7422 67.0546 12.6607 66.919 12.5684 66.8706L12.2423 66.7011V65.9361C12.5303 65.9894 12.7422 65.7909 12.7422 65.4181V63.7719L11.3838 63.0747V64.7257H11.3892Z" fill="#4F3745"/>
<path d="M6.50972 78.8583L0 75.4982V67.6547L6.50972 71.0148V78.8583Z" fill="#CB9568"/>
<path d="M6.50977 78.8583L18.1001 72.9273V65.0837L6.50977 71.0148V78.8583Z" fill="#AF744C"/>
<path d="M18.1001 65.0839L11.5849 61.6802L0 67.6548L6.50972 71.0149L18.1001 65.0839Z" fill="#E4B483"/>
<path d="M2.4834 68.9716L14.0248 62.9534L15.4594 63.7038L3.86359 69.6736L2.4834 68.9716Z" fill="#E7F2FB"/>
<path d="M9.24286 70.797L7.06934 71.9057V71.2569L9.24286 70.1482V70.797Z" fill="#4F3745"/>
<path d="M9.24286 71.3537L7.06934 72.4625V72.1429L9.24286 71.0342V71.3537Z" fill="#4F3745"/>
<path d="M9.24286 71.9059L7.06934 73.0146V72.6951L9.24286 71.5863V71.9059Z" fill="#4F3745"/>
<path d="M9.24286 73.8908L7.06934 74.9995V73.3098L9.24286 72.201V73.8908Z" fill="#E7F2FB"/>
<path d="M2.49414 68.957L3.86347 69.6639V72.4818L2.49414 71.7749V68.957Z" fill="#BCDAF3"/>
<path d="M14.6494 73.6391C14.6494 73.702 14.6657 73.7311 14.6875 73.7456C14.7527 73.7456 14.8776 73.6439 14.8776 73.5519C14.8776 73.5035 14.9211 73.4696 14.97 73.4696C15.0244 73.4696 15.0624 73.5084 15.0624 73.5519C15.0624 73.7262 14.8613 73.9151 14.682 73.9151C14.6114 73.9151 14.5516 73.886 14.5136 73.8376C14.4755 73.7892 14.4592 73.7262 14.4592 73.6439V72.356L13.6333 72.7821C13.6333 72.1769 14.0463 71.4797 14.5516 71.2183C15.057 70.9568 15.4699 71.2328 15.4754 71.838L14.6494 72.2641V73.6391Z" fill="#4F3745"/>
<path d="M17.524 72.8303L15.8721 73.6824V70.3126L17.524 69.4653V72.8303ZM17.437 69.5961L15.959 70.3562V73.5469L17.437 72.7867V69.5961Z" fill="#4F3745"/>
<path d="M15.6609 70.4049V73.7747L13.4004 74.9367V71.5669L15.6609 70.4049ZM13.4819 74.8012L15.5685 73.7311V70.5405L13.4819 71.6105V74.8012Z" fill="#4F3745"/>
<path d="M17.2143 71.1891C17.2143 71.4796 17.0459 71.804 16.8231 71.9928V72.5883L17.0785 72.4576C17.1545 72.4189 17.2143 72.4624 17.2143 72.5496C17.2143 72.6416 17.1545 72.7433 17.0785 72.782L16.296 73.1839C16.2199 73.2226 16.1602 73.179 16.1602 73.0919C16.1602 72.9999 16.2199 72.8982 16.296 72.8595L16.5514 72.7287V72.1332C16.3286 72.1768 16.1602 72.0219 16.1602 71.7314V70.4532L17.2197 69.9109V71.1891H17.2143Z" fill="#4F3745"/>
</svg>
