<svg width="63" height="63" viewBox="0 0 63 63" fill="none" xmlns="http://www.w3.org/2000/svg">
  <circle cx="31.5" cy="31.5" r="31.5" fill="#FEF6DB"/>
  <path 
    d="M14.8182 20.7273H18.1818L26.0909 40.0455H26.3636L34.2727 20.7273H37.6364V44H35V26.3182H34.7727L27.5 44H24.9545L17.6818 26.3182H17.4545V44H14.8182V20.7273ZM42.9233 44V26.5455H45.6051V44H42.9233ZM44.2869 23.6364C43.7642 23.6364 43.3134 23.4583 42.9347 23.1023C42.5634 22.7462 42.3778 22.3182 42.3778 21.8182C42.3778 21.3182 42.5634 20.8902 42.9347 20.5341C43.3134 20.178 43.7642 20 44.2869 20C44.8097 20 45.2566 20.178 45.6278 20.5341C46.0066 20.8902 46.196 21.3182 46.196 21.8182C46.196 22.3182 46.0066 22.7462 45.6278 23.1023C45.2566 23.4583 44.8097 23.6364 44.2869 23.6364ZM52.4716 44.1818C51.911 44.1818 51.4299 43.9811 51.0284 43.5795C50.6269 43.178 50.4261 42.697 50.4261 42.1364C50.4261 41.5758 50.6269 41.0947 51.0284 40.6932C51.4299 40.2917 51.911 40.0909 52.4716 40.0909C53.0322 40.0909 53.5133 40.2917 53.9148 40.6932C54.3163 41.0947 54.517 41.5758 54.517 42.1364C54.517 42.5076 54.4223 42.8485 54.233 43.1591C54.0511 43.4697 53.8049 43.7197 53.4943 43.9091C53.1913 44.0909 52.8504 44.1818 52.4716 44.1818Z" 
    fill="#FAB408"
  />
</svg>
