<svg width="1806" height="337" viewBox="0 0 1806 337" fill="none" xmlns="http://www.w3.org/2000/svg">
  <path 
    opacity="0.05" 
    d="M54.5077 336.474V280.224H72.2456C81.088 280.224 88.2258 279.159 93.659 277.028C99.0922 274.791 103.407 271.542 106.603 267.281C109.905 262.913 112.675 257.479 114.913 250.981L118.908 240.274L0.0155366 4.72726H71.6064L148.631 165.807L213.03 4.72726H283.663L170.843 267.76C165.41 279.905 158.964 291.197 151.507 301.638C144.156 312.078 134.728 320.494 123.222 326.886C111.717 333.278 97.0148 336.474 79.1171 336.474H54.5077ZM590.081 119.305H520.088C518.81 110.249 516.2 102.206 512.258 95.1747C508.316 88.0369 503.256 81.9645 497.077 76.9574C490.898 71.9503 483.76 68.115 475.664 65.4517C467.674 62.7884 458.991 61.4567 449.616 61.4567C432.677 61.4567 417.922 65.6648 405.351 74.081C392.78 82.3906 383.032 94.5355 376.108 110.516C369.183 126.389 365.72 145.672 365.72 168.364C365.72 191.695 369.183 211.297 376.108 227.17C383.139 243.044 392.94 255.029 405.511 263.126C418.082 271.222 432.624 275.271 449.137 275.271C458.405 275.271 466.981 274.045 474.865 271.595C482.855 269.145 489.939 265.576 496.118 260.888C502.297 256.094 507.411 250.288 511.459 243.47C515.614 236.652 518.49 228.875 520.088 220.139L590.081 220.459C588.27 235.48 583.742 249.969 576.498 263.925C569.36 277.774 559.719 290.185 547.574 301.158C535.536 312.025 521.154 320.654 504.428 327.046C487.809 333.332 469.005 336.474 448.018 336.474C418.828 336.474 392.727 329.869 369.715 316.659C346.811 303.449 328.7 284.326 315.383 259.29C302.173 234.255 295.568 203.946 295.568 168.364C295.568 132.675 302.279 102.313 315.703 77.277C329.126 52.2415 347.343 33.1719 370.355 20.0682C393.366 6.85795 419.254 0.252829 448.018 0.252829C466.981 0.252829 484.559 2.91618 500.752 8.24289C517.052 13.5696 531.487 21.3466 544.059 31.5738C556.63 41.6946 566.857 54.1058 574.74 68.8075C582.73 83.5092 587.844 100.342 590.081 119.305ZM621.962 332V276.389L631.23 275.59C643.162 274.631 652.803 270.104 660.154 262.007C667.505 253.804 672.991 240.754 676.614 222.856C680.342 204.852 682.739 180.668 683.805 150.306L689.238 4.72726H911.361V332H844.085V60.1783H753.478L748.364 174.116C746.66 210.764 742.292 240.7 735.261 263.925C728.336 287.149 717.256 304.301 702.022 315.381C686.894 326.46 666.173 332 639.859 332H621.962ZM1003.73 336.474V280.224H1021.46C1030.31 280.224 1037.44 279.159 1042.88 277.028C1048.31 274.791 1052.63 271.542 1055.82 267.281C1059.12 262.913 1061.89 257.479 1064.13 250.981L1068.13 240.274L949.234 4.72726H1020.83L1097.85 165.807L1162.25 4.72726H1232.88L1120.06 267.76C1114.63 279.905 1108.18 291.197 1100.73 301.638C1093.37 312.078 1083.95 320.494 1072.44 326.886C1060.94 333.278 1046.23 336.474 1028.34 336.474H1003.73ZM1487.48 4.72726V61.7763H1339.51V332H1270.31V4.72726H1487.48ZM1531.79 4.72726H1600.82V210.551H1603.54L1744.96 4.72726H1805.53V332H1736.33V126.016H1733.94L1591.71 332H1531.79V4.72726Z" 
    fill="#1B1C1E"
  />
</svg>
